<?xml version="1.0" encoding="utf-8"?><svg xmlns="http://www.w3.org/2000/svg" xmlns:xlink="http://www.w3.org/1999/xlink"><symbol fill="none" viewBox="0 0 19.46 18.24" id="ico-favorite" xmlns="http://www.w3.org/2000/svg"><path d="M9.491 2.322l.736-.797C11.378.292 12.826-.12 14.464.038c2.236.216 3.535 1.57 4.2 3.59.576 1.754.379 3.487-.342 5.17-.66 1.543-1.65 2.866-2.779 4.092-1.79 1.942-3.849 3.569-6.004 5.082a.44.44 0 0 1-.065.028c-.548-.404-1.114-.808-1.667-1.229-1.753-1.331-3.414-2.763-4.85-4.438C1.895 11.093.974 9.762.448 8.2c-.666-1.971-.635-3.916.403-5.765C1.52 1.242 2.513.395 3.884.132c1.922-.368 3.651 0 5.008 1.528.196.219.392.433.6.662z" fill="#F60"/></symbol><symbol fill="none" viewBox="0 0 18.2 18.18" id="ico-gear" xmlns="http://www.w3.org/2000/svg"><g clip-path="url(#bclip0)"><path d="M17.552 10.59c-.5-.336-.996-.674-1.5-1.006a.317.317 0 0 1-.043-.034 7.015 7.015 0 0 0 0-1.115.367.367 0 0 1 .055-.045c.508-.334 1.012-.673 1.514-1.016.407-.278.519-.648.331-1.103-.22-.538-.445-1.076-.67-1.61-.214-.511-.543-.682-1.084-.575-.584.115-1.167.23-1.753.333a.217.217 0 0 1-.072-.002 7.11 7.11 0 0 0-.76-.758.49.49 0 0 1 .012-.148c.12-.577.235-1.153.34-1.731.09-.497-.088-.815-.55-1.008a204.75 204.75 0 0 0-1.63-.675c-.485-.2-.835-.094-1.13.34-.338.498-.676.994-1.009 1.495a.35.35 0 0 1-.048.06 7.203 7.203 0 0 0-1.103 0 .346.346 0 0 1-.055-.067c-.33-.502-.669-1-1.008-1.499C7.105.008 6.744-.1 6.274.093 5.74.312 5.21.534 4.68.756c-.522.218-.692.538-.58 1.097.116.583.231 1.166.336 1.751a.195.195 0 0 1 0 .048c-.281.239-.543.5-.783.78a.397.397 0 0 1-.06-.008c-.582-.12-1.167-.23-1.75-.344-.539-.102-.86.07-1.07.57L.107 6.24c-.205.491-.1.846.34 1.144.488.33.974.663 1.466.987a.5.5 0 0 1 .077.06 7.136 7.136 0 0 0-.002 1.123.445.445 0 0 1-.056.044 80.1 80.1 0 0 0-1.56 1.053c-.325.226-.456.588-.318.944.246.631.506 1.257.78 1.877a.778.778 0 0 0 .872.447c.535-.096 1.072-.186 1.6-.315a.9.9 0 0 1 .357-.027c.238.276.496.533.773.77a.643.643 0 0 1-.015.132c-.12.577-.234 1.153-.339 1.732-.087.484.093.807.541.995.555.233 1.11.463 1.666.69.12.041.242.076.366.104.3-.02.527-.148.72-.432.342-.503.682-1.007 1.02-1.512a.42.42 0 0 1 .038-.05 7.303 7.303 0 0 0 1.135 0 .32.32 0 0 1 .035.045c.338.513.681 1.022 1.029 1.53.246.36.611.496 1.002.345a48.06 48.06 0 0 0 1.843-.765.769.769 0 0 0 .455-.866c-.112-.636-.243-1.268-.356-1.904a.192.192 0 0 1 0-.052c.28-.239.54-.5.778-.779a.52.52 0 0 1 .133.013c.577.12 1.153.23 1.732.338.491.09.819-.09 1.011-.547.228-.543.453-1.086.676-1.63.2-.486.086-.847-.353-1.144zM9 12.152a3.156 3.156 0 0 1-3.095-3.767 3.152 3.152 0 0 1 4.301-2.298 3.154 3.154 0 0 1 1.024 5.142 3.155 3.155 0 0 1-2.23.923z" fill="#F60"/></g><defs><clipPath id="bclip0"><path fill="#fff" d="M0 0h18v18H0z"/></clipPath></defs></symbol><symbol fill="none" viewBox="0 0 17.14 19.93" id="ico-lc" xmlns="http://www.w3.org/2000/svg"><path d="M18 19.897c-1.11 0-2.18-.003-3.25 0-3.8.012-7.599.032-11.397.036-.72 0-1.438-.067-2.157-.1-.207-.01-.34-.076-.336-.318.033-1.92.295-3.788 1.405-5.42.684-1.005 1.638-1.705 2.742-2.202a1.082 1.082 0 0 1 .937.012c.973.454 1.965.884 2.919 1.384.436.23.763.23 1.198 0 .919-.486 1.878-.895 2.814-1.35.469-.228.9-.142 1.335.085 1.771.918 2.932 2.316 3.429 4.272.296 1.175.31 2.363.361 3.6zm-8.57-9.53A5.183 5.183 0 1 0 9.43 0a5.183 5.183 0 0 0 0 10.367z" fill="#F60"/></symbol></svg>