<svg width="88" height="57" viewBox="0 0 88 57" fill="none" xmlns="http://www.w3.org/2000/svg">
<path d="M38.3676 19.5525V49.4236C38.3676 52.0034 36.1952 54.1758 33.6154 54.1758H30.221C27.6412 54.1758 25.4688 52.0034 25.4688 49.4236V19.5525" stroke="#FF6600" stroke-width="1.5" stroke-miterlimit="10"/>
<path d="M31.9854 33.8091V54.1757" stroke="#FF6600" stroke-width="1.5" stroke-miterlimit="10"/>
<path d="M62.5366 39.9192V49.4236C62.5366 52.0034 60.3641 54.1758 57.7844 54.1758H54.3899C51.8101 54.1758 49.6377 52.0034 49.6377 49.4236V40.055" stroke="#FF6600" stroke-width="1.5" stroke-miterlimit="10"/>
<path d="M56.1543 40.3264V54.1757" stroke="#FF6600" stroke-width="1.5" stroke-miterlimit="10"/>
<path d="M14.8784 46.5721V50.2381C14.8784 52.4106 13.3848 54.1757 11.4839 54.1757H9.03995C7.13906 54.1757 5.64551 52.4106 5.64551 50.2381V46.7079" stroke="#FF6600" stroke-width="1.5" stroke-miterlimit="10"/>
<path d="M10.2607 46.9795V54.1757" stroke="#FF6600" stroke-width="1.5" stroke-miterlimit="10"/>
<path d="M83.1752 36.9321V51.3246C83.1752 53.497 81.6817 55.2621 79.7808 55.2621H77.3368C75.4359 55.2621 73.9424 53.497 73.9424 51.3246V37.0679" stroke="#FF6600" stroke-width="1.5" stroke-miterlimit="10"/>
<path d="M78.5576 42.6348V55.2621" stroke="#FF6600" stroke-width="1.5" stroke-miterlimit="10"/>
<path d="M1.16406 39.1044C2.52184 34.8953 3.74386 32.044 8.90341 32.1797C0.349413 20.3671 20.0372 19.5524 12.2979 32.1797C19.0867 32.3155 19.2225 31.3651 19.6299 23.0826C19.7657 15.8864 23.1601 12.0846 28.727 12.7635C20.0372 -1.90047 43.7983 -2.44358 35.6516 12.7635C40.5396 13.1709 42.9836 14.8002 43.7983 17.38V28.6495C45.1561 19.824 48.0074 13.714 53.3027 12.7635C42.8479 -1.90047 68.1025 -3.25825 58.4623 12.7635C64.0292 13.5782 67.831 19.1451 68.9172 30.9577C69.1887 32.3155 69.8677 33.4017 70.8181 33.6733C73.8052 34.2164 72.8548 31.7724 76.2492 31.7724C69.7319 20.3671 87.1114 20.3671 80.8656 31.7724C84.5316 31.9082 86.8398 35.0311 87.2472 42.6346" stroke="#FF6600" stroke-width="1.5" stroke-miterlimit="10"/>
<path d="M7.95472 35.3027C5.23917 38.0183 3.33828 41.2769 2.52361 45.2145C2.25206 46.4365 6.3254 46.9796 10.263 46.8438C14.0647 46.8438 17.7307 46.3007 17.4592 45.2145C16.2372 41.1412 14.6079 37.8825 12.5712 35.3027" stroke="#FF6600" stroke-width="1.5" stroke-miterlimit="10"/>
<path d="M51.8092 18.3306C48.5505 23.8975 46.3781 29.7359 45.0203 37.3394C44.6129 39.5119 50.7229 40.5981 56.5614 40.5981C62.1283 40.5981 67.6951 39.3761 67.2878 37.3394C65.5227 29.6001 62.9429 23.3543 59.9558 18.3306" stroke="#FF6600" stroke-width="1.5" stroke-miterlimit="10"/>
</svg>
