<svg width="65" height="42" viewBox="0 0 65 42" fill="none" xmlns="http://www.w3.org/2000/svg">
<path d="M28.4004 14.4792V36.4792C28.4004 38.3792 26.8004 39.9792 24.9004 39.9792H22.4004C20.5004 39.9792 18.9004 38.3792 18.9004 36.4792V14.4792" stroke="#FF6600" stroke-miterlimit="10"/>
<path d="M23.7002 24.9792V39.9792" stroke="#FF6600" stroke-miterlimit="10"/>
<path d="M46.2002 29.4792V36.4792C46.2002 38.3792 44.6002 39.9792 42.7002 39.9792H40.2002C38.3002 39.9792 36.7002 38.3792 36.7002 36.4792V29.5792" stroke="#FF6600" stroke-miterlimit="10"/>
<path d="M41.5 29.7792V39.9792" stroke="#FF6600" stroke-miterlimit="10"/>
<path d="M11.1008 34.3792V37.0792C11.1008 38.6792 10.0008 39.9792 8.60077 39.9792H6.80078C5.40078 39.9792 4.30078 38.6792 4.30078 37.0792V34.4792" stroke="#FF6600" stroke-miterlimit="10"/>
<path d="M7.7002 34.6792V39.9792" stroke="#FF6600" stroke-miterlimit="10"/>
<path d="M61.4006 27.2792V37.8792C61.4006 39.4792 60.3006 40.7792 58.9006 40.7792H57.1006C55.7006 40.7792 54.6006 39.4792 54.6006 37.8792V27.3792" stroke="#FF6600" stroke-miterlimit="10"/>
<path d="M58 31.4792V40.7793" stroke="#FF6600" stroke-miterlimit="10"/>
<path d="M1 28.8791C2 25.7791 2.90001 23.6791 6.70001 23.7791C0.400012 15.0791 14.9 14.4791 9.20001 23.7791C14.2 23.8791 14.3 23.1791 14.6 17.0791C14.7 11.7791 17.2 8.97914 21.3 9.47914C14.9 -1.32086 32.4 -1.72086 26.4 9.47914C30 9.77914 31.8 10.9791 32.4 12.8791V21.1791C33.4 14.6791 35.5 10.1791 39.4 9.47914C31.7 -1.32086 50.3 -2.32086 43.2 9.47914C47.3 10.0791 50.1 14.1791 50.9 22.8791C51.1 23.8791 51.6 24.6791 52.3 24.8791C54.5 25.2791 53.8 23.4791 56.3 23.4791C51.5 15.0791 64.3 15.0791 59.7 23.4791C62.4 23.5791 64.1 25.8791 64.4 31.4791" stroke="#FF6600" stroke-miterlimit="10"/>
<path d="M6.00069 26.0792C4.00069 28.0792 2.60069 30.4792 2.00069 33.3792C1.80069 34.2792 4.8007 34.6792 7.7007 34.5792C10.5007 34.5792 13.2007 34.1792 13.0007 33.3792C12.1007 30.3792 10.9007 27.9792 9.40071 26.0792" stroke="#FF6600" stroke-miterlimit="10"/>
<path d="M38.3004 13.5792C35.9004 17.6792 34.3004 21.9792 33.3004 27.5792C33.0004 29.1792 37.5004 29.9792 41.8004 29.9792C45.9004 29.9792 50.0003 29.0792 49.7003 27.5792C48.4003 21.8792 46.5004 17.2792 44.3004 13.5792" stroke="#FF6600" stroke-miterlimit="10"/>
</svg>
