<svg width="50" height="61" viewBox="0 0 50 61" fill="none" xmlns="http://www.w3.org/2000/svg">
<path d="M35.1994 21.6C40.8879 21.6 45.4994 16.9885 45.4994 11.2999C45.4994 5.61139 40.8879 1 35.1994 1C29.5109 1 24.8994 5.61139 24.8994 11.2999C24.8994 16.9885 29.5109 21.6 35.1994 21.6Z" stroke="#FF6600" stroke-miterlimit="10"/>
<path d="M24.2 19.8001C22.3 20.0001 20.4 20.5001 18.7 21.1001C16.4 18.8001 9.30001 16.7002 5.60001 18.4002C8.10001 20.4002 9.9 22.8001 10.8 26.0001C8.6 28.1001 7 30.7001 6.2 33.6001H3.5C2.1 33.6001 1 34.7001 1 36.1001V42.8001C1 44.2001 2.1 45.3001 3.5 45.3001H7.7C9 47.6001 11 49.7002 13.4 51.4002L12.8 58.1001C12.7 59.3001 13.6 60.3001 14.8 60.3001H19.9C21 60.3001 21.8 59.5001 21.9 58.5001L22.2 55.2001C23.9 55.5001 25.7 55.7001 27.5 55.7001C29.5 55.7001 31.4 55.5001 33.2 55.1001L33.5 58.4002C33.6 59.5002 34.6 60.4002 35.7 60.4002H40.4C41.7 60.4002 42.7 59.3001 42.6 58.0001L42 51.2001C46.5 47.9001 49.3 43.1001 49.3 37.8001C49.3 32.6001 46.6 27.8001 42.2 24.6001" stroke="#FF6600" stroke-miterlimit="10"/>
<path d="M15.2163 34.9131C16.5398 33.1442 16.6806 31.0128 15.5309 30.1525C14.3811 29.2923 12.3761 30.0288 11.0526 31.7977C9.72915 33.5665 9.58829 35.6979 10.7381 36.5581C11.8878 37.4184 13.8929 36.6819 15.2163 34.9131Z" fill="#FF6600"/>
<path d="M38.6998 14.1001H30.2998" stroke="#FF6600" stroke-miterlimit="10"/>
<path d="M32.7002 17.7999V6.09999C36.5002 5.89999 39.7002 6.09999 39.7002 9.09999C39.5002 11.1 36.5002 11.1999 32.7002 11.2999" stroke="#FF6600" stroke-miterlimit="10"/>
</svg>
