<svg width="156" height="164" viewBox="0 0 156 164" fill="none" xmlns="http://www.w3.org/2000/svg">
<g filter="url(#filter0_d)">
<path d="M67.8006 72.4C69.844 72.4 71.5005 70.7435 71.5005 68.7C71.5005 66.6566 69.844 65 67.8006 65C65.7571 65 64.1006 66.6566 64.1006 68.7C64.1006 70.7435 65.7571 72.4 67.8006 72.4Z" stroke="#FF6600" stroke-miterlimit="10"/>
<path d="M80.4 68.7L84.8 67.5L82.8 60L78 61.3C77.7 60.9 77.5 60.6 77.2 60.3L79.6 56.2L72.8 52.3L70.4 56.4C70 56.3 69.6 56.3 69.1 56.2L67.7 51L60.2 53L61.5 57.9C61.1 58.2 60.6 58.5 60.2 58.8L55.6 56.1L51.7 62.9L55.9 65.3C55.7 65.9 55.6 66.6 55.5 67.3L51 68.5L53 76L57.1 74.9C57.5 75.6 58 76.3 58.5 76.9L56.3 80.8L63.1 84.7L65.3 80.9C66.1 81.1 66.9 81.2 67.8 81.2L68.8 84.9L76.3 82.9L75.2 78.9C75.8 78.5 76.4 78 76.9 77.4L80.3 79.4L84.2 72.6L80.4 70.4C80.3 69.9 80.4 69.3 80.4 68.7Z" stroke="#FF6600" stroke-miterlimit="10"/>
<path d="M88.3006 100.6C90.3441 100.6 92.0005 98.9434 92.0005 96.9C92.0005 94.8565 90.3441 93.2 88.3006 93.2C86.2571 93.2 84.6006 94.8565 84.6006 96.9C84.6006 98.9434 86.2571 100.6 88.3006 100.6Z" stroke="#FF6600" stroke-miterlimit="10"/>
<path d="M100.701 98.7999L105.201 98.2999L104.401 90.4999L99.4006 90.9999C99.2006 90.5999 99.0006 90.2 98.7006 89.9L101.701 86.2L95.6006 81.2999L92.6006 84.9999C92.2006 84.8999 91.8006 84.6999 91.4006 84.5999L90.8006 79.2L83.0005 79.9999L83.6006 85.0999C83.1006 85.2999 82.7006 85.4999 82.2006 85.7999L78.0005 82.4999L73.1006 88.5999L76.9006 91.5999C76.6006 92.1999 76.4006 92.7999 76.2006 93.4999L71.6006 93.9999L72.4006 101.8L76.6006 101.3C76.9006 102.1 77.3006 102.8 77.7006 103.5L74.9006 107L81.0005 111.9L83.7006 108.5C84.5006 108.8 85.3006 109 86.1006 109.2L86.5005 113L94.3006 112.2L93.9006 108.1C94.6006 107.8 95.2006 107.4 95.8006 106.9L98.8006 109.3L103.701 103.2L100.201 100.4C100.501 100 100.601 99.3999 100.701 98.7999Z" stroke="#FF6600" stroke-miterlimit="10"/>
</g>
<defs>
<filter id="filter0_d" x="0.387695" y="0.388428" width="155.361" height="163.16" filterUnits="userSpaceOnUse" color-interpolation-filters="sRGB">
<feFlood flood-opacity="0" result="BackgroundImageFix"/>
<feColorMatrix in="SourceAlpha" type="matrix" values="0 0 0 0 0 0 0 0 0 0 0 0 0 0 0 0 0 0 127 0"/>
<feOffset/>
<feGaussianBlur stdDeviation="25"/>
<feColorMatrix type="matrix" values="0 0 0 0 1 0 0 0 0 0.4 0 0 0 0 0 0 0 0 1 0"/>
<feBlend mode="normal" in2="BackgroundImageFix" result="effect1_dropShadow"/>
<feBlend mode="normal" in="SourceGraphic" in2="effect1_dropShadow" result="shape"/>
</filter>
</defs>
</svg>
