<svg width="156" height="158" viewBox="0 0 156 158" fill="none" xmlns="http://www.w3.org/2000/svg">
<g filter="url(#filter0_d)">
<path d="M79.5996 82.7C79.5996 82.7 86.3996 89.8 86.6996 89.8C86.9996 89.8 97.4996 77.5 97.4996 77.5" stroke="#FF6600" stroke-miterlimit="10"/>
<path d="M86.7 98.3C83.2 101.9 78.4 104.7 72.9 107.1C58 98.9 51.9 91.2 51 83.7V56.8C59 57.3 66.4 55.6 72.9 51C79.1 55.7 86.4 57.5 94.8 56.8V64.6" stroke="#FF6600" stroke-miterlimit="10"/>
<path d="M61.7998 62.5C65.7998 62 69.5998 60.7 73.0998 58.2C77.7998 61.8 83.3998 63.0999 89.6998 62.5999V68.5999" stroke="#FF6600" stroke-miterlimit="10"/>
<path d="M81.4 96.3C79.1 98.1 76.2 99.6999 73.1 101.1C61.8 94.8999 57.1 88.9 56.5 83.2V68.2" stroke="#FF6600" stroke-miterlimit="10"/>
<path d="M78 73.7C80.8 70.3 85 68.2 89.8 68.2C98.3 68.2 105.1 75.1 105.1 83.5C105.1 91.9 98.2 98.8 89.8 98.8C81.4 98.8 74.5 91.9 74.5 83.5C74.5 82.6 74.6 81.7 74.7 80.8" stroke="#FF6600" stroke-miterlimit="10"/>
<path d="M72.8994 65.5V58.2" stroke="#FF6600" stroke-miterlimit="10"/>
<path d="M72.8994 93.5V101.1" stroke="#FF6600" stroke-miterlimit="10"/>
</g>
<defs>
<filter id="filter0_d" x="0.5" y="0.380371" width="155.1" height="157.276" filterUnits="userSpaceOnUse" color-interpolation-filters="sRGB">
<feFlood flood-opacity="0" result="BackgroundImageFix"/>
<feColorMatrix in="SourceAlpha" type="matrix" values="0 0 0 0 0 0 0 0 0 0 0 0 0 0 0 0 0 0 127 0"/>
<feOffset/>
<feGaussianBlur stdDeviation="25"/>
<feColorMatrix type="matrix" values="0 0 0 0 1 0 0 0 0 0.4 0 0 0 0 0 0 0 0 1 0"/>
<feBlend mode="normal" in2="BackgroundImageFix" result="effect1_dropShadow"/>
<feBlend mode="normal" in="SourceGraphic" in2="effect1_dropShadow" result="shape"/>
</filter>
</defs>
</svg>
