<svg width="58" height="56" viewBox="0 0 58 56" fill="none" xmlns="http://www.w3.org/2000/svg">
<path d="M56.8996 21.4399H42.5996V35.7399H56.8996V21.4399Z" stroke="#FF6600" stroke-miterlimit="10"/>
<path d="M10.0996 10.04V29.7401C11.3996 29.3401 12.6996 29.14 14.0996 29.14C21.3996 29.14 27.1996 35.0401 27.1996 42.2401C27.1996 43.8401 26.8996 45.4401 26.2996 46.9401H56.7996V10.04H10.0996V10.04Z" stroke="#FF6600" stroke-miterlimit="10"/>
<path d="M14.1 55.3401C21.3349 55.3401 27.2 49.4751 27.2 42.2402C27.2 35.0052 21.3349 29.1401 14.1 29.1401C6.86508 29.1401 1 35.0052 1 42.2402C1 49.4751 6.86508 55.3401 14.1 55.3401Z" stroke="#FF6600" stroke-miterlimit="10"/>
<path d="M49.7002 29.3398C50.2525 29.3398 50.7002 28.8921 50.7002 28.3398C50.7002 27.7876 50.2525 27.3398 49.7002 27.3398C49.1479 27.3398 48.7002 27.7876 48.7002 28.3398C48.7002 28.8921 49.1479 29.3398 49.7002 29.3398Z" stroke="#FF6600" stroke-miterlimit="10"/>
<path d="M7.5 42.2402H20.8" stroke="#FF6600" stroke-miterlimit="10"/>
<path d="M14.0996 35.6401V48.9402" stroke="#FF6600" stroke-miterlimit="10"/>
<path d="M49.7002 10.0398L48.4002 4.03977C47.9002 1.93977 45.8002 0.539742 43.7002 1.13974L10.2002 10.0398" stroke="#FF6600" stroke-miterlimit="10"/>
</svg>
