<svg width="59" height="59" viewBox="0 0 59 59" fill="none" xmlns="http://www.w3.org/2000/svg">
<path d="M13.2 2H1V58.5H13.2V2Z" stroke="#FF6600" stroke-miterlimit="10"/>
<path d="M57.9998 58.5H18.2998V2L57.9998 58.5Z" stroke="#FF6600" stroke-miterlimit="10"/>
<path d="M27.5998 49.2H18.2998V58.4999H27.5998V49.2Z" stroke="#FF6600" stroke-miterlimit="10"/>
<path d="M45.2002 58.4999C45.4002 54.1999 47.4002 51 51.2002 48.7" stroke="#FF6600" stroke-miterlimit="10"/>
<path d="M7.09999 5.69995H1" stroke="#FF6600" stroke-miterlimit="10"/>
<path d="M4.09999 8.30005H1" stroke="#FF6600" stroke-miterlimit="10"/>
<path d="M7.09999 10.9001H1" stroke="#FF6600" stroke-miterlimit="10"/>
<path d="M4.09999 13.4001H1" stroke="#FF6600" stroke-miterlimit="10"/>
<path d="M7.09999 16H1" stroke="#FF6600" stroke-miterlimit="10"/>
<path d="M4.09999 18.6001H1" stroke="#FF6600" stroke-miterlimit="10"/>
<path d="M7.09999 21.2H1" stroke="#FF6600" stroke-miterlimit="10"/>
<path d="M4.09999 23.7H1" stroke="#FF6600" stroke-miterlimit="10"/>
<path d="M7.09999 26.3H1" stroke="#FF6600" stroke-miterlimit="10"/>
<path d="M4.09999 28.9001H1" stroke="#FF6600" stroke-miterlimit="10"/>
<path d="M7.09999 31.5H1" stroke="#FF6600" stroke-miterlimit="10"/>
<path d="M4.09999 34.1001H1" stroke="#FF6600" stroke-miterlimit="10"/>
<path d="M7.09999 36.6001H1" stroke="#FF6600" stroke-miterlimit="10"/>
<path d="M4.09999 39.2H1" stroke="#FF6600" stroke-miterlimit="10"/>
<path d="M7.09999 41.8H1" stroke="#FF6600" stroke-miterlimit="10"/>
<path d="M4.09999 44.4001H1" stroke="#FF6600" stroke-miterlimit="10"/>
<path d="M7.09999 46.9001H1" stroke="#FF6600" stroke-miterlimit="10"/>
<path d="M4.09999 49.5H1" stroke="#FF6600" stroke-miterlimit="10"/>
<path d="M7.09999 52.1001H1" stroke="#FF6600" stroke-miterlimit="10"/>
<path d="M4.09999 54.7H1" stroke="#FF6600" stroke-miterlimit="10"/>
</svg>
