<svg width="59" height="60" viewBox="0 0 59 60" fill="none" xmlns="http://www.w3.org/2000/svg">
<path d="M53.2 58.9389H5.60001C3.10001 58.9389 1 56.9389 1 54.3389V21.5389V12.4389C1 9.9389 3.00001 7.83887 5.60001 7.83887H53.2C55.7 7.83887 57.8 9.8389 57.8 12.4389V21.8389V54.3389C57.8 56.8389 55.8 58.9389 53.2 58.9389Z" stroke="#FF6600" stroke-miterlimit="10"/>
<path d="M1.09961 21.5391H57.7996" stroke="#FF6600" stroke-miterlimit="10"/>
<path d="M19.7004 12.639H16.6004C15.4004 12.639 14.4004 11.639 14.4004 10.439V3.13898C14.4004 0.138978 19.7004 0.438978 19.7004 3.13898V7.83899" stroke="#FF6600" stroke-miterlimit="10"/>
<path d="M44.1998 12.639H40.9998C39.7998 12.639 38.7998 11.639 38.7998 10.439V3.13898C38.7998 0.138978 44.0998 0.438978 44.0998 3.13898V7.83899" stroke="#FF6600" stroke-miterlimit="10"/>
<path d="M16.2002 34.8389L21.4002 30.8389V49.4389" stroke="#FF6600" stroke-miterlimit="10"/>
<path d="M40.5002 31.8389H31.5002V39.1389C47.0002 36.9389 38.8002 55.7389 30.7002 45.8389" stroke="#FF6600" stroke-miterlimit="10"/>
</svg>
