<svg width="58" height="56" viewBox="0 0 58 56" fill="none" xmlns="http://www.w3.org/2000/svg">
<path d="M12.3 55.3378H4.19995C2.39995 55.3378 1 53.9378 1 52.1378V28.9378C1 27.1378 2.39995 25.7378 4.19995 25.7378H14.6C16.5 25.7378 18 27.3378 17.8 29.2378L15.4 52.4378C15.3 54.1378 13.9 55.3378 12.3 55.3378Z" stroke="#FF6600" stroke-miterlimit="10"/>
<path d="M19.5994 51.838C20.9994 53.538 22.8994 54.438 25.7994 54.538H46.5994C52.5994 54.538 52.8994 49.838 49.0994 47.838C48.9994 47.738 48.9994 47.538 49.1994 47.538C55.1994 47.038 55.6995 41.938 50.9995 39.838C50.8995 39.738 50.8995 39.538 50.9995 39.538C56.9995 38.938 57.0994 31.838 52.1994 30.538C52.0994 30.538 52.0994 30.338 52.1994 30.238C57.4994 29.238 59.2994 21.638 52.7994 21.338H38.5994L40.7994 7.338C41.4994 -1.262 33.1994 -0.962001 32.7994 7.338C30.9994 13.938 27.1994 21.038 21.6994 28.438H17.8994" stroke="#FF6600" stroke-miterlimit="10"/>
</svg>
