<svg width="166" height="161" viewBox="0 0 166 161" fill="none" xmlns="http://www.w3.org/2000/svg">
<g filter="url(#filter0_d)">
<path d="M76.1057 64.8519C78.2044 64.8519 79.9057 63.1506 79.9057 61.0519C79.9057 58.9533 78.2044 57.252 76.1057 57.252C74.007 57.252 72.3057 58.9533 72.3057 61.0519C72.3057 63.1506 74.007 64.8519 76.1057 64.8519Z" stroke="#FF6600" stroke-miterlimit="10"/>
<path d="M64.8058 73.8519C66.9045 73.8519 68.6059 72.1506 68.6059 70.0519C68.6059 67.9533 66.9045 66.252 64.8058 66.252C62.7072 66.252 61.0059 67.9533 61.0059 70.0519C61.0059 72.1506 62.7072 73.8519 64.8058 73.8519Z" stroke="#FF6600" stroke-miterlimit="10"/>
<path d="M64.8058 87.1518C66.9045 87.1518 68.6059 85.4504 68.6059 83.3517C68.6059 81.2531 66.9045 79.5518 64.8058 79.5518C62.7072 79.5518 61.0059 81.2531 61.0059 83.3517C61.0059 85.4504 62.7072 87.1518 64.8058 87.1518Z" stroke="#FF6600" stroke-miterlimit="10"/>
<path d="M82.6057 96.0521C84.7044 96.0521 86.4057 94.3508 86.4057 92.2521C86.4057 90.1535 84.7044 88.4521 82.6057 88.4521C80.507 88.4521 78.8057 90.1535 78.8057 92.2521C78.8057 94.3508 80.507 96.0521 82.6057 96.0521Z" stroke="#FF6600" stroke-miterlimit="10"/>
<path d="M95.806 86.5518C99.7273 86.5518 102.906 84.4475 102.906 81.8518C102.906 79.2561 99.7273 77.1519 95.806 77.1519C91.8848 77.1519 88.7061 79.2561 88.7061 81.8518C88.7061 84.4475 91.8848 86.5518 95.806 86.5518Z" stroke="#FF6600" stroke-miterlimit="10"/>
<path d="M114.606 73.9519C112.506 69.7519 92.9064 72.6519 92.2064 69.7519C90.7064 65.6519 99.7065 64.8519 102.906 60.0519C106.606 51.8519 77.7064 46.6519 63.5064 55.9519C48.8064 65.5519 48.4065 80.7519 55.4065 91.2519C57.9065 94.3519 60.7064 96.8519 63.7064 98.7519C67.2064 91.5519 72.9064 83.2519 77.7064 80.4519C81.2064 79.8519 74.6064 92.3519 68.5064 101.252C90.7064 110.852 119.806 94.3519 114.606 73.9519Z" stroke="#FF6600" stroke-miterlimit="10"/>
<path d="M77.5063 80.7516C83.1063 79.7516 62.6064 112.952 60.2064 110.052C59.5064 104.652 69.6063 85.3516 77.5063 80.7516Z" stroke="#FF6600" stroke-miterlimit="10"/>
<path d="M84.0057 69.1521C79.3057 68.0521 73.0058 76.5521 78.6058 80.4521C86.0058 82.9521 86.8057 70.8521 84.0057 69.1521Z" stroke="#FF6600" stroke-miterlimit="10"/>
</g>
<defs>
<filter id="filter0_d" x="0.5" y="0.500244" width="165.218" height="160.231" filterUnits="userSpaceOnUse" color-interpolation-filters="sRGB">
<feFlood flood-opacity="0" result="BackgroundImageFix"/>
<feColorMatrix in="SourceAlpha" type="matrix" values="0 0 0 0 0 0 0 0 0 0 0 0 0 0 0 0 0 0 127 0"/>
<feOffset/>
<feGaussianBlur stdDeviation="25"/>
<feColorMatrix type="matrix" values="0 0 0 0 1 0 0 0 0 0.4 0 0 0 0 0 0 0 0 1 0"/>
<feBlend mode="normal" in2="BackgroundImageFix" result="effect1_dropShadow"/>
<feBlend mode="normal" in="SourceGraphic" in2="effect1_dropShadow" result="shape"/>
</filter>
</defs>
</svg>
