<svg width="56" height="55" viewBox="0 0 56 55" fill="none" xmlns="http://www.w3.org/2000/svg">
<path d="M24.8405 51.05L7.84048 53.65C5.84048 53.95 3.94047 52.55 3.64047 50.55L1.0405 33.55C0.740496 31.55 2.14047 29.65 4.14047 29.35L21.1405 26.75C23.1405 26.45 25.0405 27.85 25.3405 29.85L27.9405 46.85C28.2405 48.85 26.8405 50.75 24.8405 51.05Z" stroke="#FF6600" stroke-miterlimit="10"/>
<path d="M41.041 53.75C48.4969 53.75 54.541 47.7058 54.541 40.25C54.541 32.7942 48.4969 26.75 41.041 26.75C33.5852 26.75 27.541 32.7942 27.541 40.25C27.541 47.7058 33.5852 53.75 41.041 53.75Z" stroke="#FF6600" stroke-miterlimit="10"/>
<path d="M33.1411 3.25L42.9411 19.55C44.8411 22.65 42.5411 26.65 38.9411 26.65H19.3411C15.7411 26.65 13.4411 22.65 15.3411 19.55L25.1411 3.25C26.9411 0.25 31.3411 0.25 33.1411 3.25Z" stroke="#FF6600" stroke-miterlimit="10"/>
</svg>
