<svg width="63" height="64" viewBox="0 0 63 64" fill="none" xmlns="http://www.w3.org/2000/svg">
<path d="M36.4139 52.4C50.6076 52.4 62.1139 40.8937 62.1139 26.7C62.1139 12.5063 50.6076 1 36.4139 1C22.2201 1 10.7139 12.5063 10.7139 26.7C10.7139 40.8937 22.2201 52.4 36.4139 52.4Z" stroke="#FF6600" stroke-miterlimit="10"/>
<path d="M29.8145 9C32.1145 8 34.7145 7.5 37.4145 7.5C48.0145 7.5 56.6145 16.1 56.6145 26.7C56.6145 27.9 56.5145 29 56.3145 30.1" stroke="#FF6600" stroke-miterlimit="10"/>
<path d="M17.1138 43.5999L1.31384 58.4998C0.913839 58.8998 0.913848 59.5998 1.21385 59.9998L3.81384 62.7999C4.21384 63.2999 5.01385 63.2999 5.41385 62.7999L20.2138 46.5999" stroke="#FF6600" stroke-miterlimit="10"/>
<path d="M26.5138 38.1H46.5138C49.7138 38.4 49.4138 33.7 46.5138 33.1L39.0138 30.8001V28.5001C40.9138 27.4001 41.5138 25.7001 41.5138 23.7001V18.8001C41.2138 13.4001 31.9138 13.6001 31.2138 18.8001V23.9001C31.3138 26.4001 32.5138 28.1001 34.0138 28.5001V30.9001L26.5138 33.1C23.8138 33.9 23.6138 37.9 26.5138 38.1Z" stroke="#FF6600" stroke-miterlimit="10"/>
</svg>
