<svg width="165" height="142" viewBox="0 0 165 142" fill="none" xmlns="http://www.w3.org/2000/svg">
<g filter="url(#filter0_d)">
<path d="M78.4004 64.4792V86.4792C78.4004 88.3792 76.8004 89.9792 74.9004 89.9792H72.4004C70.5004 89.9792 68.9004 88.3792 68.9004 86.4792V64.4792" stroke="#FF6600" stroke-miterlimit="10"/>
<path d="M73.7002 74.9792V89.9792" stroke="#FF6600" stroke-miterlimit="10"/>
<path d="M96.2002 79.4792V86.4792C96.2002 88.3792 94.6002 89.9792 92.7002 89.9792H90.2002C88.3002 89.9792 86.7002 88.3792 86.7002 86.4792V79.5792" stroke="#FF6600" stroke-miterlimit="10"/>
<path d="M91.5 79.7793V89.9793" stroke="#FF6600" stroke-miterlimit="10"/>
<path d="M61.1008 84.3792V87.0792C61.1008 88.6792 60.0008 89.9792 58.6008 89.9792H56.8008C55.4008 89.9792 54.3008 88.6792 54.3008 87.0792V84.4792" stroke="#FF6600" stroke-miterlimit="10"/>
<path d="M57.7002 84.6792V89.9792" stroke="#FF6600" stroke-miterlimit="10"/>
<path d="M111.401 77.2793V87.8793C111.401 89.4793 110.301 90.7793 108.901 90.7793H107.101C105.701 90.7793 104.601 89.4793 104.601 87.8793V77.3793" stroke="#FF6600" stroke-miterlimit="10"/>
<path d="M108 81.4792V90.7793" stroke="#FF6600" stroke-miterlimit="10"/>
<path d="M51 78.8791C52 75.7791 52.9 73.6791 56.7 73.7791C50.4 65.0791 64.9 64.4791 59.2 73.7791C64.2 73.8791 64.3 73.1791 64.6 67.0791C64.7 61.7791 67.2 58.9791 71.3 59.4791C64.9 48.6791 82.4 48.2791 76.4 59.4791C80 59.7791 81.8 60.9791 82.4 62.8791V71.1791C83.4 64.6791 85.5 60.1791 89.4 59.4791C81.7 48.6791 100.3 47.6791 93.2 59.4791C97.3 60.0791 100.1 64.1791 100.9 72.8791C101.1 73.8791 101.6 74.6791 102.3 74.8791C104.5 75.2791 103.8 73.4791 106.3 73.4791C101.5 65.0791 114.3 65.0791 109.7 73.4791C112.4 73.5791 114.1 75.8791 114.4 81.4791" stroke="#FF6600" stroke-miterlimit="10"/>
<path d="M56.0007 76.0791C54.0007 78.0791 52.6007 80.4791 52.0007 83.3791C51.8007 84.2791 54.8007 84.6791 57.7007 84.5791C60.5007 84.5791 63.2007 84.1791 63.0007 83.3791C62.1007 80.3791 60.9007 77.9791 59.4007 76.0791" stroke="#FF6600" stroke-miterlimit="10"/>
<path d="M88.3004 63.5791C85.9004 67.6791 84.3004 71.9791 83.3004 77.5791C83.0004 79.1791 87.5004 79.9791 91.8004 79.9791C95.9004 79.9791 100 79.0791 99.7003 77.5791C98.4003 71.8791 96.5004 67.2791 94.3004 63.5791" stroke="#FF6600" stroke-miterlimit="10"/>
</g>
<defs>
<filter id="filter0_d" x="0.524414" y="0.5" width="164.375" height="140.779" filterUnits="userSpaceOnUse" color-interpolation-filters="sRGB">
<feFlood flood-opacity="0" result="BackgroundImageFix"/>
<feColorMatrix in="SourceAlpha" type="matrix" values="0 0 0 0 0 0 0 0 0 0 0 0 0 0 0 0 0 0 127 0"/>
<feOffset/>
<feGaussianBlur stdDeviation="25"/>
<feColorMatrix type="matrix" values="0 0 0 0 1 0 0 0 0 0.4 0 0 0 0 0 0 0 0 1 0"/>
<feBlend mode="normal" in2="BackgroundImageFix" result="effect1_dropShadow"/>
<feBlend mode="normal" in="SourceGraphic" in2="effect1_dropShadow" result="shape"/>
</filter>
</defs>
</svg>
