<svg width="143" height="144" viewBox="0 0 143 144" fill="none" xmlns="http://www.w3.org/2000/svg">
<g filter="url(#filter0_d)">
<path d="M53.3063 79.7998H89.7063C91.0063 79.7998 92.0063 80.7998 92.0063 82.0998V90.7998C92.0063 92.0998 91.0063 93.0998 89.7063 93.0998H53.3063C52.0063 93.0998 51.0063 92.0998 51.0063 90.7998V82.0998C50.9063 80.7998 52.0063 79.7998 53.3063 79.7998Z" stroke="#FF6600" stroke-miterlimit="10"/>
<path d="M90.0066 79.9C90.8066 79.9 91.5066 80.3 91.8066 81C92.1066 80.5 92.2066 79.9 92.0066 79.3L89.7066 72.3C89.3066 71.2 88.1066 70.6 87.0066 70.9L59.3066 79.9H90.0066V79.9Z" stroke="#FF6600" stroke-miterlimit="10"/>
<path d="M59.5055 79.8L87.1055 70.8C87.4055 70.7 87.7055 70.7 87.9055 70.7C88.3055 70 88.3055 69.1 87.7055 68.3L83.2055 62.4C82.5055 61.5 81.2055 61.3 80.2055 62L57.1055 79.7H59.5055V79.8Z" stroke="#FF6600" stroke-miterlimit="10"/>
<path d="M57.2059 79.8001L80.3059 62.1001C80.7059 61.8001 81.1059 61.7001 81.5059 61.7001C81.5059 61.0001 81.2059 60.4001 80.6059 59.9001L74.6059 55.6001C73.6059 54.9001 72.3059 55.2001 71.7059 56.1001L55.0059 79.7001H57.2059V79.8001Z" stroke="#FF6600" stroke-miterlimit="10"/>
<path d="M53.0066 79.8H54.9066L71.6066 56.2C71.9066 55.8 72.3066 55.5 72.8066 55.4C72.6066 55 72.2066 54.6 71.7066 54.4L64.8066 51.9C63.7066 51.5 62.5066 52.1 62.1066 53.2L52.3066 80C52.5066 79.9 52.8066 79.8 53.0066 79.8Z" stroke="#FF6600" stroke-miterlimit="10"/>
<path d="M52.307 79.9L62.107 53.1C62.307 52.7 62.507 52.3 62.907 52.1C62.507 51.5 61.907 51 61.107 51H53.307C52.107 51 51.207 51.9 51.207 53.1V81.1C51.307 80.6 51.707 80.2 52.307 79.9Z" stroke="#FF6600" stroke-miterlimit="10"/>
<path d="M58.107 88.9001C59.4325 88.9001 60.507 87.8256 60.507 86.5001C60.507 85.1746 59.4325 84.1001 58.107 84.1001C56.7815 84.1001 55.707 85.1746 55.707 86.5001C55.707 87.8256 56.7815 88.9001 58.107 88.9001Z" stroke="#FF6600" stroke-miterlimit="10"/>
</g>
<defs>
<filter id="filter0_d" x="0.5" y="0.5" width="142.111" height="143.1" filterUnits="userSpaceOnUse" color-interpolation-filters="sRGB">
<feFlood flood-opacity="0" result="BackgroundImageFix"/>
<feColorMatrix in="SourceAlpha" type="matrix" values="0 0 0 0 0 0 0 0 0 0 0 0 0 0 0 0 0 0 127 0"/>
<feOffset/>
<feGaussianBlur stdDeviation="25"/>
<feColorMatrix type="matrix" values="0 0 0 0 1 0 0 0 0 0.4 0 0 0 0 0 0 0 0 1 0"/>
<feBlend mode="normal" in2="BackgroundImageFix" result="effect1_dropShadow"/>
<feBlend mode="normal" in="SourceGraphic" in2="effect1_dropShadow" result="shape"/>
</filter>
</defs>
</svg>
