<svg width="56" height="64" viewBox="0 0 56 64" fill="none" xmlns="http://www.w3.org/2000/svg">
<path d="M17.8006 22.4C19.844 22.4 21.5005 20.7435 21.5005 18.7C21.5005 16.6566 19.844 15 17.8006 15C15.7571 15 14.1006 16.6566 14.1006 18.7C14.1006 20.7435 15.7571 22.4 17.8006 22.4Z" stroke="#FF6600" stroke-miterlimit="10"/>
<path d="M30.4 18.7L34.8 17.5L32.8 10L28 11.3C27.7 10.9 27.5 10.6 27.2 10.3L29.6 6.20001L22.8 2.29999L20.4 6.40002C20 6.30002 19.6 6.30001 19.1 6.20001L17.7 1L10.2 3L11.5 7.90002C11.1 8.20002 10.6 8.49999 10.2 8.79999L5.60001 6.09998L1.69998 12.9L5.89999 15.3C5.69999 15.9 5.6 16.6 5.5 17.3L1 18.5L3 26L7.10001 24.9C7.50001 25.6 8 26.3 8.5 26.9L6.29999 30.8L13.1 34.7L15.3 30.9C16.1 31.1 16.9 31.2 17.8 31.2L18.8 34.9L26.3 32.9L25.2 28.9C25.8 28.5 26.4 28 26.9 27.4L30.3 29.4L34.2 22.6L30.4 20.4C30.3 19.9 30.4 19.3 30.4 18.7Z" stroke="#FF6600" stroke-miterlimit="10"/>
<path d="M38.3006 50.5999C40.3441 50.5999 42.0005 48.9434 42.0005 46.9C42.0005 44.8565 40.3441 43.2 38.3006 43.2C36.2571 43.2 34.6006 44.8565 34.6006 46.9C34.6006 48.9434 36.2571 50.5999 38.3006 50.5999Z" stroke="#FF6600" stroke-miterlimit="10"/>
<path d="M50.7006 48.7999L55.2006 48.2999L54.4006 40.4999L49.4006 40.9999C49.2006 40.5999 49.0006 40.2 48.7006 39.9L51.7006 36.2L45.6006 31.2999L42.6006 34.9999C42.2006 34.8999 41.8006 34.6999 41.4006 34.5999L40.8006 29.2L33.0005 29.9999L33.6006 35.0999C33.1006 35.2999 32.7006 35.4999 32.2006 35.7999L28.0005 32.4999L23.1006 38.5999L26.9006 41.5999C26.6006 42.1999 26.4006 42.7999 26.2006 43.4999L21.6006 43.9999L22.4006 51.7999L26.6006 51.2999C26.9006 52.0999 27.3006 52.7999 27.7006 53.4999L24.9006 56.9999L31.0005 61.9L33.7006 58.4999C34.5006 58.7999 35.3006 59 36.1006 59.2L36.5005 62.9999L44.3006 62.2L43.9006 58.0999C44.6006 57.7999 45.2006 57.4 45.8006 56.9L48.8006 59.2999L53.7006 53.2L50.2006 50.4C50.5006 50 50.6006 49.3999 50.7006 48.7999Z" stroke="#FF6600" stroke-miterlimit="10"/>
</svg>
