<svg width="49" height="56" viewBox="0 0 49 56" fill="none" xmlns="http://www.w3.org/2000/svg">
<path d="M45.6 54.7H41.2C41.1 52.5 39.3 50.7 37 50.7H13.4C11.1 50.7 9.20001 52.4 9.10001 54.7H3.90002C2.30002 54.7 1 53.4 1 51.8V22.1V3.90002C1 2.30002 2.30002 1 3.90002 1H45.6C47.2 1 48.5 2.30002 48.5 3.90002V51.7C48.5 53.4 47.2 54.7 45.6 54.7Z" stroke="#FF6600" stroke-miterlimit="10"/>
<path d="M48.5 22.2998H1" stroke="#FF6600" stroke-miterlimit="10"/>
<path d="M48.5 44.2002H1" stroke="#FF6600" stroke-miterlimit="10"/>
<path d="M17.1006 8.7998V11.0997C17.1006 12.7997 18.5006 14.1997 20.2006 14.1997H29.4006C31.1006 14.1997 32.5006 12.7997 32.5006 11.0997V8.7998" stroke="#FF6600" stroke-miterlimit="10"/>
<path d="M17.1006 30.7002V33.0002C17.1006 34.7002 18.5006 36.1002 20.2006 36.1002H29.4006C31.1006 36.1002 32.5006 34.7002 32.5006 33.0002V30.7002" stroke="#FF6600" stroke-miterlimit="10"/>
</svg>
