<svg width="159" height="160" viewBox="0 0 159 160" fill="none" xmlns="http://www.w3.org/2000/svg">
<g filter="url(#filter0_d)">
<path d="M103.2 108.939H55.6C53.1 108.939 51 106.939 51 104.339V71.5389V62.4389C51 59.9389 53 57.8389 55.6 57.8389H103.2C105.7 57.8389 107.8 59.8389 107.8 62.4389V71.8389V104.339C107.8 106.839 105.8 108.939 103.2 108.939Z" stroke="#FF6600" stroke-miterlimit="10"/>
<path d="M51.0996 71.5391H107.8" stroke="#FF6600" stroke-miterlimit="10"/>
<path d="M69.7004 62.639H66.6004C65.4004 62.639 64.4004 61.639 64.4004 60.439V53.139C64.4004 50.139 69.7004 50.439 69.7004 53.139V57.839" stroke="#FF6600" stroke-miterlimit="10"/>
<path d="M94.1998 62.639H90.9998C89.7998 62.639 88.7998 61.639 88.7998 60.439V53.139C88.7998 50.139 94.0998 50.439 94.0998 53.139V57.839" stroke="#FF6600" stroke-miterlimit="10"/>
<path d="M66.2002 84.8389L71.4002 80.8389V99.4389" stroke="#FF6600" stroke-miterlimit="10"/>
<path d="M90.5002 81.8389H81.5002V89.1389C97.0002 86.9389 88.8002 105.739 80.7002 95.8389" stroke="#FF6600" stroke-miterlimit="10"/>
</g>
<defs>
<filter id="filter0_d" x="0.5" y="0.5" width="157.8" height="158.939" filterUnits="userSpaceOnUse" color-interpolation-filters="sRGB">
<feFlood flood-opacity="0" result="BackgroundImageFix"/>
<feColorMatrix in="SourceAlpha" type="matrix" values="0 0 0 0 0 0 0 0 0 0 0 0 0 0 0 0 0 0 127 0"/>
<feOffset/>
<feGaussianBlur stdDeviation="25"/>
<feColorMatrix type="matrix" values="0 0 0 0 1 0 0 0 0 0.4 0 0 0 0 0 0 0 0 1 0"/>
<feBlend mode="normal" in2="BackgroundImageFix" result="effect1_dropShadow"/>
<feBlend mode="normal" in="SourceGraphic" in2="effect1_dropShadow" result="shape"/>
</filter>
</defs>
</svg>
