<svg width="156" height="155" viewBox="0 0 156 155" fill="none" xmlns="http://www.w3.org/2000/svg">
<g filter="url(#filter0_d)">
<path d="M74.8405 101.05L57.8405 103.65C55.8405 103.95 53.9405 102.55 53.6405 100.55L51.0405 83.55C50.7405 81.55 52.1405 79.65 54.1405 79.35L71.1405 76.75C73.1405 76.45 75.0405 77.85 75.3405 79.85L77.9405 96.85C78.2405 98.85 76.8405 100.75 74.8405 101.05Z" stroke="#FF6600" stroke-miterlimit="10"/>
<path d="M91.041 103.75C98.4969 103.75 104.541 97.7058 104.541 90.25C104.541 82.7942 98.4969 76.75 91.041 76.75C83.5852 76.75 77.541 82.7942 77.541 90.25C77.541 97.7058 83.5852 103.75 91.041 103.75Z" stroke="#FF6600" stroke-miterlimit="10"/>
<path d="M83.1411 53.25L92.9411 69.55C94.8411 72.65 92.5411 76.65 88.9411 76.65H69.3411C65.7411 76.65 63.4411 72.65 65.3411 69.55L75.1411 53.25C76.9411 50.25 81.3411 50.25 83.1411 53.25Z" stroke="#FF6600" stroke-miterlimit="10"/>
</g>
<defs>
<filter id="filter0_d" x="0.5" y="0.5" width="154.541" height="153.75" filterUnits="userSpaceOnUse" color-interpolation-filters="sRGB">
<feFlood flood-opacity="0" result="BackgroundImageFix"/>
<feColorMatrix in="SourceAlpha" type="matrix" values="0 0 0 0 0 0 0 0 0 0 0 0 0 0 0 0 0 0 127 0"/>
<feOffset/>
<feGaussianBlur stdDeviation="25"/>
<feColorMatrix type="matrix" values="0 0 0 0 1 0 0 0 0 0.4 0 0 0 0 0 0 0 0 1 0"/>
<feBlend mode="normal" in2="BackgroundImageFix" result="effect1_dropShadow"/>
<feBlend mode="normal" in="SourceGraphic" in2="effect1_dropShadow" result="shape"/>
</filter>
</defs>
</svg>
