<svg width="158" height="156" viewBox="0 0 158 156" fill="none" xmlns="http://www.w3.org/2000/svg">
<g filter="url(#filter0_d)">
<path d="M62.3 105.338H54.2C52.4 105.338 51 103.938 51 102.138V78.9378C51 77.1378 52.4 75.7378 54.2 75.7378H64.6C66.5 75.7378 68 77.3378 67.8 79.2378L65.4 102.438C65.3 104.138 63.9 105.338 62.3 105.338Z" stroke="#FF6600" stroke-miterlimit="10"/>
<path d="M69.5994 101.838C70.9994 103.538 72.8994 104.438 75.7994 104.538H96.5994C102.599 104.538 102.899 99.838 99.0994 97.838C98.9994 97.738 98.9994 97.538 99.1994 97.538C105.199 97.038 105.699 91.938 100.999 89.838C100.899 89.738 100.899 89.538 100.999 89.538C106.999 88.938 107.099 81.838 102.199 80.538C102.099 80.538 102.099 80.338 102.199 80.238C107.499 79.238 109.299 71.638 102.799 71.338H88.5994L90.7994 57.338C91.4994 48.738 83.1994 49.038 82.7994 57.338C80.9994 63.938 77.1994 71.038 71.6994 78.438H67.8994" stroke="#FF6600" stroke-miterlimit="10"/>
</g>
<defs>
<filter id="filter0_d" x="0.5" y="0.5" width="156.969" height="155.338" filterUnits="userSpaceOnUse" color-interpolation-filters="sRGB">
<feFlood flood-opacity="0" result="BackgroundImageFix"/>
<feColorMatrix in="SourceAlpha" type="matrix" values="0 0 0 0 0 0 0 0 0 0 0 0 0 0 0 0 0 0 127 0"/>
<feOffset/>
<feGaussianBlur stdDeviation="25"/>
<feColorMatrix type="matrix" values="0 0 0 0 1 0 0 0 0 0.4 0 0 0 0 0 0 0 0 1 0"/>
<feBlend mode="normal" in2="BackgroundImageFix" result="effect1_dropShadow"/>
<feBlend mode="normal" in="SourceGraphic" in2="effect1_dropShadow" result="shape"/>
</filter>
</defs>
</svg>
