<svg width="50" height="59" viewBox="0 0 50 59" fill="none" xmlns="http://www.w3.org/2000/svg">
<path d="M13.47 40.1H1V58.0599H13.47V40.1Z" stroke="#FF6600" stroke-miterlimit="10"/>
<path d="M30.8763 33.95H18.4062V58.0599H30.8763V33.95Z" stroke="#FF6600" stroke-miterlimit="10"/>
<path d="M48.72 21.6499H36.25V58.0499H48.72V21.6499Z" stroke="#FF6600" stroke-miterlimit="10"/>
<path d="M3.67952 30.16C15.4688 25.7972 25.7852 18.1916 33.4395 8.22003C33.4395 8.22003 29.8495 5.21999 30.1695 5.04999C30.4895 4.87999 45.1695 1 45.1695 1L42.0495 16.51L38.7895 13.45C27.0295 24.12 15.3896 29.66 3.85958 30.88C3.7641 30.9039 3.66296 30.8888 3.57857 30.8382C3.49418 30.7876 3.43337 30.7055 3.4095 30.61C3.38563 30.5145 3.40074 30.4135 3.45137 30.3291C3.50201 30.2447 3.58404 30.1839 3.67952 30.16V30.16Z" stroke="#FF6600" stroke-miterlimit="10"/>
</svg>
