<svg width="57" height="56" viewBox="0 0 57 56" fill="none" xmlns="http://www.w3.org/2000/svg">
<path d="M41.3314 46.3601C49.5549 46.3601 56.2214 39.6936 56.2214 31.4701C56.2214 23.2465 49.5549 16.5801 41.3314 16.5801C33.1079 16.5801 26.4414 23.2465 26.4414 31.4701C26.4414 39.6936 33.1079 46.3601 41.3314 46.3601Z" stroke="#FF6600" stroke-miterlimit="10"/>
<path d="M38.4008 46.07C35.0708 49.45 30.5108 52.37 24.2808 55.29C5.17082 46.99 -0.909212 32.74 1.50079 7.88C9.65037 8.2028 17.6724 5.78001 24.2808 1C29.5675 5.75333 37.1608 7.80998 47.0608 7.16998C47.0608 10.99 47.0608 14.48 47.0608 17.68" stroke="#FF6600" stroke-miterlimit="10"/>
<path d="M33.0336 43.83C30.4091 45.8073 27.5714 47.4844 24.5735 48.83C9.91354 42.47 5.25357 31.53 7.10357 12.46C13.3506 12.7161 19.5026 10.8673 24.5735 7.20996C28.6335 10.86 34.4736 12.43 42.0536 11.95C42.0536 13.58 42.0536 15.1399 42.0536 16.6199" stroke="#FF6600" stroke-miterlimit="10"/>
<path d="M31.0234 31.47L38.0034 38.22L48.8134 25.92" stroke="#FF6600" stroke-miterlimit="10"/>
<path d="M24.5508 13.7799V7.17993" stroke="#FF6600" stroke-miterlimit="10"/>
<path d="M24.5508 48.8V42.2" stroke="#FF6600" stroke-miterlimit="10"/>
</svg>
