<svg width="58" height="56" viewBox="0 0 58 56" fill="none" xmlns="http://www.w3.org/2000/svg">
<path d="M12.25 55.3168H4.17993C3.33654 55.3168 2.52776 54.9817 1.9314 54.3854C1.33503 53.789 1 52.9802 1 52.1368V28.8968C1 28.0534 1.33503 27.2446 1.9314 26.6482C2.52776 26.0518 3.33654 25.7168 4.17993 25.7168H14.61C15.0543 25.7173 15.4934 25.811 15.8993 25.9916C16.3052 26.1723 16.6687 26.436 16.9664 26.7657C17.2641 27.0955 17.4894 27.484 17.6278 27.9061C17.7662 28.3283 17.8147 28.7748 17.77 29.2168L15.4199 52.4568C15.3362 53.2401 14.9666 53.965 14.3817 54.4927C13.7968 55.0204 13.0378 55.3138 12.25 55.3168V55.3168Z" stroke="#FF6600" stroke-miterlimit="10"/>
<path d="M19.6227 51.8268C20.3773 52.7095 21.3236 53.4081 22.3895 53.8691C23.4554 54.3301 24.6127 54.5414 25.7727 54.4869H46.5626C52.5626 54.4869 52.8626 49.7568 49.0826 47.7568C49.0558 47.7378 49.0356 47.711 49.0245 47.68C49.0135 47.6491 49.0123 47.6155 49.021 47.5838C49.0297 47.5521 49.048 47.5239 49.0734 47.503C49.0987 47.482 49.1298 47.4694 49.1626 47.4668C55.1626 47.0068 55.6727 41.8968 51.0027 39.7668C50.9744 39.7559 50.95 39.7368 50.9329 39.7118C50.9157 39.6868 50.9065 39.6571 50.9065 39.6268C50.9065 39.5965 50.9157 39.5669 50.9329 39.5419C50.95 39.5169 50.9744 39.4977 51.0027 39.4869C57.0027 38.9069 57.1226 31.7369 52.2026 30.4869C52.1682 30.4869 52.1351 30.4732 52.1107 30.4488C52.0863 30.4244 52.0726 30.3913 52.0726 30.3569C52.0726 30.3224 52.0863 30.2893 52.1107 30.2649C52.1351 30.2406 52.1682 30.2268 52.2026 30.2268C57.5126 29.2268 59.2727 21.6669 52.8527 21.3569H38.5526L40.7126 7.35685C41.3726 -1.28315 33.0626 -0.953148 32.7126 7.35685C30.9526 13.9969 27.1326 21.0568 21.5726 28.4768H17.7227" stroke="#FF6600" stroke-miterlimit="10"/>
</svg>
