<svg width="66" height="50" viewBox="0 0 66 50" fill="none" xmlns="http://www.w3.org/2000/svg">
<path d="M5.57031 48.64L23.2003 14.01L40.8203 48.64H5.57031Z" stroke="#FF6600" stroke-miterlimit="10"/>
<path d="M35.6211 38.4101L45.2411 20.8301L60.9211 48.6501H40.8212L35.6211 38.4101Z" stroke="#FF6600" stroke-miterlimit="10"/>
<path d="M34.5892 10.3101H23.1992V1.58008H34.5892L29.5892 5.94006L34.5892 10.3101Z" stroke="#FF6600" stroke-miterlimit="10"/>
<path d="M23.1992 14.01V0" stroke="#FF6600" stroke-miterlimit="10"/>
<path d="M0 48.64H65.1801" stroke="#FF6600" stroke-miterlimit="10"/>
<path d="M16.6211 26.9399L20.201 24.45C20.201 24.45 22.701 30.93 23.201 30.52C23.701 30.11 26.6011 27.02 26.6011 27.02L28.8911 29.27L30.0111 28.02" stroke="#FF6600" stroke-miterlimit="10"/>
<path d="M39.9297 30.53H42.8997L46.1396 33.01L50.2797 29.77" stroke="#FF6600" stroke-miterlimit="10"/>
</svg>
