<svg width="69" height="67" viewBox="0 0 69 67" fill="none" xmlns="http://www.w3.org/2000/svg">
<path d="M34.5723 8.45501V0" stroke="#FF6600" stroke-miterlimit="10"/>
<path d="M8.44316 33.9987H0" stroke="#FF6600" stroke-miterlimit="10"/>
<path d="M11.8246 22.0664L5.06055 17.0052" stroke="#FF6600" stroke-miterlimit="10"/>
<path d="M21.7572 12.2896L18.2441 4.60864" stroke="#FF6600" stroke-miterlimit="10"/>
<path d="M59.748 34.2369H68.2031" stroke="#FF6600" stroke-miterlimit="10"/>
<path d="M56.3652 22.3046L63.1293 17.2435" stroke="#FF6600" stroke-miterlimit="10"/>
<path d="M46.4434 12.5276L49.9564 4.84668" stroke="#FF6600" stroke-miterlimit="10"/>
<path d="M25.5803 53.5883H21.1861C19.3574 53.5883 17.6037 52.8618 16.3106 51.5687C15.0175 50.2756 14.291 48.5219 14.291 46.6932V31.0574C14.291 30.1524 14.4694 29.2564 14.8161 28.4205C15.1627 27.5847 15.6709 26.8254 16.3113 26.1861C16.9518 25.5468 17.7119 25.04 18.5484 24.6948C19.3849 24.3496 20.2812 24.1726 21.1861 24.1742" stroke="#FF6600" stroke-miterlimit="10"/>
<path d="M51.6947 39.3694V46.6931C51.6962 47.598 51.5193 48.4944 51.1741 49.3308C50.8289 50.1673 50.3222 50.9275 49.6829 51.5679C49.0436 52.2083 48.2842 52.7163 47.4483 53.063C46.6125 53.4097 45.7164 53.5882 44.8115 53.5882H40.2148" stroke="#FF6600" stroke-miterlimit="10"/>
<path d="M21.0312 66.2588V53.5883" stroke="#FF6600" stroke-miterlimit="10"/>
<path d="M44.5879 66.2588V53.5883" stroke="#FF6600" stroke-miterlimit="10"/>
<path d="M27.8789 21.9592V19.387C27.8789 18.0478 28.4108 16.7636 29.3577 15.8167C30.3046 14.8698 31.589 14.3378 32.9281 14.3378V14.3378C34.2672 14.3378 35.5516 14.8698 36.4985 15.8167C37.4454 16.7636 37.9773 18.0478 37.9773 19.387V32.4863C37.9773 33.8254 37.4454 35.1098 36.4985 36.0567C35.5516 37.0036 34.2672 37.5355 32.9281 37.5355V37.5355C32.0138 37.5358 31.1165 37.2879 30.3321 36.8181C29.5477 36.3483 28.9056 35.6742 28.4743 34.868" stroke="#FF6600" stroke-miterlimit="10"/>
<path d="M18.7559 20.9829C18.7559 19.6437 19.2879 18.3594 20.2348 17.4125C21.1817 16.4656 22.4659 15.9335 23.8051 15.9335V15.9335C24.4112 15.9307 25.0127 16.0397 25.5794 16.2551" stroke="#FF6600" stroke-miterlimit="10"/>
<path d="M40.2547 16.005C40.6073 15.9328 40.9665 15.8969 41.3265 15.8978V15.8978C41.989 15.8978 42.6449 16.0284 43.2568 16.2823C43.8687 16.5362 44.4246 16.9084 44.8925 17.3774C45.3604 17.8464 45.7313 18.4032 45.9837 19.0157C46.2362 19.6282 46.3653 20.2845 46.3637 20.947V32.3673C46.3653 33.0298 46.2362 33.6861 45.9837 34.2986C45.7313 34.9111 45.3604 35.4679 44.8925 35.9369C44.4246 36.4059 43.8687 36.7781 43.2568 37.0319C42.6449 37.2858 41.989 37.4164 41.3265 37.4164V37.4164C40.6482 37.4161 39.9765 37.2827 39.3496 37.0235" stroke="#FF6600" stroke-miterlimit="10"/>
<path d="M48.445 19.2798C49.7841 19.2798 51.0684 19.8117 52.0153 20.7586C52.9622 21.7055 53.4942 22.9898 53.4942 24.329V32.403C53.4942 33.7421 52.9622 35.0264 52.0153 35.9733C51.0684 36.9203 49.7841 37.4522 48.445 37.4522V37.4522C47.8695 37.4493 47.2983 37.3528 46.7539 37.1664" stroke="#FF6600" stroke-miterlimit="10"/>
<path d="M20.0918 24.1742H31.0477C32.0647 24.1742 33.04 24.5782 33.7591 25.2973C34.4782 26.0164 34.8822 26.9917 34.8822 28.0087V28.0683C34.8822 29.0853 34.4782 30.0606 33.7591 30.7797C33.04 31.4988 32.0647 31.9028 31.0477 31.9028L24.1884 32.2005L23.8907 38.0476" stroke="#FF6600" stroke-miterlimit="10"/>
<path d="M36.6706 47.4554C33.634 39.2028 28.3346 37.6784 22.166 38.8812" stroke="#FF6600" stroke-miterlimit="10"/>
<path d="M41.8135 40.0244C39.1455 40.4313 36.6985 41.7431 34.8828 43.7399" stroke="#FF6600" stroke-miterlimit="10"/>
</svg>
