<svg width="50" height="57" viewBox="0 0 50 57" fill="none" xmlns="http://www.w3.org/2000/svg">
<path d="M15.8783 19.9518C17.6879 19.9518 19.155 18.4848 19.155 16.6751C19.155 14.8654 17.6879 13.3984 15.8783 13.3984C14.0686 13.3984 12.6016 14.8654 12.6016 16.6751C12.6016 18.4848 14.0686 19.9518 15.8783 19.9518Z" stroke="#FF6600" stroke-miterlimit="10"/>
<path d="M27.0366 16.6751L30.9333 15.6124L29.1621 8.9704L24.9112 10.1217C24.6455 9.76743 24.4684 9.50175 24.2027 9.23607L26.3282 5.60513L20.3061 2.15127L18.1806 5.78226C17.8264 5.6937 17.4722 5.69369 17.0294 5.60513L15.7895 1L9.1475 2.7712L10.2988 7.11066C9.94456 7.37634 9.50174 7.64199 9.1475 7.90767L5.07376 5.51654L1.6199 11.5387L5.33943 13.6641C5.16231 14.1954 5.07376 14.8153 4.9852 15.4353L1 16.498L2.7712 23.14L6.40216 22.1659C6.7564 22.7858 7.1992 23.4057 7.642 23.9371L5.69367 27.3909L11.7158 30.8447L13.6641 27.4795C14.3725 27.6566 15.081 27.7451 15.8781 27.7451L16.7637 31.0219L23.4057 29.2507L22.4315 25.7083C22.9629 25.354 23.4942 24.9112 23.937 24.3799L26.9481 26.1511L30.4019 20.1289L27.0366 18.1807C26.9481 17.7379 27.0366 17.2065 27.0366 16.6751Z" stroke="#FF6600" stroke-miterlimit="10"/>
<path d="M34.0345 44.9257C35.8442 44.9257 37.3112 43.4587 37.3112 41.649C37.3112 39.8393 35.8442 38.3723 34.0345 38.3723C32.2249 38.3723 30.7578 39.8393 30.7578 41.649C30.7578 43.4587 32.2249 44.9257 34.0345 44.9257Z" stroke="#FF6600" stroke-miterlimit="10"/>
<path d="M45.017 43.3316L49.0022 42.8888L48.2938 35.9811L43.8658 36.4239C43.6886 36.0697 43.5115 35.7155 43.2458 35.4498L45.9026 32.1731L40.5005 27.8336L37.8437 31.1103C37.4894 31.0218 37.1352 30.8446 36.781 30.7561L36.2496 25.9739L29.3419 26.6823L29.8733 31.1989C29.4305 31.376 29.0762 31.5531 28.6334 31.8188L24.9139 28.8963L20.5745 34.2985L23.9398 36.9553C23.6741 37.4866 23.497 38.018 23.3198 38.6379L19.2461 39.0807L19.9546 45.9884L23.6741 45.5456C23.9398 46.2541 24.294 46.874 24.6482 47.4939L22.1686 50.5935L27.5707 54.933L29.9618 51.9219C30.6703 52.1876 31.3788 52.3647 32.0873 52.5419L32.4415 55.9071L39.3492 55.1987L38.995 51.5677C39.6149 51.302 40.1463 50.9478 40.6776 50.505L43.3344 52.6304L47.6738 47.2283L44.5742 44.7486C44.8399 44.3944 44.9285 43.863 45.017 43.3316Z" stroke="#FF6600" stroke-miterlimit="10"/>
</svg>
