<svg width="50" height="51" viewBox="0 0 50 51" fill="none" xmlns="http://www.w3.org/2000/svg">
<path d="M19.7274 17.9445V45.6002C19.7274 47.9886 17.7161 50 15.3276 50H12.1849C9.79648 50 7.78516 47.9886 7.78516 45.6002V17.9445" stroke="#FF6600" stroke-miterlimit="10"/>
<path d="M13.8203 31.1438V50" stroke="#FF6600" stroke-miterlimit="10"/>
<path d="M42.1063 36.8007V45.6002C42.1063 47.9887 40.095 50 37.7065 50H34.5638C32.1754 50 30.1641 47.9887 30.1641 45.6002V36.9264" stroke="#FF6600" stroke-miterlimit="10"/>
<path d="M36.1992 37.1777V49.9999" stroke="#FF6600" stroke-miterlimit="10"/>
<path d="M1 31.018C2.38184 29.9128 2.00471 28.8809 2.38184 21.2128C2.50754 14.5502 5.65026 11.0304 10.8043 11.659C2.75898 -1.9175 24.7578 -2.42033 17.2154 11.659C21.7408 12.0361 24.0036 13.5446 24.7578 15.933V26.3668C26.0149 18.1958 28.6548 12.5389 33.5574 11.659C23.8779 -1.9175 47.2595 -3.17458 38.3343 11.659C43.4883 12.4132 47.0081 17.5672 48.0138 28.5038C48.2652 29.7609 48.8938 30.7666 49.7737 31.018" stroke="#FF6600" stroke-miterlimit="10"/>
<path d="M32.1744 16.8131C29.1574 21.9671 27.146 27.3726 25.889 34.4122C25.5118 36.4235 31.1687 37.4292 36.5741 37.4292C41.7282 37.4292 46.8821 36.2978 46.505 34.4122C44.8708 27.2469 42.4824 21.4643 39.7168 16.8131" stroke="#FF6600" stroke-miterlimit="10"/>
</svg>
