<svg width="45" height="61" viewBox="0 0 45 61" fill="none" xmlns="http://www.w3.org/2000/svg">
<path d="M1 24.64V53.5601C1 54.4347 1.17226 55.3006 1.50696 56.1086C1.84165 56.9167 2.33218 57.651 2.95062 58.2694C3.56906 58.8878 4.3033 59.3783 5.11133 59.713C5.91936 60.0477 6.78537 60.22 7.65997 60.22H36.92C38.6846 60.2173 40.376 59.5146 41.6229 58.2659C42.8697 57.0172 43.57 55.3247 43.57 53.5601V24.64H1Z" stroke="#FF6600" stroke-miterlimit="10"/>
<path d="M43.56 17.66V7.66003C43.56 5.89542 42.8597 4.20293 41.6129 2.95422C40.366 1.70552 38.6746 1.00265 36.91 1H7.65997C5.89363 1 4.19961 1.70169 2.95062 2.95068C1.70163 4.19968 1 5.89369 1 7.66003V17.66H43.56Z" stroke="#FF6600" stroke-miterlimit="10"/>
<path d="M9.20172 7.53006C9.20172 7.13241 8.87936 6.81006 8.48172 6.81006C8.08407 6.81006 7.76172 7.13241 7.76172 7.53006V11.9201C7.76172 12.3177 8.08407 12.6401 8.48172 12.6401C8.87936 12.6401 9.20172 12.3177 9.20172 11.9201V7.53006Z" fill="#FF6600"/>
<path d="M9.20172 34.83C9.20172 34.4323 8.87936 34.11 8.48172 34.11C8.08407 34.11 7.76172 34.4323 7.76172 34.83V39.22C7.76172 39.6176 8.08407 39.94 8.48172 39.94C8.87936 39.94 9.20172 39.6176 9.20172 39.22V34.83Z" fill="#FF6600"/>
</svg>
