<svg width="70" height="70" viewBox="0 0 70 70" fill="none" xmlns="http://www.w3.org/2000/svg">
<path d="M45.3386 68.92C39.1644 68.92 33.243 66.4673 28.8772 62.1014C24.5113 57.7356 22.0586 51.8143 22.0586 45.64C22.4186 30.37 30.2786 15.86 45.0586 1H45.6186C59.7786 15.69 68.4686 30.55 68.6186 45.64C68.6186 48.6972 68.0164 51.7245 66.8465 54.549C65.6766 57.3734 63.9618 59.9397 61.8 62.1014C59.6383 64.2632 57.0719 65.978 54.2475 67.1479C51.423 68.3179 48.3958 68.92 45.3386 68.92V68.92Z" stroke="#FF6600" stroke-miterlimit="10"/>
<path d="M1 36.25C3.44 35.89 5.28 37.03 6.92 38.18C8.194 38.8128 9.60839 39.1099 11.0293 39.0434C12.4502 38.977 13.8306 38.549 15.04 37.8L16.82 36.7001C17.5247 36.263 18.3396 36.0364 19.1688 36.047C19.9979 36.0576 20.8068 36.305 21.5 36.76L22.5 37.43C23.8068 38.2746 25.3225 38.7395 26.8781 38.7731C28.4337 38.8066 29.968 38.4074 31.31 37.62C32.4164 36.7451 33.7476 36.2008 35.15 36.05" stroke="#FF6600" stroke-miterlimit="10"/>
<path d="M17.7383 51.0601C20.1783 50.7001 22.0283 51.84 23.6583 53C24.9328 53.6309 26.3469 53.927 27.7674 53.8605C29.188 53.794 30.5682 53.3671 31.7783 52.62L33.5583 51.52C34.2581 51.0763 35.0696 50.8407 35.8983 50.8407C36.7269 50.8407 37.5385 51.0763 38.2383 51.52L39.2383 52.1901C40.3803 52.9353 41.6894 53.3853 43.0483 53.5" stroke="#FF6600" stroke-miterlimit="10"/>
<path d="M26.5586 46.48C28.3322 46.6235 30.1053 46.1961 31.6186 45.26L33.3986 44.16C34.0984 43.7163 34.91 43.4807 35.7386 43.4807C36.5672 43.4807 37.3788 43.7163 38.0786 44.16L39.0786 44.8301C40.3842 45.6779 41.9003 46.1447 43.4566 46.1782C45.0129 46.2118 46.5477 45.8107 47.8886 45.02C49.0026 44.1517 50.3351 43.6084 51.7386 43.4501" stroke="#FF6600" stroke-miterlimit="10"/>
<path d="M1.39062 43.64C3.83063 43.28 5.68063 44.4201 7.32063 45.5701C8.59286 46.2028 10.0056 46.5 11.425 46.4335C12.8443 46.367 14.2231 45.939 15.4306 45.1901L17.2206 44.09" stroke="#FF6600" stroke-miterlimit="10"/>
<path d="M1 51.03C3.44 50.67 5.28 51.7999 6.92 52.9599C8.19438 53.592 9.60911 53.8881 11.03 53.82" stroke="#FF6600" stroke-miterlimit="10"/>
<path d="M1 58.42C3.44 58.06 5.28 59.19 6.92 60.35C8.194 60.9827 9.60839 61.2799 11.0293 61.2134C12.4502 61.1469 13.8306 60.7189 15.04 59.97L16.82 58.87C17.5246 58.4337 18.3386 58.2069 19.1673 58.2157C19.9959 58.2246 20.8049 58.4688 21.5 58.92L22.5 59.6C23.8068 60.4445 25.3225 60.9095 26.8781 60.943C28.4337 60.9765 29.968 60.5774 31.31 59.79C32.4164 58.9151 33.7476 58.3708 35.15 58.22" stroke="#FF6600" stroke-miterlimit="10"/>
</svg>
