<svg width="79" height="79" viewBox="0 0 79 79" fill="none" xmlns="http://www.w3.org/2000/svg">
<path d="M39.5281 16.2307C34.1632 20.0182 28.1014 21.3754 21.5352 20.9994V43.0826C22.2688 49.2362 27.2852 55.5915 39.5281 62.3412C51.771 55.6282 56.7874 49.2729 57.5211 43.0826V20.9994C50.9549 21.3754 44.893 20.0182 39.5281 16.2307Z" stroke="#FF6600" stroke-miterlimit="10"/>
<path d="M39.5262 77.7937C60.8037 77.7937 78.0525 60.5449 78.0525 39.2675C78.0525 17.99 60.8037 0.741211 39.5262 0.741211C18.2488 0.741211 1 17.99 1 39.2675C1 60.5449 18.2488 77.7937 39.5262 77.7937Z" stroke="#FF6600" stroke-miterlimit="10"/>
<path d="M42.8305 31.9399C38.6761 29.3538 35.769 31.408 35.4205 33.9758C35.1821 35.81 36.1908 37.8459 38.9146 38.7447C42.271 39.6617 43.4999 41.4958 43.4082 43.2658C43.2707 46.127 39.5106 48.5298 35.9157 45.2559" stroke="#FF6600" stroke-miterlimit="10"/>
<path d="M39.1172 27.6758V30.748" stroke="#FF6600" stroke-miterlimit="10"/>
<path d="M39.3984 46.5306V49.6028" stroke="#FF6600" stroke-miterlimit="10"/>
</svg>
