<svg width="79" height="79" viewBox="0 0 79 79" fill="none" xmlns="http://www.w3.org/2000/svg">
<path d="M39.5262 77.6726C60.8037 77.6726 78.0525 60.4238 78.0525 39.1463C78.0525 17.8689 60.8037 0.620117 39.5262 0.620117C18.2488 0.620117 1 17.8689 1 39.1463C1 60.4238 18.2488 77.6726 39.5262 77.6726Z" stroke="#FF6600" stroke-miterlimit="10"/>
<path d="M39.5243 62.2566C52.2877 62.2566 62.6346 51.9098 62.6346 39.1464C62.6346 26.3829 52.2877 16.0361 39.5243 16.0361C26.7609 16.0361 16.4141 26.3829 16.4141 39.1464C16.4141 51.9098 26.7609 62.2566 39.5243 62.2566Z" stroke="#FF6600" stroke-miterlimit="10"/>
<path d="M44.843 46.7399C46.0636 46.7399 47.0531 45.7504 47.0531 44.5297C47.0531 43.3091 46.0636 42.3196 44.843 42.3196C43.6223 42.3196 42.6328 43.3091 42.6328 44.5297C42.6328 45.7504 43.6223 46.7399 44.843 46.7399Z" stroke="#FF6600" stroke-miterlimit="10"/>
<path d="M35.0422 35.845C36.2628 35.845 37.2523 34.8554 37.2523 33.6348C37.2523 32.4142 36.2628 31.4247 35.0422 31.4247C33.8216 31.4247 32.832 32.4142 32.832 33.6348C32.832 34.8554 33.8216 35.845 35.0422 35.845Z" stroke="#FF6600" stroke-miterlimit="10"/>
<path d="M34.0859 46.749L45.7786 31.4247" stroke="#FF6600" stroke-miterlimit="10"/>
</svg>
