<svg width="157" height="157" viewBox="0 0 157 157" fill="none" xmlns="http://www.w3.org/2000/svg">
<g filter="url(#filter0_d)">
<path d="M58.3456 63.6063C53.1456 59.8063 58.7456 53.4063 63.7456 57.4063C67.8456 60.8063 63.0456 70.6062 55.1456 67.0062C46.9456 61.3062 52.1456 50.7062 60.0456 51.0062H78.3456" stroke="#FF6600" stroke-miterlimit="10"/>
<path d="M70.9453 69.7061V96.4061" stroke="#FF6600" stroke-miterlimit="10"/>
<path d="M87.2451 69.7061V96.4061" stroke="#FF6600" stroke-miterlimit="10"/>
<path d="M79.0449 69.7061V96.4061" stroke="#FF6600" stroke-miterlimit="10"/>
<path d="M62.6455 66.3062V96.4061" stroke="#FF6600" stroke-miterlimit="10"/>
<path d="M99.1455 63.6063C104.346 59.8063 98.7455 53.4063 93.7455 57.4063C89.6455 60.8063 94.4455 70.6062 102.346 67.0062C110.546 61.3062 105.346 50.7062 97.4455 51.0062H78.1455" stroke="#FF6600" stroke-miterlimit="10"/>
<path d="M94.8457 66.3062V96.4061" stroke="#FF6600" stroke-miterlimit="10"/>
<path d="M64.0449 64.8062H93.3449" stroke="#FF6600" stroke-miterlimit="10"/>
<path d="M65.2451 60.9062H92.2451" stroke="#FF6600" stroke-miterlimit="10"/>
<path d="M101.145 100.006H57.5449V106.006H101.145V100.006Z" stroke="#FF6600" stroke-miterlimit="10"/>
<path d="M97.7451 96.0063H60.7451V100.106H97.7451V96.0063Z" stroke="#FF6600" stroke-miterlimit="10"/>
</g>
<defs>
<filter id="filter0_d" x="0.5" y="0.5" width="156.491" height="156.006" filterUnits="userSpaceOnUse" color-interpolation-filters="sRGB">
<feFlood flood-opacity="0" result="BackgroundImageFix"/>
<feColorMatrix in="SourceAlpha" type="matrix" values="0 0 0 0 0 0 0 0 0 0 0 0 0 0 0 0 0 0 127 0"/>
<feOffset/>
<feGaussianBlur stdDeviation="25"/>
<feColorMatrix type="matrix" values="0 0 0 0 1 0 0 0 0 0.4 0 0 0 0 0 0 0 0 1 0"/>
<feBlend mode="normal" in2="BackgroundImageFix" result="effect1_dropShadow"/>
<feBlend mode="normal" in="SourceGraphic" in2="effect1_dropShadow" result="shape"/>
</filter>
</defs>
</svg>
