<svg width="69" height="69" viewBox="0 0 69 69" fill="none" xmlns="http://www.w3.org/2000/svg">
<path d="M42.3832 36.4041V68.0698H58.1503C61.4107 68.0698 64.1944 65.4175 64.1944 62.1571V36.4041H42.3832Z" fill="white"/>
<path d="M4.80542 36.4041V62.1571C4.80542 65.4175 7.45772 68.0698 10.7181 68.0698H26.6167V36.4041H4.80542Z" fill="white"/>
<path d="M62.2238 16.5648H54.1585C55.4091 14.9126 56.1797 12.8789 56.1797 10.6521C56.1797 5.21859 51.7588 0.797607 46.3253 0.797607C39.4478 0.797607 37.4565 5.75178 34.4999 13.2541C31.5433 5.75178 29.552 0.797607 22.6745 0.797607C17.241 0.797607 12.82 5.21859 12.82 10.6521C12.82 12.8789 13.5907 14.9126 14.8413 16.5648H6.77597C3.51558 16.5648 0.863281 19.2171 0.863281 22.4775V26.5506C0.863281 29.811 3.51558 32.4633 6.77597 32.4633H26.6163V16.5648H22.6745C19.4141 16.5648 16.7618 13.9125 16.7618 10.6521C16.7618 7.3917 19.4141 4.7394 22.6745 4.7394C26.7145 4.7394 27.8635 7.16255 30.8834 14.8249C31.0939 15.3599 31.3564 15.9947 31.5834 16.5648H30.5581C30.5581 45.955 30.5581 38.6676 30.5581 68.0708H38.4417C38.4417 21.9366 38.4417 29.3782 38.4417 16.5648H37.4165C37.6435 15.9945 37.9059 15.3599 38.1165 14.8249C41.1363 7.16255 42.2853 4.7394 46.3253 4.7394C49.5856 4.7394 52.2379 7.3917 52.2379 10.6521C52.2379 13.9125 49.5856 16.5648 46.3253 16.5648H42.3835V32.4633H62.2238C65.4842 32.4633 68.1365 29.811 68.1365 26.5506V22.4775C68.1365 19.2171 65.4842 16.5648 62.2238 16.5648Z" fill="white"/>
</svg>
