<svg width="50" height="51" viewBox="0 0 50 51" fill="none" xmlns="http://www.w3.org/2000/svg">
<path d="M45.1465 50H4.89031C2.77601 50 1 48.3085 1 46.1097V18.3701V10.6741C1 8.5598 2.69144 6.78376 4.89031 6.78376H45.1465C47.2608 6.78376 49.0368 8.47523 49.0368 10.6741V18.6238V46.1097C49.0368 48.224 47.3454 50 45.1465 50Z" stroke="#FF6600" stroke-miterlimit="10"/>
<path d="M1.08398 18.3703H49.0362" stroke="#FF6600" stroke-miterlimit="10"/>
<path d="M16.8153 10.8433H14.1936C13.1787 10.8433 12.333 9.99763 12.333 8.98276V2.80897C12.333 0.271818 16.8153 0.525533 16.8153 2.80897V6.78386" stroke="#FF6600" stroke-miterlimit="10"/>
<path d="M37.5347 10.8433H34.8284C33.8135 10.8433 32.9678 9.99763 32.9678 8.98276V2.80897C32.9678 0.271818 37.4501 0.525533 37.4501 2.80897V6.78386" stroke="#FF6600" stroke-miterlimit="10"/>
<path d="M13.8555 29.6182L18.2532 26.2353V41.9657" stroke="#FF6600" stroke-miterlimit="10"/>
<path d="M34.4062 27.081H26.7947V33.2548C39.9034 31.3942 32.9685 47.2937 26.1182 38.9211" stroke="#FF6600" stroke-miterlimit="10"/>
</svg>
