<svg width="1093" height="763" viewBox="0 0 1439 1024" fill="none" xmlns="http://www.w3.org/2000/svg">
<g id="kitchen-frame">
<g id="kitchen-img">
<path id="Vector" fill-rule="evenodd" clip-rule="evenodd" d="M148.056 771.07L987.522 503.277L1438.73 755.876L599.262 1023.67L578.099 1011.73L551.238 1020.41L393.058 932.235L420.19 923.552L577.828 1011.73L148.056 771.07Z" fill="#FF9B59"/>
<path id="Vector_2" fill-rule="evenodd" clip-rule="evenodd" d="M147.785 280.794L148.056 771.07L987.522 503.277V13L147.785 280.794Z" fill="#FFFFCC"/>
<path id="Vector_3" fill-rule="evenodd" clip-rule="evenodd" d="M1439 265.6L1438.73 755.876L987.522 503.277V13L1439 265.6Z" fill="#FFF3CC"/>
<path id="Vector_4" fill-rule="evenodd" clip-rule="evenodd" d="M1177.72 409.671L1144.89 419.981V261.259L1177.45 279.437L1177.72 409.671Z" fill="#E6E6E6"/>
<path id="Vector_5" fill-rule="evenodd" clip-rule="evenodd" d="M1177.72 409.671L1128.88 424.865L1272.41 505.447L1288.69 500.292V471.261L1177.72 409.671Z" fill="white"/>
<path id="Vector_6" fill-rule="evenodd" clip-rule="evenodd" d="M1288.69 341.841L1177.45 279.437L1177.72 409.671L1288.69 471.261V341.841Z" fill="#808080"/>
<path id="Vector_7" fill-rule="evenodd" clip-rule="evenodd" d="M1128.88 429.749V424.865L1272.41 505.447V510.331L1128.88 429.749Z" fill="#E6E6E6"/>
<path id="Vector_8" fill-rule="evenodd" clip-rule="evenodd" d="M1272.41 505.447L1288.69 500.292V505.447L1272.41 510.331V505.447Z" fill="#B3B3B3"/>
<path id="Vector_9" fill-rule="evenodd" clip-rule="evenodd" d="M550.967 684.79L578.099 676.379V1011.73L551.239 1020.41L550.967 684.79Z" fill="#CCCCCC"/>
<path id="Vector_10" d="M7.24023 816.109L148.056 771.07" stroke="#B3B3B3" stroke-width="5.90531"/>
<path id="Vector_11" d="M84.8379 614.789L148.056 594.712" stroke="#B3B3B3" stroke-width="5.90531"/>
<path id="Vector_12" d="M93.5205 612.076V788.435" stroke="#B3B3B3" stroke-width="5.90531"/>
<path id="Vector_13" d="M91.0786 610.72L95.9624 613.704" stroke="#B3B3B3" stroke-width="5.90531"/>
<path id="Vector_14" d="M91.0786 787.078L95.9624 790.063" stroke="#B3B3B3" stroke-width="5.90531"/>
<path id="Vector_15" fill-rule="evenodd" clip-rule="evenodd" d="M80.4969 711.108C80.7682 710.294 81.3108 709.752 81.8535 709.48C82.3961 709.209 82.9388 708.938 83.7527 708.938C84.5667 708.938 85.3807 709.209 85.9233 709.48C86.7373 710.023 87.0086 710.837 87.5512 711.651C87.8225 712.465 87.8225 713.279 87.8225 714.635C87.8225 715.721 87.8225 716.535 87.5512 717.62C87.0086 718.434 86.7373 718.977 85.9233 719.519C85.3807 720.062 84.5667 720.062 83.7527 720.062C82.9388 720.062 82.3961 720.062 81.8535 719.519C81.3108 719.248 80.7682 718.705 80.4969 717.891C80.2256 718.434 79.6829 718.977 79.4116 719.248C78.869 719.519 78.3263 719.791 77.5124 719.791C76.6984 719.791 76.1558 719.519 75.6131 718.977C75.0705 718.705 74.5278 717.891 74.2565 717.349C73.9852 716.535 73.7139 715.449 73.7139 714.635C73.7139 713.55 73.9852 712.736 74.2565 711.922C74.5278 711.108 75.0705 710.566 75.6131 710.023C76.1558 709.48 76.6984 709.48 77.5124 709.48C78.3263 709.48 78.869 709.48 79.4116 709.752C79.6829 710.023 80.2256 710.566 80.4969 711.108ZM75.8844 714.635C75.8844 715.449 75.8844 715.992 76.1558 716.535C76.6984 716.806 76.9697 717.077 77.7837 717.077C78.3263 717.077 78.869 716.806 79.1403 716.535C79.4116 715.992 79.6829 715.449 79.6829 714.635C79.6829 713.822 79.4116 713.008 79.1403 712.736C78.869 712.194 78.3263 711.922 77.7837 711.922C76.9697 711.922 76.6984 712.194 76.1558 712.736C75.8844 713.008 75.8844 713.822 75.8844 714.635ZM85.9233 714.635C85.9233 713.55 85.652 712.736 85.3807 712.194C84.838 711.651 84.2954 711.38 83.7527 711.38C82.9388 711.38 82.3961 711.651 82.1248 712.194C81.5822 712.736 81.5822 713.55 81.5822 714.635C81.5822 715.449 81.5822 716.263 82.1248 716.806C82.3961 717.349 82.9388 717.62 83.7527 717.62C84.2954 717.62 84.838 717.349 85.3807 716.806C85.652 716.263 85.9233 715.449 85.9233 714.635ZM79.4116 702.969C79.4116 701.069 79.6829 699.442 80.4969 698.628C81.3108 697.542 82.1248 697.271 83.4814 697.271C84.2954 697.271 85.1093 697.271 85.652 697.814C86.4659 698.085 87.0086 698.899 87.2799 699.713C87.8225 700.527 87.8225 701.341 87.8225 702.697C87.8225 703.511 87.8225 704.597 87.5512 705.411C87.2799 706.496 86.7373 707.31 86.4659 707.852L84.2954 706.767C84.838 706.225 85.1093 705.682 85.3807 704.868C85.652 704.054 85.652 703.511 85.652 702.697C85.652 701.883 85.652 701.069 85.1093 700.527C84.838 699.984 84.2954 699.713 83.4814 699.713C82.9388 699.713 82.3961 699.984 82.1248 700.527C81.5822 701.069 81.5822 702.155 81.5822 703.511V706.767L73.9852 706.225V698.085H76.1558V704.054L79.4116 704.325V702.969ZM87.8225 689.945C87.8225 691.031 87.5512 692.116 87.0086 692.93C86.4659 693.744 85.652 694.558 84.5667 694.829C83.4814 695.372 82.3961 695.643 80.7682 695.643C79.4116 695.643 78.055 695.372 76.9697 694.829C75.8844 694.558 75.0705 693.744 74.5278 692.93C73.9852 692.116 73.7139 691.031 73.7139 689.945C73.7139 688.86 73.9852 687.775 74.5278 686.961C75.0705 686.147 75.8844 685.333 76.9697 684.79C78.055 684.519 79.4116 684.248 80.7682 684.248C82.3961 684.248 83.4814 684.519 84.5667 684.79C85.652 685.333 86.4659 686.147 87.0086 686.961C87.5512 687.775 87.8225 688.86 87.8225 689.945ZM85.652 689.945C85.652 688.86 85.3807 688.046 84.5667 687.503C83.7527 686.961 82.3961 686.689 80.7682 686.689C79.1403 686.689 78.055 686.961 77.241 687.503C76.4271 688.046 75.8844 688.86 75.8844 689.945C75.8844 691.031 76.4271 691.573 77.241 692.387C78.055 692.93 79.1403 693.201 80.7682 693.201C82.3961 693.201 83.7527 692.93 84.5667 692.387C85.3807 691.573 85.652 691.031 85.652 689.945Z" fill="#B3B3B3"/>
<g id="Group">
<path id="Vector_16" d="M148.87 595.254L148.327 593.355L155.381 584.944L157.009 586.572L150.226 594.983L149.684 593.084L148.87 595.254ZM148.87 595.254L147.242 594.712L148.327 593.355L148.87 595.254ZM159.722 597.154L159.451 598.239L148.87 595.254L149.684 593.084L160.265 596.068L159.722 597.154ZM984.266 329.089L151.312 594.712L150.769 592.541L983.452 326.647L984.266 329.089ZM986.437 328.003L984.538 326.647L985.08 328.546L974.77 325.561L975.313 323.391L985.894 326.104L986.437 328.003ZM986.437 328.003L985.894 326.104L987.522 326.647L986.437 328.003ZM978.568 335.872L977.755 335.058L984.538 326.647L986.437 328.003L979.382 336.414L978.568 335.872Z" fill="#666666"/>
</g>
<path id="Vector_17" fill-rule="evenodd" clip-rule="evenodd" d="M795.427 79.2023H808.993V564.595C808.993 567.037 806.009 568.665 802.21 568.665C798.412 568.665 795.427 567.037 795.427 564.595V79.2023Z" fill="#CCCCCC"/>
<path id="Vector_18" d="M802.21 83.2721C805.956 83.2721 808.993 81.45 808.993 79.2023C808.993 76.9546 805.956 75.1324 802.21 75.1324C798.464 75.1324 795.427 76.9546 795.427 79.2023C795.427 81.45 798.464 83.2721 802.21 83.2721Z" fill="#999999"/>
<path id="Vector_19" fill-rule="evenodd" clip-rule="evenodd" d="M728.14 351.608L714.574 341.841L798.141 315.251C800.311 314.709 803.024 316.879 804.11 320.406C805.466 323.934 804.381 327.461 802.21 328.003L728.14 351.608Z" fill="#B3B3B3"/>
<path id="Vector_20" fill-rule="evenodd" clip-rule="evenodd" d="M714.574 341.841H727.868V472.617C727.868 475.059 724.884 476.687 721.357 476.687C717.558 476.687 714.574 475.059 714.574 472.617V341.841Z" fill="#B3B3B3"/>
<g id="Group_2">
<path id="Vector_21" d="M810.078 257.189L809.264 255.289L816.319 246.878L818.218 248.506L811.164 256.917L810.621 255.018L810.078 257.189ZM810.078 257.189L808.179 256.917L809.264 255.289L810.078 257.189ZM820.931 259.088L820.66 260.173L810.078 257.189L810.621 255.018L821.203 258.003L820.931 259.088ZM984.538 201.839L812.249 256.646L811.706 254.475L983.995 199.397L984.538 201.839ZM986.98 200.754L985.08 199.397L985.623 201.297L975.041 198.312L975.855 196.141L986.437 198.855L986.98 200.754ZM986.98 200.754L986.437 198.855L988.065 199.397L986.98 200.754ZM979.111 208.622L978.297 207.808L985.08 199.397L986.98 200.754L979.925 209.165L979.111 208.622Z" fill="#666666"/>
</g>
<g id="Group_3">
<path id="Vector_22" d="M1144.89 414.283L1143.8 415.911L1132.95 416.725L1132.68 414.283L1143.53 413.469L1142.72 415.369L1144.89 414.283ZM1144.89 414.283L1145.7 415.64L1143.8 415.911L1144.89 414.283ZM1138.65 405.058L1139.73 404.516L1144.89 414.283L1142.72 415.369L1137.56 405.601L1138.65 405.058ZM990.235 327.461L1142.72 412.927L1141.63 414.826L989.15 329.36L990.235 327.461ZM988.065 326.375V328.817L989.15 326.918L994.305 336.686L992.135 337.771L986.979 328.003L988.065 326.375ZM988.065 326.375L986.979 328.003L986.166 326.647L988.065 326.375ZM998.918 326.918L999.189 328.003L988.065 328.817V326.375L998.918 325.833V326.918Z" fill="#666666"/>
</g>
<path id="Vector_23" fill-rule="evenodd" clip-rule="evenodd" d="M610.658 215.948V247.421L673.604 227.343V195.87L610.658 215.948Z" fill="#B3B3B3"/>
<g id="Group_4">
<path id="Vector_24" d="M641.317 237.925H643.216L649.185 247.15L647.014 248.506L641.317 239.282H643.216L641.317 237.925ZM641.317 237.925L642.131 236.568L643.216 237.925H641.317ZM636.162 247.964L635.348 247.15L641.317 237.925L643.216 239.282L637.247 248.506L636.162 247.964ZM641.045 610.177V240.367H643.216V610.177H641.045ZM641.317 612.619L643.216 611.534H641.317L647.014 602.309L649.185 603.665L643.216 612.619H641.317ZM641.317 612.619H643.216L642.131 614.247L641.317 612.619ZM636.162 602.851L637.247 602.309L643.216 611.534L641.317 612.619L635.348 603.665L636.162 602.851Z" fill="#666666"/>
</g>
<g id="Group_5">
<path id="Vector_25" d="M148.87 380.097L148.327 378.198L155.381 369.787L157.009 371.143L150.226 379.554L149.684 377.926L148.87 380.097ZM148.87 380.097L147.242 379.554L148.327 378.198L148.87 380.097ZM159.722 381.725L159.451 382.81L148.87 380.097L149.684 377.926L160.265 380.64L159.722 381.725ZM607.944 233.855L151.312 379.554L150.498 377.384L607.13 231.685L607.944 233.855ZM610.115 232.77L608.487 231.413L609.03 233.312L598.448 230.328L598.991 228.157L609.572 230.871L610.115 232.77ZM610.115 232.77L609.572 230.871L611.472 231.413L610.115 232.77ZM602.247 240.638L601.433 239.824L608.487 231.413L610.115 232.77L603.332 241.452L602.247 240.638Z" fill="#666666"/>
</g>
<g id="Group_6">
<path id="Vector_26" d="M643.216 205.366H641.317L635.348 196.142L637.247 194.785L643.216 204.01H641.317L643.216 205.366ZM643.216 205.366L642.131 206.723L641.317 205.366H643.216ZM648.1 195.328L649.185 196.142L643.216 205.366L641.317 204.01L647.014 194.785L648.1 195.328ZM643.216 168.195V202.925H641.045V168.195L641.859 167.11L643.216 168.195ZM641.045 168.195V167.382L641.859 167.11L641.045 168.195ZM708.604 148.389L642.402 169.281L641.859 167.11L708.062 146.219L708.604 148.389Z" fill="#666666"/>
</g>
<g id="Group_7">
<path id="Vector_27" d="M673.875 212.692L674.689 211.064L685.542 209.436L686.085 211.607L675.232 213.235L676.046 211.607L673.875 212.692ZM673.875 212.692L673.062 211.335L674.689 211.064L673.875 212.692ZM680.93 221.374L679.845 221.917L673.875 212.692L676.046 211.607L682.015 220.832L680.93 221.374ZM692.325 221.103L676.046 214.049L677.131 211.878L693.139 218.932V221.103H692.325ZM693.139 221.103L692.597 221.374L692.325 221.103H693.139ZM748.217 203.739L693.139 221.103L692.325 218.932L747.403 201.297L748.217 203.739Z" fill="#666666"/>
</g>
<g id="Group_8">
<path id="Vector_28" d="M1208.65 475.873H1210.55L1216.52 485.098L1214.62 486.183L1208.65 477.23H1210.55L1208.65 475.873ZM1208.65 475.873L1209.46 474.245L1210.55 475.873H1208.65ZM1203.49 485.641L1202.68 485.098L1208.65 475.873L1210.55 477.23L1204.58 486.183L1203.49 485.641ZM1208.38 626.456V478.315H1210.82V626.456H1208.38ZM1208.65 628.898L1210.55 627.541H1208.65L1214.62 618.317L1216.52 619.673L1210.55 628.898H1208.65ZM1208.65 628.898H1210.55L1209.46 630.526L1208.65 628.898ZM1203.49 619.131L1204.58 618.317L1210.55 627.541L1208.65 628.898L1202.68 619.673L1203.49 619.131Z" fill="#666666"/>
</g>
<path id="Vector_29" d="M1272.41 505.447L1304.43 523.354" stroke="#666666" stroke-width="2.36212"/>
<path id="Vector_30" d="M1288.69 500.292L1320.16 518.199" stroke="#666666" stroke-width="2.36212"/>
<path id="Vector_31" d="M1301.71 524.168L1326.13 516.3" stroke="#666666" stroke-width="8.85795"/>
<g id="Group_9">
<path id="Vector_32" d="M1320.7 519.013L1319.89 517.114L1326.94 508.703L1328.84 510.331L1321.79 518.742L1321.25 516.843L1320.7 519.013ZM1320.7 519.013L1318.8 518.471L1319.89 517.114L1320.7 519.013ZM1331.56 520.912L1331.29 521.998L1320.7 519.013L1321.25 516.843L1331.83 519.827L1331.56 520.912ZM1346.48 510.874L1322.87 518.471L1322.33 516.3L1345.67 508.703L1346.48 510.874Z" fill="#666666"/>
</g>
<g id="Group_10">
<path id="Vector_33" d="M1301.71 525.254L1282.72 531.223L1282.18 529.052L1300.9 523.083L1301.71 525.254ZM1303.88 524.44L1302.25 522.812L1302.8 524.711L1292.22 521.998L1292.76 519.556L1303.34 522.54L1303.88 524.44ZM1303.88 524.44L1303.34 522.54L1304.97 523.083L1303.88 524.44ZM1296.01 532.037L1295.2 531.494L1302.25 522.812L1303.88 524.44L1297.1 532.851L1296.01 532.037Z" fill="#666666"/>
</g>
<g id="Group_11">
<path id="Vector_34" d="M393.058 860.335L391.973 862.234L381.12 862.777L380.849 860.606L391.973 859.792L390.888 861.42L393.058 860.335ZM393.058 860.335L393.872 861.963L391.973 862.234L393.058 860.335ZM386.818 851.381L387.903 850.838L393.058 860.335L390.888 861.42L385.733 851.924L386.818 851.381ZM151.312 724.946L390.888 858.978L389.802 861.149L150.226 727.116L151.312 724.946ZM149.141 723.86V726.302L150.226 724.674L155.381 734.171L153.211 735.256L148.056 725.76L149.141 723.86ZM149.141 723.86L148.056 725.76L147.242 724.132L149.141 723.86ZM159.994 724.403L160.265 725.488L149.141 726.302V723.86L159.994 723.318V724.403Z" fill="#666666"/>
</g>
<path id="Vector_35" d="M1 327.732L147.785 280.794" stroke="#B3B3B3" stroke-width="5.90531"/>
<path id="Vector_36" d="M20.8066 321.492V811.768" stroke="#B3B3B3" stroke-width="5.90531"/>
<path id="Vector_37" d="M18.3643 319.864L23.5194 322.848" stroke="#B3B3B3" stroke-width="5.90531"/>
<path id="Vector_38" d="M18.3643 810.14L23.5194 813.125" stroke="#B3B3B3" stroke-width="5.90531"/>
<path id="Vector_39" fill-rule="evenodd" clip-rule="evenodd" d="M393.059 596.611L420.191 587.657V923.552L393.059 932.235V596.611Z" fill="#CCCCCC"/>
<path id="Vector_40" fill-rule="evenodd" clip-rule="evenodd" d="M393.059 596.611L420.191 587.657L578.099 676.379L551.239 685.061L393.059 596.611Z" fill="#E6E6E6"/>
<path id="Vector_41" d="M255.797 715.303C260.327 719.373 269.492 716.558 276.268 709.017C283.044 701.475 284.865 692.062 280.335 687.992C275.805 683.922 266.64 686.736 259.864 694.278C253.088 701.819 251.267 711.233 255.797 715.303Z" fill="#6699FF"/>
<g id="Group_12">
<path id="Vector_42" d="M148.87 684.519L148.327 682.62L155.381 674.209L157.281 675.565L150.226 684.248L149.684 682.348L148.87 684.519ZM148.87 684.519L147.242 683.976L148.327 682.62L148.87 684.519ZM159.994 686.418L159.451 687.503L148.87 684.519L149.684 682.348L160.265 685.062L159.994 686.418ZM258.483 649.79L151.312 683.976L150.769 681.806L257.941 647.619L258.483 649.79ZM260.925 648.705L259.026 647.348L259.568 649.247L248.987 646.263L249.801 644.092L260.382 647.077L260.925 648.705ZM260.925 648.705L260.382 647.077L262.01 647.348L260.925 648.705ZM253.057 656.573L252.243 655.759L259.026 647.348L260.925 648.705L253.871 657.387L253.057 656.573Z" fill="#666666"/>
</g>
<path id="Vector_43" d="M262.335 674.865C264.451 676.766 268.732 675.451 271.897 671.929C275.062 668.406 275.913 664.009 273.797 662.108C271.681 660.207 267.4 661.522 264.235 665.044C261.07 668.567 260.219 672.964 262.335 674.865Z" fill="#6699FF"/>
<path id="Vector_44" d="M262.335 651.884C264.451 653.785 268.732 652.471 271.897 648.948C275.062 645.425 275.913 641.028 273.797 639.127C271.681 637.226 267.4 638.541 264.235 642.063C261.07 645.586 260.219 649.983 262.335 651.884Z" fill="#6699FF"/>
<path id="Vector_45" d="M270.15 638.394L304.608 627.27" stroke="#666666" stroke-width="5.90531"/>
<path id="Vector_46" d="M261.197 647.619V673.123" stroke="#666666" stroke-width="5.90531"/>
<g id="Group_13">
<path id="Vector_47" d="M295.926 630.526H297.825L303.794 639.751L301.895 641.107L295.926 631.883H297.825L295.926 630.526ZM295.926 630.526L297.011 629.169L297.825 630.526H295.926ZM291.042 640.294L289.957 639.751L295.926 630.526L297.825 631.883L291.856 641.107L291.042 640.294ZM295.926 720.604V632.968H298.096V720.604H295.926ZM295.926 723.046L297.825 721.69H295.926L301.895 712.465L303.794 713.821L297.825 723.046H295.926ZM295.926 723.046H297.825L297.011 724.403L295.926 723.046ZM291.042 713.007L291.856 712.465L297.825 721.69L295.926 723.046L289.957 713.821L291.042 713.007Z" fill="#666666"/>
</g>
<path id="Vector_48" d="M231.08 727.388L265.538 716.263" stroke="#666666" stroke-width="5.90531"/>
<path id="Vector_49" d="M231.08 744.752L265.538 733.628" stroke="#666666" stroke-width="5.90531"/>
<path id="Vector_50" d="M237.32 717.349V742.582" stroke="#666666" stroke-width="8.85795"/>
<g id="Group_14">
<path id="Vector_51" d="M236.235 721.69V700.527H238.677V721.69H236.235ZM236.506 724.132L238.405 722.775H236.506L242.475 713.822L244.374 714.907L238.405 724.132H236.506ZM236.506 724.132H238.405L237.32 725.76L236.506 724.132ZM231.351 714.364L232.436 713.822L238.405 722.775L236.506 724.132L230.537 714.907L231.351 714.364Z" fill="#666666"/>
</g>
<g id="Group_15">
<path id="Vector_52" d="M240.848 743.124L262.553 755.334L261.197 757.233L239.491 745.295L240.848 743.124ZM238.406 742.039L238.677 744.481L239.762 742.853L244.646 752.349L242.747 753.434L237.592 743.938L238.406 742.039ZM238.406 742.039L237.592 743.938L236.778 742.31L238.406 742.039ZM249.53 742.581V743.667L238.677 744.481L238.406 742.039L249.53 741.496V742.581Z" fill="#666666"/>
</g>

</g>



<g id="letter" class="letter">
	<g id="a" data-id="a">
		<g id="a_2">
			<circle id="Ellipse 2" cx="542.5" cy="468.5" r="22.5" fill="#666666"/>
			<text id="&#208;&#144;" fill="white" xml:space="preserve" style="white-space: pre" font-family="Montserrat" font-size="25" font-weight="800" letter-spacing="0em"><tspan x="532" y="477.462">&#x410;</tspan></text>

			<text fill="black" xml:space="preserve" style="white-space: pre; transform: translate(-30px, 40px)" font-family="Montserrat" font-size="25" font-weight="800" letter-spacing="0em"><tspan x="532" y="477.462">850 мм</tspan></text>
		</g>
	</g>
</g>

<g id="letter_2" class="letter">
<g data-id="d">
<circle id="Ellipse 4" cx="542.5" cy="255.5" r="22.5" fill="#666666"/>
<text id="&#208;&#148;" fill="white" xml:space="preserve" style="white-space: pre" font-family="Montserrat" font-size="25" font-weight="800" letter-spacing="0em"><tspan x="532" y="264.462">&#x414;</tspan></text>

<text fill="black" xml:space="preserve" style="white-space: pre; transform: translate(-30px, 40px)" font-family="Montserrat" font-size="25" font-weight="800" letter-spacing="0em"><tspan x="532" y="264.462">850 мм</tspan></text>
</g>
</g>

<g id="letter_3" class="letter">
<g id="e" data-id="e">
<circle id="Ellipse 5" cx="727.5" cy="143.5" r="22.5" fill="#666666"/>
<text id="&#208;&#149;" fill="white" xml:space="preserve" style="white-space: pre" font-family="Montserrat" font-size="25" font-weight="800" letter-spacing="0em"><tspan x="719" y="152.462">&#x415;</tspan></text>

<text fill="black" xml:space="preserve" style="white-space: pre; transform: translate(40px, 0px)" font-family="Montserrat" font-size="25" font-weight="800" letter-spacing="0em"><tspan x="719" y="152.462">850 мм</tspan></text>
</g>
</g>
<g id="letter_4" class="letter">
<g id="g" data-id="g">
<circle id="Ellipse 3" cx="649.5" cy="376.5" r="22.5" fill="#666666"/>
<text id="&#208;&#147;" fill="white" xml:space="preserve" style="white-space: pre" font-family="Montserrat" font-size="25" font-weight="800" letter-spacing="0em"><tspan x="642" y="385.462">&#x413;</tspan></text>


<text fill="black" xml:space="preserve" style="white-space: pre; transform: translate(-120px, 0px)" font-family="Montserrat" font-size="25" font-weight="800" letter-spacing="0em"><tspan x="642" y="385.462">850 мм</tspan></text>
</g>
</g>
<g id="letter_5" class="letter">
<g id="j" data-id="j">
<circle id="Ellipse 6" cx="758.5" cy="199.5" r="22.5" fill="#666666"/>
<text id="&#208;&#150;" fill="white" xml:space="preserve" style="white-space: pre" font-family="Montserrat" font-size="25" font-weight="800" letter-spacing="0em"><tspan x="745" y="208.462">&#x416;</tspan></text>


<text fill="black" xml:space="preserve" style="white-space: pre; transform: translate(45px, 0px)" font-family="Montserrat" font-size="25" font-weight="800" letter-spacing="0em"><tspan x="745" y="208.462">850 мм</tspan></text>
</g>
</g>
<g id="letter_6" class="letter">
<g id="b" data-id="b">
<circle id="Ellipse 7" cx="901.5" cy="227.5" r="22.5" fill="#666666"/>
<text id="&#208;&#145;" fill="white" xml:space="preserve" style="white-space: pre" font-family="Montserrat" font-size="25" font-weight="800" letter-spacing="0em"><tspan x="892" y="236.462">&#x411;</tspan></text>

<text fill="black" xml:space="preserve" style="white-space: pre; transform: translate(45px, 0px)" font-family="Montserrat" font-size="25" font-weight="800" letter-spacing="0em"><tspan x="892" y="236.462">850 мм</tspan></text>
</g>
</g>
<g id="letter_7" class="letter">
<g id="v" data-id="v">
<circle id="Ellipse 8" cx="1074.5" cy="366.5" r="22.5" fill="#666666"/>
<text id="&#208;&#146;" fill="white" xml:space="preserve" style="white-space: pre" font-family="Montserrat" font-size="25" font-weight="800" letter-spacing="0em"><tspan x="1065" y="375.462">&#x412;</tspan></text>

<text fill="black" xml:space="preserve" style="white-space: pre; transform: translate(45px, 0px)" font-family="Montserrat" font-size="25" font-weight="800" letter-spacing="0em"><tspan x="1065" y="375.462">850 мм</tspan></text>
</g>
</g>
<g id="letter_8" class="letter">
<g id="i" data-id="i">
<circle id="Ellipse 9" cx="1213.5" cy="546.5" r="22.5" fill="#666666"/>
<text id="&#208;&#152;" fill="white" xml:space="preserve" style="white-space: pre" font-family="Montserrat" font-size="25" font-weight="800" letter-spacing="0em"><tspan x="1203" y="555.462">&#x418;</tspan></text>


<text fill="black" xml:space="preserve" style="white-space: pre; transform: translate(15px, 40px)" font-family="Montserrat" font-size="25" font-weight="800" letter-spacing="0em"><tspan x="1203" y="555.462">850 мм</tspan></text>
</g>
</g>
<g id="letter_9" class="letter">
<g id="k" data-id="k">
<circle id="Ellipse 10" cx="1330.5" cy="548.5" r="22.5" fill="#666666"/>
<text id="&#208;&#154;" fill="white" xml:space="preserve" style="white-space: pre" font-family="Montserrat" font-size="25" font-weight="800" letter-spacing="0em"><tspan x="1321" y="557.462">&#x41a;</tspan></text>


<text fill="black" xml:space="preserve" style="white-space: pre; transform: translate(15px, 40px)" font-family="Montserrat" font-size="25" font-weight="800" letter-spacing="0em"><tspan x="1321" y="557.462">850 мм</tspan></text>
</g>
</g>
<g id="letter_10" class="letter">
<g id="l" data-id="l">
<g id="l_2">
<circle id="Ellipse 1" cx="27.5" cy="555.5" r="22.5" fill="#B4B4B4"/>
<text id="&#208;&#155;" fill="white" xml:space="preserve" style="white-space: pre" font-family="Montserrat" font-size="25" font-weight="800" letter-spacing="0em"><tspan x="16" y="565.462">&#x41b;</tspan></text>


<text fill="black" xml:space="preserve" style="white-space: pre; transform: translate(40px, 0px);" font-family="Montserrat" font-size="25" font-weight="800" letter-spacing="0em"><tspan x="16" y="565.462">850 мм</tspan></text>
</g>
</g>
</g>
<g id="letter_11" class="letter">
<g id="p" data-id="p">
<circle id="Ellipse 12" cx="210.5" cy="666.5" r="22.5" fill="#666666"/>
<text id="&#208;&#159;" fill="white" xml:space="preserve" style="white-space: pre" font-family="Montserrat" font-size="25" font-weight="800" letter-spacing="0em"><tspan x="200" y="675.462">&#x41f;</tspan></text>


<text fill="black" xml:space="preserve" style="white-space: pre; transform: translate(-40px, -40px);" font-family="Montserrat" font-size="25" font-weight="800" letter-spacing="0em"><tspan x="200" y="675.462">850 мм</tspan></text>
</g>
</g>
<g id="letter_12" class="letter">
<g id="r" data-id="r">
<circle id="Ellipse 11" cx="339.5" cy="668.5" r="22.5" fill="#666666"/>
<text id="&#208;&#160;" fill="white" xml:space="preserve" style="white-space: pre" font-family="Montserrat" font-size="25" font-weight="800" letter-spacing="0em"><tspan x="330" y="677.462">&#x420;</tspan></text>


<text fill="black" xml:space="preserve" style="white-space: pre; transform: translate(-27px, -47px)" font-family="Montserrat" font-size="25" font-weight="800" letter-spacing="0em"><tspan x="330" y="677.462">850 мм</tspan></text>
</g>
</g>
<g id="letter_13" class="letter">
<g id="n" data-id="n">
<circle id="Ellipse 14" cx="289.5" cy="798.5" r="22.5" fill="#666666"/>
<text id="&#208;&#157;" fill="white" xml:space="preserve" style="white-space: pre" font-family="Montserrat" font-size="25" font-weight="800" letter-spacing="0em"><tspan x="279" y="807.462">&#x41d;</tspan></text>

<text fill="black" xml:space="preserve" style="white-space: pre; transform: translate(-26px, 43px)" font-family="Montserrat" font-size="25" font-weight="800" letter-spacing="0em"><tspan x="279" y="807.462">850 мм</tspan></text>
</g>
</g>
<g id="letter_14" class="letter">
<g id="s" data-id="s">
<circle id="Ellipse 13" cx="210.5" cy="719.5" r="22.5" fill="#666666"/>
<text id="&#208;&#161;" fill="white" xml:space="preserve" style="white-space: pre" font-family="Montserrat" font-size="25" font-weight="800" letter-spacing="0em"><tspan x="201" y="728.462">&#x421;</tspan></text>


<text fill="black" xml:space="preserve" style="white-space: pre; transform: translate(-26px, 43px)" font-family="Montserrat" font-size="25" font-weight="800" letter-spacing="0em"><tspan x="201" y="728.462">850 мм</tspan></text>
</g>
</g>
</g>
<defs>
<filter id="filter0_d" x="158" y="326" width="441" height="111" filterUnits="userSpaceOnUse" color-interpolation-filters="sRGB">
<feFlood flood-opacity="0" result="BackgroundImageFix"/>
<feColorMatrix in="SourceAlpha" type="matrix" values="0 0 0 0 0 0 0 0 0 0 0 0 0 0 0 0 0 0 127 0"/>
<feOffset dy="4"/>
<feGaussianBlur stdDeviation="2"/>
<feColorMatrix type="matrix" values="0 0 0 0 0 0 0 0 0 0 0 0 0 0 0 0 0 0 0.25 0"/>
<feBlend mode="normal" in2="BackgroundImageFix" result="effect1_dropShadow"/>
<feBlend mode="normal" in="SourceGraphic" in2="effect1_dropShadow" result="shape"/>
</filter>
</defs>
</svg>
