<svg id="Слой_1" data-name="Слой 1" xmlns="http://www.w3.org/2000/svg" viewBox="0 0 160.24 159.76"><defs><style>.cls-1{fill:#247300;fill-rule:evenodd;}</style></defs><path class="cls-1" d="M138.56,120.36a9,9,0,0,0,12.68-4c2.16-4.22,1.46-9.82-4.15-12.7s-10.47-.3-12.67,4c-2.52,4.92-.82,10.12,4.14,12.66ZM144.92,108a4.6,4.6,0,1,1-4.18,8.16,4.6,4.6,0,1,1,4.18-8.16Zm-9.59,16.49c4.33,4.54,3.06,10-.31,13.19-2.72,2.59-7.1,4-11,.92l3.32-3.16a3.74,3.74,0,0,0,4.68-.87c2-1.91,1.93-4.58-.15-6.77a4.66,4.66,0,0,0-6.72-.44,3.79,3.79,0,0,0-.93,4.88l-3.32,3.17c-3.07-4.24-1.57-8.51,1.24-11.19,3.38-3.22,8.91-4.17,13.15.28Zm-18.12,21L110.79,133l-4.1,2.1,6.42,12.52-4,2,1.9,3.71,12.06-6.18-1.9-3.71-4,2Zm-31.74,5.35A9,9,0,0,0,96.66,158c4.62-1.07,8.45-5.21,7-11.36s-6.52-8.2-11.21-7.12c-5.38,1.24-8.27,5.89-7,11.32ZM99,147.71a4.6,4.6,0,1,1-8.94,2.06A4.6,4.6,0,1,1,99,147.71ZM75.51,141l-.6,4.7-3.26-.41a6.37,6.37,0,0,0-7.33,5.79c-.51,3.4,1.28,7.07,5.62,7.62,2.68.37,5.3.67,8,1l2.3-18.12-4.73-.6Zm-1,8.82-.66,5.19-3.33-.42c-1.29-.16-1.8-1.52-1.64-2.81s1.06-2.54,2.3-2.39l3.33.42ZM43.2,140.49A9,9,0,0,0,47.77,153c4.32,2,9.88,1,12.48-4.77s-.21-10.47-4.6-12.46c-5-2.27-10.15-.33-12.44,4.75Zm12.7,5.74a4.6,4.6,0,1,1-8.36-3.78,4.6,4.6,0,1,1,8.36,3.78ZM27,113.15l3.72,3.9c-.78,2.58-1.56,5.16-2.34,7.7a13.31,13.31,0,0,1,1.14,1l5-4.76,3.25,3.41-5,4.76a12.82,12.82,0,0,1,1,1.17l7.82-2,3.7,3.88-.51.49c-3.15.63-6.33,1.25-9.5,1.86-.07,1.51-.9,3-2.11,4.92-.67,1-.12,1.91.77,2.54l-2.32,2.21c-2.63-1.74-4.31-4.06-2.29-6.93.71-1,1.7-2.48,1.36-3.78a3.18,3.18,0,0,0-1-1.48L24.53,137l-3.25-3.41,5.13-4.89A3.28,3.28,0,0,0,25,127.66c-1.26-.38-2.8.54-3.84,1.18-2.94,1.9-5.18.12-6.79-2.59L16.64,124c.57.9,1.42,1.49,2.5.89,2-1.11,3.51-1.87,5-1.89.77-3.11,1.55-6.27,2.31-9.4l.51-.48ZM20.1,96.57,3.48,104.08l2,4.35,6-2.72,2.33,5.15-6,2.72,2,4.34,16.62-7.51-2-4.34-6.65,3-2.33-5.15,6.65-3-2-4.34ZM8.78,75.6A9,9,0,0,0,0,85.6c.36,4.73,3.88,9.14,10.17,8.66s9.09-5.21,8.72-10c-.42-5.51-4.58-9.06-10.14-8.64ZM9.84,89.5a4.6,4.6,0,1,1-.7-9.14,4.6,4.6,0,1,1,.7,9.14Zm9.71-19.74a2.39,2.39,0,1,0-2.78,2.1,2.39,2.39,0,0,0,2.78-2.1ZM13.8,71l.79-4.44L1.61,64,.7,69.07,13.8,71ZM12.85,44.3A4,4,0,0,1,17.57,42l-2.74,5.36,3.5,1.79L21,43.87a4.23,4.23,0,0,1,.75,5.22,3.82,3.82,0,0,1-4.45,2.29l-2.1,4.1c4.9,1.75,8.59-1,10.36-4.44,2.14-4.12,1.52-9.76-4-12.6A8.89,8.89,0,0,0,9,42.35c-1.73,3.39-1.76,8,2.26,10.85l2.09-4.08a3.89,3.89,0,0,1-.55-4.82ZM23.73,28.85l-3.09,3.24-3-2.88L27,19.41l3,2.88-3.07,3.22L37.1,35.22l-3.18,3.34L23.73,28.85ZM52.6,13.66a9,9,0,0,0-12.79-3.59C35.7,12.44,33.24,17.52,36.38,23s8.62,6,12.8,3.55c4.79-2.75,6.2-8,3.42-12.87ZM40.52,20.61a4.6,4.6,0,1,1,8-4.57,4.6,4.6,0,1,1-8,4.57ZM68.05,5.2c-.1-.75.7-1.3,1.56-1.41a1.64,1.64,0,0,1,1.94,1.4A1.66,1.66,0,0,1,70,7l-1.34.17L69.13,11l1.4-.18A2.09,2.09,0,1,1,71,14.9a2.31,2.31,0,0,1-2.73-2l-4.11.52c.52,4.08,3.35,5.9,7.33,5.4,4.73-.6,6.74-3.38,6.33-6.58a4.63,4.63,0,0,0-3.2-4.14,4.33,4.33,0,0,0,1.18-3.54c-.33-2.63-2.73-5-6.71-4.47-3.2.41-5.83,2.32-5.24,5.66l4.16-.53Zm24.1,11.45L92.93,19l4.89.62.08-.65L91.92.33,89.74.05,79.21,16.63l-.08.65,4.94.63,1.32-2.12,6.77.86ZM89.83,7.89l1.33,4.61L87.41,12l2.42-4.13ZM103.75,22.6l2-4.32,3,1.35a6.37,6.37,0,0,0,8.71-3.38c1.49-3.1.85-7.14-3.14-8.94-2.46-1.14-4.87-2.2-7.34-3.32L99.41,20.64l4.34,2Zm3.59-8.13L109.5,9.7l3.06,1.38c1.19.54,1.28,2,.74,3.17s-1.76,2.12-2.9,1.61l-3.06-1.38ZM123.6,32.74l-5.16-4.47-2.27,1L112.41,26l.43-.49,18-8L132.44,19l-5.37,18.86-.43.49-3.72-3.22.68-2.41Zm2.91-8.58-4.3,2.1,2.86,2.47,1.45-4.57ZM140.69,35c.62-.44,1.48,0,2,.71a1.64,1.64,0,0,1-.32,2.37,1.66,1.66,0,0,1-2.35-.5l-.79-1.1-3.1,2.2.82,1.15a2.09,2.09,0,1,1-3.38,2.4A2.31,2.31,0,0,1,134,38.9l-2.4-3.38c-3.35,2.39-3.62,5.74-1.3,9,2.76,3.89,6.16,4.35,8.79,2.48a4.63,4.63,0,0,0,2.13-4.78,4.33,4.33,0,0,0,3.68-.63c2.16-1.54,3.1-4.76.77-8-1.87-2.63-4.79-4-7.46-2L140.69,35Zm.23,32.2-1.53-4.52,6.91-2.34L144.49,55l-6.91,2.34-1.53-4.52L153.33,47l1.53,4.52-6.24,2.11L150.42,59l6.24-2.11,1.53,4.52-17.28,5.85Zm9.6,21.94a9,9,0,0,0,9.72-9.06c.12-4.74-2.94-9.48-9.24-9.64s-9.57,4.27-9.69,9.09c-.14,5.52,3.64,9.47,9.22,9.62Zm.35-13.93a4.6,4.6,0,1,1-.23,9.17,4.6,4.6,0,1,1,.23-9.17ZM139.52,94a2.39,2.39,0,1,0,2.88-2,2.39,2.39,0,0,0-2.88,2Zm5.81-1,13,2.6-1.17,5.05-12.83-3.26Z" transform="translate(0 0)"/></svg>