<svg width="17" height="17" viewBox="0 0 17 17" fill="none" xmlns="http://www.w3.org/2000/svg">
<path d="M16.6224 4.20489C16.6224 4.18692 16.6224 4.18692 16.6224 4.16895C16.6044 4.13301 16.6044 4.09707 16.5864 4.06113V4.04317C16.5685 4.00723 16.5325 3.97129 16.5146 3.95332L16.4966 3.93535C16.4786 3.91738 16.4427 3.89941 16.4247 3.88144L16.4067 3.86347H16.3888L16.3708 3.8455L8.73371 0.0539089C8.58995 -0.0179696 8.41025 -0.0179696 8.24853 0.0539089L5.67887 1.32975L13.3519 5.2651L13.3699 5.28307C13.3878 5.28307 13.3878 5.30104 13.4058 5.30104C13.4238 5.31901 13.4238 5.33698 13.4417 5.35495C13.4417 5.37292 13.4417 5.37292 13.4417 5.39089V5.40886V9.57781C13.4417 9.64969 13.4058 9.7036 13.3519 9.73954L11.8065 10.5482C11.7167 10.6021 11.6088 10.5661 11.5549 10.4763C11.537 10.4583 11.537 10.4224 11.537 10.3864V6.30734L3.77409 2.30011L3.75612 2.28214L0.647377 3.82753L0.629408 3.8455H0.611438L0.593468 3.86347C0.575499 3.88144 0.539559 3.89941 0.52159 3.91738L0.50362 3.93535C0.467681 3.97129 0.449711 4.00723 0.413772 4.04317V4.06113C0.395803 4.09707 0.377833 4.13301 0.377833 4.16895C0.377833 4.18692 0.377833 4.18692 0.377833 4.20489C0.377833 4.24083 0.359863 4.2588 0.359863 4.29474V4.31271V12.6866C0.359863 12.8842 0.467681 13.0819 0.665347 13.1717L8.23056 16.9454C8.33838 16.9993 8.46416 17.0172 8.58995 16.9813L8.62589 16.9633C8.66183 16.9633 8.6798 16.9454 8.71574 16.9274L16.3349 13.1538C16.5146 13.0639 16.6403 12.8842 16.6403 12.6686V4.31271V4.29474C16.6224 4.2588 16.6224 4.24083 16.6224 4.20489Z" fill="#FF6600"/>
</svg>
