<svg width="17" height="19" viewBox="0 0 17 19" fill="none" xmlns="http://www.w3.org/2000/svg">
<path d="M12.8413 9.59915L11.8254 8.58331L7.14875 13.26L5.11708 11.2283L4.10125 12.2441L7.14875 15.2916L12.8413 9.59915ZM15.2083 1.87498H14.25V-0.041687H12.3333V1.87498H4.66667V-0.041687H2.75V1.87498H1.79167C0.727917 1.87498 -0.115417 2.73748 -0.115417 3.79165L-0.125 17.2083C-0.125 18.2625 0.727917 19.125 1.79167 19.125H15.2083C16.2625 19.125 17.125 18.2625 17.125 17.2083V3.79165C17.125 2.73748 16.2625 1.87498 15.2083 1.87498ZM15.2083 17.2083H1.79167V6.66665H15.2083V17.2083Z" fill="#FF6600"/>
</svg>
