<svg width="17" height="17" viewBox="0 0 17 17" fill="none" xmlns="http://www.w3.org/2000/svg">
<g clip-path="url(#clip0)">
<path d="M16.9998 12.5507L15.8399 9.18018L13.6152 11.4901L16.9998 12.5507Z" fill="#FF6600"/>
<path d="M6.65527 4.81549L9.18293 2.28784L9.86545 2.97036L7.3378 5.49801L6.65527 4.81549Z" fill="#FF6600"/>
<path d="M12.7721 10.9315L15.2526 8.35598L10.5723 3.6748L8.04443 6.20299L12.7721 10.9315Z" fill="#FF6600"/>
<path d="M5.95064 4.10919L8.47853 1.58104L7.42047 0.522787C6.72361 -0.174279 5.58959 -0.174246 4.89269 0.522787C4.55511 0.860463 4.36914 1.3094 4.36914 1.78693C4.36914 2.26446 4.55508 2.71343 4.89269 3.05107L5.95064 4.10919Z" fill="#FF6600"/>
<path d="M0 17.0006H1.95503V15.4659H2.95262V17.0006H3.95034V15.4659H4.94793V17.0006H5.94562V15.4659H6.94321V17.0006H7.94093V15.4659H8.93851V17.0006H9.93623V15.4659H10.9338V17.0006H11.9315V15.4659H12.9291V17.0006H16.9966L0 0.00415039V17.0006ZM3.12913 7.47194L9.537 13.888H3.12913V7.47194Z" fill="#FF6600"/>
</g>
<defs>
<clipPath id="clip0">
<rect width="17" height="17" fill="white"/>
</clipPath>
</defs>
</svg>
