<svg width="17" height="17" viewBox="0 0 17 17" fill="none" xmlns="http://www.w3.org/2000/svg">
<g clip-path="url(#clip0)">
<path d="M16.6935 2.82035C16.5241 2.82035 16.3867 2.95771 16.3867 3.12715V16.3864H13.9335V15.6955H15.4018C15.5712 15.6955 15.7086 15.5582 15.7086 15.3887V9.96401C15.7086 9.79457 15.5712 9.65721 15.4018 9.65721H14.0908V8.97913H15.4018C15.5712 8.97913 15.7086 8.84177 15.7086 8.67234V1.58573C15.7086 1.41629 15.5712 1.27893 15.4018 1.27893H9.14612C8.97669 1.27893 8.83933 1.41629 8.83933 1.58573V6.0299H8.16122V1.58573C8.16122 1.41629 8.02386 1.27893 7.85442 1.27893H1.59879C1.42935 1.27893 1.29199 1.41629 1.29199 1.58573V7.35789V8.6723C1.29199 8.84174 1.42935 8.9791 1.59879 8.9791H2.70817C2.87761 8.9791 3.01497 8.84174 3.01497 8.6723C3.01497 8.50287 2.87761 8.36551 2.70817 8.36551H1.90559V7.66469H3.20748C4.29286 7.66469 5.17586 6.78168 5.17586 5.69634V1.89252H7.54763V6.3367C7.54763 6.50613 7.68499 6.64349 7.85442 6.64349H9.14612C9.31556 6.64349 9.45292 6.50613 9.45292 6.3367V1.89252H15.095V2.68183H14.2848C14.1153 2.68183 13.978 2.81919 13.978 2.98863V7.202C13.978 7.37144 14.1153 7.5088 14.2848 7.5088H15.095V8.36551H13.784C13.6145 8.36551 13.4772 8.50287 13.4772 8.6723V9.96397C13.4772 10.1334 13.6145 10.2708 13.784 10.2708H15.095V15.0819H13.6267C13.4572 15.0819 13.3199 15.2193 13.3199 15.3887V16.6932C13.3199 16.8626 13.4572 17 13.6267 17H16.6934C16.8628 17 17.0002 16.8626 17.0002 16.6932V3.12715C17.0003 2.95771 16.8629 2.82035 16.6935 2.82035ZM4.5623 5.69634H4.56227C4.56227 6.44334 3.95452 7.05109 3.20748 7.05109H1.90559V1.89252H2.12944V2.09085C2.12944 2.26028 2.2668 2.39764 2.43624 2.39764C2.60567 2.39764 2.74304 2.26028 2.74304 2.09085V1.89252H2.92711V2.70444C2.92711 2.87388 3.06447 3.01124 3.23391 3.01124C3.40335 3.01124 3.54071 2.87388 3.54071 2.70444V1.89252H3.72479V2.09085C3.72479 2.26028 3.86215 2.39764 4.03158 2.39764C4.20102 2.39764 4.33838 2.26028 4.33838 2.09085V1.89252H4.56227V5.69634H4.5623ZM15.095 6.89524H14.5916V3.29542H15.095V6.89524Z" fill="#FF6600"/>
<path d="M16.6932 0.000976562H0.306797C0.137361 0.000976562 0 0.138338 0 0.307773V16.6941C0 16.8636 0.137361 17.0009 0.306797 17.0009H11.1552C11.3247 17.0009 11.462 16.8636 11.462 16.6941V15.3897C11.462 15.2202 11.3247 15.0829 11.1552 15.0829H9.45263V12.096C9.45263 11.9266 9.31527 11.7892 9.14583 11.7892H7.85413C7.6847 11.7892 7.54734 11.9266 7.54734 12.096V15.0829H1.90529V14.3799H2.8382C3.12651 14.3799 3.38127 14.2346 3.53391 14.0136C3.80073 14.1518 4.10733 14.2259 4.4294 14.2259C5.38638 14.2259 6.16496 13.5569 6.16496 12.7347C6.16496 12.4905 6.0951 12.2484 5.96295 12.0345C5.87393 11.8904 5.68484 11.8456 5.54071 11.9347C5.39654 12.0238 5.35188 12.2128 5.44093 12.357C5.51421 12.4756 5.55133 12.6027 5.55133 12.7347C5.55133 13.2185 5.048 13.6122 4.4294 13.6122C4.15335 13.6122 3.88848 13.5314 3.68342 13.3878V12.0815C3.88848 11.9379 4.15335 11.8571 4.4294 11.8571C4.60803 11.8571 4.77883 11.8893 4.93704 11.9528C5.09419 12.016 5.27292 11.9397 5.33604 11.7824C5.39916 11.6252 5.32286 11.4465 5.16561 11.3834C4.93435 11.2905 4.68669 11.2435 4.42933 11.2435C4.10723 11.2435 3.80056 11.3175 3.53364 11.4559C3.38101 11.235 3.12634 11.0898 2.8381 11.0898H1.90529V10.2717H10.373C10.5425 10.2717 10.6798 10.1343 10.6798 9.96487V8.6732C10.6798 8.50376 10.5425 8.3664 10.373 8.3664H3.68963C3.5202 8.3664 3.38283 8.50376 3.38283 8.6732C3.38283 8.84264 3.5202 8.98 3.68963 8.98H10.0663V9.65807H1.5985C1.42906 9.65807 1.2917 9.79543 1.2917 9.96487V15.3896C1.2917 15.5591 1.42906 15.6964 1.5985 15.6964H7.85417C8.0236 15.6964 8.16096 15.5591 8.16096 15.3896V12.4028H8.83907V15.3896C8.83907 15.5591 8.97643 15.6964 9.14587 15.6964H10.8485V16.3873H0.613594V0.61457H16.3864V2.03726C16.3864 2.20669 16.5238 2.34405 16.6932 2.34405C16.8626 2.34405 17 2.20669 17 2.03726V0.307773C17 0.138338 16.8626 0.000976562 16.6932 0.000976562ZM1.90529 11.7035H2.8382V11.7035C2.96597 11.7035 3.06986 11.8074 3.06986 11.9351V13.5347C3.06986 13.6624 2.96597 13.7663 2.8382 13.7663H1.90529V11.7035Z" fill="#FF6600"/>
<path d="M12.8242 2.68182H10.5592C10.3898 2.68182 10.2524 2.81919 10.2524 2.98862V7.202C10.2524 7.37143 10.3898 7.5088 10.5592 7.5088H12.8242C12.9936 7.5088 13.131 7.37143 13.131 7.202V6.1998V3.99082V2.98862C13.131 2.81919 12.9936 2.68182 12.8242 2.68182ZM12.5174 5.893H11.9322V4.29762H12.5174V5.893ZM12.5174 3.68403H11.6254C11.456 3.68403 11.3186 3.82139 11.3186 3.99082V6.1998C11.3186 6.36923 11.456 6.50659 11.6254 6.50659H12.5174V6.8952H10.866V3.29542H12.5174V3.68403Z" fill="#FF6600"/>
<path d="M4.3439 13.0407C4.51334 13.0407 4.6507 12.9033 4.6507 12.7339C4.6507 12.5644 4.51334 12.4271 4.3439 12.4271C4.17447 12.4271 4.03711 12.5644 4.03711 12.7339C4.03711 12.9033 4.17447 13.0407 4.3439 13.0407Z" fill="#FF6600"/>
<path d="M3.23355 6.24281C3.40299 6.24281 3.54035 6.10545 3.54035 5.93601C3.54035 5.76657 3.40299 5.62921 3.23355 5.62921C3.06412 5.62921 2.92676 5.76657 2.92676 5.93601C2.92676 6.10545 3.06412 6.24281 3.23355 6.24281Z" fill="#FF6600"/>
</g>
<defs>
<clipPath id="clip0">
<rect width="17" height="17" fill="white"/>
</clipPath>
</defs>
</svg>
