<svg width="17" height="16" viewBox="0 0 17 16" fill="none" xmlns="http://www.w3.org/2000/svg">
<g clip-path="url(#clip0)">
<path d="M9.37931 13.924V12.7041H0V13.929C0 15.0382 0.858702 15.9549 1.92149 15.9549H10.3246C10.244 15.8784 10.1663 15.8113 10.0929 15.7345C9.63392 15.2539 9.37716 14.6026 9.37931 13.924Z" fill="#FF6600"/>
<path d="M6.6411 6.52852L8.00214 7.5039L9.36847 6.52852C9.74215 6.26245 10.039 5.66204 10.039 5.18996V3.17435L8.00557 2.12457L5.97217 3.17167V5.18996C5.97217 5.66189 6.26727 6.26245 6.6411 6.52852ZM6.94751 4.62346C7.04812 4.51949 7.21056 4.52023 7.31017 4.62541L7.71891 5.05625L8.70269 4.02948C8.80287 3.9249 8.96531 3.9249 9.06549 4.02963C9.16567 4.1342 9.16553 4.30376 9.06535 4.40834L7.89938 5.62604C7.85129 5.67638 7.78617 5.70507 7.71805 5.70536H7.71748C7.64907 5.70492 7.58366 5.67608 7.53586 5.62499L6.94565 5.00262C6.84604 4.8973 6.8469 4.72774 6.94751 4.62346Z" fill="#FF6600"/>
<path d="M15.6403 0.045166H15.6322C14.8787 0.045166 14.252 0.702344 14.252 1.48934V3.94611H16.9998V1.48456C17.0032 0.69607 16.3957 0.0527851 15.6403 0.045166Z" fill="#FF6600"/>
<path d="M3.93753 0.045166C3.22495 0.045166 2.64504 0.642438 2.64504 1.37506L2.56934 12.1687H9.63588C9.77971 12.1747 9.8932 12.2985 9.89234 12.4489V13.924C9.88977 15.0393 10.751 15.9468 11.8193 15.9549H11.8257C12.8901 15.9468 13.7466 15.0397 13.7393 13.9287V1.48979C13.7393 0.927031 13.9819 0.427611 14.3464 0.045166L3.93753 0.045166ZM5.45915 3.00463C5.45586 2.90394 5.50867 2.81027 5.59468 2.76426L7.89142 1.586C7.96198 1.54955 8.0447 1.54955 8.11526 1.586L10.4161 2.76755C10.5022 2.81356 10.555 2.90708 10.5518 3.00792V5.18995C10.5518 5.83936 10.1721 6.605 9.65792 6.97086L8.15118 8.04932C8.10896 8.07965 8.05887 8.09593 8.00764 8.09593C7.95654 8.09593 7.90674 8.0798 7.8648 8.04932L6.35363 6.97086C5.8397 6.60485 5.45915 5.83921 5.45915 5.18995V3.00463ZM11.651 10.9449H4.61648C4.47479 10.9449 4.36001 10.825 4.36001 10.6771C4.36001 10.5292 4.47479 10.4094 4.61648 10.4094H11.651C11.7926 10.4094 11.9074 10.5292 11.9074 10.6771C11.9074 10.825 11.7926 10.9449 11.651 10.9449ZM11.651 9.52981H4.61648C4.47479 9.52981 4.36001 9.40999 4.36001 9.26209C4.36001 9.11419 4.47479 8.99438 4.61648 8.99438H11.651C11.7926 8.99438 11.9074 9.11419 11.9074 9.26209C11.9074 9.40999 11.7926 9.52981 11.651 9.52981Z" fill="#FF6600"/>
</g>
<defs>
<clipPath id="clip0">
<rect width="17" height="16" fill="white"/>
</clipPath>
</defs>
</svg>
