<svg width="17" height="17" viewBox="0 0 17 17" fill="none" xmlns="http://www.w3.org/2000/svg">
<path d="M11.4219 9.03125H10.0938V10.625H11.4219C11.8613 10.625 12.2188 10.2675 12.2188 9.82812C12.2188 9.38875 11.8613 9.03125 11.4219 9.03125Z" fill="#FF6600"/>
<path d="M11.1562 5.3125C7.93399 5.3125 5.3125 7.93399 5.3125 11.1562C5.3125 14.3785 7.93399 17 11.1562 17C14.3785 17 17 14.3785 17 11.1562C17 7.93399 14.3785 5.3125 11.1562 5.3125ZM11.4219 11.6875H10.0938V12.2188H11.1562C11.4496 12.2188 11.6875 12.4566 11.6875 12.75C11.6875 13.0434 11.4496 13.2812 11.1562 13.2812H10.0938V13.8125C10.0938 14.1059 9.85588 14.3438 9.5625 14.3438C9.26912 14.3438 9.03125 14.1059 9.03125 13.8125C9.03125 13.6626 9.03125 8.64981 9.03125 8.5C9.03125 8.20658 9.26912 7.96875 9.5625 7.96875H11.4219C12.4471 7.96875 13.2812 8.80285 13.2812 9.82812C13.2812 10.8534 12.4471 11.6875 11.4219 11.6875Z" fill="#FF6600"/>
<path d="M4.3681 9.87849C4.39882 9.71444 4.27434 9.5625 4.10743 9.5625H3.1875C2.30729 9.5625 1.59375 10.276 1.59375 11.1562C1.59375 11.4502 1.83148 11.6875 2.125 11.6875H3.72805C4.00812 11.6875 4.25 11.4636 4.25 11.1562C4.25 10.7197 4.29061 10.2926 4.3681 9.87849Z" fill="#FF6600"/>
<path d="M2.125 6.375C1.24479 6.375 0.53125 7.08854 0.53125 7.96875C0.53125 8.2627 0.768984 8.5 1.0625 8.5H4.43494C4.6403 8.5 4.8267 8.38137 4.91486 8.19589C5.15173 7.69751 5.44644 7.23197 5.79039 6.80794C5.93127 6.63425 5.80812 6.375 5.58447 6.375H2.125Z" fill="#FF6600"/>
<path d="M11.7519 3.65434C11.4637 3.3658 11.0653 3.1875 10.625 3.1875H3.1875C2.30729 3.1875 1.59375 3.90104 1.59375 4.78125C1.59375 5.0752 1.83148 5.3125 2.125 5.3125H6.90396C7.24997 5.3125 7.59173 5.22986 7.89663 5.06627C9.01146 4.46811 10.2486 4.19927 11.4876 4.25784C11.8034 4.27274 11.9871 3.88955 11.7519 3.65434Z" fill="#FF6600"/>
<path d="M9.03125 0H1.59375C0.713535 0 0 0.713535 0 1.59375C0 1.88624 0.236937 2.125 0.53125 2.125H10.0938C10.3872 2.125 10.625 1.88717 10.625 1.59375C10.625 0.715992 9.91389 0 9.03125 0Z" fill="#FF6600"/>
<path d="M4.02724 12.75H1.59375C0.713535 12.75 0 13.4635 0 14.3438V15.4062C0 16.2865 0.713535 17 1.59375 17H6.64833C6.89765 17 7.01084 16.686 6.81697 16.5292C5.7457 15.6632 4.9388 14.4833 4.53605 13.1294C4.46911 12.9043 4.26209 12.75 4.02724 12.75Z" fill="#FF6600"/>
</svg>
