<svg width="165" height="165" viewBox="0 0 165 165" fill="none" xmlns="http://www.w3.org/2000/svg">
<rect width="165" height="165" rx="82.5" fill="#FF6600" fill-opacity="0.1"/>
<rect x="0.5" y="0.5" width="164" height="164" rx="82" stroke="#FF6600" stroke-opacity="0.2"/>
<rect x="22.5" y="22.5" width="121" height="120" rx="60" stroke="#FF6600"/>
<rect x="32" y="31" width="103" height="103" rx="51.5" fill="#333333"/>
<path d="M82.5587 133.996C54.7207 133.757 31.9206 110.272 32.0002 82.2693C32.0799 53.9082 55.5769 30.881 83.7136 31.0005C111.811 31.1 135.586 54.4058 134.989 83.6028C134.412 110.969 111.85 134.354 82.5587 133.996ZM49.3442 116.263C50.7978 115.029 52.132 113.695 53.6653 112.621C59.2608 108.68 65.4935 106.013 71.8655 103.565C72.4231 103.346 73.0802 102.829 73.2196 102.311C73.6975 100.679 73.9962 98.9675 74.275 97.2957C74.3347 96.9972 74.1555 96.5593 73.9365 96.3404C71.6266 93.9521 70.0734 91.0463 68.5202 88.1605C68.1618 87.4838 67.7834 86.9066 67.1064 86.4488C66.5488 86.0707 66.0709 85.4935 65.7523 84.8965C64.4779 82.5281 63.8009 79.9805 63.5619 77.3136C63.4424 75.9602 63.3827 74.4277 64.6173 73.5719C65.6329 72.8753 65.6528 72.0195 65.7125 71.0244C65.9515 66.5065 67.2259 62.3668 70.0734 58.7844C70.2725 58.5256 70.4716 58.2271 70.5314 57.9286C71.069 55.4407 72.7616 54.1869 75.0914 53.6097C75.7884 53.4306 76.0273 53.0723 76.3459 52.4554C76.9234 51.3607 77.6402 50.3059 78.5164 49.4501C79.3129 48.654 80.5674 48.8132 81.0254 49.7088C81.5631 50.7836 82.479 51.0821 83.4548 51.3806C84.7491 51.7986 86.0633 52.1568 87.3378 52.6146C90.8424 53.8485 94.1678 55.3611 96.637 58.3067C99.9425 62.2474 101.237 66.8847 101.456 71.9001C101.476 72.537 101.655 72.935 102.133 73.4127C102.671 73.9501 103.168 74.7661 103.248 75.5224C103.587 78.9655 102.611 82.1499 101.038 85.1552C100.759 85.6926 100.201 86.0707 99.7832 86.5484C99.4447 86.9265 99.0863 87.3047 98.8075 87.7425C96.9755 90.5687 95.1436 93.4147 93.3315 96.2409C93.1722 96.4797 92.9731 96.7782 93.0129 97.0171C93.2718 98.7088 93.5704 100.401 93.9289 102.072C94.1081 102.928 94.7254 103.406 95.5617 103.784C98.9867 105.277 102.432 106.749 105.797 108.401C110.078 110.531 114.26 112.82 117.565 116.402C128.975 105.655 135.785 86.1304 129.095 66.7454C122.723 48.3953 104.463 33.0703 80.6072 34.3839C60.4157 35.4984 42.5341 49.5098 36.9784 69.8701C31.9206 88.3396 38.7705 106.431 49.3442 116.263Z" fill="#FF6600"/>
</svg>
