<svg width="23" height="23" viewBox="0 0 23 23" fill="none" xmlns="http://www.w3.org/2000/svg">
<path d="M22.5 11C22.5 12.8 22.5 14.6 22.5 16.4C22.5 17 22.2001 17.5 21.6001 17.7C18.3001 19.1 15.1 20.5 11.8 22C11.3 22.2 10.8 22.2 10.3 22C7.20005 20.6 4.20005 19.2 1.10005 17.7C0.600052 17.5 0.300049 17.1 0.300049 16.5C0.300049 12.8 0.300049 9.1 0.300049 5.4C0.300049 4.8 0.500052 4.5 1.10005 4.3C4.40005 3.2 7.70006 2.1 10.9001 0.9C11.4001 0.7 11.9001 0.7 12.4001 0.9C15.5001 2 18.5001 3.1 21.6001 4.2C22.1001 4.4 22.3 4.8 22.3 5.3C22.5 7.3 22.5 9.2 22.5 11ZM2.00005 6.2C2.00005 6.3 2.00005 6.3 2.00005 6.4C2.00005 9.7 2.00005 13.1 2.00005 16.4C2.00005 16.6 2.10004 16.6 2.20004 16.7C4.80004 17.8 7.40005 19 10.1001 20.1C10.2001 20.1 10.3001 20.2 10.4001 20.2C10.4001 20.1 10.4001 20 10.4001 19.9C10.4001 16.5 10.4001 13.1 10.4001 9.8C10.4001 9.6 10.3 9.5 10.2 9.5C8.20004 8.7 6.20005 7.9 4.10005 7C3.40005 6.8 2.70005 6.5 2.00005 6.2Z" fill="white"/>
<path d="M8.8 17.5C8.3 17.3 7.80001 17.1 7.40001 16.9C6.20001 16.4 5 15.9 3.8 15.4C3.6 15.3 3.5 15.2 3.5 14.9C3.5 14.3 3.5 14.3 4 14.5C5.5 15.1 7 15.8 8.5 16.4C8.7 16.5 8.8 16.6 8.8 16.8C8.8 17.1 8.8 17.3 8.8 17.5Z" fill="white"/>
<path d="M8.8 15C8.3 14.8 7.80001 14.6 7.40001 14.4C6.20001 13.9 5 13.4 3.8 12.9C3.6 12.8 3.5 12.7 3.5 12.4C3.5 11.8 3.5 11.8 4 12C5.5 12.6 7 13.3 8.5 13.9C8.7 14 8.8 14.1 8.8 14.3C8.8 14.6 8.8 14.8 8.8 15Z" fill="white"/>
<path d="M8.8 12.5C8.3 12.3 7.80001 12.1 7.40001 11.9C6.20001 11.4 5 10.9 3.8 10.4C3.6 10.3 3.5 10.2 3.5 9.89999C3.5 9.29999 3.5 9.29999 4 9.49999C5.5 10.1 7 10.8 8.5 11.4C8.7 11.5 8.8 11.6 8.8 11.8C8.8 12 8.8 12.2 8.8 12.5Z" fill="white"/>
</svg>
