<svg width="21" height="16" viewBox="0 0 21 16" fill="none" xmlns="http://www.w3.org/2000/svg">
<g clip-path="url(#clip0)">
<path d="M10.5011 8.72758e-05H18.6566C20.036 8.72758e-05 21.003 0.93746 21.0035 2.27474C21.0035 6.33578 21.0035 10.3967 21.0035 14.4574C21.0035 15.0846 20.74 15.5656 20.1598 15.8416C19.5795 16.1176 19.0246 16.0238 18.5165 15.6371C17.8331 15.1192 17.1422 14.61 16.4621 14.0885C16.2561 13.9248 15.9966 13.838 15.7305 13.8439C11.2787 13.8484 6.82596 13.8495 2.37229 13.8471C0.961478 13.8471 0.00437496 12.9188 0.00390625 11.5478C0.00390625 8.45056 0.00390625 5.35332 0.00390625 2.25607C0.00390625 0.947937 0.977883 8.75259e-05 2.32261 -0.000367952C5.04737 -0.000975255 7.77353 -0.000823679 10.5011 8.72758e-05ZM10.5044 4.37267C9.04483 4.37267 7.58542 4.37267 6.12618 4.37267C6.0321 4.3686 5.93785 4.37409 5.84495 4.38907C5.66657 4.42952 5.50959 4.53201 5.40363 4.67721C5.29767 4.8224 5.25006 5.00027 5.26979 5.17723C5.28951 5.3542 5.3752 5.51804 5.51069 5.63782C5.64618 5.75761 5.8221 5.82507 6.00525 5.82747C7.04297 5.83248 8.08116 5.82747 9.11935 5.82747C11.0548 5.82747 12.9903 5.82747 14.9257 5.82747C15.2824 5.82747 15.5505 5.69492 15.6925 5.37472C15.9114 4.8819 15.5332 4.3704 14.951 4.36948C13.4677 4.36948 11.9844 4.3707 10.5011 4.37313L10.5044 4.37267ZM10.4969 9.47402C11.9799 9.47402 13.4627 9.47402 14.9454 9.47402C15.3157 9.47402 15.5852 9.30458 15.7024 9.00807C15.9011 8.50704 15.5257 8.01832 14.9351 8.01786C12.3519 8.01786 9.76867 8.01786 7.18546 8.01786C6.79502 8.01786 6.40506 8.01513 6.01369 8.01786C5.86042 8.015 5.70997 8.05817 5.58289 8.14148C5.4558 8.22479 5.35827 8.34418 5.30359 8.48336C5.10814 8.97618 5.47655 9.47174 6.04743 9.47311C7.52918 9.47706 9.01155 9.47736 10.4945 9.47402H10.4969Z" fill="#FF6600"/>
</g>
<defs>
<clipPath id="clip0">
<rect width="21" height="16" fill="white"/>
</clipPath>
</defs>
</svg>
