<svg width="23" height="23" viewBox="0 0 23 23" fill="none" xmlns="http://www.w3.org/2000/svg">
<g clip-path="url(#clip0)">
<path d="M11.218 21.7297C10.8761 21.6974 10.294 21.6281 9.70259 21.588C9.48859 21.5683 9.2728 21.5918 9.06811 21.6573C8.00858 22.0409 6.96138 22.4614 5.89877 22.8387C5.54847 22.968 5.1747 23.0212 4.80226 22.9949C4.42982 22.9686 4.06722 22.8634 3.73852 22.6863C3.40982 22.5092 3.12254 22.2642 2.89573 21.9675C2.66892 21.6709 2.50778 21.3294 2.42298 20.9657C2.24742 20.2464 2.39988 19.5794 2.74638 18.9263C3.09288 18.2733 3.07594 18.2763 2.61086 17.7434C-1.40702 13.1363 -0.710935 6.33734 4.17089 2.49425C8.81709 -1.16246 15.6994 -0.758902 19.8605 3.41844C24.1586 7.73132 24.0324 14.4671 19.5525 18.5967C17.2794 20.6977 14.5536 21.6851 11.218 21.7297ZM11.2826 3.92366C10.0583 3.92366 8.95569 4.29642 8.17645 4.95413C7.84541 5.20417 7.62452 5.57313 7.56044 5.98306C7.51323 6.24505 7.54244 6.5151 7.64458 6.76093C7.74671 7.00676 7.91745 7.21798 8.1364 7.36935C8.57069 7.67741 9.01575 7.55418 9.43771 7.31081C9.5802 7.22537 9.71797 7.1323 9.85043 7.03202C10.1073 6.84892 10.3984 6.71937 10.7063 6.6511C11.0143 6.58283 11.3328 6.57723 11.643 6.63462C11.8615 6.65491 12.0693 6.73861 12.2408 6.87544C12.4124 7.01227 12.5402 7.19626 12.6086 7.40478C12.7626 7.86688 12.5809 8.23808 12.2482 8.54152C12.0126 8.75717 11.7477 8.93894 11.4967 9.13764C10.8875 9.5994 10.4531 10.2544 10.2647 10.9953C10.0611 11.7068 10.144 12.4697 10.4957 13.1209C10.8176 13.7108 11.4351 13.6985 11.7616 13.1132C11.8388 12.9666 11.8988 12.8115 11.9402 12.6511C12.1353 11.9263 12.5763 11.2919 13.1876 10.8566C13.5911 10.5624 13.9992 10.2698 14.3734 9.93244C14.8968 9.49776 15.2577 8.89877 15.3975 8.23291C15.5373 7.56704 15.4477 6.87346 15.1434 6.26494C14.358 4.61834 12.9274 4.02378 11.2826 3.92366ZM9.83811 16.0814C9.83811 16.984 10.4634 17.634 11.335 17.6371C12.259 17.6371 12.9243 16.9886 12.9197 16.0783C12.915 15.168 12.3037 14.5857 11.3797 14.5919C10.4557 14.5981 9.83965 15.1633 9.83811 16.0814Z" fill="#FF6600"/>
</g>
<defs>
<clipPath id="clip0">
<rect width="23" height="23" fill="white"/>
</clipPath>
</defs>
</svg>
