<svg width="43" height="55" viewBox="0 0 43 55" fill="none" xmlns="http://www.w3.org/2000/svg">
<path d="M27.1654 22.827C27.1654 16.4901 27.1654 10.1532 27.1654 3.81632C27.1565 3.38752 27.1972 2.95914 27.2866 2.5399C27.4559 1.81828 27.8617 1.176 28.4379 0.717854C29.0142 0.259704 29.7268 0.0127256 30.4595 0.0172035C33.5374 -0.00288621 36.6146 -0.00288621 39.6911 0.0172035C41.5498 0.0322709 42.881 1.43138 42.9853 3.38582C42.998 3.61614 42.9853 3.85075 42.9853 4.08322C42.9853 16.7039 42.981 29.3238 42.9725 41.9431C42.9697 42.3662 42.8753 42.7835 42.696 43.1657C41.2287 46.2222 39.7528 49.2722 38.2302 52.2986C37.9079 52.9547 37.4763 53.5496 36.9542 54.0572C35.7165 55.2324 34.0471 55.1334 32.8988 53.8678C32.5425 53.4705 32.2426 53.025 32.0077 52.544C30.434 49.3627 28.8745 46.1734 27.3292 42.9763C27.2016 42.6851 27.1384 42.3692 27.1442 42.0507C27.1541 35.6464 27.1612 29.2385 27.1654 22.827ZM40.7502 39.8423V39.1276C40.7403 30.5881 40.7303 22.0499 40.7204 13.5132C40.7204 10.2544 40.7417 6.99767 40.7481 3.74098C40.7481 2.61093 40.4078 2.26654 39.2913 2.26439H30.9104C29.7514 2.26439 29.4218 2.59802 29.4218 3.75605C29.4218 7.62189 29.4218 11.4877 29.4218 15.3536V39.8918C30.7407 38.8425 32.307 38.1592 33.9663 37.9093V15.7389C33.9748 15.6142 33.9748 15.489 33.9663 15.3643C33.9025 14.9188 34.1237 14.7961 34.5171 14.8176C34.851 14.8348 35.1891 14.8176 35.5251 14.8176C36.2141 14.8176 36.2163 14.8176 36.2163 15.5387C36.2163 22.8083 36.2127 30.0765 36.2056 37.3432C36.2056 37.8189 36.3481 37.9761 36.8032 38.0536C38.0434 38.2737 39.2196 38.7707 40.2462 39.5086C40.3738 39.6055 40.5205 39.6937 40.7502 39.8423ZM37.5837 48.5878C38.5087 46.6742 39.4126 44.8166 40.2972 42.9504C40.3176 42.8728 40.3205 42.7915 40.3058 42.7125C40.2911 42.6335 40.2591 42.5589 40.2122 42.4941C37.7836 39.3515 32.5691 39.2934 30.0257 42.3585C29.9203 42.4604 29.8543 42.597 29.8395 42.7438C29.8246 42.8906 29.862 43.0379 29.9449 43.1592C30.7615 44.8037 31.5505 46.4611 32.3501 48.1099C32.4245 48.2649 32.5138 48.4134 32.6053 48.5792C34.2196 48.0224 35.9712 48.0254 37.5837 48.5878Z" fill="#FF6600"/>
<path d="M15.8305 27.556C15.8305 35.4484 15.8305 43.3408 15.8305 51.2332C15.8305 52.0941 15.6923 52.9078 15.1691 53.6138C14.8707 54.0403 14.4744 54.3871 14.0144 54.6245C13.5543 54.8618 13.0442 54.9825 12.5279 54.9763C9.45067 54.9978 6.37347 55.0043 3.29839 54.9763C1.43761 54.9612 0.0914676 53.5514 0.00215013 51.6077C0.00215013 51.429 0.00215013 51.2504 0.00215013 51.0696C0.00215013 35.3551 0.00215013 19.642 0.00215013 3.93041C-0.00875802 3.4656 0.0340629 3.0011 0.129745 2.54637C0.291296 1.83193 0.687277 1.19399 1.25308 0.736624C1.81889 0.279255 2.52112 0.0294516 3.24523 0.0279721C6.35716 -0.00216256 9.4691 -0.00216256 12.581 0.0279721C13.3854 0.0362372 14.1578 0.347541 14.7476 0.901133C15.3374 1.45473 15.7022 2.21089 15.7709 3.02206C15.804 3.34238 15.8189 3.66434 15.8156 3.98637C15.8269 11.84 15.8319 19.6966 15.8305 27.556ZM2.27762 24.0883H4.48078V26.329C3.8428 26.329 3.24522 26.314 2.64552 26.3398C2.5158 26.3398 2.284 26.4883 2.27974 26.5766C2.24785 27.2503 2.26273 27.9262 2.26273 28.6688H4.48078V30.9526H2.28612V33.2428H6.73074V35.5158H2.27974V37.8254H4.48078V40.079C3.8428 40.079 3.24097 40.064 2.64127 40.079C2.51155 40.079 2.284 40.2319 2.28187 40.3223C2.24997 40.996 2.26486 41.6719 2.26486 42.4123H4.47866V44.7133H2.29038V47.0057H6.73286V49.2766H2.24785C2.24785 50.017 2.24785 50.6757 2.24785 51.3365C2.24785 52.3568 2.62 52.7377 3.61951 52.7399C6.48334 52.7399 9.34788 52.7399 12.2131 52.7399C13.2105 52.7399 13.5827 52.3568 13.5827 51.3343V3.69149C13.5827 2.63462 13.219 2.26654 12.1791 2.26654C10.3928 2.26654 8.60711 2.26654 6.82218 2.26654C5.70784 2.26654 4.59349 2.26654 3.47915 2.26654C2.79013 2.26654 2.32441 2.59372 2.28825 3.16628C2.23721 3.99929 2.27549 4.8366 2.27549 5.73203H6.71798V8.01795H2.27762V10.3319H4.48078V12.5984H2.27974V14.9145H4.48078V17.1961H2.284V19.4885H6.71585V21.7744H2.27762V24.0883Z" fill="#FF6600"/>
</svg>
