<svg width="21" height="27" viewBox="0 0 21 27" fill="none" xmlns="http://www.w3.org/2000/svg">
<path d="M11.6 13C10.8 13.6 10.1 14.2 9.3 14.7C7.1 16.3 4.1 15.9 2.49999 13.7C1.99999 13 1.4 12.3 0.899997 11.6C-0.300003 9.49998 0.199993 6.79999 2.09999 5.29999C3.59999 4.09999 5.19999 2.89998 6.69999 1.79998C8.89999 0.199982 11.9 0.599982 13.5 2.79998C14 3.49998 14.6 4.19998 15.1 4.89998C16.3 6.79998 15.8 9.59998 14 11C13.3 11.8 12.5 12.4 11.6 13ZM9.4 10.1C9.9 9.79998 10.3 9.39998 10.8 9.09998C11.5 8.49998 11.7 7.59999 11.1 6.79999C10.9 6.49999 10.6 6.19999 10.4 5.89998C9.8 5.19999 8.89999 4.99998 8.09999 5.59998C7.19999 6.29998 6.3 6.99998 5.3 7.69998C4.6 8.29998 4.5 9.19998 5 9.99998C5.2 10.3 5.39999 10.6 5.69999 10.9C6.29999 11.7 7.3 11.8 8 11.2C8.6 10.7 9 10.4 9.4 10.1Z" fill="white"/>
<path d="M20.6 19.2C20.6 19.3 20.7 19.5 20.7 19.6C20.6 21.2 20.5 22.7 20.4 24.3C20.4 24.8 20.2 25.1 19.8 25.4C19.6 25.5 19.4 25.7 19.2 25.8C18.5 26.3 17.5 26.2 17 25.5C14.7 22.4 12.3 19.3 10 16.3C10 16.3 10 16.3 9.90002 16.2C10 16.1 10 16.1 10.1 16C11.6 14.9 13.1 13.8 14.5 12.6C15 12.3 15.4 12.3 15.7 12.9C15.9 13.2 15.8 13.5 15.5 13.7C15.1 14 14.7 14.3 14.2 14.7C14 14.9 13.8 15.1 13.9 15.4C14 15.7 14.2 16 14.5 16C14.7 16 14.9 16 15.1 15.9C15.5 15.6 15.9 15.3 16.3 15C16.7 14.7 17.1 14.7 17.4 15.1C17.7 15.5 17.6 15.8 17.2 16.1C16.8 16.4 16.4 16.7 16 17C15.6 17.3 15.6 17.6 15.9 18C16.2 18.4 16.5 18.4 16.9 18.1C17.3 17.8 17.7 17.5 18 17.2C18.4 16.9 18.8 16.9 19.1 17.3C19.4 17.7 19.3 18 18.9 18.4C18.5 18.7 18.1 19 17.8 19.3C17.4 19.6 17.4 19.9 17.7 20.3C18 20.7 18.3 20.7 18.7 20.4C19.2 20 19.8 19.6 20.3 19.2C20.5 19.3 20.5 19.3 20.6 19.2Z" fill="white"/>
</svg>
