<svg width="11" height="11" viewBox="0 0 11 11" fill="none" xmlns="http://www.w3.org/2000/svg">
<g clip-path="url(#clip0)">
<path d="M10.8699 0.130391C10.6963 -0.0431382 10.415 -0.0431382 10.2415 0.130391L0.130147 10.2417C-0.0433823 10.4152 -0.0433823 10.6966 0.130147 10.8701C0.216901 10.9569 0.330639 11.0002 0.444356 11.0002C0.558073 11.0002 0.671789 10.9569 0.758565 10.8701L10.8699 0.758766C11.0434 0.585258 11.0434 0.30392 10.8699 0.130391Z" fill="white"/>
<path d="M10.8698 10.2417L0.758522 0.130391C0.585014 -0.0431381 0.303655 -0.0431381 0.130147 0.130391C-0.0433823 0.303898 -0.0433823 0.585235 0.130147 0.758764L10.2415 10.8701C10.3282 10.9568 10.442 11.0002 10.5557 11.0002C10.6694 11.0002 10.7831 10.9568 10.8699 10.8701C11.0434 10.6965 11.0434 10.4152 10.8698 10.2417Z" fill="white"/>
</g>
<defs>
<clipPath id="clip0">
<rect width="11" height="11" fill="white"/>
</clipPath>
</defs>
</svg>
