<?xml version="1.0" encoding="utf-8"?>
<!-- Generator: Adobe Illustrator 22.1.0, SVG Export Plug-In . SVG Version: 6.00 Build 0)  -->
<svg version="1.1" id="Слой_1" xmlns="http://www.w3.org/2000/svg" xmlns:xlink="http://www.w3.org/1999/xlink" x="0px" y="0px"
	 viewBox="0 0 28.7 26.1" style="enable-background:new 0 0 28.7 26.1;" xml:space="preserve">
<style type="text/css">
	.st0{fill:none;stroke:#FFFFFF;stroke-linecap:round;stroke-linejoin:round;}
	.st1{fill:none;stroke:#FFFFFF;stroke-width:0.5;stroke-linecap:round;stroke-linejoin:round;}
</style>
<title>Стеновая панельРесурс 5</title>
<rect x="0.5" y="19.2" class="st0" width="27.7" height="3.2"/>
<rect x="1.8" y="22.4" class="st0" width="3.2" height="3.2"/>
<rect x="23.8" y="22.4" class="st0" width="3.2" height="3.2"/>
<rect x="21.5" y="7.8" class="st0" width="3.6" height="11.3"/>
<rect x="18.6" y="5.8" class="st0" width="2.9" height="13.3"/>
<path class="st0" d="M2.5,9.6h7.9l0,0v7c0,1.4-1.1,2.5-2.5,2.5H5.1c-1.4,0-2.5-1.1-2.5-2.5L2.5,9.6L2.5,9.6z"/>
<path class="st0" d="M10.5,12.2c1.2-0.1,2.3,0.9,2.3,2.1c0.1,1.2-0.9,2.3-2.1,2.3c-0.1,0-0.1,0-0.2,0"/>
<line class="st1" x1="23.1" y1="9.6" x2="23.5" y2="9.6"/>
<line class="st1" x1="23.1" y1="17.5" x2="23.5" y2="17.5"/>
<line class="st1" x1="20" y1="7.3" x2="20" y2="11.7"/>
<path class="st1" d="M6.1,7.3V6.4c0-0.6,0.5-1.1,1.1-1.1l0,0c0.6,0,1.2-0.5,1.2-1.2l0,0V3.8c0-0.6-0.5-1.2-1.1-1.2l0,0l0,0
	c-0.6,0-1.2-0.5-1.2-1.1V0.3"/>
</svg>
