<svg width="16" height="16" viewBox="0 0 16 16" fill="none" xmlns="http://www.w3.org/2000/svg">
<g clip-path="url(#clip0)">
<path d="M15.6015 9.41347C15.1573 9.11432 14.7158 8.8138 14.2689 8.51874C14.2552 8.50998 14.2423 8.50004 14.2303 8.48903C14.243 8.32739 14.2494 8.16438 14.2494 8C14.2494 7.83107 14.2427 7.66362 14.2293 7.49765C14.2446 7.48285 14.2613 7.46958 14.2791 7.45804C14.7302 7.1607 15.1788 6.8595 15.625 6.55443C15.9869 6.30786 16.0856 5.979 15.9192 5.57432C15.7231 5.09622 15.5232 4.61812 15.3233 4.14241C15.1327 3.68855 14.8409 3.53727 14.3594 3.6322C13.8408 3.73465 13.3221 3.8371 12.8014 3.9276C12.7801 3.93059 12.7585 3.93001 12.7375 3.92589C12.5297 3.68484 12.304 3.45983 12.0623 3.2528C12.0592 3.20846 12.0628 3.16391 12.0729 3.12064C12.1795 2.60838 12.2813 2.09613 12.3743 1.58183C12.4546 1.14027 12.2964 0.858192 11.8857 0.686076C11.4032 0.483907 10.9201 0.283901 10.4362 0.0860585C10.0061 -0.090839 9.69478 0.00273223 9.43271 0.387604C9.13203 0.831555 8.83135 1.27175 8.53613 1.71775C8.5237 1.73717 8.50914 1.75515 8.49274 1.77137C8.32941 1.75873 8.16472 1.7519 7.99832 1.7519C7.83192 1.7519 7.67304 1.75839 7.51279 1.77068C7.49406 1.75289 7.47764 1.73281 7.46393 1.71092C7.16974 1.26458 6.86906 0.823017 6.56804 0.379066C6.31485 0.00717175 5.99435 -0.08879 5.57647 0.082985C5.10324 0.277299 4.63172 0.475028 4.15951 0.672074C3.69551 0.865705 3.54448 1.15018 3.64459 1.64672C3.7471 2.16512 3.84961 2.68351 3.94254 3.20362C3.94428 3.21768 3.94428 3.2319 3.94254 3.24597C3.69303 3.45869 3.46055 3.69059 3.24722 3.93955C3.22929 3.93852 3.21147 3.93612 3.19391 3.93238C2.67592 3.82583 2.15656 3.72748 1.63721 3.62708C1.15885 3.5359 0.874227 3.68855 0.687327 4.1325C0.488695 4.60377 0.29086 5.07527 0.0938229 5.547C-0.0882943 5.9831 0.00498522 6.2983 0.396896 6.56365C0.829809 6.85768 1.26204 7.15308 1.69939 7.44062C1.72388 7.45633 1.74677 7.4744 1.76773 7.49458C1.7544 7.66123 1.74723 7.82993 1.74723 8C1.74723 8.17007 1.75372 8.32955 1.76636 8.4921C1.75071 8.50652 1.73391 8.51966 1.71613 8.53138C1.2511 8.83873 0.787781 9.14915 0.329926 9.46743C0.0401786 9.66892 -0.075652 9.99027 0.0470123 10.3065C0.26569 10.8677 0.496781 11.4238 0.740288 11.9747C0.874569 12.2797 1.18823 12.432 1.51522 12.3729C1.99051 12.2872 2.46818 12.2073 2.93731 12.0929C3.04038 12.0634 3.14832 12.0549 3.25473 12.068C3.46598 12.3136 3.69581 12.5426 3.9422 12.753C3.94161 12.7925 3.93691 12.8319 3.92819 12.8705C3.82193 13.3827 3.72045 13.895 3.62751 14.4096C3.54995 14.8399 3.70951 15.1268 4.1086 15.2945C4.60108 15.5014 5.0947 15.7056 5.58946 15.9071C5.69587 15.944 5.80423 15.975 5.91405 16C6.18125 15.9822 6.38284 15.8685 6.55471 15.6158C6.85881 15.1691 7.16074 14.7211 7.46051 14.2717C7.47078 14.2561 7.48221 14.2414 7.49468 14.2276C7.66119 14.2408 7.82942 14.2475 7.99935 14.2478C8.16928 14.248 8.33739 14.2413 8.50367 14.2276C8.51522 14.2401 8.52563 14.2536 8.53477 14.2679C8.83567 14.7232 9.14057 15.1762 9.44945 15.6267C9.66779 15.9467 9.99307 16.0686 10.3406 15.9341C10.8909 15.7189 11.4367 15.4924 11.9779 15.2545C12.2878 15.1179 12.4416 14.8164 12.3831 14.4844C12.2834 13.9192 12.1669 13.3575 12.0667 12.7919C12.0647 12.7768 12.0647 12.7614 12.0667 12.7462C12.3147 12.5336 12.5456 12.302 12.7576 12.0536C12.7975 12.0524 12.8373 12.0563 12.8762 12.0652C13.3887 12.1718 13.9012 12.2701 14.4162 12.3657C14.8521 12.446 15.1436 12.2852 15.3144 11.8788C15.5167 11.3968 15.7171 10.914 15.9155 10.4305C16.0925 9.99846 15.992 9.67711 15.6015 9.41347ZM7.99935 10.802C7.44477 10.8021 6.90263 10.6378 6.44148 10.3299C5.98034 10.022 5.62091 9.58431 5.40865 9.07223C5.19639 8.56015 5.14084 7.99667 5.24901 7.45303C5.35719 6.90939 5.62424 6.41003 6.01638 6.01809C6.40853 5.62616 6.90816 5.35925 7.45208 5.25113C7.99601 5.14301 8.5598 5.19854 9.07215 5.41068C9.5845 5.62283 10.0224 5.98207 10.3305 6.44297C10.6385 6.90386 10.8029 7.44572 10.8029 8C10.8029 8.74314 10.5075 9.45584 9.98173 9.98132C9.45597 10.5068 8.74288 10.802 7.99935 10.802Z" fill="white"/>
</g>
<defs>
<clipPath id="clip0">
<rect width="16" height="16" fill="white"/>
</clipPath>
</defs>
</svg>
