<svg width="22" height="20" viewBox="0 0 22 20" fill="none" xmlns="http://www.w3.org/2000/svg">
<circle cx="12.5" cy="9.5" r="9.5" fill="#E01414"/>
<rect y="9.18201" width="5.91425" height="5.91425" transform="rotate(-45 0 9.18201)" fill="#E01414"/>
<path d="M11.624 5.6H13.856L13.484 11.084H11.996L11.624 5.6ZM12.74 14.096C12.412 14.096 12.136 13.992 11.912 13.784C11.696 13.568 11.588 13.308 11.588 13.004C11.588 12.7 11.696 12.448 11.912 12.248C12.128 12.04 12.404 11.936 12.74 11.936C13.076 11.936 13.352 12.04 13.568 12.248C13.784 12.448 13.892 12.7 13.892 13.004C13.892 13.308 13.78 13.568 13.556 13.784C13.34 13.992 13.068 14.096 12.74 14.096Z" fill="white"/>
</svg>
