<svg width="31" height="18" viewBox="0 0 31 18" fill="none" xmlns="http://www.w3.org/2000/svg">
<g clip-path="url(#clip0)">
<path d="M8.556 0.438568C9.42402 0.438568 10.2725 0.689628 10.9943 1.16C11.716 1.63037 12.2785 2.29893 12.6107 3.08112C12.9429 3.86332 13.0298 4.72403 12.8604 5.55441C12.6911 6.38478 12.2731 7.14753 11.6593 7.7462C11.0455 8.34487 10.2635 8.75257 9.41221 8.91774C8.56087 9.08291 7.67843 8.99814 6.87649 8.67414C6.07455 8.35015 5.38912 7.80148 4.90688 7.09752C4.42463 6.39356 4.16724 5.56593 4.16724 4.71928C4.16891 3.58447 4.63184 2.4966 5.45453 1.69416C6.27722 0.891729 7.39254 0.440202 8.556 0.438568V0.438568Z" stroke="white" stroke-width="1.42" stroke-miterlimit="22.93"/>
<path d="M8.55585 1.71104C9.16584 1.71104 9.76213 1.88747 10.2693 2.21802C10.7765 2.54857 11.1718 3.0184 11.4052 3.56808C11.6387 4.11776 11.6998 4.72262 11.5808 5.30616C11.4617 5.8897 11.168 6.42572 10.7367 6.84642C10.3054 7.26713 9.75581 7.55364 9.15754 7.66971C8.55927 7.78579 7.93914 7.72621 7.37559 7.49853C6.81203 7.27084 6.33035 6.88527 5.99146 6.39057C5.65256 5.89586 5.47168 5.31425 5.47168 4.71928C5.47335 3.92195 5.79883 3.15774 6.37686 2.59394C6.95489 2.03014 7.73839 1.71268 8.55585 1.71104V1.71104Z" stroke="white" stroke-width="0.71" stroke-miterlimit="22.93"/>
<path d="M8.55601 3.21207C8.8619 3.21085 9.16127 3.2982 9.41622 3.46307C9.67117 3.62794 9.87021 3.86291 9.98814 4.1382C10.1061 4.4135 10.1376 4.71674 10.0787 5.00951C10.0198 5.30229 9.87309 5.57143 9.65724 5.78283C9.44139 5.99424 9.16606 6.1384 8.86614 6.19706C8.56622 6.25571 8.2552 6.22623 7.97247 6.11234C7.68974 5.99844 7.44803 5.80527 7.27796 5.55728C7.10788 5.30928 7.01709 5.01764 7.01709 4.71928C7.01709 4.32061 7.17902 3.93818 7.46744 3.6557C7.75586 3.37322 8.14728 3.21371 8.55601 3.21207V3.21207Z" stroke="white" stroke-width="0.71" stroke-miterlimit="22.93"/>
<path d="M4.83848 8.96293C5.70828 8.9617 6.5589 9.21224 7.28264 9.68282C8.00638 10.1534 8.57069 10.8229 8.90413 11.6064C9.23757 12.39 9.32514 13.2525 9.15576 14.0846C8.98638 14.9168 8.56765 15.6812 7.95261 16.2811C7.33756 16.881 6.55385 17.2894 5.70069 17.4546C4.84754 17.6198 3.96331 17.5344 3.15995 17.2092C2.35659 16.884 1.67024 16.3336 1.18778 15.6276C0.705322 14.9217 0.448459 14.092 0.449712 13.2436C0.449712 12.1083 0.912098 11.0195 1.73515 10.2167C2.5582 9.41393 3.6745 8.96293 4.83848 8.96293V8.96293Z" stroke="white" stroke-width="1.42" stroke-miterlimit="22.93"/>
<path d="M4.83857 10.2354C5.45035 10.2342 6.04874 10.4101 6.55794 10.7408C7.06714 11.0716 7.46424 11.5423 7.69893 12.0934C7.93363 12.6445 7.99537 13.2511 7.87632 13.8364C7.75728 14.4217 7.4628 14.9594 7.03021 15.3813C6.59761 15.8033 6.04636 16.0905 5.44627 16.2066C4.84618 16.3227 4.22426 16.2625 3.65929 16.0336C3.09432 15.8047 2.61171 15.4173 2.2726 14.9207C1.9335 14.424 1.75315 13.8404 1.7544 13.2436C1.7544 12.4458 2.07934 11.6806 2.65773 11.1165C3.23613 10.5523 4.0206 10.2354 4.83857 10.2354V10.2354Z" stroke="white" stroke-width="0.71" stroke-miterlimit="22.93"/>
<path d="M4.83848 11.7364C5.1441 11.7364 5.44286 11.8248 5.69697 11.9905C5.95109 12.1561 6.14914 12.3915 6.2661 12.6669C6.38306 12.9423 6.41366 13.2453 6.35403 13.5377C6.29441 13.8301 6.14724 14.0986 5.93113 14.3094C5.71503 14.5202 5.43969 14.6637 5.13994 14.7219C4.84019 14.7801 4.52949 14.7502 4.24713 14.6361C3.96478 14.5221 3.72344 14.3289 3.55365 14.081C3.38385 13.8332 3.29323 13.5418 3.29323 13.2437C3.29239 13.0455 3.33179 12.8491 3.40914 12.6659C3.4865 12.4827 3.60029 12.3162 3.74395 12.1761C3.88761 12.036 4.05829 11.925 4.24614 11.8495C4.434 11.7741 4.63532 11.7356 4.83848 11.7364V11.7364Z" stroke="white" stroke-width="0.71" stroke-miterlimit="22.93"/>
<path d="M14.3253 8.96293C15.1951 8.9617 16.0457 9.21224 16.7695 9.68282C17.4932 10.1534 18.0575 10.8229 18.391 11.6064C18.7244 12.39 18.812 13.2525 18.6426 14.0846C18.4732 14.9168 18.0545 15.6812 17.4394 16.2811C16.8244 16.881 16.0407 17.2894 15.1875 17.4546C14.3344 17.6198 13.4501 17.5344 12.6468 17.2092C11.8434 16.884 11.1571 16.3336 10.6746 15.6276C10.1921 14.9217 9.93528 14.092 9.93653 13.2436C9.93653 12.1083 10.3989 11.0195 11.222 10.2167C12.045 9.41393 13.1613 8.96293 14.3253 8.96293V8.96293Z" stroke="white" stroke-width="1.42" stroke-miterlimit="22.93"/>
<path d="M14.3254 10.2354C14.9372 10.2342 15.5356 10.4101 16.0448 10.7408C16.554 11.0716 16.9511 11.5423 17.1857 12.0934C17.4204 12.6445 17.4822 13.2511 17.3631 13.8364C17.2441 14.4217 16.9496 14.9594 16.517 15.3813C16.0844 15.8033 15.5332 16.0905 14.9331 16.2066C14.333 16.3227 13.7111 16.2625 13.1461 16.0336C12.5811 15.8047 12.0985 15.4173 11.7594 14.9207C11.4203 14.424 11.24 13.8404 11.2412 13.2436C11.2412 12.4458 11.5662 11.6806 12.1445 11.1165C12.7229 10.5523 13.5074 10.2354 14.3254 10.2354V10.2354Z" stroke="white" stroke-width="0.71" stroke-miterlimit="22.93"/>
<path d="M14.3253 11.7364C14.6312 11.7365 14.9302 11.825 15.1844 11.9909C15.4387 12.1568 15.6367 12.3925 15.7535 12.6683C15.8703 12.9441 15.9005 13.2474 15.8404 13.54C15.7802 13.8325 15.6324 14.1011 15.4157 14.3116C15.1989 14.5221 14.923 14.6652 14.6229 14.7226C14.3227 14.7801 14.0118 14.7494 13.7295 14.6343C13.4473 14.5193 13.2064 14.3252 13.0374 14.0765C12.8683 13.8278 12.7788 13.5358 12.78 13.2375C12.78 13.0398 12.8201 12.8441 12.8978 12.6616C12.9755 12.4791 13.0894 12.3134 13.233 12.1739C13.3766 12.0344 13.547 11.924 13.7344 11.8489C13.9219 11.7739 14.1227 11.7356 14.3253 11.7364V11.7364Z" stroke="white" stroke-width="0.71" stroke-miterlimit="22.93"/>
<path d="M8.55591 0.438568H21.4309" stroke="white" stroke-width="1.42" stroke-miterlimit="22.93"/>
<path d="M6.95361 9H26.1552" stroke="white" stroke-width="1.42" stroke-miterlimit="22.93"/>
<path d="M4.83838 17.5244H26.1552" stroke="white" stroke-width="1.42" stroke-miterlimit="22.93"/>
<path d="M26.1553 9C27.3192 9 28.4355 9.451 29.2586 10.2538C30.0816 11.0566 30.544 12.1454 30.544 13.2807C30.544 14.416 30.0816 15.5048 29.2586 16.3076C28.4355 17.1104 27.3192 17.5614 26.1553 17.5614" stroke="white" stroke-width="1.42" stroke-miterlimit="22.93"/>
<path d="M21.4309 0.438568C22.5949 0.438568 23.7112 0.889571 24.5342 1.69236C25.3573 2.49515 25.8197 3.58397 25.8197 4.71928C25.8197 5.8546 25.3573 6.94341 24.5342 7.7462C23.7112 8.54899 22.5949 9 21.4309 9" stroke="white" stroke-width="1.42" stroke-miterlimit="22.93"/>
<path d="M11.8555 1.89635H24.5341" stroke="white" stroke-width="0.71" stroke-miterlimit="22.93"/>
<path d="M11.9187 7.3013H24.724" stroke="white" stroke-width="0.71" stroke-miterlimit="22.93"/>
<path d="M17.3904 10.186H29.2267" stroke="white" stroke-width="0.71" stroke-miterlimit="22.93"/>
<path d="M17.9287 15.5353H29.9361" stroke="white" stroke-width="0.71" stroke-miterlimit="22.93"/>
</g>
<defs>
<clipPath id="clip0">
<rect width="31" height="18" fill="white"/>
</clipPath>
</defs>
</svg>
