<svg width="25" height="27" viewBox="0 0 25 27" fill="none" xmlns="http://www.w3.org/2000/svg">
<path d="M0 20.4C0 18.7999 0.500009 17.5 1.40001 16.3C2.70001 14.5 4 12.6 5.3 10.8C7.3 7.99996 9.20001 5.19996 11.2 2.49996C13.4 -0.600043 18.2 -0.20004 19.8 3.29996C20.4 4.49996 20.8 5.79995 21.2 7.09995C22.3 10.1999 23.4 13.2 24.5 16.3C24.7 16.8 24.9 17.3 24.9 17.7C25.1 19.2 24.2 20.4999 22.8 21.0999C18.3 22.7999 13.9 24.5 9.40001 26.2C8.70001 26.5 8.00001 26.7999 7.20001 26.9C4.80001 27.1999 2.8 26.4 1.3 24.5C0.400003 23.2 0 21.7999 0 20.4ZM20 7.09995C19 9.49995 16.9 10.4 15.2 10.3C12.4 10.1 10.9 8.49996 10.3 5.79996C8.3 8.59996 6.30001 11.4 4.40001 14.2C7.30001 13.4 9.80001 14.1 11.6 16.4C13.4 18.8 13.4 21.2999 11.9 23.9C14.7 22.7999 17.4 21.8 20.1 20.8C18.4 19.6 18.3 17.9 18.7 16.8C19 16.2 19.4 15.6 20 15.3C20.9 14.8 21.8 14.7 22.8 14.9C21.8 12.3 20.9 9.69995 20 7.09995ZM2.3 20.3C2.2 22.5 4.1 24.4 6.3 24.5C8.6 24.6 10.4 22.7999 10.5 20.4C10.6 18.1999 8.7 16.3 6.5 16.2C4.3 16.1 2.4 18 2.3 20.3ZM12.6 5.29996C12.6 6.79996 13.8 7.99996 15.2 7.99996C16.7 7.99996 17.9 6.79995 17.9 5.39995C17.9 3.89995 16.7 2.79995 15.3 2.69995C13.8 2.69995 12.6 3.79996 12.6 5.29996Z" fill="white"/>
<path d="M9.39998 20.2999C9.39998 21.8999 8.09997 23.1999 6.49997 23.1999C4.89997 23.1999 3.59998 21.8999 3.59998 20.1999C3.59998 18.5999 4.89998 17.2999 6.59998 17.2999C8.09998 17.3999 9.39998 18.6999 9.39998 20.2999Z" fill="white"/>
<path d="M16.7 5.29994C16.7 6.09994 16 6.79994 15.2 6.79994C14.4 6.79994 13.7 6.09994 13.7 5.29994C13.7 4.49994 14.4 3.89993 15.2 3.89993C16.1 3.79993 16.7 4.49994 16.7 5.29994Z" fill="white"/>
</svg>
