<svg width="29" height="25" viewBox="0 0 29 25" fill="none" xmlns="http://www.w3.org/2000/svg">
<path d="M8.88385 7.00162L0.6521 11.744L8.23994 24.9148L16.4717 20.1724L8.88385 7.00162Z" fill="white"/>
<path d="M20.7476 0.101435L16.1552 2.74719L23.743 15.918L28.3354 13.2722L20.7476 0.101435Z" fill="white"/>
<path d="M14 10.3L6.5 14.6C6.1 14.8 5.6 14.7 5.3 14.3L5.1 14C4.9 13.6 5 13.1 5.4 12.8L12.9 8.50002C13.3 8.30002 13.8 8.40003 14.1 8.80003L14.3 9.10003C14.5 9.50003 14.4 10 14 10.3Z" fill="white"/>
<path d="M17.4 16.2001L9.90002 20.5C9.50002 20.7 9.00002 20.6001 8.70002 20.2001L8.50003 19.9C8.30003 19.5 8.40002 19.0001 8.80002 18.7001L16.3 14.4C16.7 14.2 17.2 14.3001 17.5 14.7001L17.7 15C18 15.5 17.8 16.0001 17.4 16.2001Z" fill="white"/>
</svg>
