<?xml version="1.0" encoding="utf-8"?>
<!-- Generator: Adobe Illustrator 22.1.0, SVG Export Plug-In . SVG Version: 6.00 Build 0)  -->
<svg version="1.1" id="Слой_1" xmlns="http://www.w3.org/2000/svg" xmlns:xlink="http://www.w3.org/1999/xlink" x="0px" y="0px"
	 viewBox="0 0 23.6 23.6" style="enable-background:new 0 0 23.6 23.6;" xml:space="preserve">
<style type="text/css">
	.st0{fill:#FFFFFF;}
	.st1{fill:none;}
</style>
<title>Фасады корзинкаРесурс 8</title>
<polygon class="st0" points="14,22.1 12.9,23.1 11.9,22.1 10.8,21.1 8.5,18.7 7.2,17.5 6.1,16.4 0.5,10.7 1.5,9.6 2.5,10.6 
	3.6,11.7 6,14.1 7.2,15.3 8.3,16.4 9.5,17.6 10.6,18.7 11.9,20 13,21.1 "/>
<polygon class="st0" points="16.3,19.7 15.2,20.8 14.2,19.8 13.1,18.7 11.9,17.5 10.8,16.4 7.2,12.8 6.1,11.7 4.9,10.5 2.8,8.4 
	3.9,7.3 6,9.4 7.2,10.6 8.3,11.7 13,16.4 14.2,17.6 15.3,18.7 "/>
<polygon class="st0" points="18.6,17.4 17.6,16.4 16.5,15.3 15.3,14.1 14.2,13 13,11.7 11.9,10.7 10.6,9.4 9.5,8.3 8.3,7.1 7.2,6 
	6.2,5 5.1,6 6.1,7.1 7.2,8.1 8.5,9.4 9.5,10.5 10.8,11.7 11.9,12.8 13.1,14.1 14.2,15.1 15.5,16.4 16.5,17.5 17.6,18.5 "/>
<polygon class="st0" points="21,15.1 19.9,16.2 18.9,15.1 15.5,11.7 14.2,10.5 13.1,9.4 11.9,8.1 9.5,5.8 8.5,4.7 7.5,3.7 8.5,2.6 
	10.6,4.7 11.9,6 13,7.1 14.2,8.3 16.5,10.6 17.6,11.7 18.9,13 20,14.1 "/>
<polygon class="st0" points="23.3,12.7 22.3,11.7 21.2,10.6 20,9.4 18.9,8.3 17.6,7.1 16.5,6 15.3,4.7 14.2,3.7 13,2.4 11.9,1.3 
	10.9,0.3 9.8,1.4 10.8,2.4 11.9,3.5 13.1,4.7 14.2,5.8 15.5,7.1 16.5,8.1 17.8,9.4 18.9,10.5 20.1,11.7 21.2,12.8 22.2,13.8 "/>
<polygon class="st0" points="14.3,1.1 10.6,4.7 9.5,5.8 7.2,8.1 6,9.4 4.9,10.5 3.6,11.7 2.5,12.8 1.1,14.3 0,13.2 1.5,11.7 
	2.5,10.6 3.8,9.4 4.9,8.3 6.1,7.1 7.2,6 8.5,4.7 9.5,3.7 10.8,2.4 11.9,1.3 13.2,0 "/>
<polygon class="st0" points="16.6,3.4 15.3,4.7 14.2,5.8 13,7.1 9.5,10.5 8.3,11.7 7.2,12.8 6,14.1 3.4,16.6 2.3,15.5 4.9,13 
	6.1,11.7 7.2,10.6 8.5,9.4 11.9,6 13.1,4.7 14.2,3.7 15.5,2.3 "/>
<polygon class="st0" points="18.9,5.8 16.5,8.1 15.3,9.4 11.9,12.8 10.6,14.1 9.5,15.1 8.3,16.4 5.8,18.9 4.7,17.8 6.1,16.4 
	7.2,15.3 8.5,14.1 9.5,13 10.8,11.7 14.2,8.3 15.5,7.1 17.8,4.7 "/>
<polygon class="st0" points="21.3,8.1 20,9.4 18.9,10.5 17.6,11.7 14.2,15.1 13,16.4 11.9,17.5 10.6,18.7 8.1,21.3 7,20.2 8.5,18.7 
	9.5,17.6 10.8,16.4 11.9,15.3 13.1,14.1 14.2,13 15.5,11.7 16.5,10.6 20.2,7 "/>
<polygon class="st0" points="23.6,10.4 22.3,11.7 20,14.1 18.9,15.1 16.5,17.5 15.3,18.7 14.2,19.8 13,21.1 11.9,22.1 10.4,23.6 
	9.3,22.5 10.8,21.1 11.9,20 13.1,18.7 14.2,17.6 15.5,16.4 18.9,13 20.1,11.7 21.2,10.6 22.5,9.3 "/>
<line class="st1" x1="18.6" y1="17.4" x2="17.6" y2="18.5"/>
<line class="st1" x1="23.3" y1="12.7" x2="22.2" y2="13.8"/>
</svg>
