<?xml version="1.0" encoding="utf-8"?>
<!-- Generator: Adobe Illustrator 22.1.0, SVG Export Plug-In . SVG Version: 6.00 Build 0)  -->
<svg version="1.1" id="Слой_1" xmlns="http://www.w3.org/2000/svg" xmlns:xlink="http://www.w3.org/1999/xlink" x="0px" y="0px"
	 viewBox="0 0 15.6 22.1" style="enable-background:new 0 0 15.6 22.1;" xml:space="preserve">
<style type="text/css">
	.st0{fill:none;stroke:#FFFFFF;stroke-linecap:round;stroke-linejoin:round;stroke-miterlimit:10;}
</style>
<title>ПровансРесурс 9</title>
<g>
	<g>
		<ellipse transform="matrix(0.4947 -0.8691 0.8691 0.4947 4.2591 12.7882)" class="st0" cx="13.1" cy="2.7" rx="2.4" ry="1.6"/>
		<g>
			<ellipse class="st0" cx="5.4" cy="12.4" rx="1.6" ry="2.4"/>
			<ellipse class="st0" cx="7.5" cy="8.6" rx="1.6" ry="2.4"/>
			<ellipse class="st0" cx="9.7" cy="4.9" rx="1.6" ry="2.4"/>
			<ellipse transform="matrix(0.8629 -0.5054 0.5054 0.8629 -5.9928 6.3019)" class="st0" cx="8.6" cy="14.2" rx="2.3" ry="1.6"/>
			<ellipse transform="matrix(0.8629 -0.5054 0.5054 0.8629 -3.8032 6.9036)" class="st0" cx="10.8" cy="10.5" rx="2.3" ry="1.6"/>
			<ellipse transform="matrix(0.8629 -0.5054 0.5054 0.8629 -1.6511 7.4686)" class="st0" cx="12.9" cy="6.8" rx="2.3" ry="1.6"/>
		</g>
	</g>
	<path class="st0" d="M6.4,14.2c0,0-2.6,2.7-3.5,7.4"/>
	<path class="st0" d="M2.5,19.1c0.6,1.1,0.4,2.5,0.4,2.5s-1.3-0.4-2-1.6c-0.6-1.1-0.4-2.5-0.4-2.5S1.9,18,2.5,19.1z"/>
</g>
</svg>
