<svg width="27" height="27" viewBox="0 0 27 27" fill="none" xmlns="http://www.w3.org/2000/svg">
<path d="M21.8 8.49994C21.8 8.79994 21.8 9.09994 21.8 9.39994C21.8 9.79994 21.7 10.1999 21.7 10.4999C21.7 10.5999 21.7 10.5999 21.8 10.6999C22.3 10.8999 22.8 11.1999 23.2 11.5999C24 12.1999 24.7 12.9999 25.3 13.8999C25.7 14.5999 26 15.3999 26.2 16.1999C26.4 16.9999 26.5 17.8999 26.4 18.7999C26.2 20.9999 25.3 22.7999 23.8 24.2999C22.9 25.0999 21.9 25.6999 20.7 26.0999C20.3 26.1999 19.9 26.2999 19.5 26.3999C18.9 26.4999 18.3 26.5999 17.6 26.4999C17.2 26.3999 16.8 26.3999 16.3 26.2999C15.3 26.0999 14.5 25.6999 13.6 25.1999C13.5 25.0999 13.4 25.0999 13.3 25.1999C12.7 25.5999 12 25.8999 11.3 26.0999C10.4 26.3999 9.59999 26.4999 8.7 26.4999C8.1 26.4999 7.50001 26.3999 7.00001 26.2999C5.60001 25.9999 4.40001 25.2999 3.40001 24.3999C2.70001 23.6999 2.10002 22.9999 1.60002 22.0999C1.30002 21.4999 1.10001 20.8999 0.900007 20.2999C0.700007 19.4999 0.599995 18.5999 0.699995 17.7999C0.699995 17.1999 0.900019 16.4999 1.10002 15.8999C1.40002 14.8999 1.90002 13.9999 2.60002 13.1999C3.40002 12.2999 4.30001 11.4999 5.40001 10.9999C5.50001 10.8999 5.60001 10.8999 5.50001 10.6999C5.30001 9.89994 5.30001 9.19994 5.40001 8.39994C5.50001 7.49994 5.70002 6.59994 6.10002 5.69994C6.90002 3.89994 8.30001 2.59994 10 1.69994C10.7 1.39994 11.4 1.09994 12.1 0.999944C12.7 0.899944 13.3 0.799941 13.9 0.899941C14.5 0.899941 15 0.999942 15.5 1.09994C16.9 1.39994 18.1 2.09994 19.2 3.09994C19.9 3.79994 20.5 4.59994 21 5.39994C21.4 6.09994 21.6 6.79994 21.7 7.59994C21.7 7.69994 21.7 8.09994 21.8 8.49994ZM25.5 18.0999C25.5 17.3999 25.4 16.6999 25.2 16.0999C25 15.2999 24.6 14.4999 24.1 13.7999C23.7 13.1999 23.1 12.5999 22.5 12.1999C22.2 11.9999 21.8 11.7999 21.4 11.4999C21.3 11.3999 21.3 11.4999 21.2 11.5999C21.2 11.6999 21.1 11.8999 21 11.9999C20.2 13.8999 18.9 15.2999 17.1 16.2999C16.8 16.3999 16.8 16.3999 16.9 16.6999C17.1 17.5999 17.1 18.5999 16.9 19.4999C16.8 20.2999 16.5 21.0999 16.1 21.7999C15.6 22.6999 15 23.4999 14.2 24.1999C14.1 24.2999 14.1 24.2999 14.2 24.3999C14.9 24.7999 15.6 25.0999 16.3 25.1999C17.2 25.3999 18.1 25.3999 19.1 25.2999C19.9 25.1999 20.7 24.8999 21.4 24.4999C24.1 23.1999 25.4 20.9999 25.5 18.0999ZM9.00001 25.4999C9.20001 25.4999 9.50001 25.4999 9.90001 25.3999C10.8 25.2999 11.7 24.9999 12.6 24.4999C12.8 24.3999 12.8 24.3999 12.6 24.1999C12.1 23.6999 11.6 23.1999 11.2 22.5999C10.7 21.8999 10.4 21.0999 10.1 20.2999C10 19.7999 9.8 19.2999 9.8 18.6999C9.8 17.9999 9.80001 17.1999 9.90001 16.4999C9.90001 16.2999 9.89999 16.2999 9.7 16.1999C8.8 15.7999 8 15.1999 7.3 14.3999C6.5 13.5999 5.90002 12.5999 5.60002 11.4999C5.50002 11.2999 5.50001 11.2999 5.40001 11.3999C4.50001 11.8999 3.70002 12.4999 3.10002 13.2999C2.20002 14.3999 1.60001 15.6999 1.50001 17.1999C1.40001 18.1999 1.5 19.1999 1.8 20.1999C2 20.8999 2.4 21.5999 2.8 22.1999C3.6 23.2999 4.6 24.0999 5.8 24.6999C6.8 25.2999 7.80001 25.4999 9.00001 25.4999ZM10.7 18.0999C10.7 18.7999 10.8 19.4999 11 20.1999C11.2 20.8999 11.5 21.4999 11.9 22.0999C12.3 22.6999 12.8 23.2999 13.4 23.7999C13.5 23.8999 13.6 23.8999 13.7 23.7999C14.2 23.3999 14.7 22.8999 15.1 22.2999C15.7 21.3999 16.1 20.2999 16.3 19.1999C16.4 18.4999 16.4 17.7999 16.3 17.0999C16.3 16.7999 16.3 16.7999 16 16.8999C15.5 16.9999 15 17.0999 14.6 17.1999C14 17.2999 13.4 17.2999 12.8 17.1999C12.2 17.0999 11.7 16.9999 11.1 16.8999C11 16.8999 10.9 16.8999 10.9 16.9999C10.8 17.2999 10.8 17.6999 10.7 18.0999ZM14.3 11.7999C14.3 11.8999 14.4 11.8999 14.4 11.8999C14.7 12.1999 15.1 12.5999 15.4 12.8999C16 13.5999 16.5 14.4999 16.8 15.3999C16.8 15.4999 16.9 15.4999 17 15.4999C18.7 14.5999 19.9 13.1999 20.6 11.3999C20.7 11.1999 20.7 11.1999 20.5 11.1999C20.2 11.0999 19.8 10.9999 19.5 10.9999C18.9 10.8999 18.2 10.8999 17.6 10.8999C17 10.9999 16.4 11.0999 15.8 11.2999C15.2 11.2999 14.7 11.5999 14.3 11.7999ZM6.50001 11.0999C6.70001 11.9999 7.50001 13.2999 8.50001 14.2999C9.00001 14.7999 9.6 15.1999 10.3 15.4999C10.5 14.7999 10.9 14.0999 11.3 13.4999C11.7 12.8999 12.2 12.2999 12.8 11.7999C11.8 11.1999 10.8 10.8999 9.7 10.7999C8.5 10.6999 7.50001 10.7999 6.50001 11.0999ZM13.5 16.2999C13.8 16.2999 14.2 16.2999 14.5 16.1999C14.9 16.0999 15.3 15.9999 15.7 15.8999C15.9 15.8999 15.9 15.7999 15.8 15.6999C15.7 15.3999 15.6 15.1999 15.5 14.8999C15 13.8999 14.4 13.0999 13.6 12.4999C13.5 12.3999 13.5 12.3999 13.4 12.4999C12.6 13.1999 12 13.8999 11.5 14.8999C11.4 15.1999 11.2 15.4999 11.1 15.7999C11 15.9999 11.1 15.9999 11.2 15.9999C11.3 15.9999 11.5 16.0999 11.6 16.0999C12.3 16.1999 12.9 16.2999 13.5 16.2999Z" fill="white"/>
</svg>
