<svg width="28" height="37" viewBox="0 0 28 37" fill="none" xmlns="http://www.w3.org/2000/svg">
<path d="M6.36269 10.6251C6.18538 10.3166 6.02349 10.0467 5.86161 9.7691C5.56095 9.25241 5.27572 8.73571 4.96736 8.21902C4.87485 8.05707 4.89798 7.96452 5.01361 7.84113C5.64575 7.18562 6.27018 6.5224 6.89461 5.85918C8.23598 4.43248 10.1787 4.1857 11.8284 5.21909C12.8999 5.89774 13.9561 5.85147 14.9659 5.08028C16.8547 3.64587 18.7357 2.20375 20.6166 0.761627C20.8325 0.599678 21.0484 0.514846 21.3105 0.630524C21.588 0.753914 21.6805 0.97756 21.7036 1.2629C21.827 3.16002 21.9426 5.05714 22.0814 6.94656C22.1045 7.28588 22.0274 7.50181 21.7422 7.71774C20.4856 8.64317 19.2444 9.59944 18.0033 10.5557C17.4637 10.9722 16.8624 11.1804 16.1763 11.1341C15.6983 11.1033 15.2666 10.9259 14.8734 10.6714C14.195 10.2241 13.4473 10.0159 12.6301 10.0544C11.5894 10.1007 10.7106 10.5094 9.99363 11.2652C9.3692 11.9284 8.76019 12.6071 8.15118 13.278C7.997 13.4477 7.97387 13.4477 7.86595 13.2549C7.60384 12.8076 7.34944 12.3526 7.08734 11.9053C7.01796 11.7819 6.64792 11.0416 6.36269 10.6251Z" fill="white"/>
<path d="M24.3394 9.56073C24.8945 9.88463 25.5189 10.2548 25.65 10.3319C26.3052 10.7329 26.9605 11.1262 27.6235 11.5273C28.0783 11.8049 28.1014 12.3139 27.6697 12.6301C25.4958 14.2573 23.3218 15.8922 21.1402 17.5117C19.8836 18.4448 18.1568 18.4834 16.8386 17.6351C15.7053 16.9024 14.3331 17.0952 13.4466 18.0978C12.9378 18.6685 12.4367 19.2391 11.9279 19.8098C11.7738 19.9795 11.7583 19.9795 11.6427 19.7944C10.6714 18.1132 9.70774 16.432 8.73641 14.7508C8.65932 14.612 8.67473 14.5272 8.77495 14.4115C9.46105 13.6712 10.1472 12.9231 10.8333 12.1751C11.45 11.4964 12.2132 11.1956 13.1228 11.2882C13.5314 11.3345 13.9014 11.4887 14.2406 11.7123C14.919 12.1519 15.6591 12.391 16.4762 12.3679C17.3011 12.3447 18.0335 12.0748 18.681 11.5812C19.9607 10.6095 21.2327 9.64556 22.5047 8.66615C22.6357 8.5659 22.736 8.55818 22.8824 8.65073C23.3141 8.92064 23.7536 9.18285 24.193 9.45276C24.2238 9.4759 24.2623 9.50675 24.3394 9.56073Z" fill="white"/>
<path d="M0.411133 9.60706C0.411133 8.7896 0.950763 8.06468 1.72937 7.84104C2.51569 7.60968 3.37139 7.93358 3.78768 8.65078C4.72817 10.2549 5.66096 11.8744 6.58604 13.4861C9.14543 17.9205 11.7048 22.3625 14.2642 26.7969C14.3182 26.8971 14.3798 26.9974 14.4415 27.0976C14.4955 27.1902 14.4801 27.2596 14.3798 27.3213C13.4239 27.8765 12.468 28.4395 11.5121 28.9947C11.3579 29.0873 11.3117 28.9793 11.25 28.8791C10.4483 27.4832 9.63881 26.0796 8.82936 24.6838C6.1235 19.995 3.41764 15.2984 0.704075 10.6096C0.534477 10.2934 0.418842 9.96952 0.411133 9.60706Z" fill="white"/>
<path d="M16.3913 36.2516C15.8825 36.2285 15.3582 35.9508 15.0036 35.3724C14.6644 34.8172 14.3484 34.2465 14.0169 33.6758C13.9475 33.5524 10.9872 28.4163 10.9872 28.4163C11.9355 27.8688 13.1766 27.0899 14.1171 26.5346C14.1171 26.5346 17.0774 31.663 17.139 31.771C17.5091 32.4188 17.9253 33.0512 18.2337 33.7298C18.7733 34.9406 17.8637 36.2593 16.3913 36.2516Z" fill="white"/>
</svg>
