<svg width="31" height="21" viewBox="0 0 31 21" fill="none" xmlns="http://www.w3.org/2000/svg">
<path d="M28.5998 20.1999H2.49985C1.19985 20.1999 0.0998535 19.1 0.0998535 17.8V3.09995C0.0998535 1.79995 1.19985 0.699951 2.49985 0.699951H28.5998C29.8998 0.699951 30.9999 1.79995 30.9999 3.09995V17.8C30.9999 19.2 29.8998 20.1999 28.5998 20.1999Z" fill="white"/>
<path d="M27.3998 4.19995H3.69983V16.8H27.3998V4.19995Z" fill="#FF6600"/>
<path d="M24.6999 10H20.3999V11H24.6999V10Z" fill="white"/>
<path d="M15.5 12.4C16.5493 12.4 17.4 11.5493 17.4 10.5C17.4 9.45064 16.5493 8.59998 15.5 8.59998C14.4506 8.59998 13.6 9.45064 13.6 10.5C13.6 11.5493 14.4506 12.4 15.5 12.4Z" fill="white"/>
<path d="M10.8 10H6.5V11H10.8V10Z" fill="white"/>
</svg>
