<?xml version="1.0" encoding="utf-8"?>
<!-- Generator: Adobe Illustrator 22.1.0, SVG Export Plug-In . SVG Version: 6.00 Build 0)  -->
<svg version="1.1" id="Слой_1" xmlns="http://www.w3.org/2000/svg" xmlns:xlink="http://www.w3.org/1999/xlink" x="0px" y="0px"
	 viewBox="0 0 21.7 21.9" style="enable-background:new 0 0 21.7 21.9;" xml:space="preserve">
<style type="text/css">
	.st0{fill:#FFFFFF;}
</style>
<title>Кухня под ключРесурс 7</title>
<path class="st0" d="M14.2,0c-4.1,0-7.4,3.3-7.4,7.4C6.8,8.3,7,9.2,7.3,10l-7.1,7.1C0.1,17.2,0,17.3,0,17.5v3.9
	c0,0.3,0.2,0.5,0.5,0.5h3.3c0.1,0,0.3-0.1,0.4-0.2l1.1-1.1c0.1-0.1,0.2-0.2,0.2-0.4v-1.3h1.3c0.3,0,0.5-0.2,0.5-0.5v-0.5h0.5
	c0.3,0,0.5-0.2,0.5-0.5v-1.2h1.2c0.1,0,0.3-0.1,0.4-0.2l1.7-1.7c3.8,1.5,8.1-0.5,9.6-4.3s-0.5-8.1-4.3-9.6C16,0.1,15.1-0.1,14.2,0z
	 M14.2,13.7c-0.9,0-1.7-0.2-2.5-0.5c-0.2-0.1-0.4,0-0.6,0.1l0,0l-1.8,1.8H7.8c-0.3,0-0.5,0.2-0.5,0.5v1.2H6.8
	c-0.3,0-0.5,0.3-0.5,0.5v0.5H4.8c-0.3,0-0.5,0.2-0.5,0.5v1.6l-0.8,0.8H1.1v-0.8l6.6-6.6c0.2-0.2,0.2-0.5,0-0.7s-0.5-0.2-0.7,0l0,0
	l-5.9,5.9v-1l7.2-7.2l0,0c0.2-0.2,0.2-0.4,0.1-0.6C7,6.5,8.5,2.8,11.7,1.4s6.9,0.1,8.3,3.3s-0.1,6.9-3.3,8.3
	C15.9,13.5,15,13.7,14.2,13.7L14.2,13.7z"/>
<path class="st0" d="M14.2,5.5c-1.1,0-2,0.9-2,2s0.9,2,2,2s2-0.9,2-2S15.3,5.5,14.2,5.5L14.2,5.5z M14.2,8.4c-0.5,0-0.9-0.4-0.9-0.9
	s0.4-0.9,0.9-0.9s0.9,0.4,0.9,0.9l0,0C15.1,8,14.7,8.5,14.2,8.4L14.2,8.4z"/>
</svg>
