<svg width="18" height="18" viewBox="0 0 18 18" fill="none" xmlns="http://www.w3.org/2000/svg">
<path d="M17.1401 17.3254C16.03 17.3254 14.9599 17.3225 13.8898 17.3254C10.091 17.3362 6.29155 17.3536 2.49269 17.3564C1.77388 17.3564 1.05507 17.2985 0.336266 17.2694C0.129271 17.2609 -0.00422167 17.2039 0.000101983 16.9926C0.0336103 15.3206 0.295191 13.6946 1.40529 12.2729C2.08897 11.3981 3.04287 10.7886 4.14756 10.3557C4.29462 10.2962 4.45516 10.2663 4.61729 10.2681C4.77942 10.27 4.93899 10.3036 5.08418 10.3665C6.057 10.7618 7.04874 11.1359 8.00264 11.5717C8.43879 11.7713 8.7663 11.7717 9.20137 11.5717C10.1201 11.1482 11.0789 10.7919 12.015 10.3952C12.4841 10.1975 12.9148 10.2724 13.3505 10.4696C15.1215 11.2696 16.2819 12.4866 16.7791 14.1902C17.0753 15.2128 17.0893 16.2477 17.1401 17.3254Z" fill="white"/>
<path d="M8.57025 9.02718C11.433 9.02718 13.7538 7.00638 13.7538 4.51359C13.7538 2.0208 11.433 0 8.57025 0C5.70747 0 3.38672 2.0208 3.38672 4.51359C3.38672 7.00638 5.70747 9.02718 8.57025 9.02718Z" fill="white"/>
</svg>
