<svg width="20" height="20" viewBox="0 0 20 20" fill="none" xmlns="http://www.w3.org/2000/svg">
<mask id="path-1-inside-1" fill="white">
<path d="M19.8246 18.98L14.9643 14.1197C16.268 12.6208 17.0574 10.6652 17.0574 8.52772C17.0574 3.82262 13.2303 0 8.52967 0C3.82457 0 0.00195312 3.82705 0.00195312 8.52772C0.00195312 13.2284 3.829 17.0554 8.52967 17.0554C10.6671 17.0554 12.6228 16.2661 14.1217 14.9623L18.982 19.8226C19.0973 19.9379 19.2525 20 19.4033 20C19.5541 20 19.7093 19.9424 19.8246 19.8226C20.0552 19.592 20.0552 19.2106 19.8246 18.98ZM1.19486 8.52772C1.19486 4.48337 4.48532 1.19734 8.52523 1.19734C12.5696 1.19734 15.8556 4.4878 15.8556 8.52772C15.8556 12.5676 12.5696 15.8625 8.52523 15.8625C4.48532 15.8625 1.19486 12.5721 1.19486 8.52772Z"/>
</mask>
<path d="M19.8246 18.98L14.9643 14.1197C16.268 12.6208 17.0574 10.6652 17.0574 8.52772C17.0574 3.82262 13.2303 0 8.52967 0C3.82457 0 0.00195312 3.82705 0.00195312 8.52772C0.00195312 13.2284 3.829 17.0554 8.52967 17.0554C10.6671 17.0554 12.6228 16.2661 14.1217 14.9623L18.982 19.8226C19.0973 19.9379 19.2525 20 19.4033 20C19.5541 20 19.7093 19.9424 19.8246 19.8226C20.0552 19.592 20.0552 19.2106 19.8246 18.98ZM1.19486 8.52772C1.19486 4.48337 4.48532 1.19734 8.52523 1.19734C12.5696 1.19734 15.8556 4.4878 15.8556 8.52772C15.8556 12.5676 12.5696 15.8625 8.52523 15.8625C4.48532 15.8625 1.19486 12.5721 1.19486 8.52772Z" fill="white"/>
<path d="M19.8246 18.98L18.4104 20.3943L19.8246 18.98ZM14.9643 14.1197L13.4552 12.8072L12.2309 14.2148L13.55 15.5339L14.9643 14.1197ZM17.0574 8.52772H19.0574H17.0574ZM14.1217 14.9623L15.5359 13.5481L14.2167 12.2289L12.8091 13.4533L14.1217 14.9623ZM18.982 19.8226L17.5678 21.2368L18.982 19.8226ZM19.8246 19.8226L18.4104 18.4084L18.397 18.4217L18.3839 18.4353L19.8246 19.8226ZM8.52523 15.8625V17.8625V15.8625ZM21.2388 17.5658L16.3785 12.7055L13.55 15.5339L18.4104 20.3943L21.2388 17.5658ZM16.4733 15.4323C18.0807 13.5843 19.0574 11.167 19.0574 8.52772H15.0574C15.0574 10.1634 14.4553 11.6574 13.4552 12.8072L16.4733 15.4323ZM19.0574 8.52772C19.0574 2.71737 14.3342 -2 8.52967 -2V2C12.1264 2 15.0574 4.92786 15.0574 8.52772H19.0574ZM8.52967 -2C2.71932 -2 -1.99805 2.72316 -1.99805 8.52772H2.00195C2.00195 4.93094 4.92982 2 8.52967 2V-2ZM-1.99805 8.52772C-1.99805 14.333 2.72443 19.0554 8.52967 19.0554V15.0554C4.93357 15.0554 2.00195 12.1238 2.00195 8.52772H-1.99805ZM8.52967 19.0554C11.1689 19.0554 13.5863 18.0788 15.4343 16.4713L12.8091 13.4533C11.6593 14.4534 10.1654 15.0554 8.52967 15.0554V19.0554ZM12.7075 16.3765L17.5678 21.2368L20.3962 18.4084L15.5359 13.5481L12.7075 16.3765ZM17.5678 21.2368C18.0561 21.7252 18.7192 22 19.4033 22V18C19.7858 18 20.1385 18.1507 20.3962 18.4084L17.5678 21.2368ZM19.4033 22C20.0533 22 20.7433 21.7519 21.2652 21.2099L18.3839 18.4353C18.6753 18.1328 19.0548 18 19.4033 18V22ZM21.2388 21.2368C22.2504 20.2252 22.2504 18.5775 21.2388 17.5658L18.4104 20.3943C17.8599 19.8438 17.8599 18.9589 18.4104 18.4084L21.2388 21.2368ZM3.19486 8.52772C3.19486 5.58873 5.58911 3.19734 8.52523 3.19734V-0.802661C3.38154 -0.802661 -0.805142 3.37801 -0.805142 8.52772H3.19486ZM8.52523 3.19734C11.4642 3.19734 13.8556 5.59159 13.8556 8.52772H17.8556C17.8556 3.38402 13.6749 -0.802661 8.52523 -0.802661V3.19734ZM13.8556 8.52772C13.8556 11.4654 11.4626 13.8625 8.52523 13.8625V17.8625C13.6765 17.8625 17.8556 13.6698 17.8556 8.52772H13.8556ZM8.52523 13.8625C5.59068 13.8625 3.19486 11.4683 3.19486 8.52772H-0.805142C-0.805142 13.6758 3.37997 17.8625 8.52523 17.8625V13.8625Z" fill="white" mask="url(#path-1-inside-1)"/>
</svg>
