<svg width="51" height="35" viewBox="0 0 51 35" fill="none" xmlns="http://www.w3.org/2000/svg">
<path d="M25.4403 34.9381C19.2675 34.9381 13.0948 34.9381 6.92204 34.9381C3.86653 34.9381 1.76118 33.4444 0.528831 30.7266C0.190354 29.9129 0.0215517 29.0384 0.0328061 28.1569C-0.00393645 21.0317 -0.00981566 13.9064 0.0151693 6.78124C0.0102011 5.89067 0.181509 5.00796 0.51918 4.18419C0.856851 3.36042 1.35418 2.61195 1.98238 1.98211C2.61058 1.35227 3.35718 0.853563 4.17896 0.514851C5.00074 0.176139 5.88138 0.00414947 6.76992 0.00883838C12.5018 -0.011048 18.2336 0.00883838 23.9655 0.00883838H44.1327C45.6588 0.00449995 47.143 0.508795 48.3518 1.44239C49.5606 2.37599 50.4255 3.68589 50.8103 5.16603C50.9297 5.68694 50.9867 6.22028 50.9801 6.75473C50.9911 13.8983 50.9602 21.042 50.9999 28.1878C51.0197 31.8314 47.8275 35.0132 44.1768 34.9779C37.9335 34.9182 31.6858 34.9624 25.4381 34.9624L25.4403 34.9381ZM25.5108 31.8049H44.0776C44.8316 31.8049 45.5811 31.8049 46.2711 31.4138C47.5696 30.6913 47.8628 29.4915 47.8606 28.1326C47.8606 21.1016 47.8606 14.07 47.8606 7.03756C47.8684 6.5941 47.8404 6.15073 47.7768 5.7118C47.6049 4.63794 47.0493 3.79829 46.0132 3.44697C45.372 3.24125 44.7024 3.13834 44.0291 3.14204C31.6836 3.12436 19.3425 3.12436 7.00581 3.14204C6.56278 3.13959 6.12033 3.17433 5.68308 3.24589C4.63151 3.42266 3.81803 3.97727 3.47853 5.00252C3.27499 5.62967 3.1723 6.28527 3.1743 6.94475C3.15005 12.0975 3.16107 17.2525 3.16107 22.4119C3.16107 24.4005 3.16107 26.3892 3.16107 28.3778C3.16107 29.6748 3.52923 30.8305 4.7748 31.4027C5.4306 31.6776 6.1364 31.8123 6.84709 31.7983C13.0595 31.8182 19.2852 31.8049 25.5086 31.8049H25.5108Z" fill="#FF6600"/>
<path d="M39.5636 6.08954C41.142 6.08954 42.7205 6.10059 44.299 6.08954C44.7531 6.08954 44.8986 6.23538 44.8964 6.69276C44.8817 9.8569 44.8817 13.024 44.8964 16.194C44.8964 16.6359 44.7575 16.7619 44.3298 16.7597C41.1553 16.7464 37.9807 16.7464 34.8061 16.7597C34.3807 16.7597 34.2241 16.6337 34.2263 16.1962C34.2366 13.0321 34.2366 9.865 34.2263 6.69497C34.2263 6.25306 34.3718 6.08291 34.8304 6.08954C36.4089 6.1028 37.9873 6.08954 39.5636 6.08954ZM41.7814 11.3926C41.7814 10.8402 41.7659 10.2878 41.7814 9.73758C41.7946 9.37521 41.6844 9.19181 41.2897 9.19623C40.1346 9.20948 38.9772 9.20727 37.822 9.19623C37.5023 9.19623 37.3524 9.30229 37.3546 9.63814C37.3634 10.8166 37.3634 11.995 37.3546 13.1735C37.3546 13.4983 37.4781 13.6331 37.811 13.6309C38.9661 13.6198 40.1213 13.6176 41.2765 13.6309C41.6645 13.6309 41.7946 13.4784 41.7814 13.105C41.7659 12.5349 41.7814 11.9648 41.7814 11.3948V11.3926Z" fill="#FF6600"/>
<path d="M41.2677 19.6963C42.22 19.6963 43.1746 19.7139 44.1336 19.6963C44.5965 19.6852 44.8082 19.8288 44.7949 20.3216C44.7663 20.9845 44.7795 21.6473 44.7949 22.3102C44.7949 22.6792 44.6472 22.8383 44.2703 22.8383C42.2553 22.8295 40.2396 22.8295 38.2232 22.8383C37.8197 22.8383 37.672 22.6616 37.683 22.266C37.7007 21.6032 37.7029 20.9403 37.683 20.2774C37.6676 19.8355 37.8462 19.6874 38.2673 19.6941C39.2747 19.7073 40.2822 19.6941 41.2897 19.6941L41.2677 19.6963Z" fill="#FF6600"/>
<path d="M10.0763 22.8231C9.06662 22.8231 8.05693 22.8231 7.04724 22.8231C6.67467 22.8231 6.51374 22.6949 6.52256 22.3082C6.5402 21.61 6.53579 20.9118 6.52256 20.2135C6.52256 19.8423 6.64822 19.681 7.03401 19.6832C9.05192 19.6965 11.0698 19.6965 13.0877 19.6832C13.4603 19.6832 13.6234 19.807 13.6124 20.1959C13.5926 20.8941 13.5904 21.5923 13.6124 22.2906C13.6278 22.7148 13.436 22.8275 13.0503 22.8231C12.0604 22.8076 11.0661 22.8231 10.0785 22.8231H10.0763Z" fill="#FF6600"/>
<path d="M20.4389 22.8249C19.449 22.8249 18.4548 22.8094 17.4671 22.8249C17.0262 22.8249 16.8763 22.6857 16.894 22.2504C16.9204 21.5522 16.9072 20.8517 16.894 20.1535C16.894 19.8309 17.0086 19.6851 17.3349 19.6873C19.3924 19.6873 21.45 19.6873 23.5076 19.6873C23.8273 19.6873 23.9794 19.8088 23.975 20.1425C23.975 20.8782 23.9618 21.614 23.975 22.352C23.975 22.7232 23.7964 22.8227 23.4635 22.8183C22.4538 22.8183 21.4442 22.8183 20.4345 22.8183L20.4389 22.8249Z" fill="#FF6600"/>
<path d="M30.799 22.8228C29.8091 22.8228 28.8149 22.8228 27.8317 22.8228C27.4326 22.8228 27.2695 22.677 27.2827 22.2704C27.3026 21.5921 27.3004 20.9115 27.2827 20.2309C27.2827 19.8641 27.3996 19.6896 27.7854 19.6918C29.8209 19.6918 31.855 19.6918 33.8876 19.6918C34.2403 19.6918 34.3792 19.8465 34.3748 20.1934C34.3748 20.8894 34.3593 21.5876 34.3748 22.2859C34.3748 22.6969 34.2138 22.8361 33.817 22.8294C32.8095 22.814 31.8021 22.8294 30.7946 22.8294L30.799 22.8228Z" fill="#FF6600"/>
<path d="M18.0132 28.4265C17.6297 28.4472 17.2452 28.4413 16.8624 28.4088C16.7731 28.3833 16.6916 28.3357 16.6254 28.2705C16.5591 28.2053 16.5103 28.1244 16.4832 28.0354C16.448 27.2665 16.448 26.4887 16.4832 25.7264C16.5054 25.6364 16.55 25.5535 16.6129 25.4855C16.6757 25.4175 16.7548 25.3666 16.8426 25.3375C17.6296 25.2999 18.4166 25.2999 19.2037 25.3375C19.2857 25.3619 19.3603 25.4067 19.4204 25.4677C19.4806 25.5288 19.5243 25.6041 19.5476 25.6866C19.5784 26.4732 19.5806 27.2642 19.5476 28.0509C19.5189 28.1386 19.4688 28.2177 19.4018 28.281C19.3348 28.3443 19.253 28.3897 19.164 28.4132C18.7812 28.4442 18.3966 28.4486 18.0132 28.4265Z" fill="#FF6600"/>
<path d="M8.09186 25.3197C8.47687 25.299 8.86284 25.3049 9.24705 25.3374C9.33651 25.3633 9.41808 25.4112 9.48431 25.4768C9.55055 25.5425 9.59934 25.6237 9.62623 25.713C9.6615 26.4842 9.6593 27.2597 9.62623 28.0309C9.6006 28.1208 9.55254 28.2027 9.48658 28.2688C9.42062 28.3349 9.33894 28.383 9.24925 28.4087C8.47986 28.4463 7.70606 28.4485 6.93888 28.4087C6.84541 28.3849 6.75997 28.3365 6.69138 28.2685C6.62279 28.2005 6.57353 28.1155 6.54867 28.0221C6.5134 27.2509 6.5134 26.4753 6.54867 25.7042C6.5752 25.6146 6.62386 25.5332 6.69015 25.4676C6.75644 25.4019 6.8382 25.3541 6.92785 25.3285C7.31513 25.2974 7.70415 25.2944 8.09186 25.3197Z" fill="#FF6600"/>
<path d="M12.9616 28.4264C11.4713 28.4264 11.4713 28.4264 11.4713 26.9526C11.4713 26.5836 11.4846 26.2168 11.4713 25.8478C11.4581 25.4788 11.5926 25.3064 11.9784 25.3131C12.6949 25.3285 13.4113 25.3241 14.1278 25.3131C14.4497 25.3131 14.5996 25.4346 14.5952 25.766C14.5952 26.5018 14.5952 27.2398 14.5952 27.9756C14.5952 28.3027 14.4519 28.4397 14.1256 28.4308C13.7332 28.4176 13.3474 28.4264 12.9616 28.4264Z" fill="#FF6600"/>
<path d="M24.5315 26.8796C24.5315 28.4263 24.5315 28.4263 23.0082 28.4263H22.9531C21.3945 28.4263 21.3967 28.4263 21.4099 26.8332C21.4099 26.5017 21.4253 26.1703 21.4099 25.8411C21.3945 25.4698 21.5356 25.3019 21.9214 25.3108C22.6202 25.3262 23.3168 25.324 24.0157 25.3108C24.3883 25.3108 24.5536 25.45 24.536 25.8322C24.5183 26.2145 24.5293 26.5304 24.5315 26.8796Z" fill="#FF6600"/>
</svg>
