<svg width="1782" height="525" viewBox="0 0 1782 525" fill="none" xmlns="http://www.w3.org/2000/svg">
<path fill-rule="evenodd" clip-rule="evenodd" d="M461.039 516.246V389.971H197.896C174.799 389.971 163.82 383.506 163.82 358.772V8.28223H0V450.929C0 471.972 10.8815 490.845 22.4783 500.278C36.2487 511.894 58.0049 516.253 77.5736 516.253H461.039V516.246Z" fill="#282828"/>
<path d="M22.8008 499.896L22.7939 499.89C11.3075 490.547 0.5 471.813 0.5 450.929V8.78223H163.32V358.772C163.32 371.198 166.076 379.182 171.876 384.03C177.652 388.859 186.329 390.471 197.896 390.471H460.539V515.753H77.5736C58.0497 515.753 36.4374 511.399 22.8008 499.896Z" stroke="white" stroke-opacity="0.1"/>
<path fill-rule="evenodd" clip-rule="evenodd" d="M974.997 52.7356C920.411 2.19619 829.444 0 752.289 0C675.14 0 584.166 2.19619 529.573 52.7356C474.255 103.998 472.08 193.359 472.08 262.204C472.08 329.59 474.262 419.674 529.573 471.68C583.427 522.339 676.584 524.535 752.289 524.535C827.973 524.535 921.143 522.339 974.997 471.68C1030.32 419.681 1032.5 329.59 1032.5 262.204C1032.5 193.352 1030.32 103.991 974.997 52.7356ZM863.643 262.197C863.643 303.208 863.643 331.779 844.72 359.607C822.151 393.306 795.217 396.955 752.282 396.955C710.797 396.955 681.68 393.306 659.85 359.607C643.11 333.975 640.928 302.486 640.928 262.197C640.928 219.72 641.646 191.872 659.85 164.781C681.68 131.088 710.065 127.433 752.282 127.433C795.217 127.433 822.144 131.095 844.72 164.781C864.375 193.352 863.643 217.524 863.643 262.197Z" fill="#282828"/>
<path d="M974.655 471.316L974.997 471.68L974.654 471.316C947.829 496.55 911.183 509.738 871.743 516.612C832.306 523.485 790.132 524.035 752.289 524.035C714.435 524.035 672.259 523.485 632.823 516.612C593.384 509.739 556.742 496.55 529.916 471.316L529.573 471.68L529.916 471.316C502.365 445.411 488.024 410.003 480.575 372.612C473.127 335.221 472.58 295.898 472.58 262.204C472.58 227.781 473.125 188.274 480.573 150.974C488.02 113.676 502.361 78.6348 529.913 53.1025C557.11 27.9245 593.395 14.7662 632.559 7.90803C671.722 1.04993 713.713 0.5 752.289 0.5C790.868 0.5 832.858 1.04993 872.02 7.90803C911.182 14.7662 947.463 27.9245 974.657 53.1025C1002.21 78.6311 1016.55 113.671 1024 150.969C1031.46 188.269 1032 227.777 1032 262.204C1032 295.898 1031.46 335.222 1024 372.615C1016.55 410.006 1002.21 445.415 974.655 471.316ZM806.301 391.391C821.337 386.227 833.797 376.815 845.135 359.886C864.143 331.932 864.143 303.221 864.143 262.288V262.197C864.143 260.604 864.144 259.036 864.145 257.493C864.17 215.813 864.184 192.195 845.134 164.501C833.793 147.579 821.333 138.167 806.298 133.002C791.29 127.845 773.749 126.933 752.282 126.933C731.173 126.933 713.448 127.844 698.26 132.998C683.046 138.162 670.405 147.573 659.433 164.505C641.133 191.739 640.428 219.742 640.428 262.197C640.428 302.475 642.6 334.108 659.431 359.878C670.404 376.819 683.231 386.23 698.536 391.392C713.814 396.545 731.538 397.455 752.282 397.455C773.749 397.455 791.292 396.546 806.301 391.391Z" stroke="white" stroke-opacity="0.1"/>
<path fill-rule="evenodd" clip-rule="evenodd" d="M1090.49 516.253H1255.36V174.457C1255.36 162.11 1254.64 151.961 1264.85 142.513C1272.13 135.263 1280.9 134.54 1290.38 134.54H1381.56C1396.88 134.54 1415.12 133.803 1427.53 146.872C1444.21 163.501 1443.41 213.519 1428.99 231.774C1417.31 245.566 1397.62 247.012 1383.03 247.012H1356.77C1314.45 247.012 1283.09 270.245 1283.09 304.343V315.236C1283.09 339.908 1301.33 361.674 1318.1 384.17L1416.58 516.253H1615.02L1469.12 361.674H1491C1530.4 361.674 1566.86 343.537 1585.83 298.545C1603.34 257.182 1604.8 196.946 1604.8 173.727C1604.8 135.27 1600.42 90.278 1578.54 57.6187C1544.98 8.28223 1488.81 8.28223 1456.71 8.28223H1178.75C1159.05 8.28223 1129.16 11.911 1110.18 32.9539C1091.95 53.2739 1090.48 82.3043 1090.48 105.523V516.253H1090.49Z" fill="#282828"/>
<path d="M1429.37 232.097L1429.37 232.09L1429.38 232.084C1433.05 227.443 1435.82 220.818 1437.68 213.264C1439.53 205.704 1440.47 197.179 1440.42 188.711C1440.38 180.242 1439.37 171.815 1437.3 164.451C1435.25 157.097 1432.14 150.764 1427.88 146.523C1421.59 139.892 1413.82 136.774 1405.73 135.313C1398.46 134.001 1390.9 134.019 1383.89 134.036C1383.11 134.038 1382.33 134.04 1381.56 134.04H1290.38C1280.89 134.04 1271.94 134.755 1264.5 142.153C1254.77 151.156 1254.81 160.835 1254.86 172.124C1254.86 172.894 1254.86 173.671 1254.86 174.457V515.753H1090.98V105.523C1090.98 82.2899 1092.46 53.4493 1110.55 33.2882C1129.38 12.4141 1159.08 8.78223 1178.75 8.78223H1456.71C1488.84 8.78223 1544.73 8.80674 1578.13 57.8992C1599.92 90.425 1604.3 135.282 1604.3 173.727C1604.3 196.954 1602.83 257.093 1585.37 298.35L1585.37 298.351C1566.49 343.135 1530.22 361.174 1491 361.174H1469.12H1467.96L1468.75 362.017L1613.86 515.753H1416.83L1318.5 383.871C1316.99 381.844 1315.47 379.824 1313.95 377.809C1307.03 368.626 1300.18 359.538 1294.73 350.266C1288.1 338.966 1283.59 327.447 1283.59 315.236V304.343C1283.59 270.636 1314.6 247.512 1356.77 247.512H1383.03C1397.6 247.512 1417.53 246.084 1429.37 232.097Z" stroke="white" stroke-opacity="0.1"/>
<path fill-rule="evenodd" clip-rule="evenodd" d="M2120.23 516.253V392.882H1870.88C1860.67 392.882 1847.55 393.612 1839.53 386.354C1835.89 383.456 1832.24 377.644 1832.24 367.488V312.333H2110.75V202.025H1832.24V163.575C1832.24 157.041 1832.24 145.438 1840.25 138.897C1846.09 133.815 1856.3 131.639 1865.77 131.639H2118.04V8.28223H1751.32C1733.08 8.28223 1708.3 11.1881 1689.34 28.6089C1670.39 46.0228 1667.47 67.0585 1667.47 86.6482V434.981C1667.47 458.923 1667.47 479.242 1690.81 498.832C1710.5 514.807 1731.63 516.253 1752.78 516.253H2120.23Z" fill="#282828"/>
<path d="M1832.24 311.833H1831.74V312.333V367.488C1831.74 377.76 1835.43 383.724 1839.21 386.736C1843.33 390.455 1848.72 392.106 1854.32 392.836C1859 393.446 1863.88 393.418 1868.32 393.392C1869.19 393.387 1870.05 393.382 1870.88 393.382H2119.73V515.753H1752.78C1731.65 515.753 1710.67 514.303 1691.13 498.446C1679.53 488.715 1673.76 478.824 1670.87 468.405C1667.97 457.961 1667.97 446.966 1667.97 434.981V86.6482C1667.97 67.1084 1670.88 46.249 1689.68 28.9771C1708.5 11.6866 1733.12 8.78223 1751.32 8.78223H2117.54V131.139H1865.77C1856.26 131.139 1845.91 133.317 1839.93 138.515C1835.81 141.881 1833.77 146.534 1832.76 151.131C1831.74 155.719 1831.74 160.298 1831.74 163.56V163.575V202.025V202.525H1832.24H2110.25V311.833H1832.24Z" stroke="white" stroke-opacity="0.1"/>
</svg>
