<svg width="44" height="45" viewBox="0 0 44 45" fill="none" xmlns="http://www.w3.org/2000/svg">
<path d="M42.0619 22.5083C43.2311 21.744 43.9995 20.4783 43.9995 19.0466C43.9995 16.7247 41.972 14.8362 39.4799 14.8362H27.4376C28.0069 13.7525 28.5833 11.9765 28.4516 9.33202C28.1927 3.91082 24.9537 1.09832 23.0804 0.290972C21.9755 -0.185037 20.7731 -0.0719974 19.8648 0.593274C18.9529 1.26114 17.9236 2.79494 18.1988 6.31056C18.4837 9.96411 13.9044 13.9272 11.6732 15.6301V14.2394C11.6732 13.8095 11.3306 13.4616 10.9073 13.4616H0.765857C0.342593 13.4616 0 13.8095 0 14.2394V42.3342C0 42.7636 0.342593 43.112 0.765857 43.112H10.9073C11.3306 43.112 11.6732 42.7636 11.6732 42.3342V40.915C14.56 41.9692 22.6775 44.8097 26.6891 44.943L34.7444 45C37.2334 45 39.2583 43.027 39.2583 40.6024C39.2583 39.486 38.8274 38.4686 38.1233 37.6913C40.2718 37.3517 41.9189 35.5405 41.9189 33.357C41.9189 32.1939 41.4487 31.1377 40.6879 30.3506C42.5949 29.8341 44 28.1323 44 26.1131C43.9995 24.6219 43.2316 23.3038 42.0619 22.5083ZM1.53171 41.5559V15.0166H10.1415V17.1011C10.1405 17.1219 10.141 17.1426 10.1415 17.1634V39.7888C10.141 39.8101 10.1399 39.8313 10.1415 39.8526V41.5565H1.53171V41.5559ZM39.4799 28.9588H35.5541C35.5526 28.9588 35.5511 28.9593 35.549 28.9593H34.7444C34.3216 28.9593 33.9785 29.3078 33.9785 29.7371C33.9785 30.1665 34.3216 30.5149 34.7444 30.5149H37.3968C39.0454 30.5149 40.3867 31.79 40.3867 33.3565C40.3867 34.9229 39.0454 36.1975 37.3968 36.1975H34.7546C34.751 36.1975 34.7479 36.197 34.7444 36.197H31.9291C31.5063 36.197 31.1632 36.5454 31.1632 36.9747C31.1632 37.4041 31.5063 37.7525 31.9291 37.7525H34.7393C34.7408 37.7525 34.7423 37.7531 34.7444 37.7531H34.7546C36.394 37.7588 37.7261 39.0338 37.7261 40.6018C37.7261 42.1688 36.3884 43.4439 34.7495 43.4439L26.7192 43.3874C22.7255 43.2541 13.8686 40.0704 11.6732 39.2594V17.5522C13.332 16.3933 20.1262 11.3169 19.7254 6.18767C19.5549 4.00726 19.9225 2.46879 20.7603 1.85537C21.4573 1.34566 22.2543 1.62618 22.4825 1.72366C24.0265 2.38945 26.6998 4.75705 26.9219 9.4098C27.1236 13.4533 25.5112 14.9658 25.4494 15.0218C25.2049 15.2334 25.116 15.5767 25.2263 15.8831C25.3376 16.189 25.624 16.3923 25.9452 16.3923H39.4794C41.127 16.3923 42.4673 17.5834 42.4673 19.0472C42.4673 20.5182 41.127 21.7155 39.4794 21.7155H36.2051C35.7824 21.7155 35.4393 22.0634 35.4393 22.4933C35.4393 22.9232 35.7824 23.2711 36.2051 23.2711H39.4794C41.127 23.2711 42.4673 24.5456 42.4673 26.1131C42.4678 27.6817 41.1275 28.9588 39.4799 28.9588Z" fill="#FF6600"/>
</svg>
