<svg width="50" height="33" viewBox="0 0 50 33" fill="none" xmlns="http://www.w3.org/2000/svg">
<path d="M46.1253 0H3.87525C1.7386 0 0 1.7386 0 3.87525V6.46518V12.0463V28.8267C0 30.9633 1.7386 32.7014 3.87525 32.7014H46.1253C48.2619 32.7014 50 30.9633 50 28.8267V12.0463V6.46518V3.87525C50 1.7386 48.2619 0 46.1253 0ZM1.60878 3.87525C1.60932 2.62534 2.62534 1.60932 3.87471 1.60932H46.1248C47.3741 1.60932 48.3901 2.62588 48.3901 3.87525V5.66052H1.60878V3.87525ZM48.3907 28.8262C48.3907 30.075 47.3741 31.0916 46.1253 31.0916H3.87525C2.62588 31.0916 1.60932 30.075 1.60932 28.8262V12.8504H48.3907V28.8262ZM48.3907 11.2411H1.60932V7.2693H48.3907V11.2411Z" fill="#FF6600"/>
<path d="M7.77679 27.9197C9.32442 27.9197 10.5829 26.6617 10.5829 25.1157C10.5829 23.5686 9.32442 22.3096 7.77679 22.3096C6.23023 22.3096 4.97174 23.5686 4.97174 25.1157C4.97174 26.6617 6.23023 27.9197 7.77679 27.9197ZM7.77679 23.9189C8.43661 23.9189 8.97359 24.4559 8.97359 25.1157C8.97359 25.7744 8.43661 26.3103 7.77679 26.3103C7.1175 26.3103 6.58106 25.7744 6.58106 25.1157C6.58106 24.4559 7.1175 23.9189 7.77679 23.9189Z" fill="#FF6600"/>
<path d="M13.7774 26.0146H36.4495C36.8942 26.0146 37.2542 25.6546 37.2542 25.2099C37.2542 24.7652 36.8942 24.4053 36.4495 24.4053H13.7774C13.3327 24.4053 12.9727 24.7652 12.9727 25.2099C12.9727 25.6546 13.3327 26.0146 13.7774 26.0146Z" fill="#FF6600"/>
</svg>
