<svg width="46" height="56" viewBox="0 0 46 56" fill="none" xmlns="http://www.w3.org/2000/svg">
<path d="M45.884 13.125V6.00833C45.884 5.54167 45.4779 5.13333 45.0139 5.13333H23.7831V0.875C23.7831 0.408333 23.377 0 22.913 0C22.4489 0 22.0429 0.408333 22.0429 0.875V5.13333H0.870113C0.406053 5.13333 0 5.54167 0 6.00833V13.125C0 13.3583 0 13.8833 0 14.2917V35.2333C0 35.7 0.406053 36.1083 0.870113 36.1083H14.3279L9.86129 54.95C9.74527 55.4167 10.0353 55.8833 10.4994 56C10.5574 56 10.6154 56 10.7314 56C11.1375 56 11.4855 55.7083 11.6015 55.3583L16.1841 36.1083H22.1589V50.225C22.1589 50.6917 22.5649 51.1 23.029 51.1C23.4931 51.1 23.8991 50.6917 23.8991 50.225V36.1083H29.6999L34.4565 55.3583C34.5725 55.7667 34.9206 56 35.3266 56C35.3846 56 35.4426 56 35.5586 56C36.0227 55.8833 36.3127 55.4167 36.1967 54.95L31.5561 36.1083H45.1299C45.5939 36.1083 46 35.7 46 35.2333C46 35.2333 45.884 13.4167 45.884 13.125ZM44.1438 6.88333V12.8333H1.74023V6.88333H44.1438ZM1.74023 34.3583V14.5833H44.1438V34.3583H1.74023Z" fill="#FF6600"/>
</svg>
