<svg width="37" height="45" viewBox="0 0 37 45" fill="none" xmlns="http://www.w3.org/2000/svg">
<path d="M10.0136 19.6657C10.0617 19.6657 10.0617 19.6657 10.1097 19.6657C10.1578 19.6657 10.2059 19.6657 10.254 19.6657C12.1292 22.3583 15.2065 24.0412 18.6203 24.0412C22.2265 24.0412 25.3999 22.166 27.2271 19.3291C28.5253 19.0406 29.8716 17.0692 30.112 16.6365C30.8813 15.3383 31.2179 14.1843 31.2179 12.6937C31.2179 5.67372 25.4961 0 18.5242 0H18.4761C11.4561 0 5.73425 5.67372 5.73425 12.6937V15.3863C5.73425 16.5403 6.21508 17.6462 7.03248 18.4636C7.84988 19.2329 8.90769 19.6657 10.0136 19.6657ZM18.6203 22.5987C15.2065 22.5987 12.1292 20.6273 10.6867 17.502L11.4561 17.0211C13.8602 15.4825 16.6489 13.7515 18.2837 12.0206C20.8802 9.32797 22.8035 7.26043 23.4766 6.5392C25.9288 8.12591 27.4194 10.8666 27.4194 13.8477C27.3713 18.6559 23.4286 22.5987 18.6203 22.5987ZM7.17672 12.6937C7.17672 6.49112 12.2254 1.44247 18.428 1.44247H18.4761C24.6787 1.44247 29.7273 6.49112 29.7273 12.6937C29.7273 13.7035 29.5831 14.617 28.8619 15.8672C28.7176 16.0595 28.5734 16.2518 28.4291 16.4922C28.6695 15.6748 28.7657 14.8094 28.7657 13.8958C28.7657 10.4339 26.9866 7.21235 24.1017 5.33714C23.7651 5.09673 23.4286 5.04865 23.1401 5.04865C22.8035 5.09673 22.6112 5.33714 22.2746 5.67372C21.5533 6.44303 19.6781 8.41441 17.1778 11.0589C15.6392 12.6457 12.8504 14.4247 10.6387 15.8191L9.82125 16.348C9.53276 16.5403 9.34043 16.8288 9.24426 17.1654C9.1481 17.3096 9.10002 17.5501 9.19618 17.7424C9.19618 17.8866 9.19618 17.9828 9.19618 18.127C8.76344 17.9828 8.3307 17.7424 7.99412 17.4058C7.46522 16.8769 7.12864 16.1557 7.12864 15.3863L7.17672 12.6937Z" fill="#FF6600"/>
<path d="M18.476 25.6279C8.71532 25.6279 0.781738 33.5615 0.781738 43.3222C0.781738 43.7069 1.11831 44.0435 1.50297 44.0435H35.4972C35.8818 44.0435 36.2184 43.7069 36.2184 43.3222C36.1703 33.5615 28.2367 25.6279 18.476 25.6279ZM27.3713 29.7149C26.073 33.5134 22.515 36.0618 18.476 36.0618C14.4371 36.0618 10.879 33.5134 9.5808 29.7149C12.1292 28.032 15.2064 27.0704 18.476 27.0704C21.7456 27.0704 24.8229 28.032 27.3713 29.7149ZM2.22421 42.601C2.41654 37.7447 4.77257 33.4173 8.37875 30.5804C10.0135 34.7636 13.9563 37.5043 18.476 37.5043C22.9958 37.5043 26.9866 34.7636 28.5733 30.5804C32.1314 33.4173 34.4875 37.7447 34.7279 42.601H2.22421Z" fill="#FF6600"/>
</svg>
