<svg width="51" height="60" viewBox="0 0 51 60" fill="none" xmlns="http://www.w3.org/2000/svg">
<path d="M30.3826 23.6279C29.9963 23.2871 29.4074 23.3232 29.0659 23.71L16.1353 38.359C15.7945 38.7452 15.8312 39.3348 16.2174 39.6756C16.3947 39.8324 16.6148 39.9089 16.8344 39.9089C17.0925 39.9089 17.35 39.8025 17.5341 39.5935L30.4647 24.9445C30.8055 24.5583 30.7688 23.9694 30.3826 23.6279Z" fill="#FF6600"/>
<path d="M18.5926 29.9604C19.6412 29.5126 20.4534 28.6823 20.8801 27.6238C21.3067 26.564 21.2949 25.4023 20.8483 24.3518C20.4012 23.3008 19.5709 22.4867 18.5124 22.0606C16.3288 21.1793 13.8323 22.2422 12.9461 24.4308C12.5194 25.4906 12.5325 26.653 12.9834 27.7047C13.433 28.7551 14.2652 29.568 15.3237 29.994C15.8393 30.2017 16.3785 30.305 16.9177 30.305C17.4856 30.3056 18.054 30.1905 18.5926 29.9604ZM14.6981 26.9708C14.4443 26.3781 14.4368 25.7238 14.6763 25.1299C15.0569 24.1895 15.9637 23.6167 16.9184 23.6167C17.2169 23.6167 17.521 23.6727 17.8146 23.7915C18.4116 24.0315 18.8787 24.4899 19.1312 25.082C19.3837 25.6741 19.3893 26.329 19.1486 26.926C18.9079 27.5237 18.4502 27.9914 17.8593 28.2439C17.2679 28.4958 16.6155 28.5026 16.0203 28.2632C15.422 28.0231 14.9524 27.5635 14.6981 26.9708Z" fill="#FF6600"/>
<path d="M50.1103 25.6504C50.1034 25.4028 49.9977 25.1684 49.8173 24.998C49.6376 24.8282 49.4031 24.7368 49.1488 24.7442L43.7865 24.9078L44.9967 21.0984C45.0714 20.8627 45.0496 20.6065 44.9358 20.387C44.822 20.1668 44.6255 20.0014 44.3897 19.9267L35.5322 17.1125L34.0227 0.846451C33.978 0.36694 33.5221 0 33.0401 0C32.6508 0 32.3025 0.241932 32.1663 0.606384L27.008 14.4046L11.6263 9.51682C11.1375 9.36195 10.6113 9.63249 10.4546 10.1238L0.0440705 42.886C-0.112035 43.3773 0.15975 43.9016 0.651077 44.0577L17.3661 49.3696L17.6137 58.114C17.628 58.6196 18.0428 59.0208 18.5459 59.0208C18.5553 59.0208 18.564 59.0208 18.5727 59.0208L50.0935 58.1321C50.3404 58.1252 50.5749 58.0201 50.7453 57.8404C50.9151 57.6606 51.0065 57.4206 50.9996 57.173L50.1103 25.6504ZM32.5313 4.95929L33.6017 16.4986L28.7886 14.9693L32.5313 4.95929ZM11.951 11.5773L42.9363 21.4225L33.0911 52.4078L2.10516 42.5613L11.951 11.5773ZM19.4527 57.127L19.25 49.9667L33.4151 54.4682C33.5072 54.4975 33.6023 54.5118 33.6975 54.5118C33.8455 54.5118 33.9929 54.4763 34.126 54.4073C34.3461 54.2935 34.5116 54.097 34.5862 53.8612L43.1869 26.7929L48.2706 26.6374L49.1077 56.2911L19.4527 57.127Z" fill="#FF6600"/>
<path d="M29.7694 34.8164C28.7102 34.3891 27.5472 34.3997 26.4949 34.8481C25.4438 35.2959 24.6297 36.1255 24.2031 37.1853C23.7764 38.2438 23.7889 39.4056 24.2373 40.4567C24.6857 41.5077 25.5172 42.3212 26.5764 42.746C27.0926 42.9544 27.6336 43.0582 28.1735 43.0582C28.7413 43.0582 29.3085 42.9432 29.8459 42.7143C30.8969 42.2671 31.7104 41.4368 32.1371 40.3765C32.5637 39.3167 32.5519 38.1549 32.1053 37.1057C31.6588 36.0553 30.8285 35.2424 29.7694 34.8164ZM30.4068 39.6799C30.1668 40.2769 29.7084 40.7446 29.1163 40.9971C28.5249 41.2496 27.8712 41.2552 27.2729 41.0146C26.6752 40.7751 26.2069 40.3168 25.9538 39.724C25.7013 39.132 25.6945 38.4777 25.9345 37.8819C26.1746 37.2848 26.6336 36.8165 27.2263 36.564C27.5298 36.4346 27.8495 36.37 28.1697 36.37C28.4751 36.37 28.7805 36.429 29.0728 36.5466C29.6698 36.7867 30.1375 37.245 30.3894 37.8359C30.6407 38.4273 30.6469 39.0822 30.4068 39.6799Z" fill="#FF6600"/>
</svg>
