<svg width="44" height="44" viewBox="0 0 44 44" fill="none" xmlns="http://www.w3.org/2000/svg">
<path d="M43.7798 8.01068L35.9891 0.220119C35.6956 -0.073373 35.2203 -0.073373 34.9268 0.220119L21.0659 14.0804L12.6982 5.84755C12.6917 5.84104 12.6832 5.83653 12.6762 5.83052C12.6486 5.80548 12.6191 5.78294 12.5875 5.76191C12.5725 5.75189 12.5585 5.74087 12.543 5.73186C12.5059 5.71082 12.4663 5.69429 12.4253 5.67927C12.4148 5.67576 12.4057 5.66925 12.3952 5.66575L1.06205 2.12481C0.796598 2.04217 0.504604 2.11329 0.306769 2.31062C0.108934 2.50845 0.0373132 2.79944 0.120955 3.06589L3.66245 14.3984C3.68398 14.467 3.71704 14.5301 3.7566 14.5892C3.76913 14.6082 3.78415 14.6238 3.79818 14.6413C3.81671 14.6643 3.83173 14.6894 3.85277 14.7099L12.2119 22.9342L0.220122 34.9263C-0.0733741 35.2198 -0.0733741 35.6951 0.220122 35.9886L8.0113 43.7801C8.15204 43.9209 8.34336 44 8.5427 44C8.74204 44 8.93286 43.9209 9.0741 43.7801L21.1896 31.6648L30.9922 41.1913C31.1174 41.312 31.2747 41.3706 31.4354 41.3881C32.5723 42.4424 34.0388 43.0259 35.5985 43.0259C37.2372 43.0259 38.7784 42.3878 39.9368 41.2289C42.2973 38.8684 42.3238 35.0495 40.0255 32.6505C39.9889 32.5258 39.9238 32.4106 39.8286 32.3189L29.9975 22.8566L43.7803 9.07346C44.0733 8.77947 44.0733 8.30417 43.7798 8.01068ZM11.2423 6.88028L10.6808 8.78848L8.06339 9.55827C7.81848 9.63039 7.62665 9.82171 7.55453 10.0671L6.78523 12.684L4.8765 13.2455L1.98311 3.98693L11.2423 6.88028ZM8.5422 42.1865L1.81332 35.4572L4.64411 32.6264L8.0083 35.9906C8.15505 36.1373 8.34737 36.2104 8.5397 36.2104C8.73202 36.2104 8.92435 36.1373 9.0711 35.9906C9.36459 35.6971 9.36459 35.2218 9.0711 34.9283L5.7069 31.5642L8.46357 28.8075L11.8278 32.1717C11.9745 32.3184 12.1668 32.3915 12.3592 32.3915C12.5515 32.3915 12.7438 32.3184 12.8906 32.1717C13.1841 31.8782 13.1841 31.4029 12.8906 31.1094L9.52637 27.7453L13.2872 23.9845L20.1123 30.6176L8.5422 42.1865ZM38.873 40.1661C37.1917 41.8464 34.5317 41.9611 32.7146 40.5142L39.2216 34.0072C40.6685 35.8248 40.5539 38.4858 38.873 40.1661ZM31.5076 39.5971L13.7565 22.3457L5.81709 14.5346L7.60261 14.0097C7.84753 13.9376 8.03935 13.7463 8.11147 13.5009L8.88127 10.884L11.4987 10.1142C11.7436 10.0421 11.9354 9.85076 12.0076 9.60535L12.5395 7.79782L28.3893 23.392L38.2354 32.8698L31.5076 39.5971ZM28.9202 21.8088L22.1367 15.1341L25.9927 11.2782L29.3569 14.6423C29.5037 14.789 29.696 14.8622 29.8883 14.8622C30.0806 14.8622 30.273 14.789 30.4197 14.6423C30.7132 14.3493 30.7132 13.873 30.4197 13.58L27.0555 10.2159L30.1878 7.08362L33.552 10.4478C33.6988 10.5945 33.8911 10.6676 34.0834 10.6676C34.2757 10.6676 34.4681 10.5945 34.6148 10.4478C34.9083 10.1548 34.9083 9.67847 34.6148 9.38548L31.2506 6.02134L35.4587 1.81329L42.1866 8.54207L28.9202 21.8088Z" fill="#FF6600"/>
</svg>
