<svg xmlns="http://www.w3.org/2000/svg" viewBox="0 0 384.77 387.74"><defs><style>.cls-1{fill:none;stroke:#278e27;stroke-miterlimit:10;stroke-width:3px;}</style></defs><path class="cls-1" d="M-122.81,397.42c-1.09,2.19-2.16,4.39-3.28,6.56q-20.9,40.27-41.79,80.56a3.5,3.5,0,0,1-3.73,2.15q-31.29-1.47-62.59-2.83c-10.64-.47-21.28-.89-31.92-1.32-1.13,0-2.26,0-3.39,0l-.27-.79c1-.7,2-1.48,3.08-2.1,10.36-6,20.7-12,31.12-17.92,2-1.15,2.19-2.11,1-4.08-13.44-23.15-26.73-46.38-40.22-69.5a240.56,240.56,0,0,0-13.76-21.64c-6.08-8.26-14.59-15-24.7-17.77h0a30.52,30.52,0,0,1,3.19-.34q42.93,0,85.87,0c13.39,0,23.22,7,31.65,16.55,6.9,7.8,11.33,17.19,16.58,26.05,4.83,8.15,9.52,16.38,14.16,24.64,1.1,1.95,2,2.33,4.07,1.13,10.38-6.13,20.84-12.1,31.29-18.12,1-.59,2.1-1.13,3.15-1.7Z" transform="translate(467.99 -346.87)" style="stroke-dasharray: 613.934, 613.934; stroke-dashoffset: 613.934;"/><path class="cls-1" d="M-466.3,473.36a24.32,24.32,0,0,1,2.8-.44q22.06-1,44.14-1.95c16.3-.73,32.59-1.4,48.88-2.32,3.32-.19,4.93.79,6.46,3.77,13.47,26.25,27.14,52.41,40.75,78.6,1.2,2.31,2.34,4.64,3.52,7l-.55.5c-2.55-1.45-5.12-2.87-7.67-4.34l-25.91-15c-3.29-1.9-3.28-1.91-5.14,1.32-15.62,27.08-31.31,54.12-46.84,81.25-5.84,10.19-9.45,21.09-8.57,33.06.19,2.6,1,8.82.67,8-.52-.8-1.07-1.59-1.55-2.41q-21.65-37.49-43.25-75c-5.22-9.08-5.54-18.79-3.37-28.78,2.24-10.35,7.55-19.28,12.77-28.27,5.88-10.14,11.69-20.33,17.66-30.42,1.2-2,1.09-3.05-1.05-4.26-10.5-5.93-20.91-12-31.35-18-.84-.49-1.66-1-2.49-1.49Z" transform="translate(467.99 -346.87)" style="stroke-dasharray: 613.9, 613.9;stroke-dashoffset: 613.9;transition: stroke-dashoffset 1s ease;"/><path class="cls-1" d="M-228.68,564c.06,1,.18,2.06.18,3.08q0,18,0,36c0,3.17.11,3.29,3.19,3.29,31.37,0,62.75.12,94.12,0,12.24-.07,24-2.5,34.19-9.88,1-.73,4.9-3.41,5.85-4.21h0c-2.65,4.66-5.27,9.34-8,14-12.14,21-24.37,42-36.44,63-5.42,9.45-13.71,15-23.8,18.11A70.76,70.76,0,0,1-181,690.33c-14.73,0-29.46,0-44.19,0-3.31,0-3.32,0-3.32,3.33q0,18.11,0,36.2c0,.94-.11,1.88-.18,2.82l-.63.19c-.48-.71-1-1.41-1.45-2.13q-25.58-40.05-51.17-80.08a3.76,3.76,0,0,1,0-4.73q25.69-40.11,51.29-80.3c.39-.62.86-1.19,1.29-1.79Z" transform="translate(467.99 -346.87)" style="stroke-dasharray: 614.626, 614.626; stroke-dashoffset: 614.626;"/><path class="cls-1" d="M-328.34,353.79c11.3.35,19.91,3.93,26.9,10.65a104,104,0,0,1,12.56,14.75c3.59,5.06,6.41,10.68,9.41,16.14a3.74,3.74,0,0,1,0,3.12q-17.08,29.87-34.3,59.66c-.92,1.59-1.81,1.68-3.4.76q-24.69-14.33-49.46-28.53c-6.41-3.69-12.79-7.42-19.21-11.09-1.24-.71-2-1.29-1-2.88,8.11-13.64,15.81-27.53,24.33-40.91,6.16-9.66,14.78-16.88,26.09-20.16A67.87,67.87,0,0,1-328.34,353.79Z" transform="translate(467.99 -346.87)" style="stroke-dasharray: 316.353, 316.353; stroke-dashoffset: 316.353;"/><path class="cls-1" d="M-137.67,598.53c-3.66,0-7.32,0-11,0a3.37,3.37,0,0,1-3.35-2q-16.89-29.41-33.92-58.74c-1.08-1.86-1-2.79,1-3.91q34-19.5,67.82-39.18c2-1.19,3-1,4.21,1.16,6.73,11.95,13.78,23.73,20.42,35.73,4.8,8.67,7.84,17.94,7.8,28-.06,14.94-7,25.68-20,32.59-7.53,4-15.75,5.69-24.22,6.16-2.91.15-5.83,0-8.74,0Z" transform="translate(467.99 -346.87)" style="stroke-dasharray: 316.4, 316.4; stroke-dashoffset: 316.4;"/><path class="cls-1" d="M-316.39,650.37q0,19.33,0,38.69c0,3.29,0,3.3-3.34,3.3-13.15,0-26.29.09-39.44,0-10.89-.11-21.37-2.16-30.73-8-12.45-7.79-17.77-19.29-16.9-33.81.62-10.3,4.43-19.54,9.44-28.36,2.22-3.9,4.6-7.72,6.73-11.66a3.71,3.71,0,0,1,3.78-2.14q33.83.07,67.65,0c2.19,0,2.86.69,2.85,2.86C-316.43,624.24-316.39,637.3-316.39,650.37Z" transform="translate(467.99 -346.87)" style="stroke-dasharray: 315.996, 315.996; stroke-dashoffset: 315.996;"/></svg>