<svg width="573" height="427" viewBox="0 0 573 427" fill="none" xmlns="http://www.w3.org/2000/svg">
<path d="M429.551 79.0313L429.813 76.6757L431.822 74.0095L434.035 70.9473L435.049 69.5491L437.206 68.1723L438.723 66.936L440.022 65.1289L441.367 63.289L443.187 62.1955L444.264 59.9584L446.772 58.7425L447.936 57.0462L449.521 55.9966L450.509 55.2016L451.95 56.2466L453.655 55.4265L455.438 56.3787L456.322 55.1669L458.025 53.8563L457.876 52.9238L456.073 53.6066L453.874 53.8043L452.414 53.6357L452.657 52.1627L453.968 50.9146L452.674 50.7958L452.563 50.0996L453.434 50.0436L453.366 48.6201L453.97 47.4084L454.884 46.1471L456.636 45.1473L457.183 45.0601L458.272 42.8976C458.885 42.6195 459.443 42.2324 459.919 41.7553C460.311 41.2147 460.13 43.0794 460.13 43.0794L461.243 43.7816L462.143 44.4347L461.576 46.3546C462.165 46.2785 462.716 46.0238 463.155 45.6247C463.547 45.0841 463.304 46.5571 463.304 46.5571L463.564 48.1858L461.966 49.6389L463.401 49.6459L464.117 48.6585L466.024 49.0682L465.894 48.2539L467.559 49.4609L468.82 50.8534L469.634 50.4814L470.312 49.264L470.473 50.271L471.218 51.427L469.627 51.6808L469.726 52.3024L471.105 52.4777L470.733 54.6152L468.975 55.0613L467.625 57.106L467.071 59.1067L465.529 59.9072L464.286 59.6273L462.813 59.8622L461.805 62.0118L462.569 63.0883L462.884 65.0651L461.802 66.5508L460.674 65.953L459.785 66.8916L458.319 67.1255L457.343 66.5608L456.491 66.2185L456.491 66.9771L457.169 67.4682L456.522 67.89L456.131 68.4306L457.522 68.4445L457.69 69.4951L458.907 70.3781L460.542 69.6393L461.704 69.454L462.02 70.9143L462.605 70.1071L464.002 71.1145L465.487 72.1909L466.468 74.3483L467.063 76.0828L466.142 78.2951L464.979 78.4804L463.456 79.4373L463.113 80.7668L464.345 80.0159L465.202 79.8791L464.194 81.5506L465.096 82.2099L466.041 81.6577L465.804 80.172L466.624 79.3209L468.289 79.0108L469.103 77.8864L469.446 77.0351L470.627 76.9295L471.534 76.6255L473.225 76.2793L473.398 77.3609L474.796 77.1379L475.071 76.3419L476.426 76.1258L477.116 75.1807L478.104 74.8637L479.07 75.4428L480.164 74.3121L480.964 75.5741L482.275 76.5188L482.536 78.1537L481.075 79.0241L480.415 81.3604L478.781 81.6211L478.426 82.3978L480.408 83.3121L479.917 83.9896L481.563 85.7988L482.5 88.199L482.946 90.9963L483.759 93.0977L484.833 94.8386L485.622 97.2627L486.783 99.5507L488.466 100.634L488.825 102.884L490.104 105.867L491.657 107.136L492.645 107.852L491.512 109.225L490.003 108.752L488.157 109.684L487.521 112.169L486.264 114.76L487.253 115.482L486.978 117.757L487.165 118.925L488.806 120.703L489.004 121.947L487.413 121.48L486.153 120.572L485.232 120.795L486.444 122.916L486.681 124.408L488.221 124.832L487.016 126.503L486.09 126.65L486.412 128.671L485.69 129.659L487.168 131.412L488.249 132.196L489.503 133.111L491.219 134.355L491.876 136.481L492.378 138.148L494.696 138.938L496.181 140.014L498.356 139.667L497.562 138.443L497.455 137.778L498.078 136.926L498.439 135.67L500.781 137.368L501.45 139.091L503.687 140.169L505.769 140.315L506.431 139.393L507.711 139.189L509.469 140.458L509.083 142.036L507.61 142.749L508.374 144.54L510.435 146.996L511.926 147.116L513.238 148.067L515.822 147.329L517.574 148.325L518.337 149.631L517.504 150.401L516.323 151.469L515.788 153.308L516.831 156.328L518.762 158.487L520.203 158.774L520.974 159.333L523.31 159.515L523.459 160.447L521.787 160.95L522.01 162.349L521.611 163.846L522.834 166.52L524.238 166.85L526.58 168.549L528.282 169.711L528.99 172.148L530.281 175.289L531.006 177.321L531.254 178.875L530.211 177.85L527.961 178.208L526.462 177.676L525.148 176.751L523.594 176.999L521.988 175.84L519.068 175.031L516.334 174.352L513.134 173.268L512.097 172.242L510.55 171.532L508.947 171.469L505.448 170.988L503.087 170.173L500.77 169.108L499.459 167.405L496.851 165.513L495.036 164.126L494.776 162.498L493.528 161.581L493.006 159.829L491.391 158.174L489.907 158.098L489.802 157.439L490.355 156.669L490.716 155.419L489.752 154.209L490.343 153.401L490.828 152.724L489.679 150.517L488.897 148.092L487.506 145.363L485.718 143.659L484.688 141.197L483.607 138.896L482.501 137.116L481.11 134.386L480.055 133.764L479.725 132.217L479.974 130.265L479.586 127.828L478.505 127.044L477.182 125.266L476.176 125.427L475.151 125.233L474.113 124.481L472.802 123.256L471.013 122.508L470.731 120.737L471.981 119.103L471.396 118.674L470.383 120.072L468.828 121.276L469.089 122.911L468.821 124.228L469.889 124.931L471.461 126.077L472.946 127.153L474.5 126.905L474.506 127.943L473.791 127.974L473.225 129.142L474.349 129.957L474.746 132.444L475.82 134.184L476.446 137.112L476.19 138.983L475.321 137.528L473.818 137.054L474.127 138.993L472.773 138.017L471.872 137.364L471.038 136.126L468.546 134.452L469.44 136.056L469.116 138.02L467.015 138.355L467.213 139.598L466.927 142.277L466.23 143.421L466.856 146.827L468.403 147.536L468.513 149.749L470.259 151.702L470.631 154.033L471.548 157.029L473.033 158.106L473.256 159.504L474.517 160.419L475.505 160.102L476.264 159.146L476.818 158.382L477.986 158.195L478.143 159.7L476.962 160.284L477.296 162.379L475.027 163.136L476.002 165.772L475.952 166.979L474.578 167.835L474.839 169.47L474.533 171.03C474.533 171.03 472.774 171.75 473.066 171.34C473.357 170.93 472.252 170.756 472.252 170.756L472.096 169.774L472.251 168.71L473.463 168.077L472.787 167.592L471.475 168.356L470.039 168.827L470.15 169.523L468.137 170.883L467.257 172.362L466.064 172.871L465.221 174.057L465.015 175.282L465.642 176.699L466.629 177.415L465.797 178.67L464.063 178.309L464.833 179.901L463.825 181.292L462.899 182.478L461.967 182.627L461.171 183.627L461.953 184.535L462.493 184.927L461.306 185.996L459.523 186.281L458.055 188.306L457.103 189.611L456.195 191.911L455.082 193.44L454.205 196.212L454.377 198.811L456.017 201.099L455.041 202.453L455.052 205.001L456.036 206.693L457.297 207.607L456.611 209.304L457.391 214.19L457.234 216.204L457.655 218.845L458.574 219.572L459.206 223.538L458.926 226.292L459.272 228.462L458.421 230.599L458.73 232.538L458.381 234.347L459.334 235.808L460.515 235.619L461.299 234.538L462.579 234.334L463.431 233.165L464.377 231.861L465.276 232.508L466.283 232.825L466.445 233.838L467.401 235.082L468.482 235.866L469.167 234.921L468.968 233.678L467.806 233.385L467.621 232.223L468.33 231.154L468.456 231.943L469.5 232.497L469.934 232.262L470.475 232.654L470.859 235.066L472.314 234.196L472.188 233.407L472.853 232.103L473.326 231.549L474.276 232.035L474.271 230.723L473.41 230.12L472.482 228.936L471.375 227.513L472.651 226.519L473.372 225.524L475.013 224.867L477.039 224.544L478.735 224.471L479.592 225.087C479.592 225.087 481.326 224.492 481.718 224.429C482.209 224.249 482.678 224.013 483.116 223.728L484.241 224.549L483.619 225.401L483.165 226.034L482.835 226.96L485.551 226.527L486.023 227.491L487.377 228.467L488.782 228.045L489.638 228.661L490.645 230.017L491.352 232.932L492.861 235.879L494.81 237.914L497.109 239.58L498.01 240.233L498.605 241.49L500.413 242.795L501.798 244.487L502.357 245.513L504.146 247.497L505.544 248.511L506.064 251.774L506.044 254.646L507.347 257.3L507.724 260.185L508.936 262.306L509.954 264.693L510.779 266.869L511.728 269.822L512.199 272.781L511.98 274.403L513.059 281.166L513.039 284.038L513.964 286.842L514.403 290.596L514.688 292.38L513.561 295.186L512.895 297.523L512.073 299.879L511.048 300.043L509.24 301.134L507.754 302.327L506.555 302.041L506.387 300.99L505.71 300.499L505.336 301.91L505.566 303.352L504.799 302.78L503.631 301.933L503.755 302.71L503.754 304.699L504.276 305.974L504.088 307.553L503.529 308.324L503.85 310.338L502.372 310.497L501.651 309.975L501.913 308.103L502.548 306.09L502.303 304.554L501.204 302.817L499.259 301.413L498.266 300.736L497.285 299.063L495.576 297.819L494.104 297.576L493.819 296.072L494.64 294.947L495.355 293.953L495.107 292.399L496.021 291.138L497.165 290.318L498.514 290.542L499.458 289.232L499.937 287.721L498.386 285.986L498.747 284.252L497.703 282.665L497.263 280.906L495.94 279.6L496.052 278.307L494.962 276.983L494.304 275.335L492.49 273.954L493.473 272.606L493.2 270.89L492.076 270.075L490.765 269.13L490.294 268.173L488.97 268.384L487.266 269.688L487.048 271.317L486.127 273.535L485.013 275.542L485.945 277.389L484.527 278.966L483.047 280.158L481.723 280.848L481.555 282.309L480.076 282.545L478.461 281.929L477.317 281.71L477.028 279.901L475.613 279.017L474.445 278.165L472.705 278.009L471.952 279.04L470.094 278.859L468.56 278.708L466.36 279.378L464.259 279.713L463.541 280.688L461.347 281.911L458.942 281.817L457.669 280.069L456.364 279.123C456.364 279.123 454.917 278.557 454.867 278.246C454.818 277.936 453.159 277.008 453.159 277.008L451.245 276.995L450.171 275.254L448.158 274.141L446.717 273.096L444.933 272.902L444.052 271.372L442.386 270.918L441.305 270.134L438.148 270.319L436.514 270.579L434.811 271.89L432.419 271.876L430.728 272.783L428.789 273.093L426.467 275.471L425.422 276.912L423.208 278.738L422.195 280.136L421.733 282.836L421.36 284.489L422.395 285.427L423.439 284.26L424.564 285.081L425.825 285.995L426.843 288.383L426.433 289.806L426.499 293.218L426.833 295.313L426.33 297.631L427.851 299.696L428.658 300.281L429.005 302.457L427.451 303.183L426.791 305.799L425.541 307.548L423.123 308.89L420.215 309.118L418.078 309.063L416.673 310.243L414.696 311.834L412.932 311.242L411.365 310.931L409.563 312.098L408.22 313.988L407.237 315.337L406.906 317.736L405.756 319.315L404.171 320.843L401.871 322.408L400.223 324.583L399.408 325.707L396.922 326.104L394.778 327.166L391.596 327.674L389.315 328.356L387.146 328.02L386.336 326.938L385.084 326.041L382.132 326.512L379.354 326.554L378.159 326.017L374.673 327.096L372.455 327.45L370.924 329.562L368.979 330.35L367.121 331.207L364.286 331.417L362.292 330.9L360.858 329.899L359.36 327.702L357.69 326.496L355.547 326.048L353.608 326.357L351.488 327.294L349.73 326.019L346.703 326.502L344.703 325.47L343.939 326.509L342.924 327.902L342.271 330.039L341.374 331.247L341.385 333.317L342.54 334.324L342.82 336.077L344.398 337.222L344.696 339.087L343.061 340.584L341.593 342.609L337.864 343.204L335.683 342.997L333.576 343.728L331.942 343.511L329.568 343.093L328.127 342.048L326.403 340.793L324.526 340.531L322.569 341.723L321.04 340.609L319.285 340.118L318.141 341.69L316.45 341.959L316.176 343.68L314.138 344.005L311.837 346.042L310.531 347.844L308.978 348.091L308.927 349.77L307.168 350.49L306.132 351.987L303.789 352.278L302.016 353.708L301.163 354.877L298.852 354.85L297.946 353.803L296.839 352.379L296.164 350.862L295.149 352.254L293.253 353.353L291.29 353.029L289.109 352.822L288.812 350.957L287.016 350.204L286.171 348.905L284.718 348.263L284.116 346.447L282.861 345.614L281.308 345.225L280.227 344.441L278.251 344.756L277.456 345.845L275.565 346.459L274.666 345.812L273.005 346.39L271.925 345.612L270.931 344.891L270.745 343.729L269.732 342.851L268.552 343.441L267.918 345.34L266.258 345.923L264.923 344.064L264.098 342.367L263.39 340.408L261.695 338.288L261.397 336.423L259.969 335.459L259.56 332.898L258.132 329.938L256.614 328.848L255.61 328.109L254.418 326.387L253.291 325.553L251.88 325.218L251.656 323.813L252.75 323.638L253.483 322.246L252.918 321.221L251.52 321.444L250.538 322.799L248.922 323.133L247.728 323.362L246.647 324.854L244.571 325.822L242.868 327.133L241.818 326.025L240.314 327.062L238.996 327.272L239.128 325.103L240.857 323.954L240.683 322.86L239.123 323.109L237.588 322.48L236.873 323.468L235.245 323.249L235.458 321.347L234.153 320.402L232.747 321.576L230.965 321.388L230.325 320.094L231.14 318.97L230.904 317.491L231.116 316.341L230.185 314.501L228.937 314.145L227.538 314.368L226.619 313.081L224.674 313.391L222.972 312.706L221.237 312.817L220.516 314.29L218.577 314.599L216.942 315.338L215.42 314.784L213.76 315.368L211.666 315.702L209.479 314.979L208.671 315.108L207.918 316.14L206.42 316.697L204.817 316.156L203.5 316.366L201.617 316.112L198.988 316.608L196.981 316.533L195.651 317.14L194.234 316.251L192.302 315.603L190.673 315.862L190.403 317.646L191.137 318.727L190.222 319.982L191.148 320.395L192.135 321.111L193.353 321.994L192.538 323.119L191.45 323.292L189.923 322.184L187.915 322.581L186.684 323.332L187.535 325.191L187.217 326.676L185.961 327.272L184.339 327.135L183.978 328.863L184.662 329.914L185.928 330.821L186.779 331.444L187.301 332.719L188.562 333.633L187.71 335.28L186.863 336.447L185.154 336.72L183.421 337.117L182.392 336.383L181.572 335.239L180.789 335.363L180.083 336.33L178.728 336.546L176.945 335.237L176.513 334.407L175.181 333.447L174.866 331.47L173.741 330.649L171.957 330.933L170.565 331.716L169.838 330.634L168.174 329.707L166.744 329.215L165.097 330.357L163.499 330.848L162.12 330.673L160.929 329.039L159.419 328.082L158.735 329.785L157.728 329.945L157.53 328.702L158.313 327.621L157.482 326.402L156.383 324.506L155.738 322.46L154.346 321.248L152.371 320.849L151.613 319.612L150.445 318.766L148.63 319.374L147.543 319.548L147.309 318.081L146.52 316.613L144.557 316.569L143.754 317.691L142.07 318.597L140.374 317.994L138.746 318.254L138.141 319.536L134.723 320.081L134.468 321.002L133.628 322.168L133.708 323.666L131.788 323.616L130.471 322.672L130.223 321.118L130.485 319.521L129.541 318.836L128.223 319.046L127.874 320.377L126.939 321.265L125.423 321.507L124.409 322.906L123.563 324.073L123.786 325.472L122.556 326.229L121.145 326.371L120.293 327.546L119.186 328.596L119.931 330.032L121.242 330.977L121.098 333.072L120.26 334.251L121.372 334.711L123.068 335.875L124.149 336.658L124.111 338.736L124.961 341.31L125.302 343.448L124.587 344.397L123.673 343.663L122.487 343.699L122.858 345.068L123.741 346.323L124.865 347.138L124.207 348.047L122.907 348.407L120.271 348.827C119.728 348.986 119.176 349.114 118.618 349.212C117.879 349.33 117.947 348.72 117.947 348.72L116.729 348.595L116.102 348.141L114.667 348.134L114.84 349.215L113.827 349.855L112.751 351.62L111.272 351.856L109.711 352.583L108.74 352.483L108.09 353.403L108.294 354.683L109.238 355.368L109.94 356.773L109.783 358.308L109.652 359.725L108.879 360.747L108.965 361.288L108.3 362.115L107.031 365.185L107.378 367.361L108.265 369.929L108.282 371.991L108.834 374.453L107.106 375.608L105.776 375.259L104.092 376.166L102.315 376.054L101.849 374.611L100.589 372.186L100.136 370.346L98.7575 369.692L98.5959 368.679L97.7147 367.149L96.404 365.924L96.9137 364.644L97.1696 363.252L95.8091 362.194L95.1945 360.858L93.8522 360.913L93.4489 360.142L92.3453 359.337L90.5934 359.38L89.3375 358.459L88.624 356.023L87.381 355.182L87.4439 353.578L85.9476 352.708L84.966 351.028L83.7114 350.674L81.8221 349.777L80.9778 347.999L79.5301 346.394L78.8969 344.902L78.0083 344.884L77.2629 344.206L76.3135 343.248L75.3305 343.558L74.4116 341.792L74.0777 338.18L73.3404 335.595L72.5077 334.37L71.5226 333.348L71.3062 330.992L70.2381 330.289L69.4184 329.145L69.6614 327.672L69.023 326.187L69.7468 325.211L70.6533 324.901L72.1441 326.256L73.375 326.462L73.7293 325.207L74.9606 324.456L76.7385 324.096L77.6708 323.947L78.9006 324.146L78.8203 322.164L78.0134 321.1L78.1635 320.044L79.1205 320.051L80.0711 320.536L81.1401 321.246L81.7314 320.437L82.8933 320.73L84.7137 320.676L86.1175 321.006L86.2114 319.557L85.1681 319.01L83.7948 318.91L82.8003 318.189L81.8218 318.007L82.7856 316.579L84.3698 315.523L85.9481 315.908L87.1784 315.151L88.6315 316.271L90.8192 318L92.2494 316.019L93.3058 315.13L92.7224 313.47L93.6365 312.209L94.7489 312.191L94.4698 310.961L97.2848 310.11L97.6154 308.706L98.1119 307.824L96.7014 307.411L96.4437 305.795L94.9776 304.594L94.227 302.885L92.9476 302.375L91.4815 301.174L91.6869 299.465L90.8371 297.134L89.1907 296.281L87.2705 295.229L86.439 293.533L85.1219 292.787L84.5631 291.76L85.3907 290.436L85.8867 288.591L85.626 286.956L84.5297 285.557L83.4671 284.369L84.1386 283.624L84.4183 282.381L85.3443 282.233L85.9475 281.5L86.1531 279.312L86.1102 278.044L85.2418 276.596L84.2536 275.874L83.0604 275.905L82.0602 275.108L81.1996 274.187L80.2921 275.25L79.35 274.578L78.4624 273.527L78.9664 272.172L80.2043 270.464L81.028 269.115L81.1964 267.654L82.3457 267.388L83.3521 268.183L84.0046 269.278L85.6445 269.571L87.0431 268.869L87.1868 267.253L87.3813 265.475L86.0265 264.493L86.7171 263.828L86.4313 262.516L86.6 260.577L87.1293 258.421L87.4791 256.619L88.9647 255.904L89.319 254.649L90.5936 253.171L90.1723 250.529L88.6689 249.493L87.1273 249.338L87.407 248.095L87.594 246.79L86.3578 245.872L85.4077 244.43L85.4703 243.304L86.7083 241.596L87.3119 239.906L86.7035 238.569L87.8969 238.06L89.575 236.594L89.3152 234.965L89.9434 233.909L91.8695 233.519L92.5665 232.375L92.4557 231.201L93.9911 230.318L95.0293 228.317L96.8197 228.114L98.2309 226.933L100.4 227.065L100.525 225.853L101.109 225.04L102.532 225.45L103.805 226.439L105.601 226.714L106.446 228.013L107.315 229.468L108.099 228.387L107.584 226.162L105.994 225.14L105.572 222.492L106.766 221.989L107.089 221.536L105.268 221.145L104.063 220.183L121.452 217.333L124.524 215.652L124.195 213.594L123.924 208.378L126.093 208.032L127.724 206.268L127.401 204.242L128.713 203.478L128.289 200.823L129.519 200.544L131.896 197.941L133.312 198.352L135.329 192.536L135.299 191.068L137.289 188.322L141.248 187.691L142.144 185.317L141.476 181.127L143.763 179.487L146.766 177.338L149.152 177.831L150.476 177.62L151.73 178.535L152.924 177.389L152.855 179.07L154.147 178.705L156.025 178.488L156.223 179.731L156.838 181.067L155.893 180.657L154.861 179.904L154.177 180.848L154.798 182.266L155.034 183.745L156.463 184.232L157.636 185.077L157.901 186.737L159.113 187.104L159.405 188.932L160.889 190.008L161.858 192.085L162.216 194.335L162.14 196.336L162.781 197.356L163.196 199.718L164.774 200.863L164.965 202.579L165.1 205.426L164.123 208.01L162.388 210.397L160.213 210.744L157.889 211.599L155.666 211.163L153.174 210.241L151.509 209.034L151.174 206.933L149.46 205.695L148.491 204.173L147.693 202.688L146.423 201.157L145.418 198.372L144.262 198.078L144.33 196.27L145.083 195.238L143.816 194.325L143.53 195.766L142.899 196.606L143.482 198.266L143.842 200.242L143.116 201.206L144.421 202.152L144.383 203.911L143.691 206.488L141.883 207.376L140.614 209.133L140.47 211.986L139.257 213.652L139.983 215.207L141.008 217.115L140.198 219.271L142.044 220.615L144.026 222.052L145.742 220.344L145.823 218.336L144.648 217.484L144.54 215.767L144.329 214.443L145.424 212.835L146.747 212.623L147.772 216.049L148.566 218.274L150.138 219.42L151.28 221.067L153.598 221.373L154.152 220.609L153.401 219.377L154.544 218.073L154.185 215.345L156.652 215.347L158.772 214.135L160.798 214.851L162.793 213.851L164.222 213.623L165.26 214.375L166.906 216.184L165.991 217.446L166.269 219.186L167.046 217.826L168.19 216.247L169.993 215.564L171.181 213.061L170.871 211.122L171.282 209.699L173.142 208.376L172.944 207.132L174.697 205.661L174.387 203.715L173.785 201.899L175.103 201.689L175.687 202.596L177.712 204.064L179.352 205.874L179.785 208.591L179.542 210.064L178.957 210.871L177.603 209.895L175.912 209.763L173.563 211.018L173.888 213.05L174.806 214.816L175.055 216.376L176.912 216.552L178.745 217.056L180.542 215.814L180.316 214.396L182.261 213.608L184.349 214.231L183.84 213.037L186.953 213.096L188.538 212.524L191.545 212.44L193.254 212.167L194.36 213.584L195.149 213.458L194.927 212.066L197.287 210.88L198.611 210.669L199.479 212.596L198 212.832L197.757 214.305L196.656 214.875L198.7 216.226L199.943 216.028L202.113 214.649L204.393 214.719L207.189 216.746L207.873 215.796L209.501 215.536L211.453 214.549L212.397 215.233L212.335 216.365L211.228 217.415L211.438 218.733L213.109 219.741L212.992 218.287L213.552 217.522L215.167 217.66L214.969 216.417L216.404 215.946L216.424 214.03L215.828 211.811L217.115 210.892L218.259 210.353L219.924 211.56L220.446 210.839L222.347 212.569L224.465 214.099L226.159 215.372L227.445 217.2L229.562 218.73L231.115 220.471L232.724 222.05L232.972 223.604L234.332 225.14L235.731 223.961L235.473 222.345L237.003 220.431L235.698 220.237L234.518 218.354L234.482 216.129L232.846 215.344L231.765 213.802L232.393 212.943L233.817 211.919L233.618 210.676L233.706 208.75L234.26 207.705L234.074 206.543L233.017 206.386L233.311 204.752L233.994 203.521L235.455 202.734L236.997 201.653L237.488 200.975L238.601 199.44L239.243 197.03L239.728 195.041L240.282 193.04L241.636 192.021L242.774 193.197L244.638 192.9L245.719 193.684L247.353 193.423L248.471 195.954L247.818 196.855L247.922 199.745L246.059 202.292L245.763 204.43L247.266 205.382L247.221 208.099L247.17 210.255L245.988 212.834L245.975 216.265L245.593 219.348L245.206 220.914L246.118 222.878L247.689 224.017L247.657 225.297L246.151 226.844L246.3 229.772L244.665 230.511L242.967 232.853L242.072 234.749L241.083 235.544L239.083 235.468L238.043 236.424L236.633 235.814L235.685 235.143L234.455 234.944L234.69 236.417L236.141 238.002L237.39 238.358L239.117 239.198L240.422 238.913L241.565 240.082L242.963 239.859C242.963 239.859 243.38 238.715 243.019 238.454C242.659 238.193 243.704 237.51 243.704 237.51L244.711 237.349L245.102 236.809L246.961 235.958L248.378 234.852L248.117 233.217L248.702 232.41L249.716 231.012L250.531 229.887L250.699 227.948L250.053 226.375L249.654 224.909L250.531 223.698L251.414 222.48L253.042 222.22L254.795 221.698L255.54 223.135L256.397 223.757L257.713 226.014L256.669 227.455L257.047 229.307L257.233 230.476L259.029 231.783L260.88 231.883L260.704 230.783L258.872 230.559L258.114 230.042L257.965 229.11L257.587 227.742L258.768 227.152L259.09 226.055L258.388 224.65L258.73 223.321L257.705 221.884L256.543 221.114L255.822 220.591L253.816 220.235L252.548 219.322L251.81 220.364L250.734 221.09L249.976 220.338L248.578 220.561L248.106 219.119L248.889 218.038L248.263 215.588L249.078 213.705L249.452 211.574L250.758 209.772L249.944 208.149L249.243 206.75L249.182 205.128L247.878 204.182L248.922 202.741L250.552 200.492L252.187 200.231L252.884 198.609L253.245 196.875L252.503 195.661L252.863 194.405L254.106 194.207L253.975 195.898L254.331 198.13L254.347 200.193L253.172 201.814L253.718 205.239L255.545 206.223L256.6 206.845L257.689 205.881L259.086 206.888L260.602 207.921L260.453 206.989L259.757 205.863L258.72 205.111L257.216 204.713L257.117 204.092L255.769 203.115L254.955 201.485L256.411 200.144L257.31 200.791L258.752 201.836L259.548 200.836L259.068 199.86L258.807 198.984L259.554 197.953L261.163 198.015L262.413 197.619L263.63 198.495L265.817 199.262L265.524 200.902L266.109 201.332L267.679 202.471L269.78 202.136L269.893 200.843L268.826 199.789L268.726 198.683L267.167 198.377L265.795 196.767L265.074 196.244L265.243 194.305L265.691 192.64L264.97 192.118L264.27 190.24L265.6 188.594L269.248 188.012L271.225 188.417L271.15 187.951L274.177 187.468L276.06 186.288L277.533 186.054L278.186 185.153L277.224 184.114L276.241 183.946L275.34 183.293L276.093 182.261C276.584 181.583 276.771 182.752 276.771 182.752L277.665 182.367L276.933 181.77L277.206 180.726L276.479 180.166L277.083 178.954L278.034 177.929L276.934 178.022L276.668 176.872L278.855 176.6L279.43 174.691L281.438 173.536L282.122 172.592L284.962 171.699L285.585 170.848L287.58 169.892L287.96 169.277L286.487 169.034L287.147 168.132L289.086 167.344L290.758 166.842L291.013 165.922L292.368 165.47L291.858 166.985L292.037 168.11L292.852 166.986L295.276 166.676L295.307 165.396L296.811 164.837L298.408 164.901L297.564 164.08L296.52 163.532L295.918 162.755L297.628 162.483L299.322 161.639L299.869 161.551L299.502 160.252L298.807 159.885L298.509 158.02L298.702 156.715L299.407 153.657L300.644 152.427L301.676 150.905L303.378 151.59L304.515 151.243L305.124 152.784L304.072 154.182L303.282 155.659L305.79 155.399L306.181 154.859L307.698 154.617L309.002 155.563L308.175 156.727C308.175 156.727 308.261 157.746 308.721 157.673C309.33 157.692 309.935 157.784 310.523 157.946L310.698 156.567L309.884 155.977L311.444 154.772L312.992 154.525L314.41 153.145L315.447 153.897L316.553 153.122L317.59 153.868L318.616 155.304L319.671 155.926L320.113 155.219L321.063 155.902L322.274 156.78L322.379 158.439L320.776 158.376L321.496 158.899L323.18 159.504L324.416 161.021L323.67 162.058L323.917 163.606L323.301 164.82L322.808 166.447L322.056 167.485L320.8 169.598L320.925 170.381L320.806 172.631L319.829 173.979L319.747 176.459L317.956 177.222L317.651 179.062L316.576 180.553L316.588 182.629L316.426 184.09L317.725 183.245L317.16 181.741L318.423 180.667C319.024 180.368 319.655 180.132 320.306 179.965C321.002 179.854 321.015 178.418 321.015 178.418L322.16 177.126L323.329 176.461L323.843 174.932L323.166 174.441L322.221 174.509L322.202 173.874L321.923 172.644L323.08 172.383L324.006 172.236L325.379 172.335L327.032 172.709L327.194 171.727L327.947 170.217L328.891 170.902L329.138 172.45L330.281 173.625L331.369 173.452L330.109 172.582L330.729 171.718L331.937 170.059L333.714 168.737L336.58 167.725L338.799 166.651L339.526 167.453L339.059 168.044L340.544 169.12L342.942 168.737L342.924 168.103L343.017 167.208L344.184 168.533L345.714 167.652L347.125 165.992C347.125 165.992 348.785 165.409 349.17 165.347C349.555 165.286 348.947 163.949 348.947 163.949L348.469 162.431L347.016 160.834L347.041 158.994L347.129 158.024L348.21 158.807L349.062 157.919L350.006 158.604L351.385 159.257L351.547 158.275L352.144 158.021L352.877 158.624L353.424 158.059C353.424 158.059 353.12 156.628 353.698 156.536C354.276 156.444 354.32 155.685 354.32 155.685L356.24 156.73L356.694 156.103L358.658 156.427L358.339 158.422L359.233 158.279L360.265 159.033L360.501 160.512L361.831 159.344L362.732 159.997L363.005 161.707L362.041 162.179L361.519 162.9L362.773 163.809C362.773 163.809 363.569 163.287 363.508 162.901C363.446 162.516 364.315 163.487 364.315 163.487L364.513 164.73L366.098 164.439L367.855 165.707L369.149 166.304L370.826 166.349L371.411 165.542L373.349 166.189L373.27 164.691L372.083 162.248L371.432 161.159L371.257 160.065L370.11 159.267L369.887 157.868L371.869 157.788L373.124 158.703L374.765 157.963L376.704 157.654L375.99 155.696L376.762 153.502L378.701 152.714L380.168 152.404L381.945 152.598L381.759 151.43L379.808 150.906L380.362 150.142L381.071 149.073L382.557 148.918L383.532 147.564L382.942 147.34L381.594 146.357L380.134 145.875L379.861 144.166L379.246 143.786L378.798 145.929L377.767 145.456L377.506 143.821L378.968 142.001L378.558 140.951L376.768 140.197L377.624 139.009L379.097 138.774L381.105 137.338L381.442 135.455L384.145 133.902L386.234 132.536C386.462 132.719 386.616 132.977 386.669 133.264C386.743 133.73 385.357 134.512 385.357 134.512L385.136 136.683L386.361 135.85L387.338 134.502L388.885 134.733L388.983 137.822L390.102 136.369L389.866 134.889L389.003 132.477L389.152 131.37L389.537 129.313L391.048 128.275L393.212 126.898L394.771 127.682C394.489 128.228 394.175 128.756 393.832 129.266C393.409 129.856 394.515 130.036 394.515 130.036L396.218 129.765L397.107 128.348C397.107 128.348 398.561 129.468 398.827 129.661C399.094 129.854 398.313 127.914 398.313 127.914L400.222 126.417L401.825 126.958L403.44 126.618L404.684 124.909L405.929 122.721L405.569 120.465L407.05 117.284L408.425 115.394L409.612 113.369L412.11 112.569L414.23 112.116L415.447 112.993L417.966 114.842L419.774 113.673L420.993 112.325L422.541 112.078L421.698 111.429L421.522 110.329L422.759 108.614L422.351 106.053L422.837 104.624L424.005 104.438L424.85 103.264L424.603 101.71L426.326 100.007L426.494 98.0681L425.593 97.4088L425.756 96.433L424.42 95.0524L425.024 93.3626L425.661 92.4005L427.375 93.6378L426.423 94.9433L427.778 95.9257L429.562 95.6412L430.73 94.9767L432.315 93.9271L433.807 93.2877L433.994 91.983L433.329 90.8141L432.452 90.7883L429.625 90.0471L427.736 90.6671L427.096 89.6536L425.536 89.9024L425.404 89.0757L425.562 87.5462L426.848 86.6207L426.744 84.9673L427.877 84.0791L428.964 83.9056L428.288 82.6621L428.531 81.1891L429.551 79.0313Z" fill="#282828"/>
<path d="M107.213 230.466L106.43 230.075L105.908 230.279L105.977 229.471L106.033 228.825L105.965 228.396L106.19 228.086L107.058 229.535L107.842 228.454L108.29 227.789L108.527 228.032L108.62 228.616L108.339 229.095L108.438 229.716L107.792 230.138L107.475 230.189L107.213 230.466Z" fill="#E7E7E7"/>
<path d="M108.977 355.37L108.033 354.686L107.835 353.443L108.494 352.503L108.41 351.095L107.873 350.167L106.982 350.009L106.325 349.292L105.153 348.695L104.875 346.954L104.061 346.083L103.66 344.929L102.684 344.244L102.536 343.311L101.787 342.615L100.866 341.952L100.107 340.951L100.487 339.813L99.76 338.495L98.9035 337.88L98.5127 336.947L97.6425 336.207L97.3077 335.106L96.3719 334.873L94.9657 335.327L94.2451 334.804L93.7345 333.84L93.1497 334.169L92.3604 334.295L91.8508 333.338L90.9041 333.036L90.2581 332.502L89.3631 332.644L88.7885 333.437L87.7372 333.758L87.2278 333.202L86.5746 333.102L86.1027 333.859L86.2514 334.792L85.7787 335.823L86.4422 336.227L87.057 337.085L86.5981 338.204L87.4773 338.841L86.3104 339.996L85.5329 340.356L86.0025 341.422L85.7262 342.327L86.706 342.477L86.7109 342.508L85.7445 342.362L84.8154 344.008L83.2989 344.25L82.4691 343.363L81.8834 342.487L81.1376 342.606L80.4909 343.506L79.4114 343.85L78.6174 344.946L79.2568 346.437L80.7035 348.036L81.5416 349.815L83.462 350.707L84.7166 351.061L85.6852 352.819L87.1753 353.691L87.1186 355.293L88.3616 356.134L89.0639 358.54L90.3198 359.462L92.0718 359.418L93.196 360.233L93.5931 361.005L94.9292 360.951L95.5376 362.288L96.5793 361.268L97.2714 359.653L97.748 357.926L97.738 357.864L97.749 357.933L97.305 359.584L96.6139 361.205L95.5712 362.219L96.9378 363.276L96.6894 364.635L96.1735 365.916L97.4842 367.141L98.3654 368.671L98.527 369.684L99.9058 370.337L100.359 372.177L101.618 374.603L102.091 376.044L103.861 376.157L105.546 375.251L106.876 375.6L108.604 374.445L108.058 371.982L108.041 369.919L107.154 367.352L106.807 365.176L108.07 362.106L108.734 361.28L108.648 360.739L109.4 359.701L109.531 358.284L109.689 356.755L108.977 355.37ZM101.359 350.798L101.806 351.364L101.359 350.798ZM100.496 352.777L101.358 353.029L100.502 352.776L100.496 352.777ZM97.4183 354.741L95.8338 354.955L95.8269 354.912L97.4176 354.696L96.921 353.501L97.4183 354.741ZM87.1343 346.641L87.8549 347.163L87.8659 347.232L87.1452 346.709L87.1343 346.641ZM91.7574 354.93L92.1632 355.196L91.7077 354.938L91.7574 354.93ZM95.3961 351.691L94.4455 351.205L95.3961 351.691ZM93.7433 350.718L92.7058 351.126L93.7433 350.718ZM90.6125 349.069L89.3973 349.002L88.0928 348.815L89.3963 348.996L90.6125 349.069ZM88.7605 345.648L88.2571 345.13L88.7605 345.648ZM87.8921 344.2L86.9609 343.755L87.8859 344.201L87.8921 344.2ZM95.338 358.559L94.8041 357.37L95.338 358.559ZM105.523 358.044L105.091 356.296L103.49 356.405L102.495 355.442L101.488 354.646L102.411 355.36L103.49 356.405L105.091 356.296L105.523 358.044Z" fill="#282828"/>
<path d="M152.726 260.735L152.014 262.384L150.239 262.247L149.639 263.076L148.338 261.715L145.239 260.667L144.455 259.262L142.685 257.995L140.612 257.943L139.265 255.895L137.819 256.897L135.996 256.416L134.165 257.199L132.582 258.223L132.797 259.572L132.581 258.217L130.419 256.649L129.93 253.585L128.231 252.358L127.604 253.223L125.454 252.208L124.502 251.518L123.095 251.883L122.183 252.201L121.935 250.646L122.124 249.271L120.962 249.1L119.759 249.547L118.795 249.337L118.029 249.051C117.638 248.904 117.232 248.797 116.819 248.734C116.37 248.668 115.928 248.566 115.495 248.429L114.769 247.869L114.674 248.554L113.673 248.713L112.772 247.933L111.665 248.109C111.665 248.109 111.435 246.986 111.205 247.022C110.975 247.059 110.485 246.5 110.485 246.5L109.547 246.216L108.503 246.383L107.803 247.348L106.492 247.557L105.918 248.318L104.817 248.366L103.819 247.62L102.147 247.887L101.158 247.478L99.9886 247.74L99.2031 247.171L97.8483 247.387L97.0268 246.791L96.4001 245.859L95.3612 247.057L95.3978 248.046L94.8115 248.885L94.9159 250.538L94.6358 251.539L94.2995 252.428L93.2181 252.6L92.9674 253.985L91.7263 252.876L90.4214 253.206L89.1467 254.684L88.7862 255.94L87.3069 256.654L86.958 258.462L86.4248 260.593L86.2561 262.533L86.5419 263.845L85.8326 264.513L87.1812 265.496L86.9877 267.28L86.843 268.89L88.1106 269.325L86.843 268.89L85.4445 269.591L83.7734 269.303L83.1209 268.209L82.1208 267.412L80.9653 267.679L80.803 269.139L79.9754 270.463L78.7414 272.196L78.2374 273.552L79.1251 274.602L80.0691 275.286L80.9747 274.211L81.8376 275.106L82.8439 275.902L84.0309 275.872L85.0254 276.593L85.8937 278.042L85.9366 279.31L85.731 281.497L85.1279 282.231L84.1894 282.381L83.9097 283.624L83.2382 284.368L84.3008 285.556L85.3991 286.968L85.6598 288.603L85.1618 290.436L84.3342 291.76L84.893 292.786L86.2101 293.532L87.0426 295.235L88.9618 296.28L90.6082 297.133L91.458 299.465L91.2526 301.174L92.7187 302.374L93.9919 302.885L94.7425 304.595L95.0131 304.813L96.2086 305.795L96.4703 307.436L97.8932 307.847L98.6138 308.369L98.7695 309.345L100.118 309.13L100.781 309.809L101.868 309.635L102.458 308.815L104.459 308.495L105.979 306.398L106.253 304.442L108.472 304.088L109.398 302.94L110.57 302.976L110.981 303.796L112.267 304.229L113.839 303.978L114.287 303.269L113.411 301.771L112.684 300.331L111.647 299.579L111.008 298.693L109.448 298.304L108.381 297.524L109.448 298.304L111.008 298.693L111.684 299.611L112.721 300.364L113.448 301.803L114.462 301.131L115.207 300.968L115.85 300.081L117.089 299.138L118.478 297.941L118.788 297.088L120.087 296.881L119.853 294.413L119.049 293.369L119.002 291.273L118.524 290.074L119.141 289.23L119.864 288.088L120.672 288.317L121.455 287.554L122.035 286.754L121.936 286.132L122.824 285.991L123.435 285.147L123.832 284.6L124.739 284.213L125.371 283.341L124.979 282.677L124.86 281.931L124.269 281.502L123.435 281.106L123.209 279.689L123.949 278.659L125.199 278.186L126.004 277.076L127.526 276.553L129.143 275.74L131.112 275.178L131.935 274.065L132.077 272.359L132.825 271.335L134.086 272.249L135.652 271.999L136.024 270.334L137.59 270.084L139.52 270.197L141.801 269.196L142.467 268.178L143.834 267.96L144.582 269.173L145.57 269.889L147.036 269.655L147.649 270.099L148.693 268.657L150.459 267.738L151.373 268.396L152.135 267.261L154.317 266.913L153.998 263.196L154.749 261.993L152.726 260.735ZM86.6162 281.413L87.027 280.513L87.2804 280.383L87.027 280.513L86.6162 281.413ZM88.6288 289.717L89.9172 290.723L88.6288 289.717ZM90.051 291.562L92.2646 291.655L90.051 291.562ZM88.3307 270.705L88.9376 269.875L88.3307 270.705ZM107.055 271.027L107.354 270.145L107.759 269.251L107.055 271.027ZM106.202 273.152L107.235 272.197L106.203 273.158L104.968 272.609L104.629 273.078L104.967 272.603L106.202 273.152ZM102.52 266.052L103.651 266.19L102.52 266.052ZM104.421 267.221L104.341 267.119L105.201 267.798L104.421 267.221ZM100.747 257.85L102.127 257.994L102.259 258.82L102.98 259.343L103.748 260.406L102.979 259.337L102.258 258.814L102.128 258L100.761 257.861L100.747 257.85ZM97.1274 257.612L98.0128 258.248L99.6165 258.394L98.0003 258.25L97.115 257.614L96.8704 257.519L97.1274 257.612ZM99.2046 267.479L98.223 266.998L99.2046 267.479ZM95.8944 257.114L95.3313 256.7L95.8944 257.114ZM97.3926 266.787L97.0854 267.218L97.3926 266.787ZM96.677 275.646L98.4912 276.033L99.3438 274.386L100.084 274.549L100.636 273.778L101.904 273.219L102.743 273.525L103.781 274.278L104.781 273.914L103.78 274.271L102.743 273.519L101.897 273.214L100.636 273.778L100.083 274.542L99.3366 274.381L98.5148 276.061L96.7068 275.674L96.677 275.646ZM101.876 281.791L101.907 281.748L101.883 281.796L101.876 281.791ZM102.23 281.097L100.91 280.492L102.299 280.965L102.23 281.097ZM93.3333 269.946L93.1966 271.166L93.3271 269.947L92.6065 269.424L93.3333 269.946ZM91.6444 267.627L92.5765 268.677L91.6454 267.633L90.5754 268.397L91.6444 267.627ZM96.5422 301.414L97.6363 300.602L97.1877 299.507L97.6363 300.602L96.5422 301.414ZM97.0474 295.871L97.522 296.209L98.1788 296.691L97.0474 295.871ZM94.2111 275.689L93.8825 274.588L94.2163 275.682L95.4037 275.894L94.2111 275.689ZM97.9843 288.958L98.7985 288.07L97.9843 288.958ZM99.6235 291.884L100.424 290.787L99.6235 291.884ZM101.212 285.218L99.8006 286.361L101.212 285.218L101.467 284.062L101.212 285.218ZM103.963 293.601L104.042 292.174L103.963 293.601ZM102.642 283.441L103.269 283.895L102.642 283.441ZM107.627 295.675L106.306 294.343L107.729 295.754L107.627 295.675ZM108.479 291.587L107.914 291.04L108.479 291.587ZM107.956 282.593L106.849 282.846L106.569 283.605L105.444 283.784C105.407 283.554 106.612 283.598 106.612 283.598L106.893 282.839L107.999 282.58L108.568 281.437L107.956 282.593ZM108.819 284.725L109.682 283.905L108.819 284.725ZM113.851 276.318L113.489 276.809L112.081 277.091L111.715 276.831L110.803 277.186L110.748 278.043L109.59 278.412L110.748 278.043L110.79 277.188L111.715 276.831L112.075 277.092L113.466 276.819L113.826 276.322L115.061 276.354L113.851 276.318ZM112.117 266.523L112.07 266.428L111.776 266.029L112.076 266.427L112.092 266.527L112.901 266.729L112.117 266.523ZM111.715 265.484L111.048 265.775L110.627 266.295L111.048 265.775L111.715 265.484ZM110.873 266.677L110.622 267.22L110.873 266.677ZM110.498 267.482L109.944 267.488L110.497 267.476L110.498 267.482ZM110.179 268.961L109.978 269.86L110.178 268.955L110.179 268.961ZM112.035 261.653L110.925 261.288L110.229 260.921L109.073 261.106L108.787 260.272L108.402 260.256L108.814 260.242L109.1 261.076L110.25 260.892L110.977 261.255L112.071 261.641L113.277 261.449L114.207 262.129L115.512 261.921L116.674 262.373L117.717 262.519L116.668 262.374L115.512 261.921L114.207 262.129L113.271 261.456L112.035 261.653ZM116.132 269.286L115.583 268.316L116.36 267.554L115.583 268.316L116.132 269.286ZM116.135 266.507L116.302 267.271L116.135 266.507L116.658 265.786L116.791 264.745L117.608 264.194L116.797 264.744L116.658 265.786L116.135 266.507ZM117.617 264.167C117.607 264.105 117.167 263.346 117.236 263.259L117.272 263.202L117.237 263.265L117.617 264.167ZM118.061 287.534L118.763 287.378L118.061 287.534ZM117.853 275.756L116.95 275.811L116.651 276.215L115.878 276.523L115.701 276.488L115.859 276.52L116.632 276.212L116.924 275.808L117.827 275.754L118.827 275.594L118.62 274.493L119.104 274.173L119.232 273.337L119.103 271.847L118.382 271.324L117.59 271.151L117.11 270.463L117.59 271.151L118.402 271.327L119.122 271.85L119.258 273.339L119.124 274.176L118.646 274.495L118.822 275.601L117.853 275.756ZM120.704 277.252L119.461 277.049L119.633 276.09L119.461 277.049L120.704 277.252L121.067 278.246L120.704 277.252ZM127.772 274.098L128.261 271.929L127.772 274.098ZM128.122 263.148L129.37 261.343L128.122 263.148ZM130.359 261.185L130.57 260.393L130.359 261.185Z" fill="#282828"/>
<path d="M195.402 263.795L193.298 263.352L191.403 262.699L189.403 261.743L188.601 261.871L188.293 262.933L187.545 263.32L186.904 262.855L186.079 262.719L185.421 263.627L183.939 263.328L182.795 264.148L181.542 263.283L179.731 262.794L178.798 263.3L177.826 262.442L177.843 261.426L177.34 260.868L176.29 260.679L175.651 261.552L175.011 261.093L174.545 261.728L172.834 261.109L172.334 262.648L173.243 263.313L173.392 264.245L172.285 264.9L171.042 265.098L170.441 265.927L169.301 266.249L168.792 265.457L168.072 264.934L167.005 266.239L165.963 265.5L164.419 265.045L163.059 265.594L162.769 267.246L162.054 268.482L161.426 268.021L161.724 266.852L161.184 265.663L161 264.507L160.048 263.817L159.865 262.667L160.75 261.5L160.587 260.48L162.031 259.906L161.781 258.339L162.586 257.229L162.248 256.072L161.497 255.835L161.634 254.94L159.877 253.429L159.267 253.322L158.559 254.2L156.234 257.401L154.68 256.967L153.985 257.843L155.971 259.349L154.963 260.064L155.191 261.494L154.764 262.091L154.013 263.295L154.325 267.012L152.15 267.359L151.388 268.494L150.474 267.837L148.708 268.756L147.658 270.16L147.045 269.716L145.579 269.95L144.591 269.234L143.868 268.017L142.457 268.242L141.711 269.279L139.43 270.28L137.5 270.167L135.984 270.409L135.612 272.075L134.046 272.324L132.766 271.407L132.022 272.456L131.878 274.155L131.048 275.301L129.079 275.864L127.462 276.676L125.94 277.2L125.136 278.309L123.885 278.783L123.145 279.813L123.371 281.23L124.777 282.057L124.896 282.803L125.289 283.467L125.779 283.823L125.289 283.467L124.657 284.339L123.75 284.726L122.742 286.117L121.853 286.259L121.952 286.881L121.372 287.681L120.589 288.443L119.782 288.215L118.441 290.201L118.919 291.399L118.967 293.495L119.771 294.54L120.005 297.008L118.706 297.215L118.396 298.068L117.006 299.264L115.767 300.208L115.157 301.013L114.411 301.176L113.397 301.848L114.273 303.346L113.798 304.002L113.902 305.375L114.684 307.163L116.452 307.098L117.571 307.48L117.718 308.4L119.281 308.094L121.399 309.585L121.955 311.67L120.767 313.256L121.953 314.061L122.429 313.405L123.6 313.633L124.172 315.141L125.021 315.752L126.152 315.571L126.561 316.698L127.656 317.492L127.961 319.044L129.279 318.833L130.223 319.518L129.96 321.109L130.209 322.669L131.52 323.614L133.44 323.664L133.36 322.166L134.211 320.992L134.461 320.079L137.892 319.531L138.483 318.245L140.111 317.985L141.807 318.588L143.492 317.682L144.305 316.552L146.264 316.603L147.052 318.07L147.288 319.55L148.382 319.375L150.196 318.761L151.364 319.614L152.125 320.869L154.102 321.274L155.493 322.487L156.138 324.532L157.202 326.447L158.035 327.672L157.251 328.753L157.449 329.996L158.456 329.835L159.141 328.133L160.681 329.079L161.897 330.714L163.278 330.896L164.868 330.4L166.515 329.258L167.951 329.749L169.609 330.677L170.342 331.758L171.728 330.976L173.518 330.691L174.643 331.512L174.958 333.489L176.285 334.456L176.716 335.28L178.475 336.555L179.811 336.342L180.511 335.376L181.306 335.249L182.126 336.393L183.156 337.14L184.884 336.744L186.593 336.471L187.445 335.303L188.297 333.65L187.037 332.742L186.515 331.467L185.687 330.828L184.427 329.92L183.743 328.869L183.314 327.662L182.482 327.795L182.207 326.832L183.554 325.89L183.788 324.839L183.085 323.944L182.314 324.067L180.983 323.712L180.132 324.211L177.373 324.651L177.719 323.748L178.874 322.997L178.892 321.827L179.646 319.725L180.473 319.593L180.267 318.306L181.067 316.77L180.929 315.899L182.278 314.052L183.411 313.445L183.323 312.891L184.604 312.572L185.275 313.224L186.176 313.08L185.938 311.588L185.122 309.985L183.158 309.66L182.425 310.338L180.462 310.454L179.222 309.032L178.652 306.981L177.787 306.348L177.232 304.907L178.73 303.393L179.967 303.559L181.31 303.982L182.311 304.709L182.481 305.772L184.196 306.136L185.073 304.925L186.759 304.229L186.607 303.271L187.275 301.386L187.442 300.155L186.918 298.906L186.092 300.045L184.959 298.855L183.847 299.033L181.83 298.016L180.615 296.788L181.454 295.5L181.977 294.78L181.764 293.443L182.119 292.316L182.66 292.708L184.176 292.466L185.357 291.64L185.473 290.13L186.079 288.656L187.123 288.49L188.279 289.74L188.77 289.062L189.481 288.088L188.761 287.566L188.583 286.81L189.832 285.655L191.222 285.739L192.06 284.796L192.863 283.68L191.878 282.938L191.791 282.391L192.448 281.477L192.698 279.645L191.452 278.231L191.136 276.248L192.246 274.937L193.564 274.727L194.441 273.516L195.331 271.583L196.674 269.934L197.206 267.637L196.956 266.065L198.398 265L198.2 263.756L195.402 263.795ZM162.052 310.866L162.148 308.67L162.052 310.866ZM160.71 305.489L161.591 304.979L162.174 303.197L163.031 303.06L164.374 301.208L163.852 301.929L163.042 303.046L162.166 303.185L162.035 304.003L161.605 304.983L160.71 305.489ZM135.068 300.546L135.257 299.656L135.068 300.546L134.522 300.92L135.068 300.546ZM140.75 293.738L142.272 293.093L140.751 293.744L140.75 293.738ZM146.821 285.649L147.97 287.142L146.138 287.925L147.97 287.142L146.821 285.649ZM143.557 293.436L146.202 295.239L144.92 294.43L143.557 293.436ZM152.829 285.322L152 284.721L152.829 285.322ZM150.079 279.469L150.457 278.44L150.079 279.469ZM140.515 292.424L138.259 291.349L137.737 290.591L138.259 291.349L140.515 292.424ZM140.391 304.516L139.593 303.949L140.391 304.516ZM144.06 301.305L142.421 299.979L144.06 301.305ZM156.853 301.604L157.086 300.547L156.853 301.604ZM163.66 300.085L163.77 300.775L164.066 300.996L163.763 300.776L163.653 300.086L163.221 299.091L163.66 300.085ZM165.222 292.422L164.836 291.037L163.916 291.184L163.273 290.509L163.916 291.184L164.836 291.037L165.222 292.422ZM169.44 319.867L169.156 321.124L169.44 319.867ZM166.935 294.769L165.657 294.508L165.467 293.837L165.657 294.508L166.935 294.769L167.353 294.193L166.935 294.769ZM161.215 282.518L162.396 280.813L161.221 282.517L161.58 284.768L161.293 285.164L161.574 284.769L161.215 282.518ZM150.005 275.325L150.809 274.215L151.854 272.773L150.005 275.325L148.181 274.602L150.005 275.325ZM145.32 277.92L142.938 276.968L142.096 278.122L142.92 276.977L145.32 277.92ZM142.163 278.105L140.591 278.356L142.163 278.105ZM140.994 280.006L140.311 280.957L140.994 280.006ZM137.008 288.578L136.345 288.098L137.008 288.578ZM131.168 289.083L132.468 289.239L132.939 288.201L134.797 287.86L135.126 287.406L136.412 287.118L135.126 287.406L134.797 287.86L132.939 288.201L132.468 289.239L131.168 289.083L130.578 287.902L130.008 287.483L130.578 287.902L131.168 289.083ZM129.2 285.572L129.143 285.536L129.2 285.572ZM126.43 290.743L126.668 292.235L127.522 292.794L126.668 292.235L126.43 290.743L124.989 289.698L126.43 290.743ZM122.592 289.494L121.771 288.899L122.592 289.494ZM135.267 305.869L134.114 305.033L133.598 304.28L134.114 305.033L135.267 305.869ZM146.24 315.733L145.585 314.983L144.282 314.044L144.31 312.306L144.282 314.044L145.585 314.983L146.24 315.733ZM154.799 307.866L154.133 310.522L152.071 311.259L151.761 312.354L150.861 312.262L149.526 313.564L150.861 312.262L151.761 312.354L152.071 311.259L154.133 310.522L154.799 307.866L156.414 306.602L154.799 307.866ZM157.666 303.304L157.706 302.794L157.666 303.304ZM161.108 305.942L161.27 306.159L161.509 308.179L161.27 306.159L161.108 305.942ZM163.056 311.285L162.686 311.121L163.056 311.285L164.267 312.163L165.161 313.774L165.431 315.471L166.117 316.451L165.431 315.471L165.161 313.774L164.267 312.163L163.056 311.285ZM168.83 324.592L169.237 324.03L169.234 322.45L169.237 324.03L168.83 324.592L169.277 325.757L168.83 324.592ZM175.029 327.141L174.643 326.954L175.029 327.141L176.087 327.259L175.029 327.141ZM178.659 297.151L177.7 295.137L176.42 295.105L175.498 293.799L176.42 295.105L177.7 295.137L178.659 297.151L179.708 297.334L178.659 297.151Z" fill="#282828"/>
<path d="M281.592 255.281L282.475 254.063L281.73 252.907L281.781 251.229L281.173 249.414L280.427 250.451L279.389 249.698L277.544 249.597L276.892 248.025L277.545 247.124L277.117 245.363L276.198 244.075L275.117 243.291L274.185 243.44L273.08 242.029L273.689 241.371L273.466 239.972L272.777 239.126L272.653 238.349L273.542 237.174L272.66 235.919L270.741 235.192L270.567 234.105L269.759 233.513L270.27 232.24L269.798 230.881L268.898 230.228L268.755 228.975L269.881 229.038L270.024 228.059L270.724 227.093L270.991 225.534L270.183 224.464L270.761 224.372L271.011 223.178L269.987 221.512L269.794 220.306L268.558 220.268L268.354 218.745L267.564 219.789L267.024 219.397L266.221 220.36L265.638 219.937L265.277 218.955L263.768 218.96L262.643 218.145L262.292 217.34L261.503 216.746L261.199 215.322L262.427 214.03L263.388 212.704L263.823 211.678L265.377 211.43L264.95 208.751L264.802 206.862L262.987 206.195L262.372 205.337L262.064 205.763L261.438 204.836L261.777 204.361L262.337 203.596L263.772 203.125L263.487 202.336L264.111 201.497L263.676 200.527L262.497 200.122L261.403 200.016L260.733 199.531L260.279 198.723L259.545 198.84L259.342 197.967L258.597 199.004L258.857 199.881L259.322 200.839L258.526 201.839L257.085 200.794L256.179 200.148L254.723 201.49L255.544 203.118L256.86 204.1L256.959 204.722L258.469 205.195L259.5 205.948L260.202 207.073L260.351 208.006L258.829 206.973L257.425 205.923L256.336 206.848L255.281 206.226L253.498 205.274L252.964 201.93L254.139 200.308L254.129 198.244L253.77 195.994L253.895 194.298L252.652 194.496L252.291 195.752L253.039 196.965L252.678 198.699L251.981 200.321L250.347 200.581L248.72 202.849L247.675 204.29L248.979 205.236L249.041 206.858L249.742 208.257L250.555 209.88L249.249 211.682L248.847 213.799L248.061 215.703L248.694 218.151L247.911 219.232L248.376 220.675L249.775 220.452L250.532 221.205L251.608 220.479L252.36 219.441L253.627 220.354L255.634 220.71L256.355 221.232L257.517 222.003L258.542 223.439L258.2 224.769L258.902 226.174L258.597 227.255L257.416 227.845L257.8 229.212L257.935 230.064L258.7 230.624L260.527 230.849L260.702 231.949L258.857 231.848L257.056 230.542L256.869 229.373L256.491 227.521L257.536 226.08L256.22 223.823L255.369 223.2L254.618 221.771L252.871 222.285L251.243 222.545L250.36 223.763L249.477 224.981L249.868 226.429L250.52 228.002L250.351 229.941L249.53 231.066L248.523 232.464L247.938 233.271L248.199 234.906L246.782 236.011L244.923 236.862L244.531 237.403L243.524 237.563C243.524 237.563 242.474 238.247 242.834 238.509C243.194 238.77 242.784 239.913 242.784 239.913L241.385 240.136L240.243 238.966L238.937 239.251L237.204 238.412L235.952 238.032L234.505 236.433L234.274 234.985L235.498 235.191L236.443 235.882L237.854 236.492L238.898 235.528L240.899 235.605L241.887 234.81L242.783 232.914L244.48 230.571L246.109 229.833L245.968 226.911L247.467 225.321L247.498 224.041L245.921 222.903L245.015 220.937L245.401 219.359L245.788 216.275L245.796 212.845L247.009 210.261L247.06 208.105L247.106 205.395L245.602 204.436L245.901 202.317L247.761 199.751L247.663 196.86L248.316 195.959L247.172 193.426L245.544 193.685L244.463 192.902L242.599 193.199L241.455 192.024L240.101 193.043L239.541 195.044L239.061 197.033L238.408 199.451L237.245 200.988L236.76 201.665L235.217 202.739L233.75 203.528L233.073 204.758L232.773 206.393L233.836 206.548L234.027 207.742L233.473 208.786L233.385 210.713L233.584 211.956L232.149 212.988L231.532 213.838L232.613 215.381L234.253 216.152L234.289 218.377L235.463 220.262L236.768 220.455L235.244 222.368L235.502 223.984L234.097 225.165L232.737 223.629L232.479 222.012L230.876 220.432L229.325 218.697L227.206 217.161L226.386 216.017L225.912 217.042L224.868 218.484L225.74 219.078L225.988 219.637L226.603 219.737L227.025 222.379L226.285 222.497L226.074 223.41L225.501 223.814L225.526 224.689L225.501 225.331L227.177 225.854L227.339 226.867L225.997 227.68L227.394 228.688L225.678 229.918L224.513 231.525L223.04 231.76L222.766 233.556L220.125 233.978L217.726 234.921L215.463 236.716L215.735 238.42L213.709 238.666L213.957 241.259L214.608 243.303L214.359 245.3L213.153 246.965L214.004 247.588L215.538 248.694L217.285 249.939L215.532 248.657L213.998 247.55L213.141 246.929L214.322 245.306L214.64 243.305L214.002 241.258L213.747 238.666L212.294 239.14L211.628 240.203L210.288 241.188L209.066 242.881L207.752 243.269L207.553 242.025L206.51 241.835L205.507 243.219L204.128 245.083L203.645 246.531L204.201 248.176L202.523 249.642L202.571 251.062L201.15 252.302L200.422 254.452L200.928 255.748L200.505 257.09L200.673 258.141L199.059 260.374L199.008 261.772L198.397 262.615L198.162 263.781L198.361 265.024L196.921 266.063L197.171 267.636L196.62 269.936L195.234 271.591L194.344 273.524L193.509 274.76L192.166 274.974L191.056 276.286L191.376 278.288L192.621 279.702L192.371 281.533L191.714 282.447L191.801 282.994L192.786 283.736L191.986 284.832L191.137 285.745L189.747 285.661L188.498 286.817L188.676 287.572L189.396 288.095L188.685 289.069L188.194 289.746L187.039 288.496L185.995 288.663L185.388 290.136L185.272 291.646L184.091 292.472L182.575 292.714L182.034 292.322L181.679 293.45L181.892 294.786L181.37 295.507L180.511 296.798L181.727 298.025L183.737 299.043L184.856 298.865L185.983 300.056L186.814 298.916L187.807 298.311L186.814 298.916L187.338 300.165L187.171 301.396L186.517 303.285L186.667 304.23L184.981 304.926L184.104 306.137L182.389 305.773L182.219 304.71L181.218 303.984L179.875 303.56L178.638 303.394L177.14 304.908L177.695 306.35L178.56 306.983L179.13 309.034L180.369 310.449L182.333 310.34L183.066 309.662L185.03 309.986L185.846 311.59L186.084 313.081L185.183 313.225L184.512 312.574L183.231 312.893L183.319 313.446L182.186 314.054L180.837 315.901L180.975 316.771L180.202 318.316L180.416 319.659L179.59 319.79L178.835 321.893L178.818 323.062L177.663 323.814L177.316 324.717L180.076 324.277L180.927 323.778L182.258 324.133L183.047 324.007L183.751 324.902L183.517 325.953L182.174 326.925L182.449 327.889L183.282 327.756L183.71 328.963L184.072 327.235L185.687 327.372L186.943 326.777L187.267 325.291L186.41 323.432L187.647 322.681L189.655 322.284L191.183 323.392L192.27 323.218L193.091 322.093L191.874 321.21L190.927 320.43L189.988 320.019L190.897 318.765L190.17 317.682L190.438 315.887L192.073 315.626L194.011 316.273L195.428 317.162L196.764 316.548L198.771 316.629L201.401 316.133L203.271 316.39L204.588 316.18L206.191 316.721L207.689 316.163L208.442 315.125L209.262 314.994L211.443 315.724L213.544 315.389L215.203 314.805L216.725 315.359L218.36 314.621L220.268 314.316L220.989 312.844L222.724 312.733L224.42 313.418L226.365 313.108L227.29 314.388L228.682 314.166L228.534 313.24L228.831 312.262L229.488 311.348L229.321 310.304L229.924 310.086L230.615 309.141L230.802 308.276L230.583 306.909L231.512 305.62L232.224 304.646L233.667 304.148L234.132 303.506L233.965 302.456L232.703 302.019L232.182 301.185L231.367 300.594L230.234 300.24L230.089 299.332L231.239 298.549L230.461 297.067L230.38 295.805L231.164 294.724L231.674 293.444L232.712 292.444L234.153 293.489L233.51 294.369L233.659 295.301L234.764 295.482L236.172 295.678L237.107 295.943L238.2 296.407L239.481 296.202L240.174 295.314L241.628 295.802L242.846 295.965L244.71 295.668L246.142 294.694L247.186 293.252L247.725 292.153L246.42 292.361L245.292 291.642L246.42 292.361L247.7 292.157L249.696 290.564L249.672 288.897L251.551 287.011L254.016 285.884L253.483 283.464L253.988 281.076L254.631 279.112L257.056 278.337L259.05 278.847L261.747 278.417L262.529 279.325L265.061 279.215L266.881 278.159L268.963 279.669L270.382 279.054L272.607 279.777L272.879 277.77L275.731 275.989L278.932 277.64L280.448 275.556L283.029 273.92L283.867 271.823L281.515 271.217L279.345 270.243L278.965 267.856L277.03 266.112L278.986 267.872L280.516 265.754L281.07 264.99L280.909 263.224L281.854 261.92L281.544 259.974L280.122 258.531L280.658 256.935L281.592 255.281ZM233.992 251.679L236.154 253.247L236.918 255.28L237.134 256.635L239.159 258.103L239.021 259.719L239.809 261.18L239.02 259.712L239.158 258.097L237.133 256.629L236.918 255.28L236.154 253.247L233.992 251.679ZM231.174 252.989L229.841 252.023L231.174 252.989ZM224.554 249.284L226.541 250.516L225.404 252.093L226.777 253.232L228.901 253.282L226.751 253.23L225.372 252.092L226.503 250.515L224.516 249.283L222.603 248.639L224.554 249.284ZM221.079 249.589L219.353 249.157L221.079 249.589ZM213.008 284.66L214.047 285.419L213.725 286.395L214.011 288.191L215.013 288.918L216.23 289.597L215.013 288.918L214.802 290.475L215.31 291.458L215.519 292.77L213.831 293.932L215.483 292.744L215.274 291.432L214.767 290.455L214.977 288.891L213.975 288.165L213.689 286.369L214.023 285.391L212.986 284.639L213.008 284.66ZM209.696 298.575L210.333 299.895L209.494 300.825L210.349 299.911L209.696 298.575ZM209.643 296.206L210.224 297.853L209.637 296.207L210.771 294.649L209.643 296.206ZM212.747 293.69L211.963 294.771L212.747 293.69ZM209.533 279.293L208.75 280.374L209.363 282.106L210.504 282.504L209.339 282.11L208.725 280.378L209.499 279.318L209.251 277.763L208.079 276.93L208.229 275.154L208.243 275.241L208.101 276.908L209.262 277.755C209.552 277.971 209.511 279.316 209.511 279.316L209.533 279.293ZM201.915 264.132L203.111 265L205.273 266.567L206.746 268.493L207.827 269.277C207.827 269.277 208.398 271.098 208.163 271.384C207.93 271.759 207.719 272.148 207.533 272.549L207.752 273.317L207.499 272.574L208.122 271.403L207.786 269.296L206.705 268.512L205.231 266.586L203.07 265.019L201.866 264.146L201.099 263.772L200.429 263.286L201.915 264.132ZM200.38 263.261L200.228 262.304L200.38 263.261ZM194.837 300.192L193.974 301.293L194.837 300.192ZM197.246 312.257L196.257 312.371L197.246 312.257L197.558 312.934L197.246 312.257ZM198.275 303.768L197.961 302.04L198.275 303.768L198.826 305.701L198.275 303.768ZM217.095 307.645L217.052 309.137L217.095 307.645L216.013 307.658L217.095 307.645ZM226.39 284.49L225.217 285.129L224.654 285.876L222.293 286.252L221.561 287.261L219.305 287.022L219.071 287.352L219.303 287.009L221.559 287.249L222.29 286.234L224.651 285.857L225.215 285.078L226.869 284.177L226.39 284.49ZM228.083 283.117L227.797 281.887L228.083 283.117ZM229.887 282.44L228.768 281.822L230.775 282.777L229.887 282.44ZM232.111 283.641L231.521 283.219L232.124 283.639L232.111 283.641ZM243.929 291.847L243.016 291.24L241.635 291.008L240.727 290.35L240.513 289.013L238.903 289.028L238.68 287.629L237.36 286.106L236.233 284.673L234.792 283.628L233.211 283.465L234.792 283.628L236.233 284.673L237.36 286.106L238.679 287.623L238.902 289.021L240.512 289.007L240.727 290.35L241.635 291.008L243.015 291.234L243.894 291.871L243.929 291.847ZM245.249 261.925L243.79 260.246L245.249 261.925ZM246.567 261.715L248.379 263.09L246.567 261.715ZM251.637 262.78L249.693 262.574L251.672 262.756L253.113 263.801L251.637 262.78ZM257.384 265.644L255.619 265.046L255.931 263.485L253.72 262.971L255.957 263.494L255.652 265.053L257.417 265.652L258.858 266.697L257.384 265.644ZM268.475 263.78L267.6 262.287L268.481 263.817L270.371 265.6L268.475 263.78ZM273.385 265.075L274.84 266.806L273.385 265.075Z" fill="#282828"/>
<path d="M294.899 150.283L295.599 149.674L297.211 148.473L298.598 148.099L300.15 146.481L300.73 144.725L299.945 143.403L299.155 142.445L298.368 142.941L297.286 141.596L296.566 141.074L295.935 142.111L295.649 143.515L295.49 142.52L295.278 140.75L294.623 139.841L293.932 140.021L293.136 141.385L293.379 142.43L293.069 143.206L293.651 145.057L292.947 146.074L293.319 147.927L293.149 149.618L293.053 151.297L293.73 151.546L294.899 150.283Z" fill="#282828"/>
<path d="M286.577 136.095L285.108 136.833C285.108 136.833 284.215 137.192 284.028 137.298L282.852 137.913L282.53 139.054L282.399 140.031L281.894 140.858L282.254 141.757L281.203 142.88L281.848 143.287L282.649 142.873L283.509 143.749L283.731 144.664L284.477 145.348L286.121 145.226L286.475 146.125L287.494 145.243L288.202 146.086L289.846 146.404L291.218 145.458L291.763 144.358L291.018 143.323L289.888 142.228L290.518 141.624L290.606 140.38L290.039 139.1L289.973 137.651L288.098 136.962L287.603 137.856L287.196 139.018L286.665 138.886L286.8 137.494L286.577 136.095Z" fill="#282828"/>
<path d="M279.606 137.741L281.135 138.696L282.191 137.329L283.005 137.199L284.137 136.305L285.523 135.606L284.89 134.272L284.614 132.544L285.37 131.646L284.528 131.041L282.805 129.793L282.068 128.686L280.735 128.561L280.747 129.751L279.771 130.385L278.366 131.686L278.599 133.147L279.32 133.669L278.608 134.643L278.228 135.813L279.147 136.744L279.606 137.741Z" fill="#282828"/>
<path d="M394.928 253.396L394.029 251.755L393.044 251.81L392.866 250.697L391.64 249.72L390.643 248.98L389.4 249.179L389.589 250.366L388.675 251.627L386.939 251.655L386.761 250.536L385.935 250.031L385.711 248.626L384.176 248.673L382.292 248.126L380.675 248.581L378.99 248.601L378.248 249.867L378.032 251.47L377.113 252.738L377.787 254.167L377.481 256.007L376.27 257.723L376.704 260.44L374.888 262.164L375.144 263.768L374.076 262.663L373.857 261.295L372.67 260.446L371.77 261.036L371.726 262.317L369.314 263.697L368.071 263.895L367.818 265.427L367.234 266.756L365.576 267.148L363.414 265.581L362.596 261.734L362.467 259.364L362.12 257.188L362.108 255.195L361.81 253.33L360.356 252.963L359.332 252.776L359.036 251.879L358.42 250.894L357.397 250.152L357.23 249.108L357.753 248.387L357.693 246.93L356.738 246.178L355.613 246.357L354.277 245.971L354.102 244.877L354.51 244.315L353.89 243.865L353.178 242.239L351.911 240.65L350.617 240.008L349.367 240.603L348.14 240.9L347.901 239.402L348.891 238.938L348.733 237.944L347.508 237.017L347.31 236.093L346.16 236.199L345.444 237.181L344.301 236.885L342.987 237.643L342.185 236.929L341.452 237.046L340.93 237.767L339.687 237.965L338.799 237.711L338.551 236.157L338.943 235.617L338.78 234.597L338.208 233.49L338.909 231.893L339.203 230.297L337.301 228.962L336.52 226.901L335.048 226.383L334.832 225.028L335.292 224.477L334.658 224.017L334.46 222.773L332.912 222.421L332.547 222.926L331.896 221.684L332.507 220.841L333.086 219.474L334.2 218.946L333.28 216.014L332.629 214.129L332.461 213.078L330.71 210.808L330.15 208.258L328.647 207.542L327.852 206.279L327.263 205.302L327.164 204.68L328.699 203.798L330.002 201.136L331.115 200.601L332.762 200.817L333.06 199.692L332.856 198.411L331.841 197.681L332.009 196.099L333.106 195.503L332.908 194.26L332.6 192.69L333.706 191.634L334.961 189.91L335.106 188.784L335.727 188.685L335.358 187.125L334.115 187.323L332.674 185.405L332.373 183.515L331.245 182.675L328.902 181.493L328.764 180.629L327.099 180.296L326.36 179.222L326.385 177.618L325.615 177.065L324.758 176.131L324.261 175.292L324.713 174.646L324.743 173.876L324.042 173.478L323.62 172.15L322.762 172.286L321.607 172.554L321.886 173.784L321.904 174.418L322.85 174.351L323.527 174.842L323.016 176.396L321.848 177.06L320.703 178.352C320.703 178.352 320.69 179.788 319.994 179.899C319.343 180.067 318.712 180.302 318.111 180.601L316.865 181.699L317.428 183.196L316.129 184.041L316.291 182.58L316.279 180.504L317.355 179.02L317.661 177.18L319.451 176.416L319.533 173.936L320.51 172.588L320.629 170.338L320.504 169.555L321.76 167.442L322.513 166.404L323.005 164.777L323.607 163.559L323.361 162.011L324.107 160.974L322.87 159.457L321.181 158.853L320.46 158.33L322.063 158.393L321.96 156.746L320.743 155.869L319.798 155.179L319.357 155.887L318.302 155.264L317.268 153.817L316.231 153.07L315.125 153.846L314.087 153.094L312.674 154.466L311.127 154.713L309.567 155.918L310.381 156.509L310.215 157.905C309.627 157.743 309.022 157.651 308.412 157.632C307.946 157.706 307.866 156.686 307.866 156.686L308.694 155.522L307.383 154.533L305.866 154.774L305.475 155.315L302.967 155.575L303.763 154.096L304.815 152.698L304.206 151.157L303.069 151.498L301.366 150.813L300.334 152.336L299.097 153.566L298.361 156.628L298.168 157.934L298.466 159.798L299.16 160.159L299.527 161.459L298.98 161.546L297.286 162.39L295.577 162.662L296.178 163.44L297.222 163.987L298.067 164.809L296.469 164.745L294.965 165.303L294.934 166.583L292.51 166.893L291.695 168.011L291.516 166.892L292.026 165.377L290.671 165.829L290.416 166.749L288.744 167.252L286.805 168.039L286.145 168.941L287.618 169.184L287.238 169.799L285.243 170.755L284.654 171.62L281.814 172.513L281.13 173.457L279.122 174.612L278.547 176.521L276.36 176.793L276.626 177.943L277.726 177.85L276.775 178.875L276.172 180.093L276.893 180.616L276.62 181.66L277.352 182.257L276.458 182.642C276.458 182.642 276.271 181.473 275.78 182.151L275.027 183.182L275.936 183.847L276.913 184.016L277.875 185.055L277.222 185.956L275.749 186.191L273.865 187.364L270.839 187.847L270.912 188.307L268.936 187.908L265.288 188.49L263.958 190.137L264.652 192.015L265.373 192.537L264.917 194.197L264.749 196.136L265.469 196.659L266.843 198.275L268.402 198.581L268.501 199.681L269.538 200.714L269.426 202.007L267.332 202.341L265.754 201.203L265.17 200.773L265.469 199.132L263.27 198.373L262.059 197.489L260.803 197.887L259.206 197.823L259.429 198.744L260.169 198.626L260.616 199.434L261.386 199.987L262.386 200.025L263.56 200.431L264.001 201.399L263.374 202.258L263.665 203.047L262.223 203.513L261.331 204.757L261.961 205.709L262.203 205.23L262.861 206.12L264.676 206.787L264.818 208.676L265.245 211.355L263.698 211.602L263.262 212.628L262.337 213.98L261.114 215.265L261.418 216.689L262.204 217.265L262.549 218.064L263.674 218.886L265.19 218.88L265.547 219.842L266.131 220.266L266.933 219.303C266.933 219.303 267.368 219.871 267.467 219.696L268.257 218.652L268.461 220.174L269.704 220.212L269.902 221.455L270.921 223.129L270.678 224.321L270.094 224.414L270.901 225.478L270.633 227.038L269.937 228.066L269.8 229.045L268.674 228.982L268.829 230.232L269.715 230.868L270.186 232.227L269.707 233.496L270.521 234.086L270.693 235.168L272.564 235.909L273.445 237.158L272.544 238.302L272.667 239.073L273.363 239.918L273.586 241.317L272.971 241.976L274.068 243.343L275.001 243.195L276.082 243.979L277.001 245.266L277.442 247.032L276.789 247.933L277.44 249.499L279.286 249.606L280.315 250.341L281.068 249.309L281.676 251.124L281.625 252.803L282.37 253.959L281.486 255.17L280.561 256.803L280.046 258.409L281.475 259.851L281.785 261.797L280.839 263.101L281 264.867L280.446 265.631L278.911 267.75L279.291 270.137L281.46 271.111L283.827 271.766L282.994 273.811L280.42 275.496L278.931 277.55L275.731 275.906L272.88 277.687L272.612 279.686L270.381 278.965L268.964 279.586L266.881 278.076L265.061 279.131L262.529 279.236L261.69 278.331L259.017 278.757L257.023 278.24L254.597 279.015L253.432 283.376L253.964 285.79L251.498 286.917L249.632 288.757L249.654 290.417L247.653 292.056L247.086 293.134L246.041 294.576L244.61 295.55L242.745 295.847L241.527 295.684L240.073 295.196L239.666 296.083L238.094 296.334L237.001 295.871L236.066 295.606L234.658 295.409L233.552 295.229L233.404 294.296L234.047 293.416L232.606 292.371L231.584 293.356L231.193 294.343L230.291 295.717L230.371 296.979L231.149 298.462L229.999 299.244L230.139 300.121L231.273 300.475L232.12 301.111L232.642 301.946L233.903 302.382L234.071 303.433L233.606 304.074L232.162 304.572L230.544 306.813L230.762 308.18L230.575 309.045L229.884 309.99L229.282 310.208L229.448 311.252L228.791 312.166L228.493 313.138L228.642 314.071L229.898 314.431L230.829 316.272L230.611 317.422L230.846 318.895L230.032 320.026L230.677 321.312L232.46 321.506L233.859 320.327L235.17 321.278L234.952 323.187L236.587 323.404L237.301 322.41L238.836 323.045L240.384 322.798L240.561 323.911L238.833 325.06L238.702 327.236L240.025 327.024L241.536 325.987L242.586 327.094L244.29 325.79L246.366 324.821L247.442 323.337L248.641 323.107L250.257 322.767L251.234 321.419L252.595 321.202L253.16 322.227L252.426 323.619L251.35 323.79L251.574 325.189L252.978 325.526L254.108 326.334L255.301 328.101L256.294 328.815L257.823 329.929L259.251 332.889L259.659 335.45L261.088 336.414L261.385 338.279L263.075 340.4L263.788 342.358L264.614 344.062L265.949 345.914L267.602 345.332L268.175 343.411L269.357 342.827L270.375 343.698L270.56 344.86L271.548 345.576L272.628 346.36L274.289 345.782L275.215 346.432L277.11 345.811L277.925 344.686L279.908 344.37L281.01 345.169L282.564 345.559L283.813 346.399L284.421 348.214L285.874 348.856L286.719 350.155L288.509 350.909L288.806 352.774L290.993 352.98L292.957 353.304L294.846 352.206L295.86 350.807L296.542 352.33L297.642 353.749L298.524 354.806L300.842 354.832L301.687 353.658L303.46 352.266L305.802 351.969L306.878 350.484L308.637 349.764L308.682 348.087L310.235 347.839L311.541 346.037L313.842 344L315.862 343.678L316.148 341.956L317.857 341.683L318.996 340.112L320.784 340.579L322.319 341.692L324.278 340.506L326.148 340.763L327.862 342L329.303 343.045L331.677 343.463L333.305 343.682L335.419 342.949L337.599 343.156L341.328 342.561L342.796 340.536L344.431 339.039L344.133 337.174L342.555 336.03L342.278 334.289L341.122 333.275L341.11 331.205L341.987 329.988L342.647 327.856L343.655 326.458L343.329 325.019L342.45 324.381L341.959 323.102L342.659 322.136L342.441 320.768L343.198 319.723L345.968 315.91L347.343 316.538L347.087 317.491L348.652 317.955L349.658 318.629L351.672 318.907L352.688 319.644L353.759 320.009L355.042 320.939L357.445 320.02L359.854 321.663L361.097 321.465L361.276 322.584L362.369 323.843L364.581 323.491L365.221 324.823L366.809 323.55L368.089 323.346L367.727 321.077L369.241 318.98L370.939 316.16L371.562 313.313L373.886 310.106L376.399 305.88L375.981 300.267L376.503 296.423L374.728 296.165L371.883 288.797L372.29 287.591L372.974 286.647L371.483 285.929L370.139 285.729L369.338 283.708L371.492 281.51L372.735 281.311L372.484 279.739L373.569 279.024L375.346 279.34L376.993 278.44L376.752 276.929L377.855 275.854L378.588 276.451L380.571 276.135L381.603 275.136L382.453 275.752L384.943 275.859L385.78 274.712L386.922 275.122L388.217 273.335L389.411 273.144L388.923 270.086L390.21 269.167L390.798 267.218L392.308 267.334L393.116 267.926L391.683 269.767L393.1 269.662L394.163 268.855L395.983 269.043L396.473 267.594L397.595 266.638L397.645 265.074L397.004 264.616L396.851 263.652L395.691 264.372L393.097 262.491L393.463 260.789L392.632 260.214L392.995 258.779L392.361 258.319L393.483 256.763L394.74 256.652L395.583 257.263L396.596 257.102L397.438 256.228L397.565 255.341L394.928 253.396ZM272.895 308.632L274.685 307.868L275.621 306.584L274.683 307.856L272.895 308.632ZM280.262 309.911L279.431 311.21L278.594 312.357L280.262 309.911ZM285.354 346.07L285.137 344.709L284.358 344.145L283.146 343.254L284.364 344.137L285.142 344.702L285.354 346.07ZM288.595 340.263L289.396 339.09L290.133 338.073L288.595 340.263ZM311.404 329.231L311.372 329.274L310.092 330.116L311.404 329.231ZM300.76 325.23L301.738 323.091L300.76 325.23ZM305.272 337.539L303.881 337.404L306.808 337.415L305.272 337.539ZM303.22 314.6L303.814 313.772L303.22 314.6ZM305.476 313.679L306.108 313.649L307.406 312.957L306.134 313.651L305.476 313.679ZM312.674 334.281L310.773 333.946L309.983 333.39L310.766 333.947L312.668 334.282L312.674 334.281ZM329.996 309.947L329.524 308.983L329.996 309.947ZM330.871 317.234L328.3 315.375L326.697 314.674L328.299 315.368L330.864 317.228L332.001 317.685L330.871 317.234ZM329.021 295.403L330.252 296.291L331.287 297.942L330.253 296.297L329.017 295.379L329.021 295.403ZM339.616 289.067L337.949 288.287L336.94 286.638L335.456 285.561L334.362 286.373L334.102 288.142L332.866 288.824L334.099 288.124L334.359 286.355L335.453 285.543L336.937 286.619L337.978 288.27L339.639 289.05L340.57 288.137L339.616 289.067ZM339.798 283.938L339.662 285.681L339.269 287.21L339.66 285.669L339.79 283.927L339.989 283.538L339.798 283.938ZM344.719 275.154L344.333 274.412L344.727 275.165L344.719 275.154ZM344.462 244.731L344.219 246.083L344.396 247.196L345.974 248.334L346.936 249.016L346.729 250.196L346.331 251.216L347.484 252.052L346.679 253.155L346.079 253.748L346.694 253.134L347.478 252.053L346.325 251.217L346.723 250.197L346.93 249.017L345.963 248.31L344.392 247.171L344.215 246.059L344.452 244.708L343.669 243.277L344.462 244.731ZM346.389 255.853L346.243 255.979L346.389 255.853ZM344.94 258.316L344.3 258.698L344.945 260.507L344.742 260.789L344.933 260.509L344.287 258.7L344.94 258.316ZM345.952 264.662L345.12 264.438L344.524 262.94L345.119 264.432L345.952 264.662L347.458 265.754L347.896 265.143L349.213 265.411L347.896 265.143L347.451 265.749L345.952 264.662ZM348.826 270.693L348.441 269.996L348.824 270.681L350.067 270.482L350.793 271.559L350.069 270.495L348.826 270.693ZM351.445 272.691L350.967 271.85L351.451 272.69L351.445 272.691ZM347.219 237.924L346.666 238.688L347.233 237.89L347.219 237.924Z" fill="#282828"/>
<path d="M127.655 317.504L126.554 316.711L126.151 315.583L125.045 315.76L124.169 315.141L123.595 313.62L122.424 313.392L121.949 314.048L120.762 313.243L121.95 311.657L121.383 309.58L119.233 308.088L117.669 308.394L117.522 307.474L116.404 307.092L114.636 307.157L113.854 305.369L113.749 303.996L112.152 304.251L110.866 303.819L110.455 302.998L109.283 302.962L108.382 304.068L106.163 304.422L105.889 306.378L104.369 308.476L102.374 308.794L101.785 309.614L100.697 309.788L100.035 309.11L98.6923 309.324L98.5436 308.391L97.8229 307.869L97.3244 308.739L96.9887 310.15L94.1923 310.998L94.4714 312.228L93.3642 312.239L92.4439 313.501L93.0273 315.161L91.9761 316.042L90.5407 318.031L88.354 316.308L86.8999 315.182L85.6696 315.939L84.0975 315.552L82.5052 316.597L81.5413 318.025L82.5231 318.188L83.5103 318.903L84.8836 319.003L85.9279 319.557L85.8402 321.005L84.4354 320.668L82.6079 320.717L81.4986 320.435L80.9074 321.244L79.8383 320.534L78.8878 320.049L77.9308 320.042L77.7806 321.098L78.5875 322.162L78.6679 324.144L77.438 323.945L76.5244 324.091L74.7464 324.451L73.5152 325.202L73.1432 326.466L71.9123 326.261L70.4195 324.892L69.5121 325.196L68.7913 326.191L69.4513 327.692L69.2082 329.165L70.028 330.309L71.096 331.012L71.3125 333.368L72.2695 334.414L73.1041 335.651L73.829 338.238L74.1691 341.849L75.088 343.615L76.071 343.305L77.0204 344.263L77.7658 344.941L78.6482 344.96L79.4317 343.878L80.5102 343.528L81.1579 342.634L81.9286 342.511L82.5123 343.374L83.3412 344.256L84.8576 344.014L85.7878 342.374L86.0569 341.464L85.6027 340.415L86.3792 340.049L87.4802 338.84L86.6011 338.203L87.06 337.084L86.4451 336.226L85.7826 335.828L86.2554 334.797L86.1067 333.864L86.5776 333.101L87.2318 333.207L87.7411 333.763L88.7925 333.442L89.3671 332.649L88.9982 331.096L89.0932 330.972L89.0461 331.037L89.4161 332.597L90.2799 332.459L90.926 332.994L91.7944 332.046L92.6307 332.454L94.0601 332.226L92.6307 332.454L91.7944 332.046L90.926 332.994L91.8726 333.295L92.3823 334.253L93.1716 334.127L93.7564 333.798L94.267 334.762L94.9876 335.284L96.3751 334.834L97.3109 335.067L97.6457 336.167L98.5159 336.908L98.9067 337.84L99.7632 338.456L100.49 339.774L100.11 340.912L100.869 341.913L101.784 342.615L102.532 343.311L102.681 344.244L103.647 344.944L104.047 346.097L104.862 346.968L105.149 348.771L106.322 349.368L106.977 350.08L107.87 350.243L108.406 351.171L108.518 352.549L109.498 352.622L111.052 351.896L112.525 351.662L113.601 349.896L114.614 349.257L114.446 348.2L115.862 348.21L116.49 348.671L117.701 348.79C117.701 348.79 117.638 349.399 118.378 349.281C118.935 349.181 119.487 349.052 120.031 348.896L122.666 348.476L123.966 348.116L124.599 347.212L123.475 346.397L122.578 345.125L122.206 343.756L123.393 343.726L124.306 344.454L124.996 343.509L124.656 341.376L123.805 338.797L123.869 336.721L122.788 335.937L121.127 334.749L120.015 334.289L120.867 333.12L121.01 331.02L119.7 330.081L118.955 328.645L120.06 327.582L119.256 326.053L118.225 325.306L119.262 326.052L120.06 327.582L120.905 326.408L122.317 326.266L123.553 325.508L123.33 324.109L124.176 322.942L125.19 321.544L126.706 321.302L127.618 320.385L127.966 319.055L127.655 317.504ZM75.8334 331.506L76.4541 331.962L76.8577 332.254L77.4398 332.907L78.4435 333.047L78.4 333.054L77.414 332.905L76.8318 332.252L75.8011 331.543L75.8334 331.506ZM79.1264 336.17L79.9805 336.091L80.3931 335.521L79.9638 336.106L79.1097 336.185L78.7883 337.167L78.0736 337.281L78.0677 337.244L78.7948 337.128L79.1264 336.17ZM75.3794 331.776L75.4552 331.732L75.3804 331.782L75.3794 331.776ZM78.7661 342.142L78.6769 341.583L78.7661 342.142ZM78.6148 339.955L76.9243 340.224L76.2582 340.044L75.7003 340.821L76.2749 340.028L76.94 340.203L78.6304 339.933L78.6148 339.955ZM78.6559 339.693L78.7135 339.295L78.6559 339.693ZM80.5261 338.713L79.8984 340.011L79.1713 341.007L78.9982 341.2L79.1599 341.015L79.8869 340.019L80.5157 338.727L81.0923 337.947L80.5261 338.713ZM82.3063 335.809L82.269 335.815L82.5426 337.531L82.2735 338.44L82.5322 337.545L82.0821 334.723L81.5045 334.458L80.9641 334.066L80.2075 333.798L79.8375 332.996L78.8112 332.835L78.8485 332.829L79.881 332.989L80.252 333.797L81.0085 334.065L81.549 334.457L82.1328 334.721L82.3063 335.809ZM83.5555 323.263L82.6115 322.578L83.5565 323.269L83.5555 323.263ZM84.3764 322.615L84.0424 322.879L84.3682 322.604L87.5361 325.005L86.8155 324.483L84.3764 322.615ZM89.6155 330.251L88.8691 329.567L87.9562 329.318L86.8936 328.129L86.173 327.607L86.8936 328.129L87.9614 329.31L88.8743 329.56L89.6237 330.263L89.6155 330.251ZM96.0378 332.758L95.8791 331.764L95.2925 330.723L94.41 330.864L95.3111 330.72L95.8978 331.761L96.0378 332.758ZM97.8734 333.479L98.1155 334.078L97.8734 333.479ZM98.7891 335.704L98.6111 335.268L98.8097 335.714L98.7891 335.704ZM99.8503 322.379L101.758 323.349L99.8503 322.379ZM104.239 328.76L102.333 327.477L104.24 328.767L104.239 328.76ZM106.536 329.573L105.516 330.373L104.53 330.461L105.498 330.376L106.536 329.573ZM112.897 342.245L112.835 342.337L112.897 342.245ZM109.232 326.097L109.263 326.092L108.971 327.662L108.928 327.668L109.232 326.097ZM114.329 345.114L112.124 347.27L114.329 345.114ZM115.024 342.358L114.502 342.441L114.261 341.887L113.351 341.656L113.382 341.613L114.313 341.853L114.554 342.407L115.058 342.327L115.024 342.358ZM116.668 341.235L115.06 341.345L116.674 341.234L116.668 341.235ZM117.16 336.567L116.641 336.95L117.157 336.549L117.16 336.567ZM117.217 326.219L115.643 326.419L114.699 325.735L112.912 326.517L112.603 327.975L112.911 326.511L114.698 325.728L115.641 326.407L117.216 326.213L117.712 325.764L117.217 326.219Z" fill="#282828"/>
<path d="M62.7582 321.239L63.162 318.816L61.9592 317.267L62.9523 316.542L62.6791 316.107L60.0612 314.797L53.3651 314.769L55.7363 318.368L53.8469 321.506L55.5447 323.6L63.7678 323.213L67.2652 325.842L69.1269 324.009L62.7582 321.239Z" fill="#282828"/>
<path d="M63.202 232.953L62.4199 232.045L62.3836 230.859L62.1725 229.535L60.967 228.809L60.5788 228.533L60.1463 229.138L60.8669 229.66L60.7601 230.589L59.6211 230.56L59.3232 229.651L58.5676 229.549L58.339 228.355L57.3229 227.618L56.3597 227.612L56.0911 228.446L55.1008 228.91L53.8515 228.828L56.9467 233.651L61.6119 237.688L63.9952 235.969L64.3545 234.745L63.8919 233.283L63.202 232.953Z" fill="#282828"/>
<path d="M242.607 126.497L243.421 126.367L243.245 125.261L242.496 125.081L241.946 125.347L242.514 125.913L242.607 126.497Z" fill="#282828"/>
<path d="M234.538 137.517L235.327 137.391L235.464 136.414L234.74 136.351L234.422 136.79L234.538 137.517Z" fill="#282828"/>
<path d="M231.189 128.675L230.375 128.805L230.223 129.007L231.001 129.571L231.189 128.675Z" fill="#282828"/>
<path d="M234.906 130.65L235.351 130.045L235.344 130.046L234.568 130.405L234.906 130.65Z" fill="#282828"/>
<path d="M234.431 125.977L233.992 125.659L233.588 125.723L234.112 126.417L234.431 125.977Z" fill="#282828"/>
<path d="M229.04 131.344L229.047 131.343L229.624 131.251L229.513 130.555L228.625 130.576L229.04 131.344Z" fill="#282828"/>
<path d="M224.692 134.013L223.949 133.469L223.636 132.984L223.191 133.59L223.666 133.935L224.692 134.013Z" fill="#282828"/>
<path d="M240.992 162.323L239.278 163.324L238.021 164.276L237.039 165.631L235.28 165.912L234.069 166.468L233.254 165.871L231.768 166.108L230.989 165.296L229.598 165.409L228.622 166.757L226.857 167.038L225.596 166.806L224.022 167.847L223.04 168.004L222.41 169.048L221.774 170.016L220.13 169.698L220.299 170.755L219.242 170.924L218.263 170.219L217.889 171.069L218.813 171.865L218.223 172.68L218.516 174.08L217.86 173.604L216.399 173.914L217.457 174.676L215.773 175.021L215.908 175.866L214.714 176.057L213.941 177.123L212.186 177.907L210.506 178.679L210.596 179.244L212.197 179.531L212.888 180.032L211.18 180.668L211.13 181.435L210.446 182.379L209.545 181.726L207.929 181.983L208.098 183.04L207.912 184.153L206.566 183.865L205.547 184.747L206.538 185.526L205.484 187.071L203.94 187.821L203.882 188.774L203.351 188.642L202.85 188.218L201.49 188.282L200.607 190.016L200.569 191.616L201.611 192.674L202.679 192.58L203.371 193.763L203.886 193.834L204.087 195.536L204.965 196.046L204.655 196.816L203.586 197.35L203.36 198.686L204.682 199.706L206.386 200.881L206.832 200.517L207.879 201.65L208.656 201.526L209.882 201.981L210.029 202.901L211.138 202.144L211.493 201.654L210.943 200.441L209.975 199.365L210.248 197.441L209.315 195.709L209.61 194.362L209.33 192.603L210.16 191.457L210.358 189.978L211.479 189.296L211.266 187.959L212.301 186.781L213.78 186.545L214.452 184.844L215.009 183.818L215.929 183.672L216.493 182.893L217.155 181.972L217.87 182.495L217.701 181.438L217.594 180.767L218.292 181.268L219.137 181.133L218.701 179.756L219.417 178.851L219.607 180.044L220.547 179.104L221.668 177.982L221.466 176.714L222.79 176.866L222.809 176.066L224.009 175.875L225.368 175.805L226.425 175.203L225.755 174.156L227.23 172.977L229.412 172.629L230.289 171.335L233.11 170.885L235.303 170.606L236.077 169.545L238.09 169.945L240.046 168.619L241.789 168.201L242.922 166.714L244.188 165.141L243.918 163.45L242.689 162.053L240.992 162.323Z" fill="#282828"/>
<path d="M244.031 129.795L243.116 130.056L242.809 130.768L241.338 131.296L240.434 131.982L241.248 132.209L241.024 133.08L241.698 133.151L242.978 132.946L243.836 131.771L244.472 130.885L244.031 129.795Z" fill="#282828"/>
<path d="M238.109 129.783L237.843 130.151L238.556 130.668L239.591 130.082L239.442 129.15L238.808 129.251L238.109 129.783Z" fill="#282828"/>
<path d="M237.562 131.751L236.563 130.922L236.025 131.665L235.708 132.671L235.894 133.839L236.91 133.856L237.257 134.514L238.428 134.028L239.093 133.119L239.585 132.448L239.747 131.428L238.871 131.568L237.562 131.751Z" fill="#282828"/>
<path d="M232.259 135.013L232.871 135.457L234.043 134.971L234.261 134.101L235.184 134.253L234.55 133.277L233.641 132.612L232.639 133.639L232.164 133.301L230.884 133.505L231.022 134.375L230.438 135.188L230.907 135.528L232.259 135.013Z" fill="#282828"/>
<path d="M238.511 123.472L237.549 122.88L237.313 123.638L238.02 124.15L238.511 123.472Z" fill="#282828"/>
<path d="M237.039 127.563L237.85 127.013L237.145 125.991L236.528 124.719L235.596 124.868L235.763 125.918L236.909 126.749L237.039 127.563Z" fill="#282828"/>
<path d="M232.918 130.911L232.1 129.9L231.635 130.542L232.287 131.069L232.918 130.911Z" fill="#282828"/>
<path d="M232.839 127.035L232.212 127.256L232.333 128.013L233.146 127.883L232.839 127.035Z" fill="#282828"/>
<path d="M233.818 129.09L233.652 128.97L233.758 129.634L234.429 129.527L233.818 129.09Z" fill="#282828"/>
<path d="M235.59 127.074L234.889 127.186L235.018 127.999L235.73 127.949L235.59 127.074Z" fill="#282828"/>
<path d="M226.847 131.815L226.488 132.318L227.361 132.963L228.21 132.853L227.987 131.455L227.282 130.79L226.847 131.815Z" fill="#282828"/>
<path d="M221.433 128.561L221.544 129.257L220.187 128.575L219.311 129.078L219.819 130.425L220.649 129.999L220.798 130.931L221.767 131.013L222.478 130.039L223.591 129.345L224.627 129.486L226.081 129.254L226.964 128.036L225.817 127.199L226.383 126.426L225.138 125.936L224.618 126.434L224.134 127.11L224.237 127.757L223.673 128.535L222.344 127.874L221.433 128.561Z" fill="#282828"/>
<path d="M219.714 127.522L221.146 126.752L221.759 127.196L222.681 126.628L223.157 126.973L223.017 126.097L222.239 125.532L221.624 125.63L221.069 125.508L219.782 125.714L218.909 125.075L218.548 126.21L219.327 126.774L219.714 127.522Z" fill="#282828"/>
<path d="M223.186 131.475L222.689 131.554L222.979 132.253L224.037 132.141L223.186 131.475Z" fill="#282828"/>
<path d="M227.878 124.785L226.682 124.792L226.802 125.549L227.386 125.456L227.878 124.785Z" fill="#282828"/>
<path d="M214.256 204.904L213.213 205.644L212.419 206.058L212.917 207.859L213.217 208.825L214.028 208.912L214.544 210.347L216.046 210.254L216.352 208.975L215.452 207.888L215.313 206.54L214.256 204.904Z" fill="#282828"/>
<path d="M187.461 207.297L188.584 207.546L189.46 206.685L190.694 206.705L191.092 205.125L189.901 204.014L189.663 202.962L188.329 202.747L186.841 203.412L186.12 204.764L185.557 205.791L186.268 207.054L187.461 207.297Z" fill="#282828"/>
<path d="M225.855 217.052L226.329 216.027L225.844 215.346L224.129 214.102L222.011 212.572L220.111 210.848L219.589 211.569L217.93 210.355L216.787 210.901L215.499 211.82L216.094 214.032L216.075 215.948L214.64 216.419L214.838 217.662L213.222 217.518L212.662 218.283L212.779 219.737L211.108 218.729L210.897 217.405L212.004 216.355L212.066 215.229L211.122 214.583L209.195 215.528L207.567 215.788L206.844 216.77L204.049 214.749L201.768 214.673L199.599 216.058L198.356 216.256L196.349 214.899L197.455 214.321L197.698 212.848L199.171 212.614L198.309 210.686L196.985 210.897L194.63 212.114L194.853 213.513L194.076 213.636L192.99 212.216L191.287 212.488L188.278 212.566L186.695 213.144L183.581 213.079L184.09 214.273L182.002 213.65L180.056 214.438L180.28 215.837L178.483 217.08L176.64 216.551L174.782 216.369L174.534 214.815L173.615 213.05L173.291 211.017L175.64 209.763L177.331 209.895L178.684 210.871L179.27 210.063L179.513 208.59L179.079 205.874L177.41 204.037L175.385 202.568L174.8 201.661L173.483 201.871L174.085 203.687L174.395 205.633L172.641 207.105L172.84 208.348L170.98 209.677L170.569 211.094L170.877 213.027L169.692 215.543L167.889 216.226L167.895 216.263L167.851 216.226L166.737 217.837L165.964 219.184L165.695 217.494L166.609 216.232L164.963 214.423L163.932 213.676L162.491 213.906L160.501 214.899L158.476 214.189L156.363 215.406L153.889 215.399L154.243 218.134L153.09 219.376L153.833 220.597L153.285 221.36L150.96 221.048L149.824 219.4L148.239 218.289L147.446 216.076L146.422 212.65L145.098 212.862L144.019 214.449L144.229 215.767L144.339 217.375L144.358 217.493L145.526 218.339L145.451 220.346L143.744 222.072L141.762 220.635L139.916 219.291L140.206 218.512L140.729 217.154L140.621 216.954L138.978 213.691L140.191 212.025L140.335 209.172L141.604 207.414L143.412 206.527L144.112 203.961L144.155 202.195L142.826 201.253L142.967 201.058L143.545 200.284L143.191 198.307L142.618 196.671L143.249 195.831L143.535 194.389L144.802 195.303L144.049 196.334L143.981 198.143L145.136 198.437L146.141 201.221L147.412 202.753L148.209 204.238L149.178 205.76L150.896 206.978L151.231 209.079L152.896 210.286L155.388 211.208L157.611 211.644L159.935 210.788L162.11 210.442L163.845 208.055L164.822 205.47L164.687 202.624L164.496 200.907L162.918 199.763L162.503 197.401L161.862 196.381L161.938 194.38L161.575 192.099L160.606 190.022L159.122 188.946L158.83 187.118L157.618 186.751L157.358 185.122L156.185 184.276L154.756 183.79L154.52 182.311L153.899 180.893L154.583 179.949L155.615 180.702L156.559 181.112L155.945 179.776L155.747 178.533L153.869 178.749L152.576 179.115L152.646 177.434L151.452 178.58L150.198 177.665L148.874 177.876L146.488 177.383L143.485 179.532L141.198 181.172L141.866 185.362L140.97 187.736L137.011 188.367L134.98 191.094L135.01 192.562L133.009 198.357L131.611 197.942L129.234 200.546L128.004 200.825L128.426 203.467L127.115 204.237L127.437 206.257L125.808 208.034L123.633 208.381L123.904 213.596L124.225 215.61L121.149 217.299L110.882 219.013L103.759 220.149L103.804 220.187L103.76 220.194L104.941 221.166L105.555 221.297L106.753 221.578L106.446 222.009L105.251 222.512L105.673 225.154L107.257 226.176L107.769 228.389L106.986 229.47L106.116 228.015L105.272 226.716L103.476 226.441L102.225 225.474L100.802 225.064L100.203 225.899L100.077 227.111L97.9084 226.979L96.4972 228.16L94.7069 228.363L93.6748 230.363L92.1395 231.245L92.2473 232.401L91.5607 233.53L89.6346 233.92L89.0064 234.977L89.2622 236.581L87.5832 238.04L86.3898 238.549L86.9962 239.874L86.6522 240.834L86.3811 241.572L85.1442 243.287L85.0815 244.412L86.0316 245.854L87.2927 246.769L87.0995 248.074L86.8188 249.311L88.3604 249.467L89.8762 250.5L90.2965 253.136L91.6015 252.806L92.857 253.926L93.1119 252.527L94.1933 252.355L94.5296 251.466L94.8097 250.465L94.7053 248.812L95.2893 247.998L95.2527 247.01L96.2978 245.81L96.9206 246.718L97.7349 247.309L99.0897 247.093L99.8752 247.662L101.044 247.399L102.04 247.808L103.693 247.544L104.71 248.287L105.811 248.239L106.333 247.518L107.639 247.31L108.339 246.344L109.352 246.183L110.278 246.475L110.998 246.997L111.458 248.084L112.558 247.909L113.454 248.69L114.461 248.53L114.561 247.876L115.281 248.399L116.418 248.734L117.804 249.029L118.268 248.388L118.283 247.2L117.087 245.778L118.344 247.222L118.329 248.41L117.864 249.051L119.594 249.547L120.797 249.1L121.954 249.279L121.764 250.648L122.012 252.202L122.942 251.875L124.349 251.51L125.3 252.2L127.451 253.215L128.077 252.35L129.777 253.577L130.266 256.641L132.428 258.209L134.011 257.185L135.842 256.402L137.665 256.883L139.111 255.881L140.478 257.9L142.552 257.952L144.325 259.244L145.11 260.648L146.502 261.064L148.21 261.703L149.51 263.064L150.111 262.235L151.885 262.372L152.597 260.723L154.655 262.039L155.083 261.442L154.855 260.012L155.862 259.297L153.876 257.79L154.571 256.915L156.143 257.301L157.025 256.077L158.469 254.1L159.186 253.246L159.796 253.353L160.336 253.981L160.675 254.227L161.554 254.864L161.416 255.759L162.168 255.996L162.505 257.154L161.701 258.264L161.951 259.83L160.506 260.405L160.683 261.511L159.822 262.707L160.005 263.857L160.957 264.546L161.141 265.702L161.681 266.891L161.383 268.061L162.011 268.521L162.726 267.286L162.949 265.612L164.256 265.053L165.8 265.508L166.876 266.26L167.935 264.906L168.656 265.428L169.164 266.22L170.305 265.898L170.988 265.031L172.231 264.832L173.338 264.178L173.189 263.246L172.28 262.581L172.78 261.041L174.491 261.661L174.957 261.026L175.598 261.485L176.236 260.611L177.286 260.801L177.789 261.358L177.773 262.374L178.744 263.233L179.677 262.727L181.488 263.216L182.771 264.146L183.915 263.326L185.397 263.625L186.061 262.716L186.886 262.852L187.527 263.317L188.275 262.93L188.583 261.868L189.397 261.738L191.398 262.694L193.293 263.348L195.396 263.79L198.139 263.767L198.374 262.601L198.985 261.758L199.027 260.342L200.647 258.114L200.482 257.076L200.905 255.734L200.405 254.437L201.133 252.287L202.529 251.013L202.486 249.585L204.165 248.125L203.604 246.481L204.093 245.033L205.44 243.173L206.437 241.79L207.487 241.98L207.685 243.223L208.995 242.842L210.222 241.148L211.557 240.164L212.222 239.102L213.682 238.627L215.709 238.387L215.436 236.677L217.699 234.882L220.098 233.938L222.745 233.516L223.014 231.727L224.499 231.49L225.675 229.868L227.39 228.638L225.999 227.624L227.335 226.811L227.174 225.804L225.503 225.274L225.504 223.802L226.076 223.392L226.287 222.478L225.312 222.117L226.281 222.479L227.02 222.361L226.606 219.763L225.997 219.662L225.742 219.104L224.876 218.509L225.268 217.968L225.855 217.052ZM115.98 245.585L116.166 244.835L116.529 243.795L115.918 242.72L115.539 241.582L116.529 243.795L115.98 245.585ZM119.074 242.051L118.725 242.82L119.049 241.895L120.044 241.622L119.074 242.051ZM174.769 224.244L173.664 223.305L172.943 222.782L173.664 223.305C173.844 223.435 174.754 224.227 174.769 224.244ZM179.228 224.227L178.507 223.705L179.228 224.227ZM218.8 226.681L218.047 227.713L217.239 228.364L216.606 228.707L217.226 228.36L218.034 227.715L218.786 226.677L219.192 225.701L218.8 226.681ZM223.076 223.844L221.733 224.135L223.075 223.838L224.419 222.273L223.076 223.844Z" fill="#282828"/>
<ellipse cx="172.983" cy="302.648" rx="3.03808" ry="2.43047" transform="rotate(-9.06158 172.983 302.648)" fill="#FF6600"/>
<circle cx="194.92" cy="293.611" r="3.03808" transform="rotate(-9.06158 194.92 293.611)" fill="#FF6600"/>
<ellipse cx="193.451" cy="303.69" rx="2.43047" ry="3.03808" transform="rotate(-9.06158 193.451 303.69)" fill="#FF6600"/>
<ellipse cx="193.592" cy="312.282" rx="2.43047" ry="3.03808" transform="rotate(-9.06158 193.592 312.282)" fill="#FF6600"/>
<circle r="3.03808" transform="matrix(0.98752 -0.157492 0.157499 0.987519 165.776 319.18)" fill="#FF6600"/>
<ellipse rx="2.43047" ry="3.03808" transform="matrix(0.98752 -0.157491 0.1575 0.987519 142.109 274.961)" fill="#FF6600"/>
<circle r="2.43047" transform="matrix(0.987519 -0.157499 0.157493 0.98752 119.316 263.214)" fill="#FF6600"/>
<circle r="3.03808" transform="matrix(0.98752 -0.157497 0.157495 0.98752 223.047 300.201)" fill="#FF6600"/>
<circle r="3.03808" transform="matrix(0.98752 -0.157497 0.157495 0.98752 259.85 322.635)" fill="#FF6600"/>
<ellipse rx="2.43047" ry="3.03808" transform="matrix(0.98752 -0.157495 0.157497 0.98752 336.09 333.857)" fill="#FF6600"/>
<circle r="2.43047" transform="matrix(0.98752 -0.157493 0.157499 0.987519 506.892 293.696)" fill="#FF6600"/>
<circle r="1.82285" transform="matrix(0.98752 -0.157495 0.157497 0.98752 260.749 251.117)" fill="#FF6600"/>
<ellipse cx="253.573" cy="248.57" rx="1.21523" ry="1.82285" transform="rotate(-9.06158 253.573 248.57)" fill="#FF6600"/>
<circle r="1.82285" transform="matrix(0.98752 -0.157495 0.157497 0.98752 233.251 240.736)" fill="#FF6600"/>
<circle cx="226.853" cy="270.06" r="1.82285" transform="rotate(-9.06158 226.853 270.06)" fill="#FF6600"/>
<circle cx="239.618" cy="272.946" r="1.82285" transform="rotate(-9.06158 239.618 272.946)" fill="#FF6600"/>
<ellipse rx="1.21523" ry="1.82285" transform="matrix(0.98752 -0.157492 0.1575 0.987519 233.159 282.591)" fill="#FF6600"/>
<circle r="1.82285" transform="matrix(0.98752 -0.157495 0.157497 0.98752 243.499 289.556)" fill="#FF6600"/>
<circle r="1.82285" transform="matrix(0.98752 -0.157492 0.1575 0.987519 247.726 285.19)" fill="#FF6600"/>
<circle r="1.82285" transform="matrix(0.98752 -0.157492 0.1575 0.987519 253.099 288.025)" fill="#FF6600"/>
<circle cx="285.415" cy="309.328" r="1.21523" transform="rotate(-9.06158 285.415 309.328)" fill="#FF6600"/>
<circle r="1.82285" transform="matrix(0.98752 -0.157495 0.157497 0.98752 322.74 300.299)" fill="#FF6600"/>
<ellipse rx="1.21523" ry="1.82285" transform="matrix(0.98752 -0.15749 0.157501 0.987519 507.473 281.912)" fill="#FF6600"/>
<circle r="1.82285" transform="matrix(0.98752 -0.157495 0.157497 0.98752 288.218 323.033)" fill="#FF6600"/>
<circle r="1.21523" transform="matrix(0.98752 -0.157494 0.157498 0.987519 288.669 329.73)" fill="#FF6600"/>
<circle cx="206.575" cy="312.673" r="1.82285" transform="rotate(-9.06158 206.575 312.673)" fill="#FF6600"/>
<ellipse cx="209.177" cy="298.106" rx="1.82285" ry="1.21523" transform="rotate(-9.06158 209.177 298.106)" fill="#FF6600"/>
<circle cx="210.001" cy="280.131" r="1.82285" transform="rotate(-9.06158 210.001 280.131)" fill="#FF6600"/>
<ellipse cx="258.341" cy="266.884" rx="1.82285" ry="1.21523" transform="rotate(-9.06158 258.341 266.884)" fill="#FF6600"/>
<circle cx="203.425" cy="277.488" r="1.82285" transform="rotate(-9.06158 203.425 277.488)" fill="#FF6600"/>
<circle r="1.82285" transform="matrix(0.98752 -0.157492 0.1575 0.987519 200.976 285.262)" fill="#FF6600"/>
<circle cx="188.245" cy="305.752" r="1.82285" transform="rotate(-9.06158 188.245 305.752)" fill="#FF6600"/>
<circle cx="186.365" cy="317.126" r="1.82285" transform="rotate(-9.06158 186.365 317.126)" fill="#FF6600"/>
<circle cx="179.931" cy="323.075" r="1.82285" transform="rotate(-9.06158 179.931 323.075)" fill="#FF6600"/>
<circle cx="121.894" cy="337.254" r="1.82285" transform="rotate(-9.06158 121.894 337.254)" fill="#FF6600"/>
<circle r="1.82285" transform="matrix(0.98752 -0.157497 0.157495 0.98752 100.343 333.307)" fill="#FF6600"/>
<circle cx="90.7942" cy="327.446" r="1.82285" transform="rotate(-9.06158 90.7942 327.446)" fill="#FF6600"/>
<ellipse cx="99.97" cy="315.523" rx="1.82285" ry="1.21523" transform="rotate(-9.06158 99.97 315.523)" fill="#FF6600"/>
<circle cx="120.464" cy="312.87" r="1.82285" transform="rotate(-9.06158 120.464 312.87)" fill="#FF6600"/>
<circle r="1.82285" transform="matrix(0.98752 -0.157492 0.1575 0.987519 84.22 324.803)" fill="#FF6600"/>
<circle r="1.82285" transform="matrix(0.98752 -0.157492 0.1575 0.987519 88.5345 336.421)" fill="#FF6600"/>
<ellipse cx="101.444" cy="290.061" rx="1.21523" ry="1.82285" transform="rotate(-9.06158 101.444 290.061)" fill="#FF6600"/>
<circle r="1.82285" transform="matrix(0.98752 -0.157495 0.157497 0.98752 112.079 283.442)" fill="#FF6600"/>
<circle cx="113.331" cy="275.859" r="1.82285" transform="rotate(-9.06158 113.331 275.859)" fill="#FF6600"/>
<circle r="1.82285" transform="matrix(0.98752 -0.157495 0.157497 0.98752 114.966 270.676)" fill="#FF6600"/>
<circle r="1.82285" transform="matrix(0.987519 -0.157497 0.157494 0.98752 123.509 277.928)" fill="#FF6600"/>
<circle cx="116.284" cy="224.934" r="1.82285" transform="rotate(-9.06158 116.284 224.934)" fill="#FF6600"/>
<circle cx="130.95" cy="270.588" r="1.82285" transform="rotate(-9.06158 130.95 270.588)" fill="#FF6600"/>
<circle r="1.82285" transform="matrix(0.98752 -0.157492 0.1575 0.987519 131.247 257.004)" fill="#FF6600"/>
<ellipse rx="1.82285" ry="1.21523" transform="matrix(0.98752 -0.157492 0.1575 0.987519 133.497 263.413)" fill="#FF6600"/>
<circle r="1.82285" transform="matrix(0.98752 -0.157492 0.1575 0.987519 138.779 265.648)" fill="#FF6600"/>
<circle r="1.82285" transform="matrix(0.98752 -0.157492 0.1575 0.987519 163.493 274.012)" fill="#FF6600"/>
<circle cx="179.63" cy="251.749" r="1.82285" transform="rotate(-9.06158 179.63 251.749)" fill="#FF6600"/>
<ellipse rx="1.21523" ry="1.82285" transform="matrix(0.98752 -0.15749 0.157501 0.987519 187.659 275.08)" fill="#FF6600"/>
<circle r="1.82285" transform="matrix(0.987519 -0.157497 0.157494 0.98752 185.81 282.759)" fill="#FF6600"/>
<circle r="1.82285" transform="matrix(0.98752 -0.157492 0.1575 0.987519 173.025 310.64)" fill="#FF6600"/>
<circle cx="149.892" cy="304.484" r="1.82285" transform="rotate(-9.06158 149.892 304.484)" fill="#FF6600"/>
<circle r="1.82285" transform="matrix(0.987519 -0.157497 0.157494 0.98752 155.513 301.127)" fill="#FF6600"/>
<circle r="1.82285" transform="matrix(0.98752 -0.157492 0.1575 0.987519 164.345 294.796)" fill="#FF6600"/>
<circle r="1.82285" transform="matrix(0.98752 -0.157492 0.1575 0.987519 154.607 287.735)" fill="#FF6600"/>
<circle cx="161.181" cy="290.378" r="1.82285" transform="rotate(-9.06158 161.181 290.378)" fill="#FF6600"/>
<ellipse cx="167.206" cy="285.725" rx="1.21523" ry="1.82285" transform="rotate(-9.06158 167.206 285.725)" fill="#FF6600"/>
<ellipse cx="158.927" cy="283.97" rx="1.82285" ry="1.21523" transform="rotate(-9.06158 158.927 283.97)" fill="#FF6600"/>
<circle cx="277.312" cy="339.54" r="1.82285" transform="rotate(-9.06158 277.312 339.54)" fill="#FF6600"/>
<circle cx="236.335" cy="314.079" r="1.82285" transform="rotate(-9.06158 236.335 314.079)" fill="#FF6600"/>
</svg>
