<svg width="58" height="60" viewBox="0 0 58 60" fill="none" xmlns="http://www.w3.org/2000/svg">
<path d="M4.13148 40.4579H53.5546C55.3197 40.4579 56.6775 41.8157 56.6775 43.5808V55.3934C56.6775 57.1585 55.3197 58.5163 53.5546 58.5163H4.13148C2.36637 58.5163 1.00859 57.1585 1.00859 55.3934V43.5808C0.872809 41.8157 2.36637 40.4579 4.13148 40.4579Z" stroke="#FF6600" stroke-width="1.5" stroke-miterlimit="10"/>
<path d="M53.9621 40.5935C55.0483 40.5935 55.9987 41.1366 56.4061 42.0871C56.8134 41.4082 56.9492 40.5935 56.6776 39.7789L53.5547 30.2744C53.0116 28.7809 51.3823 27.9662 49.8887 28.3735L12.2783 40.5935H53.9621V40.5935Z" stroke="#FF6600" stroke-width="1.5" stroke-miterlimit="10"/>
<path d="M12.5497 40.4577L50.0243 28.2377C50.4317 28.102 50.839 28.102 51.1106 28.102C51.6537 27.1515 51.6537 25.9295 50.839 24.8433L44.729 16.8324C43.7786 15.6104 42.0135 15.3389 40.6557 16.2893L9.29102 40.322H12.5497V40.4577Z" stroke="#FF6600" stroke-width="1.5" stroke-miterlimit="10"/>
<path d="M9.42657 40.4578L40.7912 16.4251C41.3343 16.0178 41.8774 15.882 42.4206 15.882C42.4206 14.9316 42.0132 14.1169 41.1985 13.438L33.0519 7.59959C31.6941 6.64914 29.929 7.05648 29.1143 8.27848L6.43945 40.322H9.42657V40.4578Z" stroke="#FF6600" stroke-width="1.5" stroke-miterlimit="10"/>
<path d="M3.72388 40.4578H6.30366L28.9785 8.41424C29.3859 7.87112 29.929 7.4638 30.6079 7.32802C30.3363 6.78491 29.7932 6.2418 29.1143 5.97024L19.7456 2.5758C18.2521 2.03269 16.6228 2.84735 16.0796 4.3409L2.77344 40.7293C3.04499 40.5936 3.45232 40.4578 3.72388 40.4578Z" stroke="#FF6600" stroke-width="1.5" stroke-miterlimit="10"/>
<path d="M2.77383 40.5936L16.08 4.20521C16.3516 3.6621 16.6232 3.11899 17.1663 2.84743C16.6232 2.03277 15.8085 1.35388 14.7223 1.35388H4.1316C2.50227 1.35388 1.28027 2.57588 1.28027 4.20521V42.223C1.41605 41.5441 1.95916 41.001 2.77383 40.5936Z" stroke="#FF6600" stroke-width="1.5" stroke-miterlimit="10"/>
<path d="M10.6483 52.8137C12.448 52.8137 13.907 51.3548 13.907 49.5551C13.907 47.7553 12.448 46.2964 10.6483 46.2964C8.84859 46.2964 7.38965 47.7553 7.38965 49.5551C7.38965 51.3548 8.84859 52.8137 10.6483 52.8137Z" stroke="#FF6600" stroke-width="1.5" stroke-miterlimit="10"/>
</svg>
