<svg width="43" height="44" viewBox="0 0 43 44" fill="none" xmlns="http://www.w3.org/2000/svg">
<path d="M3.30633 29.7999H39.7063C41.0063 29.7999 42.0063 30.7999 42.0063 32.0999V40.7999C42.0063 42.0999 41.0063 43.0999 39.7063 43.0999H3.30633C2.00633 43.0999 1.00632 42.0999 1.00632 40.7999V32.0999C0.906324 30.7999 2.00633 29.7999 3.30633 29.7999Z" stroke="#FF6600" stroke-miterlimit="10"/>
<path d="M40.0062 29.9C40.8062 29.9 41.5061 30.3 41.8061 31C42.1061 30.5 42.2062 29.9 42.0062 29.3L39.7062 22.3C39.3062 21.2 38.1062 20.6 37.0062 20.9L9.30615 29.9H40.0062V29.9Z" stroke="#FF6600" stroke-miterlimit="10"/>
<path d="M9.50645 29.7999L37.1064 20.7999C37.4064 20.6999 37.7064 20.6999 37.9064 20.6999C38.3064 19.9999 38.3065 19.0999 37.7065 18.2999L33.2065 12.3999C32.5065 11.4999 31.2065 11.2999 30.2065 11.9999L7.10645 29.6999H9.50645V29.7999Z" stroke="#FF6600" stroke-miterlimit="10"/>
<path d="M7.20635 29.8L30.3063 12.1C30.7063 11.8 31.1064 11.7 31.5064 11.7C31.5064 11 31.2063 10.4 30.6063 9.90001L24.6063 5.60001C23.6063 4.90001 22.3064 5.20001 21.7064 6.10001L5.00635 29.7H7.20635V29.8Z" stroke="#FF6600" stroke-miterlimit="10"/>
<path d="M3.00615 29.8H4.90615L21.6061 6.19996C21.9061 5.79996 22.3061 5.49997 22.8061 5.39997C22.6061 4.99997 22.2062 4.59997 21.7062 4.39997L14.8062 1.89997C13.7062 1.49997 12.5061 2.09996 12.1061 3.19996L2.30615 30C2.50615 29.9 2.80615 29.8 3.00615 29.8Z" stroke="#FF6600" stroke-miterlimit="10"/>
<path d="M2.30605 29.9L12.106 3.1C12.306 2.7 12.5061 2.3 12.9061 2.1C12.5061 1.5 11.906 1 11.106 1H3.30605C2.10605 1 1.20605 1.9 1.20605 3.1V31.1C1.30605 30.6 1.70605 30.2 2.30605 29.9Z" stroke="#FF6600" stroke-miterlimit="10"/>
<path d="M8.10605 38.9C9.43153 38.9 10.5061 37.8255 10.5061 36.5C10.5061 35.1745 9.43153 34.1 8.10605 34.1C6.78057 34.1 5.70605 35.1745 5.70605 36.5C5.70605 37.8255 6.78057 38.9 8.10605 38.9Z" stroke="#FF6600" stroke-miterlimit="10"/>
</svg>
