<svg width="60" height="60" viewBox="0 0 60 60" fill="none" xmlns="http://www.w3.org/2000/svg">
<path d="M30.1384 59.092C46.1109 59.092 59.0591 46.1438 59.0591 30.1714C59.0591 14.199 46.1109 1.25073 30.1384 1.25073C14.166 1.25073 1.21777 14.199 1.21777 30.1714C1.21777 46.1438 14.166 59.092 30.1384 59.092Z" stroke="#FF6600" stroke-width="1.5" stroke-miterlimit="10"/>
<path d="M27.2888 41.441C26.6099 35.8742 25.1164 32.7513 22.5366 33.5659C10.5881 40.6264 13.3037 11.0268 29.8686 21.8891C36.1143 23.7899 38.9657 15.2359 34.3493 14.6928C24.5733 11.8415 31.3622 5.73151 40.4593 3.15173C46.705 5.59573 51.3215 9.53329 54.7159 14.6928C50.7784 21.2102 45.2114 24.3331 37.8794 24.3331C35.707 24.4688 35.1639 25.4193 40.3235 29.221C46.9766 29.221 47.6554 32.3439 39.9161 39.6759C41.9528 42.663 41.0023 44.2924 37.2006 44.8355C37.6079 54.2041 26.0668 55.4261 27.2888 41.441Z" stroke="#FF6600" stroke-width="1.5" stroke-miterlimit="10"/>
</svg>
