<svg width="63" height="61" viewBox="0 0 63 61" fill="none" xmlns="http://www.w3.org/2000/svg">
<path d="M19.0002 52.8752C25.241 52.8752 30.3002 47.816 30.3002 41.5752C30.3002 35.3344 25.241 30.2751 19.0002 30.2751C12.7594 30.2751 7.7002 35.3344 7.7002 41.5752C7.7002 47.816 12.7594 52.8752 19.0002 52.8752Z" stroke="#FF6600" stroke-miterlimit="10"/>
<path d="M33.9 31.4749C35.9 34.3749 37 37.875 37 41.575C37 51.475 28.9 59.575 19 59.575C9.1 59.575 1 51.475 1 41.575C1 31.675 9.1 23.575 19 23.575C22.2 23.575 25.3 24.4749 27.9 25.9749" stroke="#FF6600" stroke-miterlimit="10"/>
<path d="M31.7998 21.475L51.2998 2.275C52.9998 0.575 55.8998 0.575 57.5998 2.275C59.2998 3.975 59.2998 6.87505 57.5998 8.57505L54.1998 11.675L61.2998 18.775L57.2998 22.775L54.3998 19.875L48.3998 25.875L44.2998 21.775" stroke="#FF6600" stroke-miterlimit="10"/>
<path d="M34 31.5751L50.2 15.4751" stroke="#FF6600" stroke-miterlimit="10"/>
</svg>
