<svg width="38" height="55" viewBox="0 0 38 55" fill="none" xmlns="http://www.w3.org/2000/svg">
<path d="M22.9008 54.0999C30.688 54.0999 37.0007 47.7871 37.0007 39.9999C37.0007 32.2127 30.688 25.8999 22.9008 25.8999C15.1135 25.8999 8.80078 32.2127 8.80078 39.9999C8.80078 47.7871 15.1135 54.0999 22.9008 54.0999Z" stroke="#FF6600" stroke-miterlimit="10"/>
<path d="M9.70001 23.5999C14.5049 23.5999 18.4 19.7048 18.4 14.8999C18.4 10.0951 14.5049 6.19995 9.70001 6.19995C4.89513 6.19995 1 10.0951 1 14.8999C1 19.7048 4.89513 23.5999 9.70001 23.5999Z" stroke="#FF6600" stroke-miterlimit="10"/>
<path d="M24.6006 11C27.362 11 29.6006 8.76142 29.6006 6C29.6006 3.23858 27.362 1 24.6006 1C21.8392 1 19.6006 3.23858 19.6006 6C19.6006 8.76142 21.8392 11 24.6006 11Z" stroke="#FF6600" stroke-miterlimit="10"/>
</svg>
