<svg width="160" height="162" viewBox="0 0 160 162" fill="none" xmlns="http://www.w3.org/2000/svg">
<g filter="url(#filter0_d)">
<path d="M68.7 74.4C75.1617 74.4 80.4 69.1617 80.4 62.7C80.4 56.2383 75.1617 51 68.7 51C62.2383 51 57 56.2383 57 62.7C57 69.1617 62.2383 74.4 68.7 74.4Z" stroke="#FF6600" stroke-miterlimit="10"/>
<path d="M80.3 62.8002C80.3 69.3002 75.1 74.5002 68.6 74.5002C62.1 74.5002 56.9 69.3002 56.9 62.8002C56.9 62.8002 56.9 62.8002 56.9 62.7002H56.2C53.3 62.7002 51 65.0002 51 67.9002V98.5002C51 101.4 53.3 103.7 56.2 103.7H57.5C57.6 99.8002 60.8 96.8002 64.6 96.8002C68.4 96.8002 71.6 99.9002 71.7 103.7H84.7C84.8 103.7 84.9 103.6 84.9 103.5V67.9002C85 65.2002 83 63.0002 80.3 62.8002Z" stroke="#FF6600" stroke-miterlimit="10"/>
<path d="M98.4016 73.6001C97.0016 71.7001 94.8015 70.6001 92.5015 70.6001H85.1016V103.7H89.0015C89.0015 99.8001 92.2016 96.6001 96.1016 96.6001C100.002 96.6001 103.202 99.8001 103.202 103.7H103.802C106.902 103.7 109.402 101.2 109.402 98.1001V89.1001L98.4016 73.6001Z" stroke="#FF6600" stroke-miterlimit="10"/>
<path d="M64.6 111C68.5212 111 71.7 107.822 71.7 103.9C71.7 99.9791 68.5212 96.8003 64.6 96.8003C60.6788 96.8003 57.5 99.9791 57.5 103.9C57.5 107.822 60.6788 111 64.6 111Z" stroke="#FF6600" stroke-miterlimit="10"/>
<path d="M96.1 110.8C100.021 110.8 103.2 107.621 103.2 103.7C103.2 99.7789 100.021 96.6001 96.1 96.6001C92.1788 96.6001 89 99.7789 89 103.7C89 107.621 92.1788 110.8 96.1 110.8Z" stroke="#FF6600" stroke-miterlimit="10"/>
<path d="M69.0016 53.9004V62.7004L64.6016 67.1004" stroke="#FF6600" stroke-miterlimit="10"/>
<path d="M109.502 89.2001H97.2015C94.9015 89.2001 93.1016 87.4001 93.1016 85.1001V70.6001" stroke="#FF6600" stroke-miterlimit="10"/>
</g>
<defs>
<filter id="filter0_d" x="0.5" y="0.5" width="159.402" height="161" filterUnits="userSpaceOnUse" color-interpolation-filters="sRGB">
<feFlood flood-opacity="0" result="BackgroundImageFix"/>
<feColorMatrix in="SourceAlpha" type="matrix" values="0 0 0 0 0 0 0 0 0 0 0 0 0 0 0 0 0 0 127 0"/>
<feOffset/>
<feGaussianBlur stdDeviation="25"/>
<feColorMatrix type="matrix" values="0 0 0 0 1 0 0 0 0 0.4 0 0 0 0 0 0 0 0 1 0"/>
<feBlend mode="normal" in2="BackgroundImageFix" result="effect1_dropShadow"/>
<feBlend mode="normal" in="SourceGraphic" in2="effect1_dropShadow" result="shape"/>
</filter>
</defs>
</svg>
