<svg width="163" height="161" viewBox="0 0 163 161" fill="none" xmlns="http://www.w3.org/2000/svg">
<g filter="url(#filter0_d)">
<path d="M69.0002 102.875C75.241 102.875 80.3002 97.816 80.3002 91.5752C80.3002 85.3344 75.241 80.2751 69.0002 80.2751C62.7594 80.2751 57.7002 85.3344 57.7002 91.5752C57.7002 97.816 62.7594 102.875 69.0002 102.875Z" stroke="#FF6600" stroke-miterlimit="10"/>
<path d="M83.9 81.4749C85.9 84.3749 87 87.875 87 91.575C87 101.475 78.9 109.575 69 109.575C59.1 109.575 51 101.475 51 91.575C51 81.675 59.1 73.575 69 73.575C72.2 73.575 75.3 74.4749 77.9 75.9749" stroke="#FF6600" stroke-miterlimit="10"/>
<path d="M81.7998 71.475L101.3 52.275C103 50.575 105.9 50.575 107.6 52.275C109.3 53.975 109.3 56.875 107.6 58.575L104.2 61.675L111.3 68.775L107.3 72.775L104.4 69.875L98.3998 75.875L94.2998 71.775" stroke="#FF6600" stroke-miterlimit="10"/>
<path d="M84 81.5751L100.2 65.4751" stroke="#FF6600" stroke-miterlimit="10"/>
</g>
<defs>
<filter id="filter0_d" x="0.5" y="0.5" width="161.507" height="159.575" filterUnits="userSpaceOnUse" color-interpolation-filters="sRGB">
<feFlood flood-opacity="0" result="BackgroundImageFix"/>
<feColorMatrix in="SourceAlpha" type="matrix" values="0 0 0 0 0 0 0 0 0 0 0 0 0 0 0 0 0 0 127 0"/>
<feOffset/>
<feGaussianBlur stdDeviation="25"/>
<feColorMatrix type="matrix" values="0 0 0 0 1 0 0 0 0 0.4 0 0 0 0 0 0 0 0 1 0"/>
<feBlend mode="normal" in2="BackgroundImageFix" result="effect1_dropShadow"/>
<feBlend mode="normal" in="SourceGraphic" in2="effect1_dropShadow" result="shape"/>
</filter>
</defs>
</svg>
