<svg width="147" height="150" viewBox="0 0 147 150" fill="none" xmlns="http://www.w3.org/2000/svg">
<g filter="url(#filter0_d)">
<path d="M74.7 52.2H89.6C90.6 52.2 91.2 53.5 90.5 54.2L74.7 70.7999C73.9 71.6999 72.7 72.2 71.5 72.2H54.4C52.5 72.2 51 73.6999 51 75.5999V95.8999C51 97.7999 52.5 99.2999 54.4 99.2999H74C75.9 99.2999 77.4 97.7999 77.4 95.8999V77.5999C77.4 76.3999 77.9 75.2999 78.7 74.3999L94.5 58.7999C95.3 58.0999 96.5 58.5999 96.5 59.5999V78.2999L84.3 90.7" stroke="#FF6600" stroke-miterlimit="10"/>
<path d="M75.7 54.4C76.915 54.4 77.9 53.415 77.9 52.2C77.9 50.985 76.915 50 75.7 50C74.485 50 73.5 50.985 73.5 52.2C73.5 53.415 74.485 54.4 75.7 54.4Z" fill="#FF6600"/>
<path d="M83.9002 93.2999C85.1152 93.2999 86.1002 92.3149 86.1002 91.0999C86.1002 89.8849 85.1152 88.8999 83.9002 88.8999C82.6852 88.8999 81.7002 89.8849 81.7002 91.0999C81.7002 92.3149 82.6852 93.2999 83.9002 93.2999Z" fill="#FF6600"/>
</g>
<defs>
<filter id="filter0_d" x="0.5" y="0" width="146.5" height="149.8" filterUnits="userSpaceOnUse" color-interpolation-filters="sRGB">
<feFlood flood-opacity="0" result="BackgroundImageFix"/>
<feColorMatrix in="SourceAlpha" type="matrix" values="0 0 0 0 0 0 0 0 0 0 0 0 0 0 0 0 0 0 127 0"/>
<feOffset/>
<feGaussianBlur stdDeviation="25"/>
<feColorMatrix type="matrix" values="0 0 0 0 1 0 0 0 0 0.4 0 0 0 0 0 0 0 0 1 0"/>
<feBlend mode="normal" in2="BackgroundImageFix" result="effect1_dropShadow"/>
<feBlend mode="normal" in="SourceGraphic" in2="effect1_dropShadow" result="shape"/>
</filter>
</defs>
</svg>
