<svg width="49" height="67" viewBox="0 0 49 67" fill="none" xmlns="http://www.w3.org/2000/svg">
<path d="M24.6004 44.2999C32.9951 44.2999 39.8004 37.4946 39.8004 29.0999C39.8004 20.7051 32.9951 13.8999 24.6004 13.8999C16.2056 13.8999 9.40039 20.7051 9.40039 29.0999C9.40039 37.4946 16.2056 44.2999 24.6004 44.2999Z" stroke="#FF6600" stroke-miterlimit="10"/>
<path d="M24.5 52.6001C37.4787 52.6001 48 42.0788 48 29.1001C48 16.1214 37.4787 5.6001 24.5 5.6001C11.5213 5.6001 1 16.1214 1 29.1001C1 42.0788 11.5213 52.6001 24.5 52.6001Z" stroke="#FF6600" stroke-miterlimit="10"/>
<path d="M21.2002 25.9998L24.9002 22.2998V36.2998" stroke="#FF6600" stroke-miterlimit="10"/>
<path d="M20.5 36.2998H28.5" stroke="#FF6600" stroke-miterlimit="10"/>
<path d="M24.4998 5.59998C30.2998 5.59998 35.5998 7.70001 39.6998 11.2V1H9.2998V11C13.3998 7.7 18.6998 5.59998 24.4998 5.59998Z" stroke="#FF6600" stroke-miterlimit="10"/>
<path d="M24.4994 52.5C18.6994 52.5 13.4994 50.4 9.39941 47V65.9L24.5994 58.9L39.7994 65.9V46.9C35.5994 50.4 30.2994 52.5 24.4994 52.5Z" stroke="#FF6600" stroke-miterlimit="10"/>
</svg>
