<svg width="47" height="50" viewBox="0 0 47 50" fill="none" xmlns="http://www.w3.org/2000/svg">
<path d="M24.7 2.19995H39.6C40.6 2.19995 41.2 3.49995 40.5 4.19995L24.7 20.7999C23.9 21.6999 22.7 22.2 21.5 22.2H4.39999C2.49999 22.2 1 23.6999 1 25.5999V45.8999C1 47.7999 2.49999 49.2999 4.39999 49.2999H24C25.9 49.2999 27.4 47.7999 27.4 45.8999V27.5999C27.4 26.3999 27.9 25.2999 28.7 24.3999L44.5 8.79993C45.3 8.09993 46.5 8.59995 46.5 9.59995V28.2999L34.3 40.7" stroke="#FF6600" stroke-miterlimit="10"/>
<path d="M25.7 4.39999C26.915 4.39999 27.9 3.41504 27.9 2.20001C27.9 0.984986 26.915 0 25.7 0C24.485 0 23.5 0.984986 23.5 2.20001C23.5 3.41504 24.485 4.39999 25.7 4.39999Z" fill="#FF6600"/>
<path d="M33.9002 43.2999C35.1152 43.2999 36.1002 42.3149 36.1002 41.0999C36.1002 39.8849 35.1152 38.8999 33.9002 38.8999C32.6852 38.8999 31.7002 39.8849 31.7002 41.0999C31.7002 42.3149 32.6852 43.2999 33.9002 43.2999Z" fill="#FF6600"/>
</svg>
