<svg width="66" height="65" viewBox="0 0 66 65" fill="none" xmlns="http://www.w3.org/2000/svg">
<path d="M8.5 64.4V57.5H29.1V64.4" stroke="#FF6600" stroke-miterlimit="10"/>
<path d="M1 19.9999V35.9999L15 57.3998H25.3V43.2998L14.3 31.2998L14.1 39.9999L18.8 44.7998L7 32.7998V23.4999C6.8 19.4999 3.6 18.7999 1 19.9999Z" stroke="#FF6600" stroke-miterlimit="10"/>
<path d="M7.0004 25.3999C9.7004 23.4999 14.3004 25.7999 14.3004 31.2999L14.1004 39.9999L6.90039 32.7999V25.3999H7.0004Z" stroke="#FF6600" stroke-miterlimit="10"/>
<path d="M57.4008 64.4V57.5H36.8008V64.4" stroke="#FF6600" stroke-miterlimit="10"/>
<path d="M64.9006 19.9999V35.9999L50.9006 57.3998H40.6006V43.2998L51.6006 31.2998L51.8006 39.9999L47.1006 44.7998L58.9006 32.7998V23.4999C59.1006 19.4999 62.2006 18.7999 64.9006 19.9999Z" stroke="#FF6600" stroke-miterlimit="10"/>
<path d="M58.9006 25.3999C56.2006 23.4999 51.6006 25.7999 51.6006 31.2999L51.8006 39.9999L59.0006 32.7999L58.9006 25.3999Z" stroke="#FF6600" stroke-miterlimit="10"/>
<path d="M32.6006 40V1" stroke="#FF6600" stroke-miterlimit="10"/>
<path d="M32.6004 1C17.0004 6.8 16.0004 29.6 32.6004 35C49.3004 29.6 48.3004 6.8 32.6004 1Z" stroke="#FF6600" stroke-miterlimit="10"/>
<path d="M23.5 8.3999L32.6 16.7999L42.2 9.0999" stroke="#FF6600" stroke-miterlimit="10"/>
<path d="M20.5 16.7998L32.6 27.8998L44.7 18.0998" stroke="#FF6600" stroke-miterlimit="10"/>
</svg>
