<svg width="57" height="57" viewBox="0 0 57 57" fill="none" xmlns="http://www.w3.org/2000/svg">
<path d="M8.34559 13.6063C3.14559 9.80627 8.7456 3.40626 13.7456 7.40626C17.8456 10.8063 13.0456 20.6062 5.14559 17.0062C-3.05441 11.3062 2.1456 0.706234 10.0456 1.00623H28.3456" stroke="#FF6600" stroke-miterlimit="10"/>
<path d="M20.9453 19.7061V46.4061" stroke="#FF6600" stroke-miterlimit="10"/>
<path d="M37.2451 19.7061V46.4061" stroke="#FF6600" stroke-miterlimit="10"/>
<path d="M29.0449 19.7061V46.4061" stroke="#FF6600" stroke-miterlimit="10"/>
<path d="M12.6455 16.3062V46.4061" stroke="#FF6600" stroke-miterlimit="10"/>
<path d="M49.1455 13.6063C54.3455 9.80627 48.7455 3.40626 43.7455 7.40626C39.6455 10.8063 44.4455 20.6062 52.3455 17.0062C60.5455 11.3062 55.3455 0.706234 47.4455 1.00623H28.1455" stroke="#FF6600" stroke-miterlimit="10"/>
<path d="M44.8457 16.3062V46.4061" stroke="#FF6600" stroke-miterlimit="10"/>
<path d="M14.0449 14.8062H43.3449" stroke="#FF6600" stroke-miterlimit="10"/>
<path d="M15.2451 10.9062H42.2451" stroke="#FF6600" stroke-miterlimit="10"/>
<path d="M51.1449 50.0063H7.54492V56.0063H51.1449V50.0063Z" stroke="#FF6600" stroke-miterlimit="10"/>
<path d="M47.7451 46.0063H10.7451V50.1064H47.7451V46.0063Z" stroke="#FF6600" stroke-miterlimit="10"/>
</svg>
