<svg width="149" height="156" viewBox="0 0 149 156" fill="none" xmlns="http://www.w3.org/2000/svg">
<g filter="url(#filter0_d)">
<path d="M95.6 104.7H91.2C91.1 102.5 89.3 100.7 87 100.7H63.4C61.1 100.7 59.2 102.4 59.1 104.7H53.9C52.3 104.7 51 103.4 51 101.8V72.1V53.9C51 52.3 52.3 51 53.9 51H95.6C97.2 51 98.5 52.3 98.5 53.9V101.7C98.5 103.4 97.2 104.7 95.6 104.7Z" stroke="#FF6600" stroke-miterlimit="10"/>
<path d="M98.5 72.2998H51" stroke="#FF6600" stroke-miterlimit="10"/>
<path d="M98.5 94.2002H51" stroke="#FF6600" stroke-miterlimit="10"/>
<path d="M67.1006 58.7998V61.0997C67.1006 62.7997 68.5006 64.1997 70.2006 64.1997H79.4006C81.1006 64.1997 82.5006 62.7997 82.5006 61.0997V58.7998" stroke="#FF6600" stroke-miterlimit="10"/>
<path d="M67.1006 80.7002V83.0002C67.1006 84.7002 68.5006 86.1002 70.2006 86.1002H79.4006C81.1006 86.1002 82.5006 84.7002 82.5006 83.0002V80.7002" stroke="#FF6600" stroke-miterlimit="10"/>
</g>
<defs>
<filter id="filter0_d" x="0.5" y="0.5" width="148.5" height="154.7" filterUnits="userSpaceOnUse" color-interpolation-filters="sRGB">
<feFlood flood-opacity="0" result="BackgroundImageFix"/>
<feColorMatrix in="SourceAlpha" type="matrix" values="0 0 0 0 0 0 0 0 0 0 0 0 0 0 0 0 0 0 127 0"/>
<feOffset/>
<feGaussianBlur stdDeviation="25"/>
<feColorMatrix type="matrix" values="0 0 0 0 1 0 0 0 0 0.4 0 0 0 0 0 0 0 0 1 0"/>
<feBlend mode="normal" in2="BackgroundImageFix" result="effect1_dropShadow"/>
<feBlend mode="normal" in="SourceGraphic" in2="effect1_dropShadow" result="shape"/>
</filter>
</defs>
</svg>
