<svg width="66" height="61" viewBox="0 0 66 61" fill="none" xmlns="http://www.w3.org/2000/svg">
<path d="M26.1057 14.8519C28.2044 14.8519 29.9057 13.1506 29.9057 11.0519C29.9057 8.95326 28.2044 7.25195 26.1057 7.25195C24.007 7.25195 22.3057 8.95326 22.3057 11.0519C22.3057 13.1506 24.007 14.8519 26.1057 14.8519Z" stroke="#FF6600" stroke-miterlimit="10"/>
<path d="M14.8058 23.8519C16.9045 23.8519 18.6059 22.1506 18.6059 20.0519C18.6059 17.9533 16.9045 16.252 14.8058 16.252C12.7072 16.252 11.0059 17.9533 11.0059 20.0519C11.0059 22.1506 12.7072 23.8519 14.8058 23.8519Z" stroke="#FF6600" stroke-miterlimit="10"/>
<path d="M14.8058 37.1518C16.9045 37.1518 18.6059 35.4504 18.6059 33.3517C18.6059 31.2531 16.9045 29.5518 14.8058 29.5518C12.7072 29.5518 11.0059 31.2531 11.0059 33.3517C11.0059 35.4504 12.7072 37.1518 14.8058 37.1518Z" stroke="#FF6600" stroke-miterlimit="10"/>
<path d="M32.6057 46.0521C34.7044 46.0521 36.4057 44.3508 36.4057 42.2521C36.4057 40.1535 34.7044 38.4521 32.6057 38.4521C30.507 38.4521 28.8057 40.1535 28.8057 42.2521C28.8057 44.3508 30.507 46.0521 32.6057 46.0521Z" stroke="#FF6600" stroke-miterlimit="10"/>
<path d="M45.806 36.5518C49.7273 36.5518 52.9061 34.4475 52.9061 31.8518C52.9061 29.2561 49.7273 27.1519 45.806 27.1519C41.8848 27.1519 38.7061 29.2561 38.7061 31.8518C38.7061 34.4475 41.8848 36.5518 45.806 36.5518Z" stroke="#FF6600" stroke-miterlimit="10"/>
<path d="M64.6065 23.9519C62.5065 19.7519 42.9064 22.6519 42.2064 19.7519C40.7064 15.6519 49.7065 14.8519 52.9065 10.0519C56.6065 1.85187 27.7064 -3.3481 13.5064 5.9519C-1.19357 15.5519 -1.59355 30.7519 5.40645 41.2519C7.90645 44.3519 10.7064 46.8519 13.7064 48.7519C17.2064 41.5519 22.9064 33.2519 27.7064 30.4519C31.2064 29.8519 24.6064 42.3519 18.5064 51.2519C40.7064 60.8519 69.8065 44.3519 64.6065 23.9519Z" stroke="#FF6600" stroke-miterlimit="10"/>
<path d="M27.5063 30.7516C33.1063 29.7516 12.6064 62.9516 10.2064 60.0516C9.50636 54.6516 19.6063 35.3516 27.5063 30.7516Z" stroke="#FF6600" stroke-miterlimit="10"/>
<path d="M34.0057 19.1521C29.3057 18.0521 23.0058 26.5521 28.6058 30.4521C36.0058 32.9521 36.8057 20.8521 34.0057 19.1521Z" stroke="#FF6600" stroke-miterlimit="10"/>
</svg>
