<svg width="145" height="145" viewBox="0 0 145 145" fill="none" xmlns="http://www.w3.org/2000/svg">
<g filter="url(#filter0_d)">
<path d="M72.3 93.6C84.0637 93.6 93.6 84.0637 93.6 72.3C93.6 60.5363 84.0637 51 72.3 51C60.5363 51 51 60.5363 51 72.3C51 84.0637 60.5363 93.6 72.3 93.6Z" stroke="#FF6600" stroke-miterlimit="10"/>
<path d="M70.2003 80.5999C69.7003 76.4999 68.6003 74.1999 66.7003 74.7999C57.9003 79.9999 59.9003 58.1999 72.1003 66.1999C76.7003 67.5999 78.8003 61.2999 75.4003 60.8999C68.2003 58.7999 73.2003 54.2999 79.9003 52.3999C84.5003 54.1999 87.9003 57.0999 90.4003 60.8999C87.5003 65.6999 83.4003 67.9999 78.0003 67.9999C76.4003 68.0999 76.0003 68.7999 79.8003 71.5999C84.7003 71.5999 85.2003 73.8999 79.5003 79.2999C81.0003 81.4999 80.3003 82.6999 77.5003 83.0999C77.8003 89.9999 69.3003 90.8999 70.2003 80.5999Z" stroke="#FF6600" stroke-miterlimit="10"/>
</g>
<defs>
<filter id="filter0_d" x="0.5" y="0.5" width="143.6" height="143.6" filterUnits="userSpaceOnUse" color-interpolation-filters="sRGB">
<feFlood flood-opacity="0" result="BackgroundImageFix"/>
<feColorMatrix in="SourceAlpha" type="matrix" values="0 0 0 0 0 0 0 0 0 0 0 0 0 0 0 0 0 0 127 0"/>
<feOffset/>
<feGaussianBlur stdDeviation="25"/>
<feColorMatrix type="matrix" values="0 0 0 0 1 0 0 0 0 0.4 0 0 0 0 0 0 0 0 1 0"/>
<feBlend mode="normal" in2="BackgroundImageFix" result="effect1_dropShadow"/>
<feBlend mode="normal" in="SourceGraphic" in2="effect1_dropShadow" result="shape"/>
</filter>
</defs>
</svg>
