<svg width="60" height="62" viewBox="0 0 60 62" fill="none" xmlns="http://www.w3.org/2000/svg">
<path d="M18.7 24.4C25.1617 24.4 30.4 19.1617 30.4 12.7C30.4 6.23828 25.1617 1 18.7 1C12.2383 1 7 6.23828 7 12.7C7 19.1617 12.2383 24.4 18.7 24.4Z" stroke="#FF6600" stroke-miterlimit="10"/>
<path d="M30.3 12.8002C30.3 19.3002 25.1 24.5002 18.6 24.5002C12.1 24.5002 6.89999 19.3002 6.89999 12.8002C6.89999 12.8002 6.89999 12.8002 6.89999 12.7002H6.19998C3.29998 12.7002 1 15.0002 1 17.9002V48.5002C1 51.4002 3.29998 53.7002 6.19998 53.7002H7.5C7.6 49.8002 10.8 46.8002 14.6 46.8002C18.4 46.8002 21.6 49.9002 21.7 53.7002H34.7C34.8 53.7002 34.9 53.6002 34.9 53.5002V17.9002C35 15.2002 33 13.0002 30.3 12.8002Z" stroke="#FF6600" stroke-miterlimit="10"/>
<path d="M48.4006 23.6001C47.0006 21.7001 44.8005 20.6001 42.5005 20.6001H35.1006V53.7001H39.0005C39.0005 49.8001 42.2006 46.6001 46.1006 46.6001C50.0006 46.6001 53.2006 49.8001 53.2006 53.7001H53.8006C56.9006 53.7001 59.4006 51.2001 59.4006 48.1001V39.1001L48.4006 23.6001Z" stroke="#FF6600" stroke-miterlimit="10"/>
<path d="M14.6 61.0003C18.5212 61.0003 21.7 57.8216 21.7 53.9003C21.7 49.9791 18.5212 46.8003 14.6 46.8003C10.6788 46.8003 7.5 49.9791 7.5 53.9003C7.5 57.8216 10.6788 61.0003 14.6 61.0003Z" stroke="#FF6600" stroke-miterlimit="10"/>
<path d="M46.1 60.8C50.0213 60.8 53.2 57.6213 53.2 53.7001C53.2 49.7789 50.0213 46.6001 46.1 46.6001C42.1788 46.6001 39 49.7789 39 53.7001C39 57.6213 42.1788 60.8 46.1 60.8Z" stroke="#FF6600" stroke-miterlimit="10"/>
<path d="M19.0006 3.90039V12.7004L14.6006 17.1004" stroke="#FF6600" stroke-miterlimit="10"/>
<path d="M59.5005 39.2001H47.2006C44.9006 39.2001 43.1006 37.4001 43.1006 35.1001V20.6001" stroke="#FF6600" stroke-miterlimit="10"/>
</svg>
