<svg width="50" height="61" viewBox="0 0 50 61" fill="none" xmlns="http://www.w3.org/2000/svg">
<path d="M24.9 60.4001C38.0996 60.4001 48.8 49.6997 48.8 36.5001C48.8 23.3005 38.0996 12.6001 24.9 12.6001C11.7004 12.6001 1 23.3005 1 36.5001C1 49.6997 11.7004 60.4001 24.9 60.4001Z" stroke="#FF6600" stroke-miterlimit="10"/>
<path d="M31.7998 9.19995H17.2998V5.09998C17.2998 2.89998 19.0998 1 21.3998 1H27.7998C29.9998 1 31.8998 2.79998 31.8998 5.09998V9.19995H31.7998Z" stroke="#FF6600" stroke-miterlimit="10"/>
<path d="M24.6992 41C27.1845 41 29.1992 38.9853 29.1992 36.5C29.1992 34.0147 27.1845 32 24.6992 32C22.2139 32 20.1992 34.0147 20.1992 36.5C20.1992 38.9853 22.2139 41 24.6992 41Z" stroke="#FF6600" stroke-miterlimit="10"/>
<path d="M24.6992 17.2002V32.0002" stroke="#FF6600" stroke-miterlimit="10"/>
<path d="M4 36.5H9" stroke="#FF6600" stroke-miterlimit="10"/>
<path d="M40.0996 36.5H45.0996" stroke="#FF6600" stroke-miterlimit="10"/>
<path d="M24.6992 50.8003V55.8003" stroke="#FF6600" stroke-miterlimit="10"/>
<path d="M43.6996 21.7C43.9996 21.6 44.2996 21.4 44.5996 21.2L48.0996 17.7C48.9996 16.8 48.9996 15.3001 48.0996 14.4001L45.4996 11.8C44.5996 10.9 43.0996 10.9 42.1996 11.8L38.6996 15.3C38.2996 15.7 38.0996 16.1 38.0996 16.6C40.2996 17.9 42.0996 19.7 43.6996 21.7Z" stroke="#FF6600" stroke-miterlimit="10"/>
</svg>
