<svg width="138" height="155" viewBox="0 0 138 155" fill="none" xmlns="http://www.w3.org/2000/svg">
<g filter="url(#filter0_d)">
<path d="M72.9008 104.1C80.688 104.1 87.0007 97.7871 87.0007 89.9999C87.0007 82.2127 80.688 75.8999 72.9008 75.8999C65.1135 75.8999 58.8008 82.2127 58.8008 89.9999C58.8008 97.7871 65.1135 104.1 72.9008 104.1Z" stroke="#FF6600" stroke-miterlimit="10"/>
<path d="M59.7 73.5999C64.5049 73.5999 68.4 69.7048 68.4 64.8999C68.4 60.0951 64.5049 56.2 59.7 56.2C54.8951 56.2 51 60.0951 51 64.8999C51 69.7048 54.8951 73.5999 59.7 73.5999Z" stroke="#FF6600" stroke-miterlimit="10"/>
<path d="M74.6016 61C77.363 61 79.6016 58.7614 79.6016 56C79.6016 53.2386 77.363 51 74.6016 51C71.8401 51 69.6016 53.2386 69.6016 56C69.6016 58.7614 71.8401 61 74.6016 61Z" stroke="#FF6600" stroke-miterlimit="10"/>
</g>
<defs>
<filter id="filter0_d" x="0.5" y="0.5" width="137.001" height="154.1" filterUnits="userSpaceOnUse" color-interpolation-filters="sRGB">
<feFlood flood-opacity="0" result="BackgroundImageFix"/>
<feColorMatrix in="SourceAlpha" type="matrix" values="0 0 0 0 0 0 0 0 0 0 0 0 0 0 0 0 0 0 127 0"/>
<feOffset/>
<feGaussianBlur stdDeviation="25"/>
<feColorMatrix type="matrix" values="0 0 0 0 1 0 0 0 0 0.4 0 0 0 0 0 0 0 0 1 0"/>
<feBlend mode="normal" in2="BackgroundImageFix" result="effect1_dropShadow"/>
<feBlend mode="normal" in="SourceGraphic" in2="effect1_dropShadow" result="shape"/>
</filter>
</defs>
</svg>
