<svg width="159" height="159" viewBox="0 0 159 159" fill="none" xmlns="http://www.w3.org/2000/svg">
<g filter="url(#filter0_d)">
<path d="M63.2 52H51V108.5H63.2V52Z" stroke="#FF6600" stroke-miterlimit="10"/>
<path d="M108 108.5H68.2998V52L108 108.5Z" stroke="#FF6600" stroke-miterlimit="10"/>
<path d="M77.5998 99.2H68.2998V108.5H77.5998V99.2Z" stroke="#FF6600" stroke-miterlimit="10"/>
<path d="M95.2002 108.5C95.4002 104.2 97.4002 101 101.2 98.7" stroke="#FF6600" stroke-miterlimit="10"/>
<path d="M57.1 55.7H51" stroke="#FF6600" stroke-miterlimit="10"/>
<path d="M54.1 58.3H51" stroke="#FF6600" stroke-miterlimit="10"/>
<path d="M57.1 60.9001H51" stroke="#FF6600" stroke-miterlimit="10"/>
<path d="M54.1 63.4001H51" stroke="#FF6600" stroke-miterlimit="10"/>
<path d="M57.1 66H51" stroke="#FF6600" stroke-miterlimit="10"/>
<path d="M54.1 68.6001H51" stroke="#FF6600" stroke-miterlimit="10"/>
<path d="M57.1 71.2H51" stroke="#FF6600" stroke-miterlimit="10"/>
<path d="M54.1 73.7H51" stroke="#FF6600" stroke-miterlimit="10"/>
<path d="M57.1 76.3H51" stroke="#FF6600" stroke-miterlimit="10"/>
<path d="M54.1 78.9001H51" stroke="#FF6600" stroke-miterlimit="10"/>
<path d="M57.1 81.5H51" stroke="#FF6600" stroke-miterlimit="10"/>
<path d="M54.1 84.1001H51" stroke="#FF6600" stroke-miterlimit="10"/>
<path d="M57.1 86.6001H51" stroke="#FF6600" stroke-miterlimit="10"/>
<path d="M54.1 89.2H51" stroke="#FF6600" stroke-miterlimit="10"/>
<path d="M57.1 91.8H51" stroke="#FF6600" stroke-miterlimit="10"/>
<path d="M54.1 94.4001H51" stroke="#FF6600" stroke-miterlimit="10"/>
<path d="M57.1 96.9001H51" stroke="#FF6600" stroke-miterlimit="10"/>
<path d="M54.1 99.5H51" stroke="#FF6600" stroke-miterlimit="10"/>
<path d="M57.1 102.1H51" stroke="#FF6600" stroke-miterlimit="10"/>
<path d="M54.1 104.7H51" stroke="#FF6600" stroke-miterlimit="10"/>
</g>
<defs>
<filter id="filter0_d" x="0.5" y="0.418701" width="158.462" height="158.581" filterUnits="userSpaceOnUse" color-interpolation-filters="sRGB">
<feFlood flood-opacity="0" result="BackgroundImageFix"/>
<feColorMatrix in="SourceAlpha" type="matrix" values="0 0 0 0 0 0 0 0 0 0 0 0 0 0 0 0 0 0 127 0"/>
<feOffset/>
<feGaussianBlur stdDeviation="25"/>
<feColorMatrix type="matrix" values="0 0 0 0 1 0 0 0 0 0.4 0 0 0 0 0 0 0 0 1 0"/>
<feBlend mode="normal" in2="BackgroundImageFix" result="effect1_dropShadow"/>
<feBlend mode="normal" in="SourceGraphic" in2="effect1_dropShadow" result="shape"/>
</filter>
</defs>
</svg>
