<svg width="56" height="58" viewBox="0 0 56 58" fill="none" xmlns="http://www.w3.org/2000/svg">
<path d="M29.5996 32.7C29.5996 32.7 36.3996 39.8 36.6996 39.8C36.9996 39.8 47.4996 27.5 47.4996 27.5" stroke="#FF6600" stroke-miterlimit="10"/>
<path d="M36.7 48.3C33.2 51.9 28.4 54.7 22.9 57.1C8.00001 48.9 1.9 41.2 1 33.7V6.79999C9 7.29999 16.4 5.6 22.9 1C29.1 5.7 36.4 7.49999 44.8 6.79999V14.6" stroke="#FF6600" stroke-miterlimit="10"/>
<path d="M11.7998 12.5C15.7998 12 19.5998 10.7 23.0998 8.19995C27.7998 11.8 33.3998 13.0999 39.6998 12.5999V18.5999" stroke="#FF6600" stroke-miterlimit="10"/>
<path d="M31.4 46.3C29.1 48.1 26.2 49.6999 23.1 51.0999C11.8 44.8999 7.1 38.9 6.5 33.2V18.2" stroke="#FF6600" stroke-miterlimit="10"/>
<path d="M28 23.7C30.8 20.3 35 18.2 39.8 18.2C48.3 18.2 55.1 25.1 55.1 33.5C55.1 41.9 48.2 48.8 39.8 48.8C31.4 48.8 24.5 41.9 24.5 33.5C24.5 32.6 24.6 31.7 24.7 30.8" stroke="#FF6600" stroke-miterlimit="10"/>
<path d="M22.8994 15.5V8.19995" stroke="#FF6600" stroke-miterlimit="10"/>
<path d="M22.8994 43.5V51.1" stroke="#FF6600" stroke-miterlimit="10"/>
</svg>
