<svg width="57" height="48" viewBox="0 0 57 48" fill="none" xmlns="http://www.w3.org/2000/svg">
<path d="M29.4262 15.46L27.7863 17.95L26.1562 15.46H29.4262Z" stroke="#FF6600" stroke-miterlimit="10"/>
<path d="M28.4564 13.28C31.8474 13.28 34.5964 10.531 34.5964 7.13995C34.5964 3.74893 31.8474 1 28.4564 1C25.0654 1 22.3164 3.74893 22.3164 7.13995C22.3164 10.531 25.0654 13.28 28.4564 13.28Z" stroke="#FF6600" stroke-miterlimit="10"/>
<path d="M32.088 14.9201L27.788 25.3601L23.338 14.6101L20.7679 15.2401L15.668 26.1301L19.4979 30.4201" stroke="#FF6600" stroke-miterlimit="10"/>
<path d="M31.5469 15.0601L34.1169 15.6901L39.2169 26.58L35.3769 30.8801" stroke="#FF6600" stroke-miterlimit="10"/>
<path d="M21.5 22.5901V47.1601H24.26L26.41 33.1901H29.33L31.17 47.1601H33.93V22.5901" stroke="#FF6600" stroke-miterlimit="10"/>
<path d="M13.0792 19.3501L11.6392 21.5301L10.1992 19.3501H13.0792Z" stroke="#FF6600" stroke-miterlimit="10"/>
<path d="M12.2181 17.4299C15.195 17.4299 17.6082 15.0167 17.6082 12.0399C17.6082 9.0631 15.195 6.6499 12.2181 6.6499C9.24132 6.6499 6.82812 9.0631 6.82812 12.0399C6.82812 15.0167 9.24132 17.4299 12.2181 17.4299Z" stroke="#FF6600" stroke-miterlimit="10"/>
<path d="M15.41 18.8701L11.64 28.0301L7.73004 18.6001L5.47003 19.1501L1 28.7001L4.36005 32.4701" stroke="#FF6600" stroke-miterlimit="10"/>
<path d="M6.12109 25.6001V47.1601H8.54114L10.4311 34.9001H12.9911L14.6011 47.1601H17.0311V31.6001" stroke="#FF6600" stroke-miterlimit="10"/>
<path d="M43.7578 19.3501L45.1978 21.5301L46.6278 19.3501H43.7578Z" stroke="#FF6600" stroke-miterlimit="10"/>
<path d="M44.6088 17.4299C47.5856 17.4299 49.9987 15.0167 49.9987 12.0399C49.9987 9.0631 47.5856 6.6499 44.6088 6.6499C41.6319 6.6499 39.2188 9.0631 39.2188 12.0399C39.2188 15.0167 41.6319 17.4299 44.6088 17.4299Z" stroke="#FF6600" stroke-miterlimit="10"/>
<path d="M41.418 18.8701L45.1979 28.0301L49.098 18.6001L51.358 19.1501L55.838 28.7001L52.468 32.4701" stroke="#FF6600" stroke-miterlimit="10"/>
<path d="M50.7186 25.5999V47.1599H48.2886L46.4086 34.8998H43.8486L42.2286 47.1599H39.8086V31.5999" stroke="#FF6600" stroke-miterlimit="10"/>
</svg>
