<svg width="58" height="52" viewBox="0 0 58 52" fill="none" xmlns="http://www.w3.org/2000/svg">
<path d="M15.9093 16.67L14.1294 19.36L12.3594 16.67H15.9093Z" stroke="#FF6600" stroke-miterlimit="10"/>
<path d="M24.158 38.02H56.528V1.89001H23.168" stroke="#FF6600" stroke-miterlimit="10"/>
<path d="M36.0181 49.5499L29.3981 38.0199L23.168 49.5499" stroke="#FF6600" stroke-miterlimit="10"/>
<path d="M14.8492 14.3C18.5219 14.3 21.4993 11.3227 21.4993 7.64996C21.4993 3.97727 18.5219 1 14.8492 1C11.1765 1 8.19922 3.97727 8.19922 7.64996C8.19922 11.3227 11.1765 14.3 14.8492 14.3Z" stroke="#FF6600" stroke-miterlimit="10"/>
<path d="M7.30994 24.39V50.9901H10.3099L12.64 35.86H15.7899L17.7899 50.9901H20.7799V24.39L37.4099 10.42L18.7899 16.08L14.13 27.3801L9.30994 15.7401L1 28.21L5.15002 32.8701" stroke="#FF6600" stroke-miterlimit="10"/>
</svg>
