<svg width="74" height="57" viewBox="0 0 74 57" fill="none" xmlns="http://www.w3.org/2000/svg">
<path d="M41.71 46.6848H3.68994C2.2043 46.6848 1 47.8892 1 49.3748V52.8248C1 54.3104 2.2043 55.5148 3.68994 55.5148H41.71C43.1956 55.5148 44.4 54.3104 44.4 52.8248V49.3748C44.4 47.8892 43.1956 46.6848 41.71 46.6848Z" stroke="#FF6600" stroke-miterlimit="10"/>
<path d="M4.64062 46.5148V43.7648C4.64326 43.0522 4.92762 42.3695 5.43152 41.8656C5.93542 41.3617 6.61807 41.0775 7.33069 41.0748H38.0507C38.7641 41.0748 39.4483 41.3582 39.9528 41.8627C40.4572 42.3671 40.7407 43.0514 40.7407 43.7648V46.5148" stroke="#FF6600" stroke-miterlimit="10"/>
<path d="M40.7802 17.2811L28.3711 7.81079L16.741 23.0499L29.1501 32.5202L40.7802 17.2811Z" stroke="#FF6600" stroke-miterlimit="10"/>
<path d="M47.1889 14.2136L29.875 1L28.0489 3.39274L45.3628 16.6063L47.1889 14.2136Z" stroke="#FF6600" stroke-miterlimit="10"/>
<path d="M69.8904 53.7149L36.5703 27.4349L38.4004 25.0349L72.6504 49.9249L69.8904 53.7149Z" stroke="#FF6600" stroke-miterlimit="10"/>
<path d="M29.4077 36.904L12.0938 23.6904L10.2677 26.0832L27.5816 39.2967L29.4077 36.904Z" stroke="#FF6600" stroke-miterlimit="10"/>
</svg>
