<svg width="50" height="55" viewBox="0 0 50 55" fill="none" xmlns="http://www.w3.org/2000/svg">
<path d="M31.372 53.86C40.921 53.86 48.662 46.119 48.662 36.57C48.662 27.021 40.921 19.28 31.372 19.28C21.823 19.28 14.082 27.021 14.082 36.57C14.082 46.119 21.823 53.86 31.372 53.86Z" stroke="#FF6600" stroke-miterlimit="10"/>
<path d="M0 22.5H15.3" stroke="#FF6600" stroke-miterlimit="10"/>
<path d="M0 29.8201H11.97" stroke="#FF6600" stroke-miterlimit="10"/>
<path d="M30.6016 47.78V53.87" stroke="#FF6600" stroke-miterlimit="10"/>
<path d="M30.6016 19.46V25.5499" stroke="#FF6600" stroke-miterlimit="10"/>
<path d="M42.7109 36.66H48.8009" stroke="#FF6600" stroke-miterlimit="10"/>
<path d="M14.3906 36.66H20.4806" stroke="#FF6600" stroke-miterlimit="10"/>
<path d="M35.0316 26.05L30.6016 36.6601L37.5816 48.4401" stroke="#FF6600" stroke-miterlimit="10"/>
<path d="M31.3727 16.85C35.3727 8.20998 28.9327 1 22.7227 1H9.72266V45.67" stroke="#FF6600" stroke-miterlimit="10"/>
</svg>
