<svg width="45" height="45" viewBox="0 0 45 45" fill="none" xmlns="http://www.w3.org/2000/svg">
<path d="M22.3 43.6C34.0637 43.6 43.6 34.0637 43.6 22.3C43.6 10.5363 34.0637 1 22.3 1C10.5363 1 1 10.5363 1 22.3C1 34.0637 10.5363 43.6 22.3 43.6Z" stroke="#FF6600" stroke-miterlimit="10"/>
<path d="M20.2003 30.6C19.7003 26.5 18.6003 24.2 16.7003 24.8C7.90031 30 9.9003 8.20002 22.1003 16.2C26.7003 17.6 28.8003 11.3 25.4003 10.9C18.2003 8.80002 23.2003 4.30002 29.9003 2.40002C34.5003 4.20002 37.9003 7.10002 40.4003 10.9C37.5003 15.7 33.4003 18 28.0003 18C26.4003 18.1 26.0003 18.8 29.8003 21.6C34.7003 21.6 35.2003 23.9 29.5003 29.3C31.0003 31.5 30.3003 32.7 27.5003 33.1C27.8003 40 19.3003 40.9 20.2003 30.6Z" stroke="#FF6600" stroke-miterlimit="10"/>
</svg>
