<svg width="18" height="20" fill="none" xmlns="http://www.w3.org/2000/svg"><path d="M18 19.897c-1.11 0-2.18-.003-3.25 0-3.8.012-7.599.032-11.397.036-.72 0-1.438-.067-2.157-.1-.207-.01-.34-.076-.336-.318.033-1.92.295-3.788 1.405-5.42.684-1.005 1.638-1.705 2.742-2.202a1.082 1.082 0 0 1 .937.012c.973.454 1.965.884 2.919 1.384.436.23.763.23 1.198 0 .919-.486 1.878-.895 2.814-1.35.469-.228.9-.142 1.335.085 1.771.918 2.932 2.316 3.429 4.272.296 1.175.31 2.363.361 3.6zm-8.57-9.53A5.183 5.183 0 1 0 9.43 0a5.183 5.183 0 0 0 0 10.367z" fill="#F60"/></svg>