<svg width="18" height="11" fill="none" xmlns="http://www.w3.org/2000/svg"><path d="M11 3.458c0 .438-.018.852-.02 1.26-.005.223.02.445.076.66.034.138.11.26.216.351a.209.209 0 0 0 .19.038.795.795 0 0 0 .307-.187c.21-.198.399-.419.565-.658a12.556 12.556 0 0 0 1.442-2.697c.066-.161.13-.32.192-.484a.477.477 0 0 1 .47-.33h3.055a.922.922 0 0 1 .246.068c.064.019.12.06.158.115a.31.31 0 0 1 .056.19c0 .173-.034.344-.098.504-.165.41-.373.799-.62 1.162-.46.721-.982 1.394-1.474 2.082-.164.23-.32.467-.467.706a.708.708 0 0 0-.113.451.73.73 0 0 0 .197.409c.18.196.361.39.553.574.513.47.995.976 1.442 1.513.208.255.388.533.536.83.036.08.06.164.073.251a.47.47 0 0 1-.213.505 1.047 1.047 0 0 1-.548.168c-.725.02-1.45.016-2.172.058a1.787 1.787 0 0 1-1.273-.448 5.994 5.994 0 0 1-.737-.741c-.246-.275-.474-.552-.737-.815a1.676 1.676 0 0 0-.376-.284.426.426 0 0 0-.558.09c-.122.15-.207.329-.248.52-.079.29-.123.59-.13.892a2.31 2.31 0 0 1-.022.224.523.523 0 0 1-.115.259.503.503 0 0 1-.23.157.962.962 0 0 1-.375.078h-.983a4.693 4.693 0 0 1-1.673-.33 6.424 6.424 0 0 1-2.516-1.764 16.11 16.11 0 0 1-1.818-2.501 35.74 35.74 0 0 1-2.212-4.318A.632.632 0 0 1 1 1.703a.223.223 0 0 1 .125-.186.852.852 0 0 1 .39-.096h2.443a.744.744 0 0 1 .653.504c.211.572.465 1.127.76 1.659.318.592.677 1.16 1.073 1.701.135.2.3.376.492.52a.39.39 0 0 0 .442.045.42.42 0 0 0 .17-.202c.089-.21.143-.434.162-.663a9.98 9.98 0 0 0 .032-1.603 5.847 5.847 0 0 0-.096-.95c-.015-.078-.042-.154-.057-.232a.522.522 0 0 0-.265-.338 1.23 1.23 0 0 0-.558-.189c-.056 0-.076-.03-.051-.08a.557.557 0 0 1 .083-.14c.18-.2.422-.33.686-.365A5.914 5.914 0 0 1 8.638 1c.43 0 .863 0 1.295.028.188.012.374.043.556.093a.65.65 0 0 1 .37.224.68.68 0 0 1 .155.411c.021.243.029.487.022.731-.005.33-.024.663-.037.97z" fill="#fff"/></svg>