<svg width="17" height="15" viewBox="0 0 17 15" fill="none" xmlns="http://www.w3.org/2000/svg">
<g clip-path="url(#clip0)">
<path d="M3.31755 6.17965L8.45484 2.53524C9.29167 1.94159 10.33 1.70468 11.3415 1.87663C12.3531 2.04859 13.2548 2.61531 13.8485 3.45214C14.1431 3.86647 14.3531 4.3348 14.4666 4.83036C14.5801 5.32591 14.5948 5.83898 14.5099 6.34023C14.425 6.84147 14.2421 7.32106 13.9717 7.75158C13.7013 8.18209 13.3487 8.55509 12.934 8.84924L7.79673 12.4937" stroke="white" stroke-miterlimit="10"/>
<path d="M11.9202 9.56796L7.06065 13.0154C6.48509 13.4475 5.76149 13.6335 5.04888 13.5324C4.33628 13.4313 3.69297 13.0514 3.26034 12.4762V12.4762C2.8604 11.8778 2.71442 11.1451 2.85447 10.4391C2.99452 9.73309 3.40914 9.11159 4.00722 8.71117L8.86682 5.26375" stroke="white" stroke-miterlimit="10"/>
<path d="M5.3438 7.76317L9.85628 4.562C10.0057 4.45327 10.1751 4.37527 10.3549 4.33254C10.5346 4.2898 10.7211 4.28317 10.9034 4.31303C11.0857 4.34288 11.2603 4.40864 11.417 4.50648C11.5737 4.60433 11.7095 4.73231 11.8164 4.883V4.883C11.9223 5.03235 11.9978 5.20115 12.0384 5.3797C12.079 5.55826 12.0839 5.74308 12.0529 5.92356C12.022 6.10404 11.9557 6.27663 11.8579 6.43144C11.7601 6.58626 11.6327 6.72025 11.4831 6.82575L5.97436 10.7336" stroke="white" stroke-miterlimit="10"/>
</g>
<defs>
<clipPath id="clip0">
<rect width="8.16276" height="14.2955" fill="white" transform="translate(11.6602) rotate(54.648)"/>
</clipPath>
</defs>
</svg>
