<svg width="18" height="18" fill="none" xmlns="http://www.w3.org/2000/svg"><g clip-path="url(#clip0)"><path d="M17.552 10.59c-.5-.336-.996-.674-1.5-1.006a.317.317 0 0 1-.043-.034 7.015 7.015 0 0 0 0-1.115.367.367 0 0 1 .055-.045c.508-.334 1.012-.673 1.514-1.016.407-.278.519-.648.331-1.103-.22-.538-.445-1.076-.67-1.61-.214-.511-.543-.682-1.084-.575-.584.115-1.167.23-1.753.333a.217.217 0 0 1-.072-.002 7.11 7.11 0 0 0-.76-.758.49.49 0 0 1 .012-.148c.12-.577.235-1.153.34-1.731.09-.497-.088-.815-.55-1.008a204.75 204.75 0 0 0-1.63-.675c-.485-.2-.835-.094-1.13.34-.338.498-.676.994-1.009 1.495a.35.35 0 0 1-.048.06 7.203 7.203 0 0 0-1.103 0 .346.346 0 0 1-.055-.067c-.33-.502-.669-1-1.008-1.499C7.105.008 6.744-.1 6.274.093 5.74.312 5.21.534 4.68.756c-.522.218-.692.538-.58 1.097.116.583.231 1.166.336 1.751a.195.195 0 0 1 0 .048c-.281.239-.543.5-.783.78a.397.397 0 0 1-.06-.008c-.582-.12-1.167-.23-1.75-.344-.539-.102-.86.07-1.07.57L.107 6.24c-.205.491-.1.846.34 1.144.488.33.974.663 1.466.987a.5.5 0 0 1 .077.06 7.136 7.136 0 0 0-.002 1.123.445.445 0 0 1-.056.044 80.1 80.1 0 0 0-1.56 1.053c-.325.226-.456.588-.318.944.246.631.506 1.257.78 1.877a.778.778 0 0 0 .872.447c.535-.096 1.072-.186 1.6-.315a.9.9 0 0 1 .357-.027c.238.276.496.533.773.77a.643.643 0 0 1-.015.132c-.12.577-.234 1.153-.339 1.732-.087.484.093.807.541.995.555.233 1.11.463 1.666.69.12.041.242.076.366.104.3-.02.527-.148.72-.432.342-.503.682-1.007 1.02-1.512a.42.42 0 0 1 .038-.05 7.303 7.303 0 0 0 1.135 0 .32.32 0 0 1 .035.045c.338.513.681 1.022 1.029 1.53.246.36.611.496 1.002.345a48.06 48.06 0 0 0 1.843-.765.769.769 0 0 0 .455-.866c-.112-.636-.243-1.268-.356-1.904a.192.192 0 0 1 0-.052c.28-.239.54-.5.778-.779a.52.52 0 0 1 .133.013c.577.12 1.153.23 1.732.338.491.09.819-.09 1.011-.547.228-.543.453-1.086.676-1.63.2-.486.086-.847-.353-1.144zM9 12.152a3.156 3.156 0 0 1-3.095-3.767 3.152 3.152 0 0 1 4.301-2.298 3.154 3.154 0 0 1 1.024 5.142 3.155 3.155 0 0 1-2.23.923z" fill="#F60"/></g><defs><clipPath id="clip0"><path fill="#fff" d="M0 0h18v18H0z"/></clipPath></defs></svg>