<svg width="19" height="18" fill="none" xmlns="http://www.w3.org/2000/svg"><path d="M9.491 2.322l.736-.797C11.378.292 12.826-.12 14.464.038c2.236.216 3.535 1.57 4.2 3.59.576 1.754.379 3.487-.342 5.17-.66 1.543-1.65 2.866-2.779 4.092-1.79 1.942-3.849 3.569-6.004 5.082a.44.44 0 0 1-.065.028c-.548-.404-1.114-.808-1.667-1.229-1.753-1.331-3.414-2.763-4.85-4.438C1.895 11.093.974 9.762.448 8.2c-.666-1.971-.635-3.916.403-5.765C1.52 1.242 2.513.395 3.884.132c1.922-.368 3.651 0 5.008 1.528.196.219.392.433.6.662z" fill="#F60"/></svg>