<svg width="104" height="42" fill="none" xmlns="http://www.w3.org/2000/svg"><rect width="104" height="42" rx="5" fill="#333"/><path fill-rule="evenodd" clip-rule="evenodd" d="M33.397 27.116c-.196.724-.476 1.1-1.377 1.308-1.997.381-3.994.48-5.992.48-1.996 0-3.994-.099-5.99-.48-.902-.208-1.182-.584-1.378-1.308-.395-2.027-.496-4.055-.495-6.082-.001-2.027.1-4.054.495-6.082.196-.724.476-1.1 1.377-1.308 1.998-.381 3.995-.48 5.992-.48 1.997 0 3.994.099 5.99.48.903.208 1.182.585 1.378 1.308.395 2.028.496 4.055.496 6.082s-.1 4.055-.496 6.082zm2.66-6.091a36.516 36.516 0 0 0-.579-6.452 3.706 3.706 0 0 0-2.905-2.978 36.529 36.529 0 0 0-6.53-.595h-.029a36.521 36.521 0 0 0-6.53.595 3.706 3.706 0 0 0-2.905 2.977A36.506 36.506 0 0 0 16 21.026v.017c.001 2.15.192 4.302.579 6.453a3.706 3.706 0 0 0 2.905 2.977c2.177.396 4.353.593 6.53.595h.029a36.492 36.492 0 0 0 6.53-.595 3.706 3.706 0 0 0 2.905-2.977c.387-2.151.578-4.302.579-6.453v-.018z" fill="#fff"/><path fill-rule="evenodd" clip-rule="evenodd" d="M31.126 24.382l-3.315-3.34 1.487-1.497a1.24 1.24 0 0 0 .29-.293l1.24-1.248c.312-.3.559-.6.559-1.032 0-.681-.552-1.234-1.233-1.234-.388 0-.703.194-.964.434l-.008.012-1.569 1.58-.005-.005-1.528 1.54-1.528-1.54-.006.006-1.568-1.58-.008-.008c-.305-.289-.576-.438-.964-.438-.68 0-1.233.552-1.233 1.233 0 .432.272.723.56 1.031l1.238 1.249c.08.113.178.212.291.293l1.487 1.498-3.315 3.339-.002-.007c-.171.212-.26.5-.26.794 0 .681.553 1.233 1.234 1.233.435 0 .752-.245 1.036-.566l1.186-1.196c.156-.096.29-.225.388-.378l1.464-1.475 1.464 1.475c.099.153.232.282.387.378l1.187 1.196c.274.272.601.566 1.036.566.681 0 1.233-.552 1.233-1.233a1.24 1.24 0 0 0-.254-.784l-.007-.003zm53.851 1.291a1.166 1.166 0 0 0-.07-.292.374.374 0 0 0-.116-.162.253.253 0 0 0-.153-.052h-5.113V21.78h4.417a.269.269 0 0 0 .153-.046.339.339 0 0 0 .116-.154 1.04 1.04 0 0 0 .07-.283 3.51 3.51 0 0 0 .023-.445c0-.174-.008-.32-.023-.441a1.08 1.08 0 0 0-.07-.288.377.377 0 0 0-.116-.158.253.253 0 0 0-.153-.051h-4.417V16.98H84.6a.235.235 0 0 0 .149-.051.397.397 0 0 0 .11-.163 1.15 1.15 0 0 0 .07-.292c.016-.121.024-.268.024-.441a3.7 3.7 0 0 0-.023-.46 1.228 1.228 0 0 0-.07-.297.358.358 0 0 0-.111-.162.25.25 0 0 0-.149-.047h-6.784a.76.76 0 0 0-.515.181c-.14.12-.21.318-.21.59v10.471c0 .273.07.47.21.59a.76.76 0 0 0 .515.18h6.821a.251.251 0 0 0 .153-.05.37.37 0 0 0 .116-.163c.031-.074.055-.171.07-.292.016-.12.023-.27.023-.45s-.007-.33-.023-.45zM73.14 15.995a1.937 1.937 0 0 0-.429-.298 4.25 4.25 0 0 0-.771-.32 7.817 7.817 0 0 0-1.087-.252 8.446 8.446 0 0 0-1.38-.104c-.92 0-1.753.141-2.502.424a5.302 5.302 0 0 0-1.916 1.222 5.451 5.451 0 0 0-1.227 1.939c-.289.76-.433 1.619-.433 2.575 0 .925.135 1.754.406 2.484a5.05 5.05 0 0 0 1.172 1.858 5.06 5.06 0 0 0 1.871 1.163c.737.268 1.571.402 2.503.402a10.023 10.023 0 0 0 2.787-.397c.288-.084.53-.165.726-.244.195-.078.325-.184.388-.32a1.11 1.11 0 0 0 .094-.473v-4.802c0-.12-.015-.227-.045-.32a.673.673 0 0 0-.13-.24.558.558 0 0 0-.456-.198h-3.94a.228.228 0 0 0-.145.05.387.387 0 0 0-.109.153c-.03.07-.052.161-.067.275a3.348 3.348 0 0 0-.023.424c0 .325.03.555.09.69.06.135.144.203.253.203h2.21v2.863a2.89 2.89 0 0 1-.722.27c-.258.06-.52.09-.785.09-.54 0-1.035-.086-1.483-.261a3.071 3.071 0 0 1-1.15-.775 3.57 3.57 0 0 1-.744-1.277c-.177-.508-.266-1.095-.266-1.763 0-.607.087-1.162.26-1.664.176-.502.425-.932.75-1.29a3.335 3.335 0 0 1 1.172-.83 3.863 3.863 0 0 1 1.534-.292c.528 0 .993.054 1.393.162.4.108.744.226 1.032.352.289.126.52.243.695.351.174.109.3.163.379.163.054 0 .1-.015.14-.045a.338.338 0 0 0 .099-.158c.027-.075.048-.176.063-.302.015-.127.022-.277.022-.451 0-.3-.018-.528-.054-.681a.743.743 0 0 0-.175-.356zm-19.332 6.47l1.685-5.068h.01l1.686 5.068h-3.382zm3.482-6.892a.887.887 0 0 0-.134-.276.476.476 0 0 0-.257-.152 2.317 2.317 0 0 0-.503-.065c-.215-.01-.504-.014-.866-.014-.313 0-.565.005-.756.014-.19.01-.339.03-.446.065a.458.458 0 0 0-.235.147.916.916 0 0 0-.129.253l-3.677 10.578c-.073.215-.12.387-.138.516-.018.13.003.23.064.3.062.07.172.115.332.133.16.019.381.028.664.028.264 0 .477-.006.64-.018.163-.013.289-.036.378-.07a.394.394 0 0 0 .193-.138.726.726 0 0 0 .097-.216l.756-2.332h4.478l.801 2.396c.025.08.056.145.093.194.037.049.1.087.193.115.092.027.226.046.401.055a14.682 14.682 0 0 0 1.442-.009c.172-.015.291-.055.36-.12.067-.064.092-.161.073-.29a3.195 3.195 0 0 0-.138-.525l-3.686-10.57zM46.076 19.75a1.904 1.904 0 0 1-.38.677 1.672 1.672 0 0 1-.645.441c-.264.105-.59.158-.98.158h-1.647v-4.075h1.59c.255 0 .5.017.74.05.237.035.465.117.681.247.217.13.4.33.548.603.149.273.223.62.223 1.04 0 .31-.043.596-.13.859zm1.885-3.389a3.244 3.244 0 0 0-.943-.728 4.094 4.094 0 0 0-1.09-.395 8.635 8.635 0 0 0-.924-.14 9.673 9.673 0 0 0-.812-.032h-3.383c-.247 0-.447.073-.598.218-.152.146-.228.364-.228.655v10.806c0 .061.019.117.056.167a.38.38 0 0 0 .195.12c.093.031.218.056.376.075.157.018.354.027.59.027.24 0 .439-.009.594-.027a1.96 1.96 0 0 0 .37-.075.422.422 0 0 0 .2-.12.26.26 0 0 0 .06-.167v-3.834h1.554c.792 0 1.48-.093 2.066-.279a4.052 4.052 0 0 0 1.48-.812c.403-.356.71-.794.92-1.314.21-.52.315-1.117.315-1.792 0-.488-.068-.93-.204-1.323a3.046 3.046 0 0 0-.594-1.03z" fill="#fff"/></svg>