<svg width="14" height="11" fill="none" xmlns="http://www.w3.org/2000/svg"><path d="M7.031 11a22.446 22.446 0 0 1-5.754-.78c-.488-.13-.762-.466-.867-.954a17.683 17.683 0 0 1-.385-4.7A17.21 17.21 0 0 1 .422 1.7c.109-.484.4-.789.881-.918a22.95 22.95 0 0 1 3.93-.704A21.412 21.412 0 0 1 12.838.8c.54.152.767.56.855 1.09.252 1.51.366 3.03.277 4.554-.057.962-.193 1.92-.32 2.876-.065.476-.373.773-.834.897-1.887.51-3.83.774-5.785.783zM5.496 5.5v1.4c0 .29-.003.58 0 .87.001.154.055.286.198.362.133.072.244.011.356-.062 1.12-.74 2.24-1.478 3.36-2.216.3-.198.3-.518.002-.714l-1.154-.755c-.741-.486-1.483-.972-2.226-1.457-.212-.138-.417-.087-.497.129a.738.738 0 0 0-.038.252c-.002.73-.001 1.46-.001 2.19z" fill="#fff"/></svg>