<svg width="14" height="13" viewBox="0 0 14 13" fill="none" xmlns="http://www.w3.org/2000/svg">
<path d="M6.9935 1.67667C7.18143 1.47765 7.35795 1.28889 7.536 1.10164C8.38401 0.211198 9.4505 -0.0864196 10.6574 0.0275615C12.3056 0.183155 13.2622 1.16104 13.7522 2.62078C14.1769 3.88724 14.0315 5.13892 13.5004 6.35442C13.0135 7.4683 12.2852 8.42387 11.4529 9.30948C10.1343 10.7122 8.61669 11.8867 7.02837 12.9795C7.01322 12.9875 6.99743 12.9944 6.98116 13C6.57691 12.7084 6.16031 12.4162 5.75235 12.1126C4.4609 11.151 3.23703 10.1167 2.17919 8.90723C1.39629 8.01197 0.718012 7.05007 0.330115 5.92201C-0.160544 4.49846 -0.138017 3.09389 0.626978 1.75839C1.12011 0.896894 1.85146 0.284773 2.8621 0.0954074C4.27822 -0.170549 5.55208 0.0954074 6.55191 1.19903C6.69633 1.35704 6.84106 1.51173 6.9935 1.67667Z" fill="#6B6B6B"/>
</svg>
