<svg width="227" height="90" fill="none" xmlns="http://www.w3.org/2000/svg"><path fill="#F60" d="M0 90h227V0H0z"/><path fill-rule="evenodd" clip-rule="evenodd" d="M187.898 37.863v-2.204c0-.016.001-.047.005-.093.004-.047.014-.078.029-.093a.269.269 0 0 1 .076-.018.971.971 0 0 1 .088-.005h.946c.04 0 .09.005.152.017a.234.234 0 0 1 .152.099.338.338 0 0 1 .071.209v.406c0 .077-.032.14-.094.185a.44.44 0 0 1-.164.035 2.54 2.54 0 0 1-.163.011h-.409c-.047 0-.1.008-.158.024-.058.016-.088.077-.088.185 0 .085.014.145.041.18.027.035.061.072.099.11l.947.952h.631l-1.063-1.068h.292a.864.864 0 0 0 .187-.023.486.486 0 0 0 .204-.104.586.586 0 0 0 .164-.25c.042-.112.064-.268.064-.47 0-.123-.015-.264-.047-.423a.568.568 0 0 0-.222-.366.468.468 0 0 0-.257-.104 3.673 3.673 0 0 0-.292-.012h-1.157a.953.953 0 0 0-.268.03.353.353 0 0 0-.152.086.232.232 0 0 0-.07.134.925.925 0 0 0-.012.145v2.425h.468zm.642.742c-.14 0-.284-.007-.432-.023a2.164 2.164 0 0 1-.438-.093 1.338 1.338 0 0 1-.754-.592 1.55 1.55 0 0 1-.233-.701 8.109 8.109 0 0 1-.024-1.137c.008-.143.028-.286.059-.43a1.9 1.9 0 0 1 .146-.423c.066-.14.157-.267.274-.383.117-.108.246-.192.386-.25.14-.058.282-.1.426-.127a2.65 2.65 0 0 1 .421-.047 8.822 8.822 0 0 1 .795.006 2 2 0 0 1 .426.07 1.36 1.36 0 0 1 .748.499c.078.108.14.23.187.365.047.135.082.272.105.412.023.139.039.276.047.412a6.034 6.034 0 0 1-.006.806 2.47 2.47 0 0 1-.082.476 2.12 2.12 0 0 1-.181.447 1.202 1.202 0 0 1-.304.365c-.101.077-.22.14-.356.186a2.534 2.534 0 0 1-.426.104 4.36 4.36 0 0 1-.427.047 6.105 6.105 0 0 1-.357.011zm.012.395a7.4 7.4 0 0 1-.485-.017 2.445 2.445 0 0 1-.496-.087 2.028 2.028 0 0 1-.474-.203 1.674 1.674 0 0 1-.426-.366 1.725 1.725 0 0 1-.275-.446 2.454 2.454 0 0 1-.146-.482 3.51 3.51 0 0 1-.059-.482 10.188 10.188 0 0 1-.011-.446c0-.132.004-.279.011-.441.008-.162.03-.33.065-.499.035-.17.089-.339.164-.504a1.49 1.49 0 0 1 .321-.459c.14-.139.29-.247.449-.324.16-.078.324-.134.491-.168.168-.035.337-.057.509-.064a11.651 11.651 0 0 1 .94-.006c.152.004.304.02.456.046.152.027.302.07.449.128.149.058.289.144.421.26.156.133.281.277.374.436.094.159.164.327.211.505a3.2 3.2 0 0 1 .093.545 6.021 6.021 0 0 1 0 1.073 3.821 3.821 0 0 1-.087.545 2.204 2.204 0 0 1-.193.517 1.517 1.517 0 0 1-.339.429c-.14.124-.3.22-.479.29-.179.07-.361.12-.543.15a4.254 4.254 0 0 1-.526.059 9.766 9.766 0 0 1-.415.011zM65.71 56v-5.47H53.777c-1.047 0-1.545-.28-1.545-1.35V34h-7.43v19.17c0 .912.494 1.73 1.02 2.138.624.503 1.611.692 2.498.692h17.39zm22.337-19.788C85.622 34.092 81.582 34 78.156 34c-3.427 0-7.467.092-9.892 2.212-2.457 2.15-2.554 5.898-2.554 8.785 0 2.827.097 6.605 2.554 8.786C70.656 55.908 74.794 56 78.156 56c3.36 0 7.499-.092 9.89-2.217 2.458-2.18 2.555-5.96 2.555-8.786 0-2.887-.097-6.635-2.554-8.785zM83.1 44.997c0 1.72 0 2.919-.84 4.086-1.003 1.413-2.199 1.566-4.106 1.566-1.842 0-3.136-.153-4.105-1.566-.743-1.075-.84-2.396-.84-4.086 0-1.782.031-2.95.84-4.086.97-1.413 2.23-1.566 4.105-1.566 1.907 0 3.103.153 4.106 1.566.873 1.199.84 2.212.84 4.086zM92.593 56h7.197V41.197c0-.535-.032-.974.414-1.384.318-.314.701-.345 1.115-.345h3.981c.668 0 1.465-.032 2.006.534.729.72.694 2.887.064 3.677-.51.598-1.37.66-2.006.66h-1.147c-1.847 0-3.216 1.007-3.216 2.483v.472c0 1.069.796 2.011 1.528 2.986l4.299 5.72h8.663l-6.369-6.695h.955c1.72 0 3.312-.785 4.14-2.734.764-1.791.828-4.4.828-5.406 0-1.665-.191-3.614-1.146-5.028C112.434 34 109.982 34 108.58 34H96.446c-.86 0-2.165.157-2.994 1.069-.796.88-.86 2.137-.86 3.142V56zm44.802 0v-5.343h-10.967c-.449 0-1.026.032-1.378-.283-.16-.125-.321-.377-.321-.817v-2.389h12.249v-4.777h-12.249v-1.665c0-.283 0-.786.352-1.07.257-.22.706-.313 1.123-.313h11.095V34H121.17c-.802 0-1.892.126-2.726.88-.833.755-.962 1.666-.962 2.514V52.48c0 1.037 0 1.917 1.027 2.766.866.691 1.795.754 2.725.754h16.161zm26.881-21.754h-5.668v12.81c0 .153 0 .521-.358.521-.261 0-.457-.306-.62-.522l-8.307-11.058c-1.401-1.874-3.584-1.997-4.822-1.997-2.639 0-5.115 1.014-5.115 3.809v17.94h5.669V43.001c0-.615.358-.615.456-.615.228 0 .456.307.619.523l8.242 10.966c1.434 1.91 3.226 2.125 4.952 2.125 4.789 0 4.952-3.076 4.952-3.844v-17.91zm18.575 2.394c-1.058-2.423-2.982-2.64-5.131-2.64-3.464 0-4.426 1.026-5.132 2.64L164.276 56h7.639l1.763-4.475h8.083L183.525 56h7.633l-8.307-19.36zm-7.441 9.913l2.021-5.5c.253-.611.324-.617.577 0l2.021 5.5h-4.619z" fill="#fff"/></svg>