<svg width="3355" height="525" fill="none" xmlns="http://www.w3.org/2000/svg"><path fill-rule="evenodd" clip-rule="evenodd" d="M461.039 516.246V389.971H197.896c-23.097 0-34.076-6.465-34.076-31.199V8.282H0V450.93c0 21.042 10.882 39.916 22.478 49.349 13.77 11.616 35.527 15.975 55.096 15.975h383.465v-.007z" fill="#282828"/><path d="M22.8 499.896l-.006-.006C11.307 490.547.5 471.813.5 450.929V8.782h162.82v349.99c0 12.426 2.756 20.41 8.556 25.258 5.776 4.829 14.453 6.441 26.02 6.441h262.643v125.282H77.574c-19.524 0-41.137-4.354-54.773-15.857z" stroke="#fff" stroke-opacity=".1"/><path fill-rule="evenodd" clip-rule="evenodd" d="M974.997 52.736C920.411 2.196 829.444 0 752.289 0 675.14 0 584.166 2.196 529.573 52.736c-55.318 51.262-57.493 140.623-57.493 209.468 0 67.386 2.182 157.47 57.493 209.476 53.854 50.659 147.011 52.855 222.716 52.855 75.684 0 168.854-2.196 222.708-52.855 55.323-51.999 57.503-142.09 57.503-209.476 0-68.852-2.18-158.213-57.503-209.468zM863.643 262.197c0 41.011 0 69.582-18.923 97.41-22.569 33.699-49.503 37.348-92.438 37.348-41.485 0-70.602-3.649-92.432-37.348-16.74-25.632-18.922-57.121-18.922-97.41 0-42.477.718-70.325 18.922-97.416 21.83-33.693 50.215-37.348 92.432-37.348 42.935 0 69.862 3.662 92.438 37.348 19.655 28.571 18.923 52.743 18.923 97.416z" fill="#282828"/><path d="M974.655 471.316l.342.364-.343-.364c-26.825 25.234-63.471 38.422-102.911 45.296-39.437 6.873-81.611 7.423-119.454 7.423-37.854 0-80.03-.55-119.466-7.423-39.439-6.873-76.081-20.062-102.907-45.296l-.343.364.343-.364c-27.551-25.905-41.892-61.313-49.341-98.704-7.448-37.391-7.995-76.714-7.995-110.408 0-34.423.545-73.93 7.993-111.23 7.447-37.298 21.788-72.34 49.34-97.871 27.197-25.179 63.482-38.337 102.646-45.195C671.722 1.05 713.713.5 752.289.5c38.579 0 80.569.55 119.731 7.408 39.162 6.858 75.443 20.016 102.637 45.194 27.553 25.53 41.893 60.569 49.343 97.867 7.46 37.3 8 76.808 8 111.235 0 33.694-.54 73.018-8 110.411-7.45 37.391-21.79 72.8-49.345 98.701zm-168.354-79.925c15.036-5.164 27.496-14.576 38.834-31.505 19.008-27.954 19.008-56.665 19.008-97.598v-.091l.002-4.704c.025-41.68.039-65.298-19.011-92.992-11.341-16.922-23.801-26.334-38.836-31.499-15.008-5.157-32.549-6.069-54.016-6.069-21.109 0-38.834.911-54.022 6.065-15.214 5.164-27.855 14.575-38.827 31.507-18.3 27.234-19.005 55.237-19.005 97.692 0 40.278 2.172 71.911 19.003 97.681 10.973 16.941 23.8 26.352 39.105 31.514 15.278 5.153 33.002 6.063 53.746 6.063 21.467 0 39.01-.909 54.019-6.064z" stroke="#fff" stroke-opacity=".1"/><path fill-rule="evenodd" clip-rule="evenodd" d="M1090.49 516.253h164.87V174.456c0-12.346-.72-22.495 9.49-31.943 7.28-7.25 16.05-7.973 25.53-7.973h91.18c15.32 0 33.56-.737 45.97 12.332 16.68 16.629 15.88 66.646 1.46 84.902-11.68 13.792-31.37 15.238-45.96 15.238h-26.26c-42.32 0-73.68 23.233-73.68 57.331v10.893c0 24.672 18.24 46.438 35.01 68.934l98.48 132.083h198.44l-145.9-154.579H1491c39.4 0 75.86-18.137 94.83-63.129 17.51-41.363 18.97-101.6 18.97-124.818 0-38.457-4.38-83.45-26.26-116.108-33.56-49.337-89.73-49.337-121.83-49.337h-277.96c-19.7 0-49.59 3.629-68.57 24.672-18.23 20.32-19.7 49.35-19.7 72.569v410.73h.01z" fill="#282828"/><path d="M1429.37 232.097v-.007l.01-.006c3.67-4.642 6.44-11.267 8.3-18.82 1.85-7.56 2.79-16.085 2.74-24.554-.04-8.468-1.05-16.895-3.12-24.259-2.05-7.354-5.16-13.687-9.42-17.928-6.29-6.631-14.06-9.749-22.15-11.21-7.27-1.313-14.83-1.294-21.84-1.277-.78.002-1.56.004-2.33.004h-91.18c-9.49 0-18.44.715-25.88 8.112-9.73 9.004-9.69 18.683-9.64 29.972v343.629h-163.88v-410.23c0-23.233 1.48-52.074 19.57-72.235 18.83-20.874 48.53-24.506 68.2-24.506h277.96c32.13 0 88.02.025 121.42 49.117 21.79 32.526 26.17 77.383 26.17 115.828 0 23.226-1.47 83.366-18.93 124.623v.001c-18.88 44.783-55.15 62.823-94.37 62.823h-23.04l.79.843 145.11 153.736h-197.03l-98.33-131.882c-1.51-2.027-3.03-4.047-4.55-6.062-6.92-9.183-13.77-18.271-19.22-27.543-6.63-11.3-11.14-22.819-11.14-35.03v-10.893c0-33.707 31.01-56.831 73.18-56.831h26.26c14.57 0 34.5-1.428 46.34-15.415z" stroke="#fff" stroke-opacity=".1"/><path fill-rule="evenodd" clip-rule="evenodd" d="M2120.23 516.253V392.882h-249.35c-10.21 0-23.33.73-31.35-6.528-3.64-2.898-7.29-8.71-7.29-18.866v-55.155h278.51V202.025h-278.51v-38.45c0-6.535 0-18.137 8.01-24.678 5.84-5.082 16.05-7.258 25.52-7.258h252.27V8.282h-366.72c-18.24 0-43.02 2.906-61.98 20.327-18.95 17.414-21.87 38.45-21.87 58.04V434.98c0 23.942 0 44.261 23.34 63.851 19.69 15.975 40.82 17.421 61.97 17.421h367.45z" fill="#282828"/><path d="M1832.24 311.833h-.5v55.655c0 10.272 3.69 16.236 7.47 19.248 4.12 3.719 9.51 5.369 15.11 6.1 4.68.61 9.56.582 14 .556.87-.005 1.73-.01 2.56-.01h248.85v122.371h-366.95c-21.13 0-42.11-1.45-61.65-17.307-11.6-9.731-17.37-19.622-20.26-30.041-2.9-10.444-2.9-21.439-2.9-33.424V86.648c0-19.54 2.91-40.4 21.71-57.671 18.82-17.29 43.44-20.195 61.64-20.195h366.22V131.14h-251.77c-9.51 0-19.86 2.178-25.84 7.375-4.12 3.367-6.16 8.02-7.17 12.617-1.02 4.588-1.02 9.167-1.02 12.429v38.965h278.51v109.308h-278.01z" stroke="#fff" stroke-opacity=".1"/><path fill-rule="evenodd" clip-rule="evenodd" d="M2727.58 5.859h-127v305.414c0 3.663 0 12.447-8.03 12.447-5.84 0-10.23-7.318-13.87-12.447L2392.56 47.606C2361.16 2.926 2312.26 0 2284.52 0c-59.12 0-114.6 24.171-114.6 90.813v427.744h127.01V214.602c0-14.65 8.03-14.65 10.21-14.65 5.11 0 10.22 7.318 13.87 12.454l184.68 261.471c32.11 45.536 72.25 50.658 110.94 50.658 107.3 0 110.94-73.349 110.94-91.662V5.859h.01z" fill="#282828"/><path d="M2296.43 214.602v303.455h-126.01V90.812c0-33.157 13.79-55.704 34.91-69.982C2226.48 6.533 2255.02.5 2284.52.5c27.72 0 76.39 2.933 107.63 47.393v.001l186.12 263.667v.002c.38.535.77 1.099 1.17 1.678 1.51 2.163 3.16 4.545 4.98 6.518 2.31 2.498 4.99 4.461 8.13 4.461 2.11 0 3.72-.578 4.95-1.535 1.22-.953 2.02-2.253 2.54-3.638 1.04-2.74 1.04-5.925 1.04-7.748V6.359h125.99v426.514c0 9.129-.91 31.916-15.14 52.413-14.21 20.464-41.77 38.749-95.3 38.749-19.32 0-38.96-1.281-57.76-8.222-18.79-6.937-36.77-19.537-52.78-42.224v-.001l-184.67-261.471v-.001l-.19-.271c-1.79-2.508-3.93-5.523-6.25-7.938-2.38-2.481-5.06-4.455-7.84-4.455h-.01c-1.1 0-3.81 0-6.23 1.941-2.44 1.961-4.47 5.798-4.47 13.209z" stroke="#fff" stroke-opacity=".1"/><path fill-rule="evenodd" clip-rule="evenodd" d="M3162.97 61.972C3138.95 5.1 3095.28 0 3046.5 0c-78.61 0-100.46 24.064-116.46 61.972l-188.65 454.281h173.37l40.02-105.001h183.45l40.02 105.001h173.25l-188.53-454.28zm-168.89 232.606l45.87-129.064c5.74-14.355 7.35-14.481 13.1 0l45.87 129.064h-104.84z" fill="#282828"/><path d="M2954.78 410.752h-.34l-.13.322-39.9 104.679h-172.27L2930.5 62.167c7.99-18.915 17.4-34.297 34.56-44.972C2982.23 6.512 3007.24.5 3046.5.5c24.39 0 47.41 1.278 67.32 9.62 19.89 8.329 36.72 23.72 48.69 52.047l188.24 453.586H3178.6l-39.91-104.679-.12-.322h-183.79zm38.83-116.341l-.24.667h106.26l-.24-.667-45.87-129.065v-.009l-.01-.008c-1.43-3.619-2.63-6.358-3.7-8.195-.53-.917-1.05-1.638-1.58-2.133-.53-.497-1.1-.806-1.74-.801-.63.006-1.21.324-1.73.826-.53.501-1.05 1.225-1.58 2.144-1.07 1.84-2.26 4.571-3.69 8.158v.009l-.01.009-45.87 129.065z" stroke="#fff" stroke-opacity=".1"/></svg>