<svg width="32" height="32" fill="none" xmlns="http://www.w3.org/2000/svg"><rect width="32" height="32" rx="16" fill="red"/><path d="M14.771 19.695c-.13.76-.275 1.595-.417 2.43-.109.643-.204 1.287-.321 1.927-.094.507-.498.849-.952.832-.465-.013-.914-.403-.908-.874.008-.42.117-.839.187-1.257l.82-4.812c.254-1.49.505-2.978.756-4.467.056-.33.107-.662.156-.995.082-.55.565-.929 1.082-.845.545.087.867.586.782 1.145-.234 1.55-.368 3.103-.035 4.658.03.134.07.267.116.397.52 1.494 2.23 1.912 3.422.838.528-.476.84-1.08 1.052-1.74a7.844 7.844 0 0 0 .25-3.808c-.267-1.525-1.196-2.517-2.668-3.019a8.392 8.392 0 0 0-3.9-.362c-1.58.22-2.663 1.129-3.28 2.544-.712 1.632-.61 3.296-.095 4.96.076.245.182.482.258.727a.9.9 0 0 1-.043.677.925.925 0 0 1-.506.461.923.923 0 0 1-.693-.007.9.9 0 0 1-.485-.485c-.86-2.11-1.126-4.278-.377-6.459.827-2.406 2.521-3.922 5.123-4.252 1.896-.238 3.764 0 5.495.866 1.755.88 2.727 2.343 3.032 4.22.288 1.77.121 3.51-.592 5.176-.386.902-.96 1.67-1.798 2.224-1.48.978-3.478.906-4.79-.166-.223-.18-.45-.358-.67-.534z" fill="#fff"/></svg>